<svg width="16" height="16" viewBox="0 0 16 16" fill="none" xmlns="http://www.w3.org/2000/svg">
<path d="M8 0C8.55313 0 9 0.446875 9 1V1.325C11.9281 1.75938 14.2406 4.075 14.675 7H15C15.5531 7 16 7.44687 16 8C16 8.55313 15.5531 9 15 9H14.675C14.2406 11.9281 11.925 14.2406 9 14.675V15C9 15.5531 8.55313 16 8 16C7.44687 16 7 15.5531 7 15V14.675C4.07188 14.2406 1.75938 11.9281 1.325 9H1C0.446875 9 0 8.55313 0 8C0 7.44687 0.446875 7 1 7H1.325C1.75938 4.07188 4.07188 1.75938 7 1.325V1C7 0.446875 7.44687 0 8 0ZM3.35625 9C3.74688 10.8219 5.18125 12.2531 7 12.6438V12C7 11.4469 7.44687 11 8 11C8.55313 11 9 11.4469 9 12V12.6438C10.8219 12.2531 12.2531 10.8188 12.6438 9H12C11.4469 9 11 8.55313 11 8C11 7.44687 11.4469 7 12 7H12.6438C12.2531 5.17813 10.8219 3.74688 9 3.35625V4C9 4.55313 8.55313 5 8 5C7.44687 5 7 4.55313 7 4V3.35625C5.17813 3.74688 3.74688 5.17813 3.35625 7H4C4.55313 7 5 7.44687 5 8C5 8.55313 4.55313 9 4 9H3.35625ZM8 7C8.26522 7 8.51957 7.10536 8.70711 7.29289C8.89464 7.48043 9 7.73478 9 8C9 8.26522 8.89464 8.51957 8.70711 8.70711C8.51957 8.89464 8.26522 9 8 9C7.73478 9 7.48043 8.89464 7.29289 8.70711C7.10536 8.51957 7 8.26522 7 8C7 7.73478 7.10536 7.48043 7.29289 7.29289C7.48043 7.10536 7.73478 7 8 7Z" fill="black"/>
</svg>
