<svg width="16" height="13" viewBox="0 0 16 13" fill="none" xmlns="http://www.w3.org/2000/svg">
<path d="M7.99861 0C5.75436 0 3.9573 1.06786 2.64908 2.33884C1.34919 3.59821 0.479819 5.10714 0.068744 6.14308C-0.0229147 6.37232 -0.0229147 6.62768 0.068744 6.85692C0.479819 7.89286 1.34919 9.40179 2.64908 10.6612C3.9573 11.9321 5.75436 13 7.99861 13C10.2429 13 12.0399 11.9321 13.3481 10.6612C14.648 9.39888 15.5174 7.89286 15.9313 6.85692C16.0229 6.62768 16.0229 6.37232 15.9313 6.14308C15.5174 5.10714 14.648 3.59821 13.3481 2.33884C12.0399 1.06786 10.2429 0 7.99861 0ZM3.99896 6.5C3.99896 5.39177 4.42035 4.32894 5.17043 3.5453C5.92051 2.76167 6.93784 2.32143 7.99861 2.32143C9.05939 2.32143 10.0767 2.76167 10.8268 3.5453C11.5769 4.32894 11.9983 5.39177 11.9983 6.5C11.9983 7.60823 11.5769 8.67106 10.8268 9.4547C10.0767 10.2383 9.05939 10.6786 7.99861 10.6786C6.93784 10.6786 5.92051 10.2383 5.17043 9.4547C4.42035 8.67106 3.99896 7.60823 3.99896 6.5ZM7.99861 4.64286C7.99861 5.66719 7.20146 6.5 6.22099 6.5C6.02378 6.5 5.83491 6.46518 5.65715 6.40424C5.50438 6.35201 5.32662 6.45067 5.33218 6.61897C5.34051 6.8192 5.36828 7.01942 5.42106 7.21964C5.80158 8.70536 7.26534 9.5875 8.68744 9.18996C10.1095 8.79241 10.9539 7.26317 10.5734 5.77746C10.2651 4.57321 9.24573 3.76362 8.11249 3.71429C7.95139 3.70848 7.85696 3.89129 7.90695 4.05379C7.96528 4.23951 7.99861 4.43683 7.99861 4.64286Z" fill="black"/>
</svg>
