<svg width="16" height="14" viewBox="0 0 16 14" fill="none" xmlns="http://www.w3.org/2000/svg">
<path d="M3.6 0C4.13043 0 4.63914 0.230468 5.01421 0.640704C5.38929 1.05094 5.6 1.60734 5.6 2.1875C5.6 2.76766 5.38929 3.32406 5.01421 3.7343C4.63914 4.14453 4.13043 4.375 3.6 4.375C3.06957 4.375 2.56086 4.14453 2.18579 3.7343C1.81071 3.32406 1.6 2.76766 1.6 2.1875C1.6 1.60734 1.81071 1.05094 2.18579 0.640704C2.56086 0.230468 3.06957 0 3.6 0ZM12.8 0C13.3304 0 13.8391 0.230468 14.2142 0.640704C14.5893 1.05094 14.8 1.60734 14.8 2.1875C14.8 2.76766 14.5893 3.32406 14.2142 3.7343C13.8391 4.14453 13.3304 4.375 12.8 4.375C12.2696 4.375 11.7609 4.14453 11.3858 3.7343C11.0107 3.32406 10.8 2.76766 10.8 2.1875C10.8 1.60734 11.0107 1.05094 11.3858 0.640704C11.7609 0.230468 12.2696 0 12.8 0ZM0 8.16758C0 6.55703 1.195 5.25 2.6675 5.25H3.735C4.1325 5.25 4.51 5.3457 4.85 5.51523C4.8175 5.71211 4.8025 5.91719 4.8025 6.125C4.8025 7.16953 5.2225 8.10742 5.885 8.75C5.88 8.75 5.875 8.75 5.8675 8.75H0.5325C0.24 8.75 0 8.4875 0 8.16758ZM10.1325 8.75C10.1275 8.75 10.1225 8.75 10.115 8.75C10.78 8.10742 11.1975 7.16953 11.1975 6.125C11.1975 5.91719 11.18 5.71484 11.15 5.51523C11.49 5.34297 11.8675 5.25 12.265 5.25H13.3325C14.805 5.25 16 6.55703 16 8.16758C16 8.49023 15.76 8.75 15.4675 8.75H10.135H10.1325ZM5.6 6.125C5.6 5.42881 5.85286 4.76113 6.30294 4.26884C6.75303 3.77656 7.36348 3.5 8 3.5C8.63652 3.5 9.24697 3.77656 9.69706 4.26884C10.1471 4.76113 10.4 5.42881 10.4 6.125C10.4 6.82119 10.1471 7.48887 9.69706 7.98116C9.24697 8.47344 8.63652 8.75 8 8.75C7.36348 8.75 6.75303 8.47344 6.30294 7.98116C5.85286 7.48887 5.6 6.82119 5.6 6.125ZM3.2 13.2699C3.2 11.2574 4.6925 9.625 6.5325 9.625H9.465C11.3075 9.625 12.8 11.2574 12.8 13.2699C12.8 13.6719 12.5025 14 12.1325 14H3.865C3.4975 14 3.1975 13.6746 3.1975 13.2699H3.2Z" fill="black"/>
</svg>
