<svg width="302" height="27" viewBox="0 0 302 27" fill="none" xmlns="http://www.w3.org/2000/svg">
<path d="M0 6C0 2.68629 2.68629 0 6 0H296C299.314 0 302 2.68629 302 6V27H0V6Z" fill="#0F0F0F"/>
<path d="M36.795 18.5L36.525 16.145H33.285L32.07 18.5H29.85L35.13 8.45L37.365 8.255L38.985 18.5H36.795ZM34.05 14.6H36.375L36.105 12.59L35.955 10.775H35.925L35.07 12.65L34.05 14.6ZM42.7423 10.805C42.4123 10.805 42.1373 10.705 41.9173 10.505C41.6973 10.305 41.5873 10.05 41.5873 9.74C41.5873 9.37 41.7173 9.06 41.9773 8.81C42.2373 8.56 42.5573 8.435 42.9373 8.435C43.2573 8.435 43.5223 8.54 43.7323 8.75C43.9423 8.95 44.0473 9.205 44.0473 9.515C44.0473 9.885 43.9223 10.195 43.6723 10.445C43.4223 10.685 43.1123 10.805 42.7423 10.805ZM45.3223 15.875L45.9523 16.58C44.9823 17.98 43.8423 18.68 42.5323 18.68C41.8123 18.68 41.3073 18.47 41.0173 18.05C40.7273 17.62 40.6523 16.955 40.7923 16.055L41.4673 11.87L43.4923 11.675L42.8323 15.785C42.7523 16.295 42.7573 16.66 42.8473 16.88C42.9373 17.09 43.1373 17.195 43.4473 17.195C44.1873 17.185 44.8123 16.745 45.3223 15.875ZM58.7747 15.875L59.3897 16.58C58.4497 17.98 57.3747 18.68 56.1647 18.68C55.5647 18.68 55.1297 18.505 54.8597 18.155C54.5997 17.795 54.5247 17.275 54.6347 16.595L55.0247 14.27C55.1347 13.55 54.9247 13.19 54.3947 13.19C53.9647 13.19 53.4047 13.44 52.7147 13.94L51.9947 18.5H49.9997L50.6747 14.27C50.7947 13.55 50.5897 13.19 50.0597 13.19C49.6197 13.19 49.0497 13.445 48.3497 13.955L47.6297 18.5H45.6347L46.6847 11.87L48.7097 11.675L48.5447 12.665C49.5247 12.005 50.3847 11.675 51.1247 11.675C52.0247 11.675 52.5597 12.045 52.7297 12.785C53.7797 12.045 54.6947 11.675 55.4747 11.675C56.0947 11.675 56.5447 11.865 56.8247 12.245C57.1147 12.615 57.2047 13.14 57.0947 13.82L56.7047 16.175C56.5947 16.855 56.7347 17.195 57.1247 17.195C57.3947 17.195 57.6797 17.075 57.9797 16.835C58.2797 16.595 58.5447 16.275 58.7747 15.875ZM64.1099 15.875L64.7249 16.58C63.7749 17.98 62.6299 18.68 61.2899 18.68C60.5399 18.68 60.0149 18.47 59.7149 18.05C59.4149 17.62 59.3349 16.955 59.4749 16.055L60.7499 8L62.7749 7.82L61.5149 15.785C61.4349 16.285 61.4449 16.645 61.5449 16.865C61.6549 17.085 61.8749 17.195 62.2049 17.195C62.5749 17.185 62.9249 17.065 63.2549 16.835C63.5949 16.595 63.8799 16.275 64.1099 15.875ZM73.3448 15.875L73.9748 16.58C73.2948 17.66 72.4598 18.27 71.4698 18.41C70.8998 18.5 70.2998 18.425 69.6698 18.185C69.0798 18.515 68.4098 18.68 67.6598 18.68C66.7398 18.68 66.0398 18.445 65.5598 17.975C65.0798 17.495 64.8398 16.795 64.8398 15.875C64.8598 14.655 65.2398 13.655 65.9798 12.875C66.7298 12.085 67.6998 11.69 68.8898 11.69C69.8098 11.69 70.5098 11.93 70.9898 12.41C71.4798 12.89 71.7248 13.585 71.7248 14.495C71.7248 15.605 71.4148 16.525 70.7948 17.255C71.0248 17.345 71.2648 17.375 71.5148 17.345C72.1748 17.245 72.7848 16.755 73.3448 15.875ZM67.8398 17.165C68.3698 17.175 68.8148 16.93 69.1748 16.43C69.5348 15.92 69.7148 15.285 69.7148 14.525C69.7148 13.655 69.3848 13.22 68.7248 13.22C68.1848 13.22 67.7398 13.475 67.3898 13.985C67.0498 14.495 66.8748 15.125 66.8648 15.875C66.8548 16.735 67.1798 17.165 67.8398 17.165ZM77.4456 18.68C76.3156 18.68 75.4656 18.41 74.8956 17.87C74.3356 17.32 74.0656 16.525 74.0856 15.485C74.1056 14.355 74.4606 13.44 75.1506 12.74C75.8406 12.03 76.7306 11.675 77.8206 11.675C78.7706 11.675 79.4306 11.945 79.8006 12.485C80.1806 13.025 80.1856 13.72 79.8156 14.57L78.2556 14.21C78.3856 13.9 78.3956 13.65 78.2856 13.46C78.1756 13.26 77.9706 13.16 77.6706 13.16C77.2206 13.16 76.8456 13.375 76.5456 13.805C76.2456 14.225 76.0956 14.755 76.0956 15.395C76.0956 16.675 76.7406 17.315 78.0306 17.315C79.3406 17.315 80.3206 16.835 80.9706 15.875L81.5856 16.58C80.6356 17.98 79.2556 18.68 77.4456 18.68ZM89.4161 15.875L90.0461 16.58C89.0961 17.98 88.0561 18.68 86.9261 18.68C86.2761 18.68 85.7361 18.415 85.3061 17.885C84.8861 17.355 84.5961 16.62 84.4361 15.68C84.2961 15.73 84.0511 15.79 83.7011 15.86L83.2961 18.5H81.2861L82.9661 8L84.9911 7.82L83.9561 14.315C84.4661 14.135 84.9461 13.83 85.3961 13.4C85.8461 12.96 86.2161 12.45 86.5061 11.87H88.5761C87.9461 13.21 87.1261 14.215 86.1161 14.885C86.3761 16.445 86.8811 17.225 87.6311 17.225C88.2611 17.225 88.8561 16.775 89.4161 15.875Z" fill="white"/>
</svg>
