<svg width="302" height="27" viewBox="0 0 302 27" fill="none" xmlns="http://www.w3.org/2000/svg">
<path d="M0 6C0 2.68629 2.68629 0 6 0H296C299.314 0 302 2.68629 302 6V27H0V6Z" fill="#0F0F0F"/>
<path d="M30.645 18.5L32.22 8.45H38.745L38.475 10.205H33.945L33.585 12.59H37.86L37.59 14.255H33.315L32.94 16.745H37.575L37.305 18.5H30.645ZM43.5068 18.68C41.7568 18.68 40.5168 18.055 39.7868 16.805L41.1968 15.62C41.7868 16.48 42.5768 16.915 43.5668 16.925C44.1068 16.925 44.5418 16.815 44.8718 16.595C45.2118 16.375 45.3818 16.08 45.3818 15.71C45.3818 15.49 45.2818 15.28 45.0818 15.08C44.8818 14.88 44.6468 14.715 44.3768 14.585C44.1068 14.445 43.7268 14.265 43.2368 14.045C43.1968 14.025 43.1618 14.01 43.1318 14C43.1118 13.99 43.0868 13.98 43.0568 13.97C42.2668 13.62 41.6918 13.215 41.3318 12.755C40.9718 12.285 40.8018 11.72 40.8218 11.06C40.8418 10.2 41.1568 9.52 41.7668 9.02C42.3768 8.52 43.2068 8.27 44.2568 8.27C45.8368 8.27 46.9418 8.825 47.5718 9.935L46.1318 10.985C45.7018 10.345 45.0868 10.025 44.2868 10.025C43.3468 10.025 42.8668 10.36 42.8468 11.03C42.8468 11.4 43.0168 11.715 43.3568 11.975C43.7068 12.225 44.2868 12.53 45.0968 12.89C46.6768 13.56 47.4518 14.525 47.4218 15.785C47.4018 16.665 47.0368 17.37 46.3268 17.9C45.6168 18.42 44.6768 18.68 43.5068 18.68ZM54.3073 8.45C55.5873 8.45 56.5073 8.69 57.0673 9.17C57.6273 9.65 57.9073 10.35 57.9073 11.27C57.9073 12.51 57.4773 13.495 56.6173 14.225C55.7673 14.955 54.6273 15.32 53.1973 15.32H51.8323L51.3373 18.5H49.3423L50.9173 8.45H54.3073ZM53.2573 13.655C54.0673 13.655 54.7023 13.47 55.1623 13.1C55.6323 12.73 55.8673 12.205 55.8673 11.525C55.8673 11.035 55.7173 10.685 55.4173 10.475C55.1273 10.265 54.6273 10.16 53.9173 10.16H52.6423L52.1023 13.655H53.2573Z" fill="white"/>
</svg>
