<svg width="302" height="27" viewBox="0 0 302 27" fill="none" xmlns="http://www.w3.org/2000/svg">
<path d="M0 6C0 2.68629 2.68629 0 6 0H296C299.314 0 302 2.68629 302 6V27H0V6Z" fill="#0F0F0F"/>
<path d="M32.985 16.7H37.59L37.32 18.5H30.645L32.22 8.45L34.29 8.27L32.985 16.7ZM41.2516 10.805C40.9216 10.805 40.6466 10.705 40.4266 10.505C40.2066 10.305 40.0966 10.05 40.0966 9.74C40.0966 9.37 40.2266 9.06 40.4866 8.81C40.7466 8.56 41.0666 8.435 41.4466 8.435C41.7666 8.435 42.0316 8.54 42.2416 8.75C42.4516 8.95 42.5566 9.205 42.5566 9.515C42.5566 9.885 42.4316 10.195 42.1816 10.445C41.9316 10.685 41.6216 10.805 41.2516 10.805ZM43.8316 15.875L44.4616 16.58C43.4916 17.98 42.3516 18.68 41.0416 18.68C40.3216 18.68 39.8166 18.47 39.5266 18.05C39.2366 17.62 39.1616 16.955 39.3016 16.055L39.9766 11.87L42.0016 11.675L41.3416 15.785C41.2616 16.295 41.2666 16.66 41.3566 16.88C41.4466 17.09 41.6466 17.195 41.9566 17.195C42.6966 17.185 43.3216 16.745 43.8316 15.875ZM47.5341 18.68C46.8541 18.68 46.2641 18.565 45.7641 18.335L46.0191 16.94C46.4891 17.17 46.9241 17.285 47.3241 17.285C47.7341 17.285 48.0541 17.19 48.2841 17C48.5141 16.81 48.6291 16.545 48.6291 16.205C48.6291 15.955 48.5541 15.695 48.4041 15.425C48.2541 15.155 48.0841 14.915 47.8941 14.705C47.7141 14.495 47.5341 14.22 47.3541 13.88C47.1741 13.54 47.0641 13.185 47.0241 12.815H46.9941C46.8341 13.135 46.5841 13.745 46.2441 14.645C45.9041 15.545 45.6041 16.19 45.3441 16.58L44.7141 15.875C44.8941 15.585 45.1741 14.94 45.5541 13.94C45.9441 12.93 46.3341 12.175 46.7241 11.675L48.7641 11.465C48.7341 11.915 48.7791 12.325 48.8991 12.695C49.0191 13.065 49.1741 13.38 49.3641 13.64C49.5641 13.89 49.7641 14.135 49.9641 14.375C50.1641 14.615 50.3341 14.89 50.4741 15.2C50.6141 15.5 50.6841 15.825 50.6841 16.175C50.6841 16.625 50.5941 17.015 50.4141 17.345C51.3441 17.285 52.0991 16.795 52.6791 15.875L53.2941 16.58C52.7741 17.33 52.1891 17.845 51.5391 18.125C50.8991 18.405 50.0941 18.505 49.1241 18.425C48.6741 18.595 48.1441 18.68 47.5341 18.68ZM58.1732 15.875L58.7882 16.58C57.8482 17.98 56.6982 18.68 55.3382 18.68C54.6082 18.68 54.0882 18.47 53.7782 18.05C53.4782 17.63 53.3982 16.965 53.5382 16.055L54.0032 13.115H53.0732L53.2682 11.87H54.2132L54.5732 9.605L56.5832 9.425L56.1932 11.87H57.6032L57.4082 13.115H55.9982L55.5782 15.8C55.5082 16.31 55.5232 16.67 55.6232 16.88C55.7332 17.09 55.9482 17.195 56.2682 17.195C57.0182 17.175 57.6532 16.735 58.1732 15.875ZM61.3331 18.68C60.5931 18.68 60.0231 18.455 59.6231 18.005C59.2331 17.545 59.0381 16.88 59.0381 16.01C59.0381 14.72 59.4031 13.675 60.1331 12.875C60.8631 12.075 61.8331 11.675 63.0431 11.675C63.4531 11.675 63.9431 11.74 64.5131 11.87L66.4331 11.675L65.7131 16.13C65.6531 16.51 65.6531 16.785 65.7131 16.955C65.7731 17.115 65.9081 17.195 66.1181 17.195C66.3881 17.195 66.6781 17.075 66.9881 16.835C67.3081 16.585 67.5781 16.265 67.7981 15.875L68.4131 16.58C67.4731 17.98 66.4031 18.68 65.2031 18.68C64.3931 18.68 63.9181 18.32 63.7781 17.6C63.0481 18.32 62.2331 18.68 61.3331 18.68ZM62.0531 17.195C62.6031 17.195 63.1481 16.91 63.6881 16.34L64.1681 13.31C63.8981 13.26 63.5931 13.235 63.2531 13.235C62.5631 13.235 62.0231 13.475 61.6331 13.955C61.2531 14.425 61.0631 15.075 61.0631 15.905C61.0631 16.765 61.3931 17.195 62.0531 17.195ZM81.4198 15.875L82.0498 16.58C81.5998 17.26 81.0948 17.78 80.5348 18.14C79.9748 18.5 79.4048 18.68 78.8248 18.68C78.0048 18.68 77.5298 18.32 77.3998 17.6C76.6798 18.32 75.8648 18.68 74.9548 18.68C73.4248 18.68 72.6598 17.79 72.6598 16.01C72.6598 14.72 73.0198 13.675 73.7398 12.875C74.4698 12.075 75.4398 11.675 76.6498 11.675C77.0498 11.675 77.5098 11.73 78.0298 11.84L78.6448 8L80.6698 7.82L79.3348 16.13C79.2748 16.51 79.2748 16.785 79.3348 16.955C79.3948 17.115 79.5298 17.195 79.7398 17.195C80.0098 17.195 80.2998 17.075 80.6098 16.835C80.9298 16.585 81.1998 16.265 81.4198 15.875ZM77.2948 16.37L77.8048 13.25C77.4348 13.2 77.1348 13.175 76.9048 13.175C76.2048 13.175 75.6598 13.425 75.2698 13.925C74.8798 14.415 74.6848 15.08 74.6848 15.92C74.6848 16.37 74.7598 16.7 74.9098 16.91C75.0698 17.12 75.3198 17.225 75.6598 17.225C76.2098 17.225 76.7548 16.94 77.2948 16.37ZM89.1899 15.875L89.8199 16.58C88.8599 17.98 87.4799 18.68 85.6799 18.68C84.5899 18.68 83.7499 18.41 83.1599 17.87C82.5799 17.33 82.2899 16.565 82.2899 15.575C82.2899 14.435 82.6349 13.5 83.3249 12.77C84.0149 12.04 84.8999 11.675 85.9799 11.675C86.7299 11.675 87.3249 11.855 87.7649 12.215C88.2149 12.565 88.4349 13.04 88.4249 13.64C88.4149 14.4 88.0649 15.015 87.3749 15.485C86.6849 15.945 85.7599 16.185 84.5999 16.205C84.7099 16.545 84.9149 16.815 85.2149 17.015C85.5149 17.215 85.8799 17.315 86.3099 17.315C87.5999 17.315 88.5599 16.835 89.1899 15.875ZM85.8899 13.145C85.4499 13.145 85.0849 13.335 84.7949 13.715C84.5149 14.085 84.3549 14.575 84.3149 15.185C85.0349 15.185 85.6049 15.065 86.0249 14.825C86.4549 14.585 86.6749 14.26 86.6849 13.85C86.6949 13.62 86.6249 13.445 86.4749 13.325C86.3349 13.205 86.1399 13.145 85.8899 13.145ZM100.486 18.5L100.216 16.145H96.9758L95.7608 18.5H93.5408L98.8208 8.45L101.056 8.255L102.676 18.5H100.486ZM97.7408 14.6H100.066L99.7958 12.59L99.6458 10.775H99.6158L98.7608 12.65L97.7408 14.6ZM117.749 15.875L118.364 16.58C117.424 17.98 116.349 18.68 115.139 18.68C114.539 18.68 114.104 18.505 113.834 18.155C113.574 17.795 113.499 17.275 113.609 16.595L113.999 14.27C114.109 13.55 113.899 13.19 113.369 13.19C112.939 13.19 112.379 13.44 111.689 13.94L110.969 18.5H108.974L109.649 14.27C109.769 13.55 109.564 13.19 109.034 13.19C108.594 13.19 108.024 13.445 107.324 13.955L106.604 18.5H104.609L105.659 11.87L107.684 11.675L107.519 12.665C108.499 12.005 109.359 11.675 110.099 11.675C110.999 11.675 111.534 12.045 111.704 12.785C112.754 12.045 113.669 11.675 114.449 11.675C115.069 11.675 115.519 11.865 115.799 12.245C116.089 12.615 116.179 13.14 116.069 13.82L115.679 16.175C115.569 16.855 115.709 17.195 116.099 17.195C116.369 17.195 116.654 17.075 116.954 16.835C117.254 16.595 117.519 16.275 117.749 15.875ZM120.549 10.805C120.219 10.805 119.944 10.705 119.724 10.505C119.504 10.305 119.394 10.05 119.394 9.74C119.394 9.37 119.524 9.06 119.784 8.81C120.044 8.56 120.364 8.435 120.744 8.435C121.064 8.435 121.329 8.54 121.539 8.75C121.749 8.95 121.854 9.205 121.854 9.515C121.854 9.885 121.729 10.195 121.479 10.445C121.229 10.685 120.919 10.805 120.549 10.805ZM123.129 15.875L123.759 16.58C122.789 17.98 121.649 18.68 120.339 18.68C119.619 18.68 119.114 18.47 118.824 18.05C118.534 17.62 118.459 16.955 118.599 16.055L119.274 11.87L121.299 11.675L120.639 15.785C120.559 16.295 120.564 16.66 120.654 16.88C120.744 17.09 120.944 17.195 121.254 17.195C121.994 17.185 122.619 16.745 123.129 15.875ZM126.367 21.635C125.447 21.635 124.697 21.5 124.117 21.23L124.342 19.745C124.952 20.055 125.612 20.205 126.322 20.195C126.862 20.185 127.287 20.045 127.597 19.775C127.907 19.515 128.127 19.09 128.257 18.5C128.307 18.35 128.357 18.14 128.407 17.87C127.807 18.41 127.112 18.68 126.322 18.68C124.782 18.68 124.012 17.79 124.012 16.01C124.012 14.71 124.372 13.665 125.092 12.875C125.822 12.075 126.797 11.675 128.017 11.675C128.417 11.675 128.907 11.74 129.487 11.87L131.407 11.675L130.417 17.78C131.407 17.41 132.177 16.775 132.727 15.875L133.342 16.58C132.942 17.18 132.497 17.675 132.007 18.065C131.517 18.445 130.897 18.765 130.147 19.025C129.567 20.765 128.307 21.635 126.367 21.635ZM127.012 17.24C127.572 17.24 128.122 16.92 128.662 16.28L129.157 13.25C128.787 13.2 128.482 13.175 128.242 13.175C127.552 13.175 127.012 13.425 126.622 13.925C126.232 14.415 126.037 15.08 126.037 15.92C126.037 16.38 126.112 16.715 126.262 16.925C126.422 17.135 126.672 17.24 127.012 17.24ZM142.118 15.875L142.748 16.58C142.068 17.66 141.233 18.27 140.243 18.41C139.673 18.5 139.073 18.425 138.443 18.185C137.853 18.515 137.183 18.68 136.433 18.68C135.513 18.68 134.813 18.445 134.333 17.975C133.853 17.495 133.613 16.795 133.613 15.875C133.633 14.655 134.013 13.655 134.753 12.875C135.503 12.085 136.473 11.69 137.663 11.69C138.583 11.69 139.283 11.93 139.763 12.41C140.253 12.89 140.498 13.585 140.498 14.495C140.498 15.605 140.188 16.525 139.568 17.255C139.798 17.345 140.038 17.375 140.288 17.345C140.948 17.245 141.558 16.755 142.118 15.875ZM136.613 17.165C137.143 17.175 137.588 16.93 137.948 16.43C138.308 15.92 138.488 15.285 138.488 14.525C138.488 13.655 138.158 13.22 137.498 13.22C136.958 13.22 136.513 13.475 136.163 13.985C135.823 14.495 135.648 15.125 135.638 15.875C135.628 16.735 135.953 17.165 136.613 17.165ZM145.844 18.68C145.164 18.68 144.574 18.565 144.074 18.335L144.329 16.94C144.799 17.17 145.234 17.285 145.634 17.285C146.044 17.285 146.364 17.19 146.594 17C146.824 16.81 146.939 16.545 146.939 16.205C146.939 15.955 146.864 15.695 146.714 15.425C146.564 15.155 146.394 14.915 146.204 14.705C146.024 14.495 145.844 14.22 145.664 13.88C145.484 13.54 145.374 13.185 145.334 12.815H145.304C145.144 13.135 144.894 13.745 144.554 14.645C144.214 15.545 143.914 16.19 143.654 16.58L143.024 15.875C143.204 15.585 143.484 14.94 143.864 13.94C144.254 12.93 144.644 12.175 145.034 11.675L147.074 11.465C147.044 11.915 147.089 12.325 147.209 12.695C147.329 13.065 147.484 13.38 147.674 13.64C147.874 13.89 148.074 14.135 148.274 14.375C148.474 14.615 148.644 14.89 148.784 15.2C148.924 15.5 148.994 15.825 148.994 16.175C148.994 16.625 148.904 17.015 148.724 17.345C149.654 17.285 150.409 16.795 150.989 15.875L151.604 16.58C151.084 17.33 150.499 17.845 149.849 18.125C149.209 18.405 148.404 18.505 147.434 18.425C146.984 18.595 146.454 18.68 145.844 18.68Z" fill="white"/>
</svg>
