<svg width="620" height="27" viewBox="0 0 620 27" fill="none" xmlns="http://www.w3.org/2000/svg">
<path d="M0 6C0 2.68629 2.68629 0 6 0H607.902C611.215 0 613.902 2.68629 613.902 6V27H0V6Z" fill="#0F0F0F"/>
<path d="M247.923 17.2H252.528L252.258 19H245.583L247.158 8.95L249.228 8.77L247.923 17.2ZM262.54 16.375L263.17 17.08C262.49 18.16 261.655 18.77 260.665 18.91C260.095 19 259.495 18.925 258.865 18.685C258.275 19.015 257.605 19.18 256.855 19.18C255.935 19.18 255.235 18.945 254.755 18.475C254.275 17.995 254.035 17.295 254.035 16.375C254.055 15.155 254.435 14.155 255.175 13.375C255.925 12.585 256.895 12.19 258.085 12.19C259.005 12.19 259.705 12.43 260.185 12.91C260.675 13.39 260.92 14.085 260.92 14.995C260.92 16.105 260.61 17.025 259.99 17.755C260.22 17.845 260.46 17.875 260.71 17.845C261.37 17.745 261.98 17.255 262.54 16.375ZM257.035 17.665C257.565 17.675 258.01 17.43 258.37 16.93C258.73 16.42 258.91 15.785 258.91 15.025C258.91 14.155 258.58 13.72 257.92 13.72C257.38 13.72 256.935 13.975 256.585 14.485C256.245 14.995 256.07 15.625 256.06 16.375C256.05 17.235 256.375 17.665 257.035 17.665ZM266.791 19.18C265.661 19.18 264.811 18.91 264.241 18.37C263.681 17.82 263.411 17.025 263.431 15.985C263.451 14.855 263.806 13.94 264.496 13.24C265.186 12.53 266.076 12.175 267.166 12.175C268.116 12.175 268.776 12.445 269.146 12.985C269.526 13.525 269.531 14.22 269.161 15.07L267.601 14.71C267.731 14.4 267.741 14.15 267.631 13.96C267.521 13.76 267.316 13.66 267.016 13.66C266.566 13.66 266.191 13.875 265.891 14.305C265.591 14.725 265.441 15.255 265.441 15.895C265.441 17.175 266.086 17.815 267.376 17.815C268.686 17.815 269.666 17.335 270.316 16.375L270.931 17.08C269.981 18.48 268.601 19.18 266.791 19.18ZM273.481 19.18C272.741 19.18 272.171 18.955 271.771 18.505C271.381 18.045 271.186 17.38 271.186 16.51C271.186 15.22 271.551 14.175 272.281 13.375C273.011 12.575 273.981 12.175 275.191 12.175C275.601 12.175 276.091 12.24 276.661 12.37L278.581 12.175L277.861 16.63C277.801 17.01 277.801 17.285 277.861 17.455C277.921 17.615 278.056 17.695 278.266 17.695C278.536 17.695 278.826 17.575 279.136 17.335C279.456 17.085 279.726 16.765 279.946 16.375L280.561 17.08C279.621 18.48 278.551 19.18 277.351 19.18C276.541 19.18 276.066 18.82 275.926 18.1C275.196 18.82 274.381 19.18 273.481 19.18ZM274.201 17.695C274.751 17.695 275.296 17.41 275.836 16.84L276.316 13.81C276.046 13.76 275.741 13.735 275.401 13.735C274.711 13.735 274.171 13.975 273.781 14.455C273.401 14.925 273.211 15.575 273.211 16.405C273.211 17.265 273.541 17.695 274.201 17.695ZM282.752 11.305C282.422 11.305 282.147 11.205 281.927 11.005C281.707 10.805 281.597 10.55 281.597 10.24C281.597 9.87 281.727 9.56 281.987 9.31C282.247 9.06 282.567 8.935 282.947 8.935C283.267 8.935 283.532 9.04 283.742 9.25C283.952 9.45 284.057 9.705 284.057 10.015C284.057 10.385 283.932 10.695 283.682 10.945C283.432 11.185 283.122 11.305 282.752 11.305ZM285.332 16.375L285.962 17.08C284.992 18.48 283.852 19.18 282.542 19.18C281.822 19.18 281.317 18.97 281.027 18.55C280.737 18.12 280.662 17.455 280.802 16.555L281.477 12.37L283.502 12.175L282.842 16.285C282.762 16.795 282.767 17.16 282.857 17.38C282.947 17.59 283.147 17.695 283.457 17.695C284.197 17.685 284.822 17.245 285.332 16.375ZM289.034 19.18C288.354 19.18 287.764 19.065 287.264 18.835L287.519 17.44C287.989 17.67 288.424 17.785 288.824 17.785C289.234 17.785 289.554 17.69 289.784 17.5C290.014 17.31 290.129 17.045 290.129 16.705C290.129 16.455 290.054 16.195 289.904 15.925C289.754 15.655 289.584 15.415 289.394 15.205C289.214 14.995 289.034 14.72 288.854 14.38C288.674 14.04 288.564 13.685 288.524 13.315H288.494C288.334 13.635 288.084 14.245 287.744 15.145C287.404 16.045 287.104 16.69 286.844 17.08L286.214 16.375C286.394 16.085 286.674 15.44 287.054 14.44C287.444 13.43 287.834 12.675 288.224 12.175L290.264 11.965C290.234 12.415 290.279 12.825 290.399 13.195C290.519 13.565 290.674 13.88 290.864 14.14C291.064 14.39 291.264 14.635 291.464 14.875C291.664 15.115 291.834 15.39 291.974 15.7C292.114 16 292.184 16.325 292.184 16.675C292.184 17.125 292.094 17.515 291.914 17.845C292.844 17.785 293.599 17.295 294.179 16.375L294.794 17.08C294.274 17.83 293.689 18.345 293.039 18.625C292.399 18.905 291.594 19.005 290.624 18.925C290.174 19.095 289.644 19.18 289.034 19.18ZM307.804 16.375L308.434 17.08C307.984 17.76 307.479 18.28 306.919 18.64C306.359 19 305.789 19.18 305.209 19.18C304.389 19.18 303.914 18.82 303.784 18.1C303.064 18.82 302.249 19.18 301.339 19.18C299.809 19.18 299.044 18.29 299.044 16.51C299.044 15.22 299.404 14.175 300.124 13.375C300.854 12.575 301.824 12.175 303.034 12.175C303.434 12.175 303.894 12.23 304.414 12.34L305.029 8.5L307.054 8.32L305.719 16.63C305.659 17.01 305.659 17.285 305.719 17.455C305.779 17.615 305.914 17.695 306.124 17.695C306.394 17.695 306.684 17.575 306.994 17.335C307.314 17.085 307.584 16.765 307.804 16.375ZM303.679 16.87L304.189 13.75C303.819 13.7 303.519 13.675 303.289 13.675C302.589 13.675 302.044 13.925 301.654 14.425C301.264 14.915 301.069 15.58 301.069 16.42C301.069 16.87 301.144 17.2 301.294 17.41C301.454 17.62 301.704 17.725 302.044 17.725C302.594 17.725 303.139 17.44 303.679 16.87ZM315.575 16.375L316.205 17.08C315.245 18.48 313.865 19.18 312.065 19.18C310.975 19.18 310.135 18.91 309.545 18.37C308.965 17.83 308.675 17.065 308.675 16.075C308.675 14.935 309.02 14 309.71 13.27C310.4 12.54 311.285 12.175 312.365 12.175C313.115 12.175 313.71 12.355 314.15 12.715C314.6 13.065 314.82 13.54 314.81 14.14C314.8 14.9 314.45 15.515 313.76 15.985C313.07 16.445 312.145 16.685 310.985 16.705C311.095 17.045 311.3 17.315 311.6 17.515C311.9 17.715 312.265 17.815 312.695 17.815C313.985 17.815 314.945 17.335 315.575 16.375ZM312.275 13.645C311.835 13.645 311.47 13.835 311.18 14.215C310.9 14.585 310.74 15.075 310.7 15.685C311.42 15.685 311.99 15.565 312.41 15.325C312.84 15.085 313.06 14.76 313.07 14.35C313.08 14.12 313.01 13.945 312.86 13.825C312.72 13.705 312.525 13.645 312.275 13.645ZM322.985 19L324.275 10.765H321.425L321.71 8.95H329.45L329.165 10.765H326.315L325.055 19H322.985ZM335.794 16.375L336.424 17.08C335.464 18.48 334.084 19.18 332.284 19.18C331.194 19.18 330.354 18.91 329.764 18.37C329.184 17.83 328.894 17.065 328.894 16.075C328.894 14.935 329.239 14 329.929 13.27C330.619 12.54 331.504 12.175 332.584 12.175C333.334 12.175 333.929 12.355 334.369 12.715C334.819 13.065 335.039 13.54 335.029 14.14C335.019 14.9 334.669 15.515 333.979 15.985C333.289 16.445 332.364 16.685 331.204 16.705C331.314 17.045 331.519 17.315 331.819 17.515C332.119 17.715 332.484 17.815 332.914 17.815C334.204 17.815 335.164 17.335 335.794 16.375ZM332.494 13.645C332.054 13.645 331.689 13.835 331.399 14.215C331.119 14.585 330.959 15.075 330.919 15.685C331.639 15.685 332.209 15.565 332.629 15.325C333.059 15.085 333.279 14.76 333.289 14.35C333.299 14.12 333.229 13.945 333.079 13.825C332.939 13.705 332.744 13.645 332.494 13.645ZM341.299 16.375L341.914 17.08C340.964 18.48 339.819 19.18 338.479 19.18C337.729 19.18 337.204 18.97 336.904 18.55C336.604 18.12 336.524 17.455 336.664 16.555L337.939 8.5L339.964 8.32L338.704 16.285C338.624 16.785 338.634 17.145 338.734 17.365C338.844 17.585 339.064 17.695 339.394 17.695C339.764 17.685 340.114 17.565 340.444 17.335C340.784 17.095 341.069 16.775 341.299 16.375ZM349.064 16.375L349.694 17.08C348.734 18.48 347.354 19.18 345.554 19.18C344.464 19.18 343.624 18.91 343.034 18.37C342.454 17.83 342.164 17.065 342.164 16.075C342.164 14.935 342.509 14 343.199 13.27C343.889 12.54 344.774 12.175 345.854 12.175C346.604 12.175 347.199 12.355 347.639 12.715C348.089 13.065 348.309 13.54 348.299 14.14C348.289 14.9 347.939 15.515 347.249 15.985C346.559 16.445 345.634 16.685 344.474 16.705C344.584 17.045 344.789 17.315 345.089 17.515C345.389 17.715 345.754 17.815 346.184 17.815C347.474 17.815 348.434 17.335 349.064 16.375ZM345.764 13.645C345.324 13.645 344.959 13.835 344.669 14.215C344.389 14.585 344.229 15.075 344.189 15.685C344.909 15.685 345.479 15.565 345.899 15.325C346.329 15.085 346.549 14.76 346.559 14.35C346.569 14.12 346.499 13.945 346.349 13.825C346.209 13.705 346.014 13.645 345.764 13.645ZM349.094 21.955L350.609 12.37L352.634 12.175L352.469 13.27C353.339 12.54 354.179 12.175 354.989 12.175C355.699 12.175 356.214 12.42 356.534 12.91C356.854 13.4 356.969 14.115 356.879 15.055C356.769 16.155 356.449 17.065 355.919 17.785C356.179 17.885 356.464 17.91 356.774 17.86C357.484 17.76 358.099 17.265 358.619 16.375L359.234 17.08C358.404 18.34 357.394 18.965 356.204 18.955C355.734 18.955 355.294 18.865 354.884 18.685C354.344 19.015 353.684 19.18 352.904 19.18C352.494 19.18 352.044 19.13 351.554 19.03L351.089 21.955H349.094ZM352.814 17.68C353.384 17.67 353.844 17.47 354.194 17.08C354.544 16.69 354.759 16.11 354.839 15.34C354.899 14.78 354.864 14.37 354.734 14.11C354.604 13.84 354.359 13.705 353.999 13.705C353.539 13.705 352.959 13.995 352.259 14.575L351.794 17.53C352.154 17.63 352.494 17.68 352.814 17.68ZM368.011 16.375L368.641 17.08C367.961 18.16 367.126 18.77 366.136 18.91C365.566 19 364.966 18.925 364.336 18.685C363.746 19.015 363.076 19.18 362.326 19.18C361.406 19.18 360.706 18.945 360.226 18.475C359.746 17.995 359.506 17.295 359.506 16.375C359.526 15.155 359.906 14.155 360.646 13.375C361.396 12.585 362.366 12.19 363.556 12.19C364.476 12.19 365.176 12.43 365.656 12.91C366.146 13.39 366.391 14.085 366.391 14.995C366.391 16.105 366.081 17.025 365.461 17.755C365.691 17.845 365.931 17.875 366.181 17.845C366.841 17.745 367.451 17.255 368.011 16.375ZM362.506 17.665C363.036 17.675 363.481 17.43 363.841 16.93C364.201 16.42 364.381 15.785 364.381 15.025C364.381 14.155 364.051 13.72 363.391 13.72C362.851 13.72 362.406 13.975 362.056 14.485C361.716 14.995 361.541 15.625 361.531 16.375C361.521 17.235 361.846 17.665 362.506 17.665ZM376.057 16.375L376.687 17.08C375.767 18.48 374.567 19.18 373.087 19.18C372.347 19.18 371.777 19 371.377 18.64C370.977 18.28 370.777 17.76 370.777 17.08C370.777 16.06 371.202 14.905 372.052 13.615C371.552 13.605 370.982 13.505 370.342 13.315C370.452 14.725 370.187 15.98 369.547 17.08L368.917 16.375C369.487 15.335 369.642 14.2 369.382 12.97C369.362 12.96 369.282 12.93 369.142 12.88C369.012 12.82 368.922 12.77 368.872 12.73L369.112 11.275C370.272 11.965 371.992 12.33 374.272 12.37L373.912 13.795C373.152 14.835 372.772 15.785 372.772 16.645C372.772 17.345 373.132 17.695 373.852 17.695C374.282 17.695 374.697 17.58 375.097 17.35C375.507 17.11 375.827 16.785 376.057 16.375ZM381.556 16.375L382.171 17.08C381.231 18.48 380.081 19.18 378.721 19.18C377.991 19.18 377.471 18.97 377.161 18.55C376.861 18.13 376.781 17.465 376.921 16.555L377.386 13.615H376.456L376.651 12.37H377.596L377.956 10.105L379.966 9.925L379.576 12.37H380.986L380.791 13.615H379.381L378.961 16.3C378.891 16.81 378.906 17.17 379.006 17.38C379.116 17.59 379.331 17.695 379.651 17.695C380.401 17.675 381.036 17.235 381.556 16.375Z" fill="white"/>
</svg>
