<svg width="302" height="27" viewBox="0 0 302 27" fill="none" xmlns="http://www.w3.org/2000/svg">
<path d="M0 6C0 2.68629 2.68629 0 6 0H296C299.314 0 302 2.68629 302 6V27H0V6Z" fill="#0F0F0F"/>
<path d="M32.985 16.7H37.59L37.32 18.5H30.645L32.22 8.45L34.29 8.27L32.985 16.7ZM41.2516 10.805C40.9216 10.805 40.6466 10.705 40.4266 10.505C40.2066 10.305 40.0966 10.05 40.0966 9.74C40.0966 9.37 40.2266 9.06 40.4866 8.81C40.7466 8.56 41.0666 8.435 41.4466 8.435C41.7666 8.435 42.0316 8.54 42.2416 8.75C42.4516 8.95 42.5566 9.205 42.5566 9.515C42.5566 9.885 42.4316 10.195 42.1816 10.445C41.9316 10.685 41.6216 10.805 41.2516 10.805ZM43.8316 15.875L44.4616 16.58C43.4916 17.98 42.3516 18.68 41.0416 18.68C40.3216 18.68 39.8166 18.47 39.5266 18.05C39.2366 17.62 39.1616 16.955 39.3016 16.055L39.9766 11.87L42.0016 11.675L41.3416 15.785C41.2616 16.295 41.2666 16.66 41.3566 16.88C41.4466 17.09 41.6466 17.195 41.9566 17.195C42.6966 17.185 43.3216 16.745 43.8316 15.875ZM47.5341 18.68C46.8541 18.68 46.2641 18.565 45.7641 18.335L46.0191 16.94C46.4891 17.17 46.9241 17.285 47.3241 17.285C47.7341 17.285 48.0541 17.19 48.2841 17C48.5141 16.81 48.6291 16.545 48.6291 16.205C48.6291 15.955 48.5541 15.695 48.4041 15.425C48.2541 15.155 48.0841 14.915 47.8941 14.705C47.7141 14.495 47.5341 14.22 47.3541 13.88C47.1741 13.54 47.0641 13.185 47.0241 12.815H46.9941C46.8341 13.135 46.5841 13.745 46.2441 14.645C45.9041 15.545 45.6041 16.19 45.3441 16.58L44.7141 15.875C44.8941 15.585 45.1741 14.94 45.5541 13.94C45.9441 12.93 46.3341 12.175 46.7241 11.675L48.7641 11.465C48.7341 11.915 48.7791 12.325 48.8991 12.695C49.0191 13.065 49.1741 13.38 49.3641 13.64C49.5641 13.89 49.7641 14.135 49.9641 14.375C50.1641 14.615 50.3341 14.89 50.4741 15.2C50.6141 15.5 50.6841 15.825 50.6841 16.175C50.6841 16.625 50.5941 17.015 50.4141 17.345C51.3441 17.285 52.0991 16.795 52.6791 15.875L53.2941 16.58C52.7741 17.33 52.1891 17.845 51.5391 18.125C50.8991 18.405 50.0941 18.505 49.1241 18.425C48.6741 18.595 48.1441 18.68 47.5341 18.68ZM58.1732 15.875L58.7882 16.58C57.8482 17.98 56.6982 18.68 55.3382 18.68C54.6082 18.68 54.0882 18.47 53.7782 18.05C53.4782 17.63 53.3982 16.965 53.5382 16.055L54.0032 13.115H53.0732L53.2682 11.87H54.2132L54.5732 9.605L56.5832 9.425L56.1932 11.87H57.6032L57.4082 13.115H55.9982L55.5782 15.8C55.5082 16.31 55.5232 16.67 55.6232 16.88C55.7332 17.09 55.9482 17.195 56.2682 17.195C57.0182 17.175 57.6532 16.735 58.1732 15.875ZM61.3331 18.68C60.5931 18.68 60.0231 18.455 59.6231 18.005C59.2331 17.545 59.0381 16.88 59.0381 16.01C59.0381 14.72 59.4031 13.675 60.1331 12.875C60.8631 12.075 61.8331 11.675 63.0431 11.675C63.4531 11.675 63.9431 11.74 64.5131 11.87L66.4331 11.675L65.7131 16.13C65.6531 16.51 65.6531 16.785 65.7131 16.955C65.7731 17.115 65.9081 17.195 66.1181 17.195C66.3881 17.195 66.6781 17.075 66.9881 16.835C67.3081 16.585 67.5781 16.265 67.7981 15.875L68.4131 16.58C67.4731 17.98 66.4031 18.68 65.2031 18.68C64.3931 18.68 63.9181 18.32 63.7781 17.6C63.0481 18.32 62.2331 18.68 61.3331 18.68ZM62.0531 17.195C62.6031 17.195 63.1481 16.91 63.6881 16.34L64.1681 13.31C63.8981 13.26 63.5931 13.235 63.2531 13.235C62.5631 13.235 62.0231 13.475 61.6331 13.955C61.2531 14.425 61.0631 15.075 61.0631 15.905C61.0631 16.765 61.3931 17.195 62.0531 17.195ZM81.4198 15.875L82.0498 16.58C81.5998 17.26 81.0948 17.78 80.5348 18.14C79.9748 18.5 79.4048 18.68 78.8248 18.68C78.0048 18.68 77.5298 18.32 77.3998 17.6C76.6798 18.32 75.8648 18.68 74.9548 18.68C73.4248 18.68 72.6598 17.79 72.6598 16.01C72.6598 14.72 73.0198 13.675 73.7398 12.875C74.4698 12.075 75.4398 11.675 76.6498 11.675C77.0498 11.675 77.5098 11.73 78.0298 11.84L78.6448 8L80.6698 7.82L79.3348 16.13C79.2748 16.51 79.2748 16.785 79.3348 16.955C79.3948 17.115 79.5298 17.195 79.7398 17.195C80.0098 17.195 80.2998 17.075 80.6098 16.835C80.9298 16.585 81.1998 16.265 81.4198 15.875ZM77.2948 16.37L77.8048 13.25C77.4348 13.2 77.1348 13.175 76.9048 13.175C76.2048 13.175 75.6598 13.425 75.2698 13.925C74.8798 14.415 74.6848 15.08 74.6848 15.92C74.6848 16.37 74.7598 16.7 74.9098 16.91C75.0698 17.12 75.3198 17.225 75.6598 17.225C76.2098 17.225 76.7548 16.94 77.2948 16.37ZM89.1899 15.875L89.8199 16.58C88.8599 17.98 87.4799 18.68 85.6799 18.68C84.5899 18.68 83.7499 18.41 83.1599 17.87C82.5799 17.33 82.2899 16.565 82.2899 15.575C82.2899 14.435 82.6349 13.5 83.3249 12.77C84.0149 12.04 84.8999 11.675 85.9799 11.675C86.7299 11.675 87.3249 11.855 87.7649 12.215C88.2149 12.565 88.4349 13.04 88.4249 13.64C88.4149 14.4 88.0649 15.015 87.3749 15.485C86.6849 15.945 85.7599 16.185 84.5999 16.205C84.7099 16.545 84.9149 16.815 85.2149 17.015C85.5149 17.215 85.8799 17.315 86.3099 17.315C87.5999 17.315 88.5599 16.835 89.1899 15.875ZM85.8899 13.145C85.4499 13.145 85.0849 13.335 84.7949 13.715C84.5149 14.085 84.3549 14.575 84.3149 15.185C85.0349 15.185 85.6049 15.065 86.0249 14.825C86.4549 14.585 86.6749 14.26 86.6849 13.85C86.6949 13.62 86.6249 13.445 86.4749 13.325C86.3349 13.205 86.1399 13.145 85.8899 13.145ZM97.0058 18.5L95.1308 8.45H97.1858L98.2658 14.615L98.4758 16.175H98.5208L99.1658 14.645L102.181 8.45L104.461 8.27L99.3308 18.5H97.0058ZM110.757 15.875L111.387 16.58C110.427 17.98 109.047 18.68 107.247 18.68C106.157 18.68 105.317 18.41 104.727 17.87C104.147 17.33 103.857 16.565 103.857 15.575C103.857 14.435 104.202 13.5 104.892 12.77C105.582 12.04 106.467 11.675 107.547 11.675C108.297 11.675 108.892 11.855 109.332 12.215C109.782 12.565 110.002 13.04 109.992 13.64C109.982 14.4 109.632 15.015 108.942 15.485C108.252 15.945 107.327 16.185 106.167 16.205C106.277 16.545 106.482 16.815 106.782 17.015C107.082 17.215 107.447 17.315 107.877 17.315C109.167 17.315 110.127 16.835 110.757 15.875ZM107.457 13.145C107.017 13.145 106.652 13.335 106.362 13.715C106.082 14.085 105.922 14.575 105.882 15.185C106.602 15.185 107.172 15.065 107.592 14.825C108.022 14.585 108.242 14.26 108.252 13.85C108.262 13.62 108.192 13.445 108.042 13.325C107.902 13.205 107.707 13.145 107.457 13.145ZM112.242 10.67L113.787 8.315H115.662L113.727 10.67H112.242ZM116.157 15.875L116.787 16.58C115.817 17.98 114.677 18.68 113.367 18.68C112.647 18.68 112.142 18.47 111.852 18.05C111.562 17.62 111.487 16.955 111.627 16.055L112.302 11.87L114.327 11.675L113.667 15.785C113.587 16.295 113.592 16.66 113.682 16.88C113.772 17.09 113.972 17.195 114.282 17.195C115.022 17.185 115.647 16.745 116.157 15.875ZM120.384 18.68C119.254 18.68 118.404 18.41 117.834 17.87C117.274 17.32 117.004 16.525 117.024 15.485C117.044 14.355 117.399 13.44 118.089 12.74C118.779 12.03 119.669 11.675 120.759 11.675C121.709 11.675 122.369 11.945 122.739 12.485C123.119 13.025 123.124 13.72 122.754 14.57L121.194 14.21C121.324 13.9 121.334 13.65 121.224 13.46C121.114 13.26 120.909 13.16 120.609 13.16C120.159 13.16 119.784 13.375 119.484 13.805C119.184 14.225 119.034 14.755 119.034 15.395C119.034 16.675 119.679 17.315 120.969 17.315C122.279 17.315 123.259 16.835 123.909 15.875L124.524 16.58C123.574 17.98 122.194 18.68 120.384 18.68ZM133.39 15.875L134.02 16.58C133.05 17.98 131.97 18.68 130.78 18.68C130.02 18.68 129.57 18.315 129.43 17.585C128.54 18.315 127.61 18.68 126.64 18.68C125.12 18.68 124.49 17.86 124.75 16.22L125.455 11.87L127.465 11.675L126.775 16.085C126.705 16.465 126.73 16.74 126.85 16.91C126.98 17.08 127.205 17.165 127.525 17.165C128.055 17.165 128.64 16.9 129.28 16.37L130 11.87L132.025 11.675L131.305 16.28C131.195 16.89 131.335 17.195 131.725 17.195C132.005 17.195 132.295 17.07 132.595 16.82C132.905 16.57 133.17 16.255 133.39 15.875ZM138.898 15.875L139.513 16.58C138.563 17.98 137.418 18.68 136.078 18.68C135.328 18.68 134.803 18.47 134.503 18.05C134.203 17.62 134.123 16.955 134.263 16.055L135.538 8L137.563 7.82L136.303 15.785C136.223 16.285 136.233 16.645 136.333 16.865C136.443 17.085 136.663 17.195 136.993 17.195C137.363 17.185 137.713 17.065 138.043 16.835C138.383 16.595 138.668 16.275 138.898 15.875ZM148.283 15.875L148.913 16.58C148.233 17.66 147.398 18.27 146.408 18.41C145.838 18.5 145.238 18.425 144.608 18.185C144.018 18.515 143.348 18.68 142.598 18.68C141.678 18.68 140.978 18.445 140.498 17.975C140.018 17.495 139.778 16.795 139.778 15.875C139.798 14.655 140.178 13.655 140.918 12.875C141.668 12.085 142.638 11.69 143.828 11.69C144.748 11.69 145.448 11.93 145.928 12.41C146.418 12.89 146.663 13.585 146.663 14.495C146.663 15.605 146.353 16.525 145.733 17.255C145.963 17.345 146.203 17.375 146.453 17.345C147.113 17.245 147.723 16.755 148.283 15.875ZM142.778 17.165C143.308 17.175 143.753 16.93 144.113 16.43C144.473 15.92 144.653 15.285 144.653 14.525C144.653 13.655 144.323 13.22 143.663 13.22C143.123 13.22 142.678 13.475 142.328 13.985C141.988 14.495 141.813 15.125 141.803 15.875C141.793 16.735 142.118 17.165 142.778 17.165ZM152.009 18.68C151.329 18.68 150.739 18.565 150.239 18.335L150.494 16.94C150.964 17.17 151.399 17.285 151.799 17.285C152.209 17.285 152.529 17.19 152.759 17C152.989 16.81 153.104 16.545 153.104 16.205C153.104 15.955 153.029 15.695 152.879 15.425C152.729 15.155 152.559 14.915 152.369 14.705C152.189 14.495 152.009 14.22 151.829 13.88C151.649 13.54 151.539 13.185 151.499 12.815H151.469C151.309 13.135 151.059 13.745 150.719 14.645C150.379 15.545 150.079 16.19 149.819 16.58L149.189 15.875C149.369 15.585 149.649 14.94 150.029 13.94C150.419 12.93 150.809 12.175 151.199 11.675L153.239 11.465C153.209 11.915 153.254 12.325 153.374 12.695C153.494 13.065 153.649 13.38 153.839 13.64C154.039 13.89 154.239 14.135 154.439 14.375C154.639 14.615 154.809 14.89 154.949 15.2C155.089 15.5 155.159 15.825 155.159 16.175C155.159 16.625 155.069 17.015 154.889 17.345C155.819 17.285 156.574 16.795 157.154 15.875L157.769 16.58C157.249 17.33 156.664 17.845 156.014 18.125C155.374 18.405 154.569 18.505 153.599 18.425C153.149 18.595 152.619 18.68 152.009 18.68Z" fill="white"/>
</svg>
