<svg width="620" height="27" viewBox="0 0 620 27" fill="none" xmlns="http://www.w3.org/2000/svg">
<path d="M0 6C0 2.68629 2.68629 0 6 0H607.902C611.215 0 613.902 2.68629 613.902 6V27H0V6Z" fill="#0F0F0F"/>
<path d="M246.238 19L244.363 8.95H246.418L247.498 15.115L247.708 16.675H247.753L248.398 15.145L251.413 8.95L253.693 8.77L248.563 19H246.238ZM259.989 16.375L260.619 17.08C259.659 18.48 258.279 19.18 256.479 19.18C255.389 19.18 254.549 18.91 253.959 18.37C253.379 17.83 253.089 17.065 253.089 16.075C253.089 14.935 253.434 14 254.124 13.27C254.814 12.54 255.699 12.175 256.779 12.175C257.529 12.175 258.124 12.355 258.564 12.715C259.014 13.065 259.234 13.54 259.224 14.14C259.214 14.9 258.864 15.515 258.174 15.985C257.484 16.445 256.559 16.685 255.399 16.705C255.509 17.045 255.714 17.315 256.014 17.515C256.314 17.715 256.679 17.815 257.109 17.815C258.399 17.815 259.359 17.335 259.989 16.375ZM256.689 13.645C256.249 13.645 255.884 13.835 255.594 14.215C255.314 14.585 255.154 15.075 255.114 15.685C255.834 15.685 256.404 15.565 256.824 15.325C257.254 15.085 257.474 14.76 257.484 14.35C257.494 14.12 257.424 13.945 257.274 13.825C257.134 13.705 256.939 13.645 256.689 13.645ZM261.474 11.17L263.019 8.815H264.894L262.959 11.17H261.474ZM265.389 16.375L266.019 17.08C265.049 18.48 263.909 19.18 262.599 19.18C261.879 19.18 261.374 18.97 261.084 18.55C260.794 18.12 260.719 17.455 260.859 16.555L261.534 12.37L263.559 12.175L262.899 16.285C262.819 16.795 262.824 17.16 262.914 17.38C263.004 17.59 263.204 17.695 263.514 17.695C264.254 17.685 264.879 17.245 265.389 16.375ZM269.616 19.18C268.486 19.18 267.636 18.91 267.066 18.37C266.506 17.82 266.236 17.025 266.256 15.985C266.276 14.855 266.631 13.94 267.321 13.24C268.011 12.53 268.901 12.175 269.991 12.175C270.941 12.175 271.601 12.445 271.971 12.985C272.351 13.525 272.356 14.22 271.986 15.07L270.426 14.71C270.556 14.4 270.566 14.15 270.456 13.96C270.346 13.76 270.141 13.66 269.841 13.66C269.391 13.66 269.016 13.875 268.716 14.305C268.416 14.725 268.266 15.255 268.266 15.895C268.266 17.175 268.911 17.815 270.201 17.815C271.511 17.815 272.491 17.335 273.141 16.375L273.756 17.08C272.806 18.48 271.426 19.18 269.616 19.18ZM282.622 16.375L283.252 17.08C282.282 18.48 281.202 19.18 280.012 19.18C279.252 19.18 278.802 18.815 278.662 18.085C277.772 18.815 276.842 19.18 275.872 19.18C274.352 19.18 273.722 18.36 273.982 16.72L274.687 12.37L276.697 12.175L276.007 16.585C275.937 16.965 275.962 17.24 276.082 17.41C276.212 17.58 276.437 17.665 276.757 17.665C277.287 17.665 277.872 17.4 278.512 16.87L279.232 12.37L281.257 12.175L280.537 16.78C280.427 17.39 280.567 17.695 280.957 17.695C281.237 17.695 281.527 17.57 281.827 17.32C282.137 17.07 282.402 16.755 282.622 16.375ZM288.13 16.375L288.745 17.08C287.795 18.48 286.65 19.18 285.31 19.18C284.56 19.18 284.035 18.97 283.735 18.55C283.435 18.12 283.355 17.455 283.495 16.555L284.77 8.5L286.795 8.32L285.535 16.285C285.455 16.785 285.465 17.145 285.565 17.365C285.675 17.585 285.895 17.695 286.225 17.695C286.595 17.685 286.945 17.565 287.275 17.335C287.615 17.095 287.9 16.775 288.13 16.375ZM297.515 16.375L298.145 17.08C297.465 18.16 296.63 18.77 295.64 18.91C295.07 19 294.47 18.925 293.84 18.685C293.25 19.015 292.58 19.18 291.83 19.18C290.91 19.18 290.21 18.945 289.73 18.475C289.25 17.995 289.01 17.295 289.01 16.375C289.03 15.155 289.41 14.155 290.15 13.375C290.9 12.585 291.87 12.19 293.06 12.19C293.98 12.19 294.68 12.43 295.16 12.91C295.65 13.39 295.895 14.085 295.895 14.995C295.895 16.105 295.585 17.025 294.965 17.755C295.195 17.845 295.435 17.875 295.685 17.845C296.345 17.745 296.955 17.255 297.515 16.375ZM292.01 17.665C292.54 17.675 292.985 17.43 293.345 16.93C293.705 16.42 293.885 15.785 293.885 15.025C293.885 14.155 293.555 13.72 292.895 13.72C292.355 13.72 291.91 13.975 291.56 14.485C291.22 14.995 291.045 15.625 291.035 16.375C291.025 17.235 291.35 17.665 292.01 17.665ZM301.241 19.18C300.561 19.18 299.971 19.065 299.471 18.835L299.726 17.44C300.196 17.67 300.631 17.785 301.031 17.785C301.441 17.785 301.761 17.69 301.991 17.5C302.221 17.31 302.336 17.045 302.336 16.705C302.336 16.455 302.261 16.195 302.111 15.925C301.961 15.655 301.791 15.415 301.601 15.205C301.421 14.995 301.241 14.72 301.061 14.38C300.881 14.04 300.771 13.685 300.731 13.315H300.701C300.541 13.635 300.291 14.245 299.951 15.145C299.611 16.045 299.311 16.69 299.051 17.08L298.421 16.375C298.601 16.085 298.881 15.44 299.261 14.44C299.651 13.43 300.041 12.675 300.431 12.175L302.471 11.965C302.441 12.415 302.486 12.825 302.606 13.195C302.726 13.565 302.881 13.88 303.071 14.14C303.271 14.39 303.471 14.635 303.671 14.875C303.871 15.115 304.041 15.39 304.181 15.7C304.321 16 304.391 16.325 304.391 16.675C304.391 17.125 304.301 17.515 304.121 17.845C305.051 17.785 305.806 17.295 306.386 16.375L307.001 17.08C306.481 17.83 305.896 18.345 305.246 18.625C304.606 18.905 303.801 19.005 302.831 18.925C302.381 19.095 301.851 19.18 301.241 19.18ZM316.486 8.95C317.766 8.95 318.686 9.19 319.246 9.67C319.806 10.15 320.086 10.85 320.086 11.77C320.086 13.01 319.656 13.995 318.796 14.725C317.946 15.455 316.806 15.82 315.376 15.82H314.011L313.516 19H311.521L313.096 8.95H316.486ZM315.436 14.155C316.246 14.155 316.881 13.97 317.341 13.6C317.811 13.23 318.046 12.705 318.046 12.025C318.046 11.535 317.896 11.185 317.596 10.975C317.306 10.765 316.806 10.66 316.096 10.66H314.821L314.281 14.155H315.436ZM320.896 13.03L321.226 11.47C322.256 12.05 323.771 12.35 325.771 12.37L325.411 13.795C324.431 14.865 323.941 15.81 323.941 16.63C323.941 17.34 324.301 17.695 325.021 17.695C325.471 17.695 325.896 17.575 326.296 17.335C326.696 17.095 327.011 16.775 327.241 16.375L327.871 17.08C326.941 18.48 325.741 19.18 324.271 19.18C323.521 19.18 322.946 19 322.546 18.64C322.156 18.27 321.961 17.745 321.961 17.065C321.961 16.075 322.481 14.955 323.521 13.705C322.461 13.655 321.586 13.43 320.896 13.03ZM331.027 11.17L332.572 8.815H334.447L332.512 11.17H331.027ZM336.652 16.375L337.282 17.08C336.602 18.16 335.767 18.77 334.777 18.91C334.207 19 333.607 18.925 332.977 18.685C332.387 19.015 331.717 19.18 330.967 19.18C330.047 19.18 329.347 18.945 328.867 18.475C328.387 17.995 328.147 17.295 328.147 16.375C328.167 15.155 328.547 14.155 329.287 13.375C330.037 12.585 331.007 12.19 332.197 12.19C333.117 12.19 333.817 12.43 334.297 12.91C334.787 13.39 335.032 14.085 335.032 14.995C335.032 16.105 334.722 17.025 334.102 17.755C334.332 17.845 334.572 17.875 334.822 17.845C335.482 17.745 336.092 17.255 336.652 16.375ZM331.147 17.665C331.677 17.675 332.122 17.43 332.482 16.93C332.842 16.42 333.022 15.785 333.022 15.025C333.022 14.155 332.692 13.72 332.032 13.72C331.492 13.72 331.047 13.975 330.697 14.485C330.357 14.995 330.182 15.625 330.172 16.375C330.162 17.235 330.487 17.665 331.147 17.665ZM346.303 16.375L346.933 17.08C345.993 18.48 344.948 19.18 343.798 19.18C343.088 19.18 342.568 18.865 342.238 18.235L341.638 17.095L340.213 19H338.128L340.723 15.55L340.138 14.365C339.888 13.845 339.748 13.52 339.718 13.39H339.688C339.598 13.63 339.458 14.025 339.268 14.575C339.088 15.125 338.913 15.605 338.743 16.015C338.573 16.425 338.388 16.78 338.188 17.08L337.558 16.375C337.788 15.995 338.063 15.335 338.383 14.395C338.713 13.445 338.973 12.77 339.163 12.37L341.038 12.175L341.908 14.065L343.198 12.31H345.268L342.823 15.535L343.588 17.035C343.828 17.475 344.148 17.695 344.548 17.695C344.868 17.685 345.183 17.56 345.493 17.32C345.813 17.08 346.083 16.765 346.303 16.375ZM349.123 11.305C348.793 11.305 348.518 11.205 348.298 11.005C348.078 10.805 347.968 10.55 347.968 10.24C347.968 9.87 348.098 9.56 348.358 9.31C348.618 9.06 348.938 8.935 349.318 8.935C349.638 8.935 349.903 9.04 350.113 9.25C350.323 9.45 350.428 9.705 350.428 10.015C350.428 10.385 350.303 10.695 350.053 10.945C349.803 11.185 349.493 11.305 349.123 11.305ZM351.703 16.375L352.333 17.08C351.363 18.48 350.223 19.18 348.913 19.18C348.193 19.18 347.688 18.97 347.398 18.55C347.108 18.12 347.033 17.455 347.173 16.555L347.848 12.37L349.873 12.175L349.213 16.285C349.133 16.795 349.138 17.16 349.228 17.38C349.318 17.59 349.518 17.695 349.828 17.695C350.568 17.685 351.193 17.245 351.703 16.375ZM365.306 16.375L365.921 17.08C364.981 18.48 363.906 19.18 362.696 19.18C362.096 19.18 361.661 19.005 361.391 18.655C361.131 18.295 361.056 17.775 361.166 17.095L361.556 14.77C361.666 14.05 361.456 13.69 360.926 13.69C360.496 13.69 359.936 13.94 359.246 14.44L358.526 19H356.531L357.206 14.77C357.326 14.05 357.121 13.69 356.591 13.69C356.151 13.69 355.581 13.945 354.881 14.455L354.161 19H352.166L353.216 12.37L355.241 12.175L355.076 13.165C356.056 12.505 356.916 12.175 357.656 12.175C358.556 12.175 359.091 12.545 359.261 13.285C360.311 12.545 361.226 12.175 362.006 12.175C362.626 12.175 363.076 12.365 363.356 12.745C363.646 13.115 363.736 13.64 363.626 14.32L363.236 16.675C363.126 17.355 363.266 17.695 363.656 17.695C363.926 17.695 364.211 17.575 364.511 17.335C364.811 17.095 365.076 16.775 365.306 16.375ZM374.691 16.375L375.321 17.08C374.641 18.16 373.806 18.77 372.816 18.91C372.246 19 371.646 18.925 371.016 18.685C370.426 19.015 369.756 19.18 369.006 19.18C368.086 19.18 367.386 18.945 366.906 18.475C366.426 17.995 366.186 17.295 366.186 16.375C366.206 15.155 366.586 14.155 367.326 13.375C368.076 12.585 369.046 12.19 370.236 12.19C371.156 12.19 371.856 12.43 372.336 12.91C372.826 13.39 373.071 14.085 373.071 14.995C373.071 16.105 372.761 17.025 372.141 17.755C372.371 17.845 372.611 17.875 372.861 17.845C373.521 17.745 374.131 17.255 374.691 16.375ZM369.186 17.665C369.716 17.675 370.161 17.43 370.521 16.93C370.881 16.42 371.061 15.785 371.061 15.025C371.061 14.155 370.731 13.72 370.071 13.72C369.531 13.72 369.086 13.975 368.736 14.485C368.396 14.995 368.221 15.625 368.211 16.375C368.201 17.235 368.526 17.665 369.186 17.665ZM378.417 19.18C377.737 19.18 377.147 19.065 376.647 18.835L376.902 17.44C377.372 17.67 377.807 17.785 378.207 17.785C378.617 17.785 378.937 17.69 379.167 17.5C379.397 17.31 379.512 17.045 379.512 16.705C379.512 16.455 379.437 16.195 379.287 15.925C379.137 15.655 378.967 15.415 378.777 15.205C378.597 14.995 378.417 14.72 378.237 14.38C378.057 14.04 377.947 13.685 377.907 13.315H377.877C377.717 13.635 377.467 14.245 377.127 15.145C376.787 16.045 376.487 16.69 376.227 17.08L375.597 16.375C375.777 16.085 376.057 15.44 376.437 14.44C376.827 13.43 377.217 12.675 377.607 12.175L379.647 11.965C379.617 12.415 379.662 12.825 379.782 13.195C379.902 13.565 380.057 13.88 380.247 14.14C380.447 14.39 380.647 14.635 380.847 14.875C381.047 15.115 381.217 15.39 381.357 15.7C381.497 16 381.567 16.325 381.567 16.675C381.567 17.125 381.477 17.515 381.297 17.845C382.227 17.785 382.982 17.295 383.562 16.375L384.177 17.08C383.657 17.83 383.072 18.345 382.422 18.625C381.782 18.905 380.977 19.005 380.007 18.925C379.557 19.095 379.027 19.18 378.417 19.18Z" fill="white"/>
</svg>
