<svg width="302" height="27" viewBox="0 0 302 27" fill="none" xmlns="http://www.w3.org/2000/svg">
<path d="M0 6C0 2.68629 2.68629 0 6 0H296C299.314 0 302 2.68629 302 6V27H0V6Z" fill="#0F0F0F"/>
<path d="M32.985 16.7H37.59L37.32 18.5H30.645L32.22 8.45L34.29 8.27L32.985 16.7ZM41.4016 10.805C41.0716 10.805 40.7966 10.705 40.5766 10.505C40.3566 10.305 40.2466 10.05 40.2466 9.74C40.2466 9.37 40.3766 9.06 40.6366 8.81C40.8966 8.56 41.2166 8.435 41.5966 8.435C41.9166 8.435 42.1816 8.54 42.3916 8.75C42.6016 8.95 42.7066 9.205 42.7066 9.515C42.7066 9.885 42.5816 10.195 42.3316 10.445C42.0816 10.685 41.7716 10.805 41.4016 10.805ZM43.9816 15.875L44.6116 16.58C43.6416 17.98 42.5016 18.68 41.1916 18.68C40.4716 18.68 39.9666 18.47 39.6766 18.05C39.3866 17.62 39.3116 16.955 39.4516 16.055L40.1266 11.87L42.1516 11.675L41.4916 15.785C41.4116 16.295 41.4166 16.66 41.5066 16.88C41.5966 17.09 41.7966 17.195 42.1066 17.195C42.8466 17.185 43.4716 16.745 43.9816 15.875ZM47.8341 18.68C47.1541 18.68 46.5641 18.565 46.0641 18.335L46.3191 16.94C46.7891 17.17 47.2241 17.285 47.6241 17.285C48.0341 17.285 48.3541 17.19 48.5841 17C48.8141 16.81 48.9291 16.545 48.9291 16.205C48.9291 15.955 48.8541 15.695 48.7041 15.425C48.5541 15.155 48.3841 14.915 48.1941 14.705C48.0141 14.495 47.8341 14.22 47.6541 13.88C47.4741 13.54 47.3641 13.185 47.3241 12.815H47.2941C47.1341 13.135 46.8841 13.745 46.5441 14.645C46.2041 15.545 45.9041 16.19 45.6441 16.58L45.0141 15.875C45.1941 15.585 45.4741 14.94 45.8541 13.94C46.2441 12.93 46.6341 12.175 47.0241 11.675L49.0641 11.465C49.0341 11.915 49.0791 12.325 49.1991 12.695C49.3191 13.065 49.4741 13.38 49.6641 13.64C49.8641 13.89 50.0641 14.135 50.2641 14.375C50.4641 14.615 50.6341 14.89 50.7741 15.2C50.9141 15.5 50.9841 15.825 50.9841 16.175C50.9841 16.625 50.8941 17.015 50.7141 17.345C51.6441 17.285 52.3991 16.795 52.9791 15.875L53.5941 16.58C53.0741 17.33 52.4891 17.845 51.8391 18.125C51.1991 18.405 50.3941 18.505 49.4241 18.425C48.9741 18.595 48.4441 18.68 47.8341 18.68ZM58.6232 15.875L59.2382 16.58C58.2982 17.98 57.1482 18.68 55.7882 18.68C55.0582 18.68 54.5382 18.47 54.2282 18.05C53.9282 17.63 53.8482 16.965 53.9882 16.055L54.4532 13.115H53.5232L53.7182 11.87H54.6632L55.0232 9.605L57.0332 9.425L56.6432 11.87H58.0532L57.8582 13.115H56.4482L56.0282 15.8C55.9582 16.31 55.9732 16.67 56.0732 16.88C56.1832 17.09 56.3982 17.195 56.7182 17.195C57.4682 17.175 58.1032 16.735 58.6232 15.875ZM61.9331 18.68C61.1931 18.68 60.6231 18.455 60.2231 18.005C59.8331 17.545 59.6381 16.88 59.6381 16.01C59.6381 14.72 60.0031 13.675 60.7331 12.875C61.4631 12.075 62.4331 11.675 63.6431 11.675C64.0531 11.675 64.5431 11.74 65.1131 11.87L67.0331 11.675L66.3131 16.13C66.2531 16.51 66.2531 16.785 66.3131 16.955C66.3731 17.115 66.5081 17.195 66.7181 17.195C66.9881 17.195 67.2781 17.075 67.5881 16.835C67.9081 16.585 68.1781 16.265 68.3981 15.875L69.0131 16.58C68.0731 17.98 67.0031 18.68 65.8031 18.68C64.9931 18.68 64.5181 18.32 64.3781 17.6C63.6481 18.32 62.8331 18.68 61.9331 18.68ZM62.6531 17.195C63.2031 17.195 63.7481 16.91 64.2881 16.34L64.7681 13.31C64.4981 13.26 64.1931 13.235 63.8531 13.235C63.1631 13.235 62.6231 13.475 62.2331 13.955C61.8531 14.425 61.6631 15.075 61.6631 15.905C61.6631 16.765 61.9931 17.195 62.6531 17.195ZM82.3198 15.875L82.9498 16.58C82.4998 17.26 81.9948 17.78 81.4348 18.14C80.8748 18.5 80.3048 18.68 79.7248 18.68C78.9048 18.68 78.4298 18.32 78.2998 17.6C77.5798 18.32 76.7648 18.68 75.8548 18.68C74.3248 18.68 73.5598 17.79 73.5598 16.01C73.5598 14.72 73.9198 13.675 74.6398 12.875C75.3698 12.075 76.3398 11.675 77.5498 11.675C77.9498 11.675 78.4098 11.73 78.9298 11.84L79.5448 8L81.5698 7.82L80.2348 16.13C80.1748 16.51 80.1748 16.785 80.2348 16.955C80.2948 17.115 80.4298 17.195 80.6398 17.195C80.9098 17.195 81.1998 17.075 81.5098 16.835C81.8298 16.585 82.0998 16.265 82.3198 15.875ZM78.1948 16.37L78.7048 13.25C78.3348 13.2 78.0348 13.175 77.8048 13.175C77.1048 13.175 76.5598 13.425 76.1698 13.925C75.7798 14.415 75.5848 15.08 75.5848 15.92C75.5848 16.37 75.6598 16.7 75.8098 16.91C75.9698 17.12 76.2198 17.225 76.5598 17.225C77.1098 17.225 77.6548 16.94 78.1948 16.37ZM90.2399 15.875L90.8699 16.58C89.9099 17.98 88.5299 18.68 86.7299 18.68C85.6399 18.68 84.7999 18.41 84.2099 17.87C83.6299 17.33 83.3399 16.565 83.3399 15.575C83.3399 14.435 83.6849 13.5 84.3749 12.77C85.0649 12.04 85.9499 11.675 87.0299 11.675C87.7799 11.675 88.3749 11.855 88.8149 12.215C89.2649 12.565 89.4849 13.04 89.4749 13.64C89.4649 14.4 89.1149 15.015 88.4249 15.485C87.7349 15.945 86.8099 16.185 85.6499 16.205C85.7599 16.545 85.9649 16.815 86.2649 17.015C86.5649 17.215 86.9299 17.315 87.3599 17.315C88.6499 17.315 89.6099 16.835 90.2399 15.875ZM86.9399 13.145C86.4999 13.145 86.1349 13.335 85.8449 13.715C85.5649 14.085 85.4049 14.575 85.3649 15.185C86.0849 15.185 86.6549 15.065 87.0749 14.825C87.5049 14.585 87.7249 14.26 87.7349 13.85C87.7449 13.62 87.6749 13.445 87.5249 13.325C87.3849 13.205 87.1899 13.145 86.9399 13.145ZM100.786 8.27L99.7358 15.02C99.5258 16.36 99.0908 17.32 98.4308 17.9C97.7708 18.48 96.7908 18.74 95.4908 18.68L95.3708 16.715C96.0308 16.715 96.5558 16.565 96.9458 16.265C97.3458 15.955 97.6008 15.44 97.7108 14.72L98.7158 8.45L100.786 8.27ZM110.581 15.875L111.211 16.58C110.531 17.66 109.696 18.27 108.706 18.41C108.136 18.5 107.536 18.425 106.906 18.185C106.316 18.515 105.646 18.68 104.896 18.68C103.976 18.68 103.276 18.445 102.796 17.975C102.316 17.495 102.076 16.795 102.076 15.875C102.096 14.655 102.476 13.655 103.216 12.875C103.966 12.085 104.936 11.69 106.126 11.69C107.046 11.69 107.746 11.93 108.226 12.41C108.716 12.89 108.961 13.585 108.961 14.495C108.961 15.605 108.651 16.525 108.031 17.255C108.261 17.345 108.501 17.375 108.751 17.345C109.411 17.245 110.021 16.755 110.581 15.875ZM105.076 17.165C105.606 17.175 106.051 16.93 106.411 16.43C106.771 15.92 106.951 15.285 106.951 14.525C106.951 13.655 106.621 13.22 105.961 13.22C105.421 13.22 104.976 13.475 104.626 13.985C104.286 14.495 104.111 15.125 104.101 15.875C104.091 16.735 104.416 17.165 105.076 17.165ZM113.992 21.635C113.072 21.635 112.322 21.5 111.742 21.23L111.967 19.745C112.577 20.055 113.237 20.205 113.947 20.195C114.487 20.185 114.912 20.045 115.222 19.775C115.532 19.515 115.752 19.09 115.882 18.5C115.932 18.35 115.982 18.14 116.032 17.87C115.432 18.41 114.737 18.68 113.947 18.68C112.407 18.68 111.637 17.79 111.637 16.01C111.637 14.71 111.997 13.665 112.717 12.875C113.447 12.075 114.422 11.675 115.642 11.675C116.042 11.675 116.532 11.74 117.112 11.87L119.032 11.675L118.042 17.78C119.032 17.41 119.802 16.775 120.352 15.875L120.967 16.58C120.567 17.18 120.122 17.675 119.632 18.065C119.142 18.445 118.522 18.765 117.772 19.025C117.192 20.765 115.932 21.635 113.992 21.635ZM114.637 17.24C115.197 17.24 115.747 16.92 116.287 16.28L116.782 13.25C116.412 13.2 116.107 13.175 115.867 13.175C115.177 13.175 114.637 13.425 114.247 13.925C113.857 14.415 113.662 15.08 113.662 15.92C113.662 16.38 113.737 16.715 113.887 16.925C114.047 17.135 114.297 17.24 114.637 17.24ZM123.668 18.68C122.928 18.68 122.358 18.455 121.958 18.005C121.568 17.545 121.373 16.88 121.373 16.01C121.373 14.72 121.738 13.675 122.468 12.875C123.198 12.075 124.168 11.675 125.378 11.675C125.788 11.675 126.278 11.74 126.848 11.87L128.768 11.675L128.048 16.13C127.988 16.51 127.988 16.785 128.048 16.955C128.108 17.115 128.243 17.195 128.453 17.195C128.723 17.195 129.013 17.075 129.323 16.835C129.643 16.585 129.913 16.265 130.133 15.875L130.748 16.58C129.808 17.98 128.738 18.68 127.538 18.68C126.728 18.68 126.253 18.32 126.113 17.6C125.383 18.32 124.568 18.68 123.668 18.68ZM124.388 17.195C124.938 17.195 125.483 16.91 126.023 16.34L126.503 13.31C126.233 13.26 125.928 13.235 125.588 13.235C124.898 13.235 124.358 13.475 123.968 13.955C123.588 14.425 123.398 15.075 123.398 15.905C123.398 16.765 123.728 17.195 124.388 17.195ZM139.929 15.875L140.559 16.58C140.109 17.26 139.604 17.78 139.044 18.14C138.484 18.5 137.914 18.68 137.334 18.68C136.514 18.68 136.039 18.32 135.909 17.6C135.189 18.32 134.374 18.68 133.464 18.68C131.934 18.68 131.169 17.79 131.169 16.01C131.169 14.72 131.529 13.675 132.249 12.875C132.979 12.075 133.949 11.675 135.159 11.675C135.559 11.675 136.019 11.73 136.539 11.84L137.154 8L139.179 7.82L137.844 16.13C137.784 16.51 137.784 16.785 137.844 16.955C137.904 17.115 138.039 17.195 138.249 17.195C138.519 17.195 138.809 17.075 139.119 16.835C139.439 16.585 139.709 16.265 139.929 15.875ZM135.804 16.37L136.314 13.25C135.944 13.2 135.644 13.175 135.414 13.175C134.714 13.175 134.169 13.425 133.779 13.925C133.389 14.415 133.194 15.08 133.194 15.92C133.194 16.37 133.269 16.7 133.419 16.91C133.579 17.12 133.829 17.225 134.169 17.225C134.719 17.225 135.264 16.94 135.804 16.37ZM149.469 15.875L150.099 16.58C149.419 17.66 148.584 18.27 147.594 18.41C147.024 18.5 146.424 18.425 145.794 18.185C145.204 18.515 144.534 18.68 143.784 18.68C142.864 18.68 142.164 18.445 141.684 17.975C141.204 17.495 140.964 16.795 140.964 15.875C140.984 14.655 141.364 13.655 142.104 12.875C142.854 12.085 143.824 11.69 145.014 11.69C145.934 11.69 146.634 11.93 147.114 12.41C147.604 12.89 147.849 13.585 147.849 14.495C147.849 15.605 147.539 16.525 146.919 17.255C147.149 17.345 147.389 17.375 147.639 17.345C148.299 17.245 148.909 16.755 149.469 15.875ZM143.964 17.165C144.494 17.175 144.939 16.93 145.299 16.43C145.659 15.92 145.839 15.285 145.839 14.525C145.839 13.655 145.509 13.22 144.849 13.22C144.309 13.22 143.864 13.475 143.514 13.985C143.174 14.495 142.999 15.125 142.989 15.875C142.979 16.735 143.304 17.165 143.964 17.165ZM157.664 15.875L158.294 16.58C157.374 17.98 156.174 18.68 154.694 18.68C153.954 18.68 153.384 18.5 152.984 18.14C152.584 17.78 152.384 17.26 152.384 16.58C152.384 15.56 152.809 14.405 153.659 13.115C153.159 13.105 152.589 13.005 151.949 12.815C152.059 14.225 151.794 15.48 151.154 16.58L150.524 15.875C151.094 14.835 151.249 13.7 150.989 12.47C150.969 12.46 150.889 12.43 150.749 12.38C150.619 12.32 150.529 12.27 150.479 12.23L150.719 10.775C151.879 11.465 153.599 11.83 155.879 11.87L155.519 13.295C154.759 14.335 154.379 15.285 154.379 16.145C154.379 16.845 154.739 17.195 155.459 17.195C155.889 17.195 156.304 17.08 156.704 16.85C157.114 16.61 157.434 16.285 157.664 15.875ZM162.068 18.68C160.988 18.68 160.153 18.41 159.563 17.87C158.983 17.33 158.693 16.565 158.693 15.575C158.693 14.435 159.038 13.5 159.728 12.77C160.418 12.04 161.303 11.675 162.383 11.675C163.133 11.675 163.728 11.855 164.168 12.215C164.618 12.565 164.838 13.04 164.828 13.64C164.818 14.4 164.468 15.015 163.778 15.485C163.088 15.945 162.163 16.185 161.003 16.205C161.093 16.575 161.293 16.855 161.603 17.045C161.923 17.225 162.298 17.315 162.728 17.315C163.308 17.305 163.803 17.165 164.213 16.895C164.633 16.625 165.028 16.21 165.398 15.65C165.588 15.36 165.898 14.735 166.328 13.775C166.758 12.805 167.143 12.105 167.483 11.675L169.523 11.465C169.493 11.915 169.538 12.325 169.658 12.695C169.778 13.055 169.933 13.365 170.123 13.625C170.323 13.875 170.523 14.12 170.723 14.36C170.923 14.59 171.093 14.86 171.233 15.17C171.373 15.48 171.443 15.815 171.443 16.175C171.443 16.625 171.353 17.015 171.173 17.345C172.103 17.285 172.858 16.795 173.438 15.875L174.053 16.58C173.533 17.33 172.948 17.845 172.298 18.125C171.658 18.405 170.853 18.505 169.883 18.425C169.433 18.595 168.903 18.68 168.293 18.68C167.643 18.68 167.028 18.55 166.448 18.29L166.703 16.91C167.223 17.16 167.683 17.285 168.083 17.285C168.493 17.285 168.813 17.19 169.043 17C169.273 16.8 169.388 16.525 169.388 16.175C169.388 15.915 169.308 15.655 169.148 15.395C168.998 15.125 168.828 14.89 168.638 14.69C168.458 14.48 168.273 14.205 168.083 13.865C167.903 13.515 167.793 13.15 167.753 12.77C167.543 13.12 167.253 13.72 166.883 14.57C166.523 15.41 166.233 16.005 166.013 16.355C165.063 17.905 163.748 18.68 162.068 18.68ZM160.718 15.185C161.438 15.185 162.008 15.065 162.428 14.825C162.858 14.585 163.078 14.26 163.088 13.85C163.098 13.62 163.028 13.445 162.878 13.325C162.738 13.205 162.548 13.145 162.308 13.145C161.868 13.145 161.503 13.335 161.213 13.715C160.933 14.085 160.768 14.575 160.718 15.185Z" fill="white"/>
</svg>
