<svg width="302" height="27" viewBox="0 0 302 27" fill="none" xmlns="http://www.w3.org/2000/svg">
<path d="M0 6C0 2.68629 2.68629 0 6 0H296C299.314 0 302 2.68629 302 6V27H0V6Z" fill="#0F0F0F"/>
<path d="M40.155 8.465L42.15 8.27L41.55 18.5H39.48L39.795 13.745L39.99 11.93H39.945L39.105 13.43L37.215 16.505L35.55 16.7L34.455 13.625L33.93 11.945H33.885L33.57 13.97L32.655 18.5H30.6L32.67 8.45L34.56 8.27L35.985 12.455L36.555 14.285H36.6L37.62 12.515L40.155 8.465ZM52.6692 15.875L53.2992 16.58C52.3292 17.98 51.2492 18.68 50.0592 18.68C49.2992 18.68 48.8492 18.315 48.7092 17.585C47.8192 18.315 46.8892 18.68 45.9192 18.68C44.3992 18.68 43.7692 17.86 44.0292 16.22L44.7342 11.87L46.7442 11.675L46.0542 16.085C45.9842 16.465 46.0092 16.74 46.1292 16.91C46.2592 17.08 46.4842 17.165 46.8042 17.165C47.3342 17.165 47.9192 16.9 48.5592 16.37L49.2792 11.87L51.3042 11.675L50.5842 16.28C50.4742 16.89 50.6142 17.195 51.0042 17.195C51.2842 17.195 51.5742 17.07 51.8742 16.82C52.1842 16.57 52.4492 16.255 52.6692 15.875ZM62.0479 15.875L62.6779 16.58C61.7279 17.98 60.6529 18.68 59.4529 18.68C58.8529 18.68 58.4179 18.505 58.1479 18.155C57.8879 17.795 57.8129 17.275 57.9229 16.595L58.2979 14.27C58.4179 13.55 58.1929 13.19 57.6229 13.19C57.0929 13.19 56.4529 13.48 55.7029 14.06L54.9979 18.5H53.0029L54.0529 11.87L56.0779 11.675L55.8979 12.77C56.9479 12.04 57.8829 11.675 58.7029 11.675C59.3529 11.675 59.8179 11.86 60.0979 12.23C60.3879 12.6 60.4779 13.13 60.3679 13.82L59.9779 16.175C59.8679 16.855 60.0129 17.195 60.4129 17.195C60.6729 17.195 60.9529 17.075 61.2529 16.835C61.5629 16.595 61.8279 16.275 62.0479 15.875ZM71.5608 15.875L72.1908 16.58C71.7408 17.26 71.2358 17.78 70.6758 18.14C70.1158 18.5 69.5458 18.68 68.9658 18.68C68.1458 18.68 67.6708 18.32 67.5408 17.6C66.8208 18.32 66.0058 18.68 65.0958 18.68C63.5658 18.68 62.8008 17.79 62.8008 16.01C62.8008 14.72 63.1608 13.675 63.8808 12.875C64.6108 12.075 65.5808 11.675 66.7908 11.675C67.1908 11.675 67.6508 11.73 68.1708 11.84L68.7858 8L70.8108 7.82L69.4758 16.13C69.4158 16.51 69.4158 16.785 69.4758 16.955C69.5358 17.115 69.6708 17.195 69.8808 17.195C70.1508 17.195 70.4408 17.075 70.7508 16.835C71.0708 16.585 71.3408 16.265 71.5608 15.875ZM67.4358 16.37L67.9458 13.25C67.5758 13.2 67.2758 13.175 67.0458 13.175C66.3458 13.175 65.8008 13.425 65.4108 13.925C65.0208 14.415 64.8258 15.08 64.8258 15.92C64.8258 16.37 64.9008 16.7 65.0508 16.91C65.2108 17.12 65.4608 17.225 65.8008 17.225C66.3508 17.225 66.8958 16.94 67.4358 16.37ZM80.8009 15.875L81.4309 16.58C80.7509 17.66 79.9159 18.27 78.9259 18.41C78.3559 18.5 77.7559 18.425 77.1259 18.185C76.5359 18.515 75.8659 18.68 75.1159 18.68C74.1959 18.68 73.4959 18.445 73.0159 17.975C72.5359 17.495 72.2959 16.795 72.2959 15.875C72.3159 14.655 72.6959 13.655 73.4359 12.875C74.1859 12.085 75.1559 11.69 76.3459 11.69C77.2659 11.69 77.9659 11.93 78.4459 12.41C78.9359 12.89 79.1809 13.585 79.1809 14.495C79.1809 15.605 78.8709 16.525 78.2509 17.255C78.4809 17.345 78.7209 17.375 78.9709 17.345C79.6309 17.245 80.2409 16.755 80.8009 15.875ZM75.2959 17.165C75.8259 17.175 76.2709 16.93 76.6309 16.43C76.9909 15.92 77.1709 15.285 77.1709 14.525C77.1709 13.655 76.8409 13.22 76.1809 13.22C75.6409 13.22 75.1959 13.475 74.8459 13.985C74.5059 14.495 74.3309 15.125 74.3209 15.875C74.3109 16.735 74.6359 17.165 75.2959 17.165Z" fill="white"/>
</svg>
