<svg width="302" height="27" viewBox="0 0 302 27" fill="none" xmlns="http://www.w3.org/2000/svg">
<path d="M0 6C0 2.68629 2.68629 0 6 0H296C299.314 0 302 2.68629 302 6V27H0V6Z" fill="#0F0F0F"/>
<path d="M34.575 18.68C33.335 18.68 32.39 18.315 31.74 17.585C31.1 16.855 30.78 15.805 30.78 14.435C30.78 12.665 31.275 11.195 32.265 10.025C33.265 8.855 34.535 8.27 36.075 8.27C37.315 8.27 38.26 8.64 38.91 9.38C39.56 10.11 39.885 11.155 39.885 12.515C39.885 14.275 39.385 15.745 38.385 16.925C37.385 18.095 36.115 18.68 34.575 18.68ZM34.695 16.91C35.585 16.91 36.325 16.49 36.915 15.65C37.515 14.81 37.815 13.76 37.815 12.5C37.815 10.86 37.195 10.04 35.955 10.04C35.065 10.04 34.325 10.46 33.735 11.3C33.145 12.14 32.85 13.19 32.85 14.45C32.85 16.09 33.465 16.91 34.695 16.91ZM50.2376 15.875L50.8676 16.58C49.8976 17.98 48.8176 18.68 47.6276 18.68C46.8676 18.68 46.4176 18.315 46.2776 17.585C45.3876 18.315 44.4576 18.68 43.4876 18.68C41.9676 18.68 41.3376 17.86 41.5976 16.22L42.3026 11.87L44.3126 11.675L43.6226 16.085C43.5526 16.465 43.5776 16.74 43.6976 16.91C43.8276 17.08 44.0526 17.165 44.3726 17.165C44.9026 17.165 45.4876 16.9 46.1276 16.37L46.8476 11.87L48.8726 11.675L48.1526 16.28C48.0426 16.89 48.1826 17.195 48.5726 17.195C48.8526 17.195 49.1426 17.07 49.4426 16.82C49.7526 16.57 50.0176 16.255 50.2376 15.875ZM52.7762 18.68C51.2962 18.68 50.6912 17.805 50.9612 16.055L51.4262 13.115H50.4962L50.6912 11.87H51.6362L51.9962 9.605L54.0062 9.425L53.6312 11.87H55.0262L54.8312 13.115H53.4362L53.0162 15.8C52.9362 16.31 52.9512 16.67 53.0612 16.88C53.1812 17.09 53.4012 17.195 53.7212 17.195C54.5312 17.185 55.1762 16.78 55.6562 15.98C55.9362 15.5 56.1212 14.945 56.2112 14.315C56.3112 13.675 56.3012 13.055 56.1812 12.455C55.9212 12.325 55.7762 12.25 55.7462 12.23L55.9862 10.775C57.1462 11.465 58.8662 11.83 61.1462 11.87L60.7862 13.295C60.0262 14.335 59.6462 15.285 59.6462 16.145C59.6462 16.845 59.9912 17.195 60.6812 17.195C61.1312 17.195 61.5612 17.08 61.9712 16.85C62.3812 16.61 62.7012 16.285 62.9312 15.875L63.5612 16.58C62.6412 17.98 61.4512 18.68 59.9912 18.68C59.2612 18.68 58.6862 18.5 58.2662 18.14C57.8562 17.77 57.6512 17.25 57.6512 16.58C57.6512 15.57 58.0862 14.41 58.9562 13.1C58.3362 13.08 57.7212 12.975 57.1112 12.785C57.2512 14.245 57.0062 15.525 56.3762 16.625C55.9862 17.275 55.4812 17.78 54.8612 18.14C54.2512 18.5 53.5562 18.68 52.7762 18.68ZM72.1847 15.875L72.8147 16.58C72.1347 17.66 71.2997 18.27 70.3097 18.41C69.7397 18.5 69.1397 18.425 68.5097 18.185C67.9197 18.515 67.2497 18.68 66.4997 18.68C65.5797 18.68 64.8797 18.445 64.3997 17.975C63.9197 17.495 63.6797 16.795 63.6797 15.875C63.6997 14.655 64.0797 13.655 64.8197 12.875C65.5697 12.085 66.5397 11.69 67.7297 11.69C68.6497 11.69 69.3497 11.93 69.8297 12.41C70.3197 12.89 70.5647 13.585 70.5647 14.495C70.5647 15.605 70.2547 16.525 69.6347 17.255C69.8647 17.345 70.1047 17.375 70.3547 17.345C71.0147 17.245 71.6247 16.755 72.1847 15.875ZM66.6797 17.165C67.2097 17.175 67.6547 16.93 68.0147 16.43C68.3747 15.92 68.5547 15.285 68.5547 14.525C68.5547 13.655 68.2247 13.22 67.5647 13.22C67.0247 13.22 66.5797 13.475 66.2297 13.985C65.8897 14.495 65.7147 15.125 65.7047 15.875C65.6947 16.735 66.0197 17.165 66.6797 17.165ZM75.7604 18.68C75.0804 18.68 74.4904 18.565 73.9904 18.335L74.2454 16.94C74.7154 17.17 75.1504 17.285 75.5504 17.285C75.9604 17.285 76.2804 17.19 76.5104 17C76.7404 16.81 76.8554 16.545 76.8554 16.205C76.8554 15.955 76.7804 15.695 76.6304 15.425C76.4804 15.155 76.3104 14.915 76.1204 14.705C75.9404 14.495 75.7604 14.22 75.5804 13.88C75.4004 13.54 75.2904 13.185 75.2504 12.815H75.2204C75.0604 13.135 74.8104 13.745 74.4704 14.645C74.1304 15.545 73.8304 16.19 73.5704 16.58L72.9404 15.875C73.1204 15.585 73.4004 14.94 73.7804 13.94C74.1704 12.93 74.5604 12.175 74.9504 11.675L76.9904 11.465C76.9604 11.915 77.0054 12.325 77.1254 12.695C77.2454 13.065 77.4004 13.38 77.5904 13.64C77.7904 13.89 77.9904 14.135 78.1904 14.375C78.3904 14.615 78.5604 14.89 78.7004 15.2C78.8404 15.5 78.9104 15.825 78.9104 16.175C78.9104 16.625 78.8204 17.015 78.6404 17.345C79.5704 17.285 80.3254 16.795 80.9054 15.875L81.5204 16.58C81.0004 17.33 80.4154 17.845 79.7654 18.125C79.1254 18.405 78.3204 18.505 77.3504 18.425C76.9004 18.595 76.3704 18.68 75.7604 18.68Z" fill="white"/>
</svg>
