<svg width="302" height="27" viewBox="0 0 302 27" fill="none" xmlns="http://www.w3.org/2000/svg">
<path d="M0 6C0 2.68629 2.68629 0 6 0H296C299.314 0 302 2.68629 302 6V27H0V6Z" fill="#0F0F0F"/>
<path d="M35.61 8.45C36.89 8.45 37.81 8.69 38.37 9.17C38.93 9.65 39.21 10.35 39.21 11.27C39.21 12.51 38.78 13.495 37.92 14.225C37.07 14.955 35.93 15.32 34.5 15.32H33.135L32.64 18.5H30.645L32.22 8.45H35.61ZM34.56 13.655C35.37 13.655 36.005 13.47 36.465 13.1C36.935 12.73 37.17 12.205 37.17 11.525C37.17 11.035 37.02 10.685 36.72 10.475C36.43 10.265 35.93 10.16 35.22 10.16H33.945L33.405 13.655H34.56ZM40.02 12.53L40.35 10.97C41.38 11.55 42.895 11.85 44.895 11.87L44.535 13.295C43.555 14.365 43.065 15.31 43.065 16.13C43.065 16.84 43.425 17.195 44.145 17.195C44.595 17.195 45.02 17.075 45.42 16.835C45.82 16.595 46.135 16.275 46.365 15.875L46.995 16.58C46.065 17.98 44.865 18.68 43.395 18.68C42.645 18.68 42.07 18.5 41.67 18.14C41.28 17.77 41.085 17.245 41.085 16.565C41.085 15.575 41.605 14.455 42.645 13.205C41.585 13.155 40.71 12.93 40.02 12.53ZM49.0411 10.805C48.7111 10.805 48.4361 10.705 48.2161 10.505C47.9961 10.305 47.8861 10.05 47.8861 9.74C47.8861 9.37 48.0161 9.06 48.2761 8.81C48.5361 8.56 48.8561 8.435 49.2361 8.435C49.5561 8.435 49.8211 8.54 50.0311 8.75C50.2411 8.95 50.3461 9.205 50.3461 9.515C50.3461 9.885 50.2211 10.195 49.9711 10.445C49.7211 10.685 49.4111 10.805 49.0411 10.805ZM51.6211 15.875L52.2511 16.58C51.2811 17.98 50.1411 18.68 48.8311 18.68C48.1111 18.68 47.6061 18.47 47.3161 18.05C47.0261 17.62 46.9511 16.955 47.0911 16.055L47.7661 11.87L49.7911 11.675L49.1311 15.785C49.0511 16.295 49.0561 16.66 49.1461 16.88C49.2361 17.09 49.4361 17.195 49.7461 17.195C50.4861 17.185 51.1111 16.745 51.6211 15.875ZM60.9785 15.875L61.6085 16.58C60.6585 17.98 59.5835 18.68 58.3835 18.68C57.7835 18.68 57.3485 18.505 57.0785 18.155C56.8185 17.795 56.7435 17.275 56.8535 16.595L57.2285 14.27C57.3485 13.55 57.1235 13.19 56.5535 13.19C56.0235 13.19 55.3835 13.48 54.6335 14.06L53.9285 18.5H51.9335L52.9835 11.87L55.0085 11.675L54.8285 12.77C55.8785 12.04 56.8135 11.675 57.6335 11.675C58.2835 11.675 58.7485 11.86 59.0285 12.23C59.3185 12.6 59.4085 13.13 59.2985 13.82L58.9085 16.175C58.7985 16.855 58.9435 17.195 59.3435 17.195C59.6035 17.195 59.8835 17.075 60.1835 16.835C60.4935 16.595 60.7585 16.275 60.9785 15.875ZM65.0764 18.68C63.9464 18.68 63.0964 18.41 62.5264 17.87C61.9664 17.32 61.6964 16.525 61.7164 15.485C61.7364 14.355 62.0914 13.44 62.7814 12.74C63.4714 12.03 64.3614 11.675 65.4514 11.675C66.4014 11.675 67.0614 11.945 67.4314 12.485C67.8114 13.025 67.8164 13.72 67.4464 14.57L65.8864 14.21C66.0164 13.9 66.0264 13.65 65.9164 13.46C65.8064 13.26 65.6014 13.16 65.3014 13.16C64.8514 13.16 64.4764 13.375 64.1764 13.805C63.8764 14.225 63.7264 14.755 63.7264 15.395C63.7264 16.675 64.3714 17.315 65.6614 17.315C66.9714 17.315 67.9514 16.835 68.6014 15.875L69.2164 16.58C68.2664 17.98 66.8864 18.68 65.0764 18.68ZM71.2569 10.805C70.9269 10.805 70.6519 10.705 70.4319 10.505C70.2119 10.305 70.1019 10.05 70.1019 9.74C70.1019 9.37 70.2319 9.06 70.4919 8.81C70.7519 8.56 71.0719 8.435 71.4519 8.435C71.7719 8.435 72.0369 8.54 72.2469 8.75C72.4569 8.95 72.5619 9.205 72.5619 9.515C72.5619 9.885 72.4369 10.195 72.1869 10.445C71.9369 10.685 71.6269 10.805 71.2569 10.805ZM73.8369 15.875L74.4669 16.58C73.4969 17.98 72.3569 18.68 71.0469 18.68C70.3269 18.68 69.8219 18.47 69.5319 18.05C69.2419 17.62 69.1669 16.955 69.3069 16.055L69.9819 11.87L72.0069 11.675L71.3469 15.785C71.2669 16.295 71.2719 16.66 71.3619 16.88C71.4519 17.09 71.6519 17.195 71.9619 17.195C72.7019 17.185 73.3269 16.745 73.8369 15.875ZM73.6993 21.455L75.2143 11.87L77.2393 11.675L77.0743 12.77C77.9443 12.04 78.7843 11.675 79.5943 11.675C80.3043 11.675 80.8193 11.92 81.1393 12.41C81.4593 12.9 81.5743 13.615 81.4843 14.555C81.3743 15.655 81.0543 16.565 80.5243 17.285C80.7843 17.385 81.0693 17.41 81.3793 17.36C82.0893 17.26 82.7043 16.765 83.2243 15.875L83.8393 16.58C83.0093 17.84 81.9993 18.465 80.8093 18.455C80.3393 18.455 79.8993 18.365 79.4893 18.185C78.9493 18.515 78.2893 18.68 77.5093 18.68C77.0993 18.68 76.6493 18.63 76.1593 18.53L75.6943 21.455H73.6993ZM77.4193 17.18C77.9893 17.17 78.4493 16.97 78.7993 16.58C79.1493 16.19 79.3643 15.61 79.4443 14.84C79.5043 14.28 79.4693 13.87 79.3393 13.61C79.2093 13.34 78.9643 13.205 78.6043 13.205C78.1443 13.205 77.5643 13.495 76.8643 14.075L76.3993 17.03C76.7593 17.13 77.0993 17.18 77.4193 17.18ZM86.2419 18.68C85.5019 18.68 84.9319 18.455 84.5319 18.005C84.1419 17.545 83.9469 16.88 83.9469 16.01C83.9469 14.72 84.3119 13.675 85.0419 12.875C85.7719 12.075 86.7419 11.675 87.9519 11.675C88.3619 11.675 88.8519 11.74 89.4219 11.87L91.3419 11.675L90.6219 16.13C90.5619 16.51 90.5619 16.785 90.6219 16.955C90.6819 17.115 90.8169 17.195 91.0269 17.195C91.2969 17.195 91.5869 17.075 91.8969 16.835C92.2169 16.585 92.4869 16.265 92.7069 15.875L93.3219 16.58C92.3819 17.98 91.3119 18.68 90.1119 18.68C89.3019 18.68 88.8269 18.32 88.6869 17.6C87.9569 18.32 87.1419 18.68 86.2419 18.68ZM86.9619 17.195C87.5119 17.195 88.0569 16.91 88.5969 16.34L89.0769 13.31C88.8069 13.26 88.5019 13.235 88.1619 13.235C87.4719 13.235 86.9319 13.475 86.5419 13.955C86.1619 14.425 85.9719 15.075 85.9719 15.905C85.9719 16.765 86.3019 17.195 86.9619 17.195ZM98.0474 15.875L98.6624 16.58C97.7124 17.98 96.5674 18.68 95.2274 18.68C94.4774 18.68 93.9524 18.47 93.6524 18.05C93.3524 17.62 93.2724 16.955 93.4124 16.055L94.6874 8L96.7124 7.82L95.4524 15.785C95.3724 16.285 95.3824 16.645 95.4824 16.865C95.5924 17.085 95.8124 17.195 96.1424 17.195C96.5124 17.185 96.8624 17.065 97.1924 16.835C97.5324 16.595 97.8174 16.275 98.0474 15.875Z" fill="white"/>
</svg>
