<svg width="302" height="27" viewBox="0 0 302 27" fill="none" xmlns="http://www.w3.org/2000/svg">
<path d="M0 6C0 2.68629 2.68629 0 6 0H296C299.314 0 302 2.68629 302 6V27H0V6Z" fill="#0F0F0F"/>
<path d="M35.236 8.12C36.4307 8.12 37.2893 8.344 37.812 8.792C38.3347 9.24 38.596 9.89333 38.596 10.752C38.596 11.9093 38.1947 12.8287 37.392 13.51C36.5987 14.1913 35.5347 14.532 34.2 14.532H32.926L32.464 17.5H30.602L32.072 8.12H35.236ZM34.256 12.978C35.012 12.978 35.6047 12.8053 36.034 12.46C36.4727 12.1147 36.692 11.6247 36.692 10.99C36.692 10.5327 36.552 10.206 36.272 10.01C36.0013 9.814 35.5347 9.716 34.872 9.716H33.682L33.178 12.978H34.256ZM39.352 11.928L39.66 10.472C40.6213 11.0133 42.0353 11.2933 43.902 11.312L43.566 12.642C42.6513 13.6407 42.194 14.5227 42.194 15.288C42.194 15.9507 42.53 16.282 43.202 16.282C43.622 16.282 44.0187 16.17 44.392 15.946C44.7653 15.722 45.0593 15.4233 45.274 15.05L45.862 15.708C44.994 17.0147 43.874 17.668 42.502 17.668C41.802 17.668 41.2653 17.5 40.892 17.164C40.528 16.8187 40.346 16.3287 40.346 15.694C40.346 14.77 40.8313 13.7247 41.802 12.558C40.8127 12.5113 39.996 12.3013 39.352 11.928ZM47.4917 10.318C47.1837 10.318 46.927 10.2247 46.7217 10.038C46.5164 9.85133 46.4137 9.61333 46.4137 9.324C46.4137 8.97867 46.535 8.68933 46.7777 8.456C47.0204 8.22267 47.319 8.106 47.6737 8.106C47.9724 8.106 48.2197 8.204 48.4157 8.4C48.6117 8.58667 48.7097 8.82467 48.7097 9.114C48.7097 9.45933 48.593 9.74867 48.3597 9.982C48.1264 10.206 47.837 10.318 47.4917 10.318ZM49.8997 15.05L50.4877 15.708C49.5824 17.0147 48.5184 17.668 47.2957 17.668C46.6237 17.668 46.1524 17.472 45.8817 17.08C45.611 16.6787 45.541 16.058 45.6717 15.218L46.3017 11.312L48.1917 11.13L47.5757 14.966C47.501 15.442 47.5057 15.7827 47.5897 15.988C47.6737 16.184 47.8604 16.282 48.1497 16.282C48.8404 16.2727 49.4237 15.862 49.8997 15.05ZM58.3533 15.05L58.9413 15.708C58.0546 17.0147 57.0513 17.668 55.9313 17.668C55.3713 17.668 54.9653 17.5047 54.7133 17.178C54.4706 16.842 54.4006 16.3567 54.5033 15.722L54.8533 13.552C54.9653 12.88 54.7553 12.544 54.2233 12.544C53.7286 12.544 53.1313 12.8147 52.4313 13.356L51.7733 17.5H49.9113L50.8913 11.312L52.7813 11.13L52.6133 12.152C53.5933 11.4707 54.4659 11.13 55.2313 11.13C55.8379 11.13 56.2719 11.3027 56.5333 11.648C56.8039 11.9933 56.8879 12.488 56.7853 13.132L56.4213 15.33C56.3186 15.9647 56.4539 16.282 56.8273 16.282C57.0699 16.282 57.3313 16.17 57.6113 15.946C57.9006 15.722 58.1479 15.4233 58.3533 15.05ZM61.898 17.668C60.8433 17.668 60.05 17.416 59.518 16.912C58.9953 16.3987 58.7433 15.6567 58.762 14.686C58.7807 13.6313 59.112 12.7773 59.756 12.124C60.4 11.4613 61.2307 11.13 62.248 11.13C63.1347 11.13 63.7507 11.382 64.096 11.886C64.4507 12.39 64.4553 13.0387 64.11 13.832L62.654 13.496C62.7753 13.2067 62.7847 12.9733 62.682 12.796C62.5793 12.6093 62.388 12.516 62.108 12.516C61.688 12.516 61.338 12.7167 61.058 13.118C60.778 13.51 60.638 14.0047 60.638 14.602C60.638 15.7967 61.24 16.394 62.444 16.394C63.6667 16.394 64.5813 15.946 65.188 15.05L65.762 15.708C64.8753 17.0147 63.5873 17.668 61.898 17.668ZM67.3865 10.318C67.0785 10.318 66.8218 10.2247 66.6165 10.038C66.4111 9.85133 66.3085 9.61333 66.3085 9.324C66.3085 8.97867 66.4298 8.68933 66.6725 8.456C66.9151 8.22267 67.2138 8.106 67.5685 8.106C67.8671 8.106 68.1145 8.204 68.3105 8.4C68.5065 8.58667 68.6045 8.82467 68.6045 9.114C68.6045 9.45933 68.4878 9.74867 68.2545 9.982C68.0211 10.206 67.7318 10.318 67.3865 10.318ZM69.7945 15.05L70.3825 15.708C69.4771 17.0147 68.4131 17.668 67.1905 17.668C66.5185 17.668 66.0471 17.472 65.7765 17.08C65.5058 16.6787 65.4358 16.058 65.5665 15.218L66.1965 11.312L68.0865 11.13L67.4705 14.966C67.3958 15.442 67.4005 15.7827 67.4845 15.988C67.5685 16.184 67.7551 16.282 68.0445 16.282C68.7351 16.2727 69.3185 15.862 69.7945 15.05ZM69.386 20.258L70.8 11.312L72.69 11.13L72.536 12.152C73.348 11.4707 74.132 11.13 74.888 11.13C75.5507 11.13 76.0314 11.3587 76.33 11.816C76.6287 12.2733 76.736 12.9407 76.652 13.818C76.5494 14.8447 76.2507 15.694 75.756 16.366C75.9987 16.4593 76.2647 16.4827 76.554 16.436C77.2167 16.3427 77.7907 15.8807 78.276 15.05L78.85 15.708C78.0754 16.884 77.1327 17.4673 76.022 17.458C75.5834 17.458 75.1727 17.374 74.79 17.206C74.286 17.514 73.67 17.668 72.942 17.668C72.5594 17.668 72.1394 17.6213 71.682 17.528L71.248 20.258H69.386ZM72.858 16.268C73.39 16.2587 73.8194 16.072 74.146 15.708C74.4727 15.344 74.6734 14.8027 74.748 14.084C74.804 13.5613 74.7714 13.1787 74.65 12.936C74.5287 12.684 74.3 12.558 73.964 12.558C73.5347 12.558 72.9934 12.8287 72.34 13.37L71.906 16.128C72.242 16.2213 72.5594 16.268 72.858 16.268ZM80.8125 17.668C80.1218 17.668 79.5898 17.458 79.2165 17.038C78.8525 16.6087 78.6705 15.988 78.6705 15.176C78.6705 13.972 79.0111 12.9967 79.6925 12.25C80.3738 11.5033 81.2791 11.13 82.4085 11.13C82.7911 11.13 83.2485 11.1907 83.7805 11.312L85.5725 11.13L84.9005 15.288C84.8445 15.6427 84.8445 15.8993 84.9005 16.058C84.9565 16.2073 85.0825 16.282 85.2785 16.282C85.5305 16.282 85.8011 16.17 86.0905 15.946C86.3891 15.7127 86.6411 15.414 86.8465 15.05L87.4205 15.708C86.5431 17.0147 85.5445 17.668 84.4245 17.668C83.6685 17.668 83.2251 17.332 83.0945 16.66C82.4131 17.332 81.6525 17.668 80.8125 17.668ZM81.4845 16.282C81.9978 16.282 82.5065 16.016 83.0105 15.484L83.4585 12.656C83.2065 12.6093 82.9218 12.586 82.6045 12.586C81.9605 12.586 81.4565 12.81 81.0925 13.258C80.7378 13.6967 80.5605 14.3033 80.5605 15.078C80.5605 15.8807 80.8685 16.282 81.4845 16.282ZM91.5509 15.05L92.1249 15.708C91.2382 17.0147 90.1696 17.668 88.9189 17.668C88.2189 17.668 87.7289 17.472 87.4489 17.08C87.1689 16.6787 87.0942 16.058 87.2249 15.218L88.4149 7.7L90.3049 7.532L89.1289 14.966C89.0542 15.4327 89.0636 15.7687 89.1569 15.974C89.2596 16.1793 89.4649 16.282 89.7729 16.282C90.1182 16.2727 90.4449 16.1607 90.7529 15.946C91.0702 15.722 91.3362 15.4233 91.5509 15.05Z" fill="white"/>
</svg>
