<svg width="302" height="28" viewBox="0 0 302 28" fill="none" xmlns="http://www.w3.org/2000/svg">
<g clip-path="url(#clip0_362_43)">
<path d="M0.5 6.5C0.5 3.46243 2.96243 1 6 1H296C299.038 1 301.5 3.46242 301.5 6.5V27H0.5V6.5Z" fill="#131312" stroke="#1E1E1D"/>
<path d="M34.795 18.9999L34.525 16.6449H31.285L30.07 18.9999H27.85L33.13 8.94995L35.365 8.75495L36.985 18.9999H34.795ZM32.05 15.0999H34.375L34.105 13.0899L33.955 11.2749H33.925L33.07 13.1499L32.05 15.0999ZM40.7423 11.3049C40.4123 11.3049 40.1373 11.2049 39.9173 11.0049C39.6973 10.8049 39.5873 10.5499 39.5873 10.2399C39.5873 9.86995 39.7173 9.55995 39.9773 9.30995C40.2373 9.05995 40.5573 8.93495 40.9373 8.93495C41.2573 8.93495 41.5223 9.03995 41.7323 9.24995C41.9423 9.44995 42.0473 9.70495 42.0473 10.0149C42.0473 10.3849 41.9223 10.6949 41.6723 10.9449C41.4223 11.1849 41.1123 11.3049 40.7423 11.3049ZM43.3223 16.3749L43.9523 17.0799C42.9823 18.4799 41.8423 19.1799 40.5323 19.1799C39.8123 19.1799 39.3073 18.9699 39.0173 18.5499C38.7273 18.1199 38.6523 17.4549 38.7923 16.5549L39.4673 12.3699L41.4923 12.1749L40.8323 16.2849C40.7523 16.7949 40.7573 17.1599 40.8473 17.3799C40.9373 17.5899 41.1373 17.6949 41.4473 17.6949C42.1873 17.6849 42.8123 17.2449 43.3223 16.3749ZM56.7747 16.3749L57.3897 17.0799C56.4497 18.4799 55.3747 19.1799 54.1647 19.1799C53.5647 19.1799 53.1297 19.0049 52.8597 18.6549C52.5997 18.2949 52.5247 17.7749 52.6347 17.0949L53.0247 14.7699C53.1347 14.0499 52.9247 13.6899 52.3947 13.6899C51.9647 13.6899 51.4047 13.9399 50.7147 14.4399L49.9947 18.9999H47.9997L48.6747 14.7699C48.7947 14.0499 48.5897 13.6899 48.0597 13.6899C47.6197 13.6899 47.0497 13.9449 46.3497 14.4549L45.6297 18.9999H43.6347L44.6847 12.3699L46.7097 12.1749L46.5447 13.1649C47.5247 12.5049 48.3847 12.1749 49.1247 12.1749C50.0247 12.1749 50.5597 12.5449 50.7297 13.2849C51.7797 12.5449 52.6947 12.1749 53.4747 12.1749C54.0947 12.1749 54.5447 12.3649 54.8247 12.7449C55.1147 13.1149 55.2047 13.6399 55.0947 14.3199L54.7047 16.6749C54.5947 17.3549 54.7347 17.6949 55.1247 17.6949C55.3947 17.6949 55.6797 17.5749 55.9797 17.3349C56.2797 17.0949 56.5447 16.7749 56.7747 16.3749ZM62.1099 16.3749L62.7249 17.0799C61.7749 18.4799 60.6299 19.1799 59.2899 19.1799C58.5399 19.1799 58.0149 18.9699 57.7149 18.5499C57.4149 18.1199 57.3349 17.4549 57.4749 16.5549L58.7499 8.49995L60.7749 8.31995L59.5149 16.2849C59.4349 16.7849 59.4449 17.1449 59.5449 17.3649C59.6549 17.5849 59.8749 17.6949 60.2049 17.6949C60.5749 17.6849 60.9249 17.5649 61.2549 17.3349C61.5949 17.0949 61.8799 16.7749 62.1099 16.3749ZM71.3448 16.3749L71.9748 17.0799C71.2948 18.1599 70.4598 18.7699 69.4698 18.9099C68.8998 18.9999 68.2998 18.9249 67.6698 18.6849C67.0798 19.0149 66.4098 19.1799 65.6598 19.1799C64.7398 19.1799 64.0398 18.9449 63.5598 18.4749C63.0798 17.9949 62.8398 17.2949 62.8398 16.3749C62.8598 15.1549 63.2398 14.1549 63.9798 13.3749C64.7298 12.5849 65.6998 12.1899 66.8898 12.1899C67.8098 12.1899 68.5098 12.4299 68.9898 12.9099C69.4798 13.3899 69.7248 14.0849 69.7248 14.9949C69.7248 16.1049 69.4148 17.0249 68.7948 17.7549C69.0248 17.8449 69.2648 17.8749 69.5148 17.8449C70.1748 17.7449 70.7848 17.2549 71.3448 16.3749ZM65.8398 17.6649C66.3698 17.6749 66.8148 17.4299 67.1748 16.9299C67.5348 16.4199 67.7148 15.7849 67.7148 15.0249C67.7148 14.1549 67.3848 13.7199 66.7248 13.7199C66.1848 13.7199 65.7398 13.9749 65.3898 14.4849C65.0498 14.9949 64.8748 15.6249 64.8648 16.3749C64.8548 17.2349 65.1798 17.6649 65.8398 17.6649ZM75.4456 19.1799C74.3156 19.1799 73.4656 18.9099 72.8956 18.3699C72.3356 17.8199 72.0656 17.0249 72.0856 15.9849C72.1056 14.8549 72.4606 13.9399 73.1506 13.2399C73.8406 12.5299 74.7306 12.1749 75.8206 12.1749C76.7706 12.1749 77.4306 12.4449 77.8006 12.9849C78.1806 13.5249 78.1856 14.2199 77.8156 15.0699L76.2556 14.7099C76.3856 14.3999 76.3956 14.1499 76.2856 13.9599C76.1756 13.7599 75.9706 13.6599 75.6706 13.6599C75.2206 13.6599 74.8456 13.8749 74.5456 14.3049C74.2456 14.7249 74.0956 15.2549 74.0956 15.8949C74.0956 17.1749 74.7406 17.8149 76.0306 17.8149C77.3406 17.8149 78.3206 17.3349 78.9706 16.3749L79.5856 17.0799C78.6356 18.4799 77.2556 19.1799 75.4456 19.1799ZM87.4161 16.3749L88.0461 17.0799C87.0961 18.4799 86.0561 19.1799 84.9261 19.1799C84.2761 19.1799 83.7361 18.9149 83.3061 18.3849C82.8861 17.8549 82.5961 17.1199 82.4361 16.1799C82.2961 16.2299 82.0511 16.2899 81.7011 16.3599L81.2961 18.9999H79.2861L80.9661 8.49995L82.9911 8.31995L81.9561 14.8149C82.4661 14.6349 82.9461 14.3299 83.3961 13.8999C83.8461 13.4599 84.2161 12.9499 84.5061 12.3699H86.5761C85.9461 13.7099 85.1261 14.7149 84.1161 15.3849C84.3761 16.9449 84.8811 17.7249 85.6311 17.7249C86.2611 17.7249 86.8561 17.2749 87.4161 16.3749Z" fill="white"/>
</g>
<defs>
<clipPath id="clip0_362_43">
<rect width="302" height="27" fill="white" transform="translate(0 0.5)"/>
</clipPath>
</defs>
</svg>
