<svg width="302" height="28" viewBox="0 0 302 28" fill="none" xmlns="http://www.w3.org/2000/svg">
<g clip-path="url(#clip0_362_49)">
<path d="M0.5 6.5C0.5 3.46243 2.96243 1 6 1H296C299.038 1 301.5 3.46242 301.5 6.5V27H0.5V6.5Z" fill="#131312" stroke="#1E1E1D"/>
<path d="M28.645 19L30.22 8.95002H36.745L36.475 10.705H31.945L31.585 13.09H35.86L35.59 14.755H31.315L30.94 17.245H35.575L35.305 19H28.645ZM41.5068 19.18C39.7568 19.18 38.5168 18.555 37.7868 17.305L39.1968 16.12C39.7868 16.98 40.5768 17.415 41.5668 17.425C42.1068 17.425 42.5418 17.315 42.8718 17.095C43.2118 16.875 43.3818 16.58 43.3818 16.21C43.3818 15.99 43.2818 15.78 43.0818 15.58C42.8818 15.38 42.6468 15.215 42.3768 15.085C42.1068 14.945 41.7268 14.765 41.2368 14.545C41.1968 14.525 41.1618 14.51 41.1318 14.5C41.1118 14.49 41.0868 14.48 41.0568 14.47C40.2668 14.12 39.6918 13.715 39.3318 13.255C38.9718 12.785 38.8018 12.22 38.8218 11.56C38.8418 10.7 39.1568 10.02 39.7668 9.52002C40.3768 9.02002 41.2068 8.77002 42.2568 8.77002C43.8368 8.77002 44.9418 9.32502 45.5718 10.435L44.1318 11.485C43.7018 10.845 43.0868 10.525 42.2868 10.525C41.3468 10.525 40.8668 10.86 40.8468 11.53C40.8468 11.9 41.0168 12.215 41.3568 12.475C41.7068 12.725 42.2868 13.03 43.0968 13.39C44.6768 14.06 45.4518 15.025 45.4218 16.285C45.4018 17.165 45.0368 17.87 44.3268 18.4C43.6168 18.92 42.6768 19.18 41.5068 19.18ZM52.3073 8.95002C53.5873 8.95002 54.5073 9.19002 55.0673 9.67002C55.6273 10.15 55.9073 10.85 55.9073 11.77C55.9073 13.01 55.4773 13.995 54.6173 14.725C53.7673 15.455 52.6273 15.82 51.1973 15.82H49.8323L49.3373 19H47.3423L48.9173 8.95002H52.3073ZM51.2573 14.155C52.0673 14.155 52.7023 13.97 53.1623 13.6C53.6323 13.23 53.8673 12.705 53.8673 12.025C53.8673 11.535 53.7173 11.185 53.4173 10.975C53.1273 10.765 52.6273 10.66 51.9173 10.66H50.6423L50.1023 14.155H51.2573Z" fill="white"/>
</g>
<defs>
<clipPath id="clip0_362_49">
<rect width="302" height="27" fill="white" transform="translate(0 0.5)"/>
</clipPath>
</defs>
</svg>
