<svg width="302" height="28" viewBox="0 0 302 28" fill="none" xmlns="http://www.w3.org/2000/svg">
<g clip-path="url(#clip0_362_52)">
<path d="M0.5 6.5C0.5 3.46243 2.96243 1 6 1H296C299.038 1 301.5 3.46242 301.5 6.5V27H0.5V6.5Z" fill="#131312" stroke="#1E1E1D"/>
<path d="M30.985 17.1999H35.59L35.32 18.9999H28.645L30.22 8.94995L32.29 8.76995L30.985 17.1999ZM39.2516 11.3049C38.9216 11.3049 38.6466 11.2049 38.4266 11.0049C38.2066 10.8049 38.0966 10.5499 38.0966 10.2399C38.0966 9.86995 38.2266 9.55995 38.4866 9.30995C38.7466 9.05995 39.0666 8.93495 39.4466 8.93495C39.7666 8.93495 40.0316 9.03995 40.2416 9.24995C40.4516 9.44995 40.5566 9.70495 40.5566 10.0149C40.5566 10.3849 40.4316 10.6949 40.1816 10.9449C39.9316 11.1849 39.6216 11.3049 39.2516 11.3049ZM41.8316 16.3749L42.4616 17.0799C41.4916 18.4799 40.3516 19.1799 39.0416 19.1799C38.3216 19.1799 37.8166 18.9699 37.5266 18.5499C37.2366 18.1199 37.1616 17.4549 37.3016 16.5549L37.9766 12.3699L40.0016 12.1749L39.3416 16.2849C39.2616 16.7949 39.2666 17.1599 39.3566 17.3799C39.4466 17.5899 39.6466 17.6949 39.9566 17.6949C40.6966 17.6849 41.3216 17.2449 41.8316 16.3749ZM45.5341 19.1799C44.8541 19.1799 44.2641 19.0649 43.7641 18.8349L44.0191 17.4399C44.4891 17.6699 44.9241 17.7849 45.3241 17.7849C45.7341 17.7849 46.0541 17.6899 46.2841 17.4999C46.5141 17.3099 46.6291 17.0449 46.6291 16.7049C46.6291 16.4549 46.5541 16.1949 46.4041 15.9249C46.2541 15.6549 46.0841 15.4149 45.8941 15.2049C45.7141 14.9949 45.5341 14.7199 45.3541 14.3799C45.1741 14.0399 45.0641 13.6849 45.0241 13.3149H44.9941C44.8341 13.6349 44.5841 14.2449 44.2441 15.1449C43.9041 16.0449 43.6041 16.6899 43.3441 17.0799L42.7141 16.3749C42.8941 16.0849 43.1741 15.4399 43.5541 14.4399C43.9441 13.4299 44.3341 12.6749 44.7241 12.1749L46.7641 11.9649C46.7341 12.4149 46.7791 12.8249 46.8991 13.1949C47.0191 13.5649 47.1741 13.8799 47.3641 14.1399C47.5641 14.3899 47.7641 14.6349 47.9641 14.8749C48.1641 15.1149 48.3341 15.3899 48.4741 15.6999C48.6141 15.9999 48.6841 16.3249 48.6841 16.6749C48.6841 17.1249 48.5941 17.5149 48.4141 17.8449C49.3441 17.7849 50.0991 17.2949 50.6791 16.3749L51.2941 17.0799C50.7741 17.8299 50.1891 18.3449 49.5391 18.6249C48.8991 18.9049 48.0941 19.0049 47.1241 18.9249C46.6741 19.0949 46.1441 19.1799 45.5341 19.1799ZM56.1732 16.3749L56.7882 17.0799C55.8482 18.4799 54.6982 19.1799 53.3382 19.1799C52.6082 19.1799 52.0882 18.9699 51.7782 18.5499C51.4782 18.1299 51.3982 17.4649 51.5382 16.5549L52.0032 13.6149H51.0732L51.2682 12.3699H52.2132L52.5732 10.1049L54.5832 9.92495L54.1932 12.3699H55.6032L55.4082 13.6149H53.9982L53.5782 16.2999C53.5082 16.8099 53.5232 17.1699 53.6232 17.3799C53.7332 17.5899 53.9482 17.6949 54.2682 17.6949C55.0182 17.6749 55.6532 17.2349 56.1732 16.3749ZM59.3331 19.1799C58.5931 19.1799 58.0231 18.9549 57.6231 18.5049C57.2331 18.0449 57.0381 17.3799 57.0381 16.5099C57.0381 15.2199 57.4031 14.1749 58.1331 13.3749C58.8631 12.5749 59.8331 12.1749 61.0431 12.1749C61.4531 12.1749 61.9431 12.2399 62.5131 12.3699L64.4331 12.1749L63.7131 16.6299C63.6531 17.0099 63.6531 17.2849 63.7131 17.4549C63.7731 17.6149 63.9081 17.6949 64.1181 17.6949C64.3881 17.6949 64.6781 17.5749 64.9881 17.3349C65.3081 17.0849 65.5781 16.7649 65.7981 16.3749L66.4131 17.0799C65.4731 18.4799 64.4031 19.1799 63.2031 19.1799C62.3931 19.1799 61.9181 18.8199 61.7781 18.0999C61.0481 18.8199 60.2331 19.1799 59.3331 19.1799ZM60.0531 17.6949C60.6031 17.6949 61.1481 17.4099 61.6881 16.8399L62.1681 13.8099C61.8981 13.7599 61.5931 13.7349 61.2531 13.7349C60.5631 13.7349 60.0231 13.9749 59.6331 14.4549C59.2531 14.9249 59.0631 15.5749 59.0631 16.4049C59.0631 17.2649 59.3931 17.6949 60.0531 17.6949ZM79.4198 16.3749L80.0498 17.0799C79.5998 17.7599 79.0948 18.2799 78.5348 18.6399C77.9748 18.9999 77.4048 19.1799 76.8248 19.1799C76.0048 19.1799 75.5298 18.8199 75.3998 18.0999C74.6798 18.8199 73.8648 19.1799 72.9548 19.1799C71.4248 19.1799 70.6598 18.2899 70.6598 16.5099C70.6598 15.2199 71.0198 14.1749 71.7398 13.3749C72.4698 12.5749 73.4398 12.1749 74.6498 12.1749C75.0498 12.1749 75.5098 12.2299 76.0298 12.3399L76.6448 8.49995L78.6698 8.31995L77.3348 16.6299C77.2748 17.0099 77.2748 17.2849 77.3348 17.4549C77.3948 17.6149 77.5298 17.6949 77.7398 17.6949C78.0098 17.6949 78.2998 17.5749 78.6098 17.3349C78.9298 17.0849 79.1998 16.7649 79.4198 16.3749ZM75.2948 16.8699L75.8048 13.7499C75.4348 13.6999 75.1348 13.6749 74.9048 13.6749C74.2048 13.6749 73.6598 13.9249 73.2698 14.4249C72.8798 14.9149 72.6848 15.5799 72.6848 16.4199C72.6848 16.8699 72.7598 17.1999 72.9098 17.4099C73.0698 17.6199 73.3198 17.7249 73.6598 17.7249C74.2098 17.7249 74.7548 17.4399 75.2948 16.8699ZM87.1899 16.3749L87.8199 17.0799C86.8599 18.4799 85.4799 19.1799 83.6799 19.1799C82.5899 19.1799 81.7499 18.9099 81.1599 18.3699C80.5799 17.8299 80.2899 17.0649 80.2899 16.0749C80.2899 14.9349 80.6349 13.9999 81.3249 13.2699C82.0149 12.5399 82.8999 12.1749 83.9799 12.1749C84.7299 12.1749 85.3249 12.3549 85.7649 12.7149C86.2149 13.0649 86.4349 13.5399 86.4249 14.1399C86.4149 14.8999 86.0649 15.5149 85.3749 15.9849C84.6849 16.4449 83.7599 16.6849 82.5999 16.7049C82.7099 17.0449 82.9149 17.3149 83.2149 17.5149C83.5149 17.7149 83.8799 17.8149 84.3099 17.8149C85.5999 17.8149 86.5599 17.3349 87.1899 16.3749ZM83.8899 13.6449C83.4499 13.6449 83.0849 13.8349 82.7949 14.2149C82.5149 14.5849 82.3549 15.0749 82.3149 15.6849C83.0349 15.6849 83.6049 15.5649 84.0249 15.3249C84.4549 15.0849 84.6749 14.7599 84.6849 14.3499C84.6949 14.1199 84.6249 13.9449 84.4749 13.8249C84.3349 13.7049 84.1399 13.6449 83.8899 13.6449ZM98.486 18.9999L98.216 16.6449H94.9758L93.7608 18.9999H91.5408L96.8208 8.94995L99.056 8.75495L100.676 18.9999H98.486ZM95.7408 15.0999H98.066L97.7958 13.0899L97.6458 11.2749H97.6158L96.7608 13.1499L95.7408 15.0999ZM115.749 16.3749L116.364 17.0799C115.424 18.4799 114.349 19.1799 113.139 19.1799C112.539 19.1799 112.104 19.0049 111.834 18.6549C111.574 18.2949 111.499 17.7749 111.609 17.0949L111.999 14.7699C112.109 14.0499 111.899 13.6899 111.369 13.6899C110.939 13.6899 110.379 13.9399 109.689 14.4399L108.969 18.9999H106.974L107.649 14.7699C107.769 14.0499 107.564 13.6899 107.034 13.6899C106.594 13.6899 106.024 13.9449 105.324 14.4549L104.604 18.9999H102.609L103.659 12.3699L105.684 12.1749L105.519 13.1649C106.499 12.5049 107.359 12.1749 108.099 12.1749C108.999 12.1749 109.534 12.5449 109.704 13.2849C110.754 12.5449 111.669 12.1749 112.449 12.1749C113.069 12.1749 113.519 12.3649 113.799 12.7449C114.089 13.1149 114.179 13.6399 114.069 14.3199L113.679 16.6749C113.569 17.3549 113.709 17.6949 114.099 17.6949C114.369 17.6949 114.654 17.5749 114.954 17.3349C115.254 17.0949 115.519 16.7749 115.749 16.3749ZM118.549 11.3049C118.219 11.3049 117.944 11.2049 117.724 11.0049C117.504 10.8049 117.394 10.5499 117.394 10.2399C117.394 9.86995 117.524 9.55995 117.784 9.30995C118.044 9.05995 118.364 8.93495 118.744 8.93495C119.064 8.93495 119.329 9.03995 119.539 9.24995C119.749 9.44995 119.854 9.70495 119.854 10.0149C119.854 10.3849 119.729 10.6949 119.479 10.9449C119.229 11.1849 118.919 11.3049 118.549 11.3049ZM121.129 16.3749L121.759 17.0799C120.789 18.4799 119.649 19.1799 118.339 19.1799C117.619 19.1799 117.114 18.9699 116.824 18.5499C116.534 18.1199 116.459 17.4549 116.599 16.5549L117.274 12.3699L119.299 12.1749L118.639 16.2849C118.559 16.7949 118.564 17.1599 118.654 17.3799C118.744 17.5899 118.944 17.6949 119.254 17.6949C119.994 17.6849 120.619 17.2449 121.129 16.3749ZM124.367 22.1349C123.447 22.1349 122.697 21.9999 122.117 21.7299L122.342 20.2449C122.952 20.5549 123.612 20.7049 124.322 20.6949C124.862 20.6849 125.287 20.5449 125.597 20.2749C125.907 20.0149 126.127 19.5899 126.257 18.9999C126.307 18.8499 126.357 18.6399 126.407 18.3699C125.807 18.9099 125.112 19.1799 124.322 19.1799C122.782 19.1799 122.012 18.2899 122.012 16.5099C122.012 15.2099 122.372 14.1649 123.092 13.3749C123.822 12.5749 124.797 12.1749 126.017 12.1749C126.417 12.1749 126.907 12.2399 127.487 12.3699L129.407 12.1749L128.417 18.2799C129.407 17.9099 130.177 17.2749 130.727 16.3749L131.342 17.0799C130.942 17.6799 130.497 18.1749 130.007 18.5649C129.517 18.9449 128.897 19.2649 128.147 19.5249C127.567 21.2649 126.307 22.1349 124.367 22.1349ZM125.012 17.7399C125.572 17.7399 126.122 17.4199 126.662 16.7799L127.157 13.7499C126.787 13.6999 126.482 13.6749 126.242 13.6749C125.552 13.6749 125.012 13.9249 124.622 14.4249C124.232 14.9149 124.037 15.5799 124.037 16.4199C124.037 16.8799 124.112 17.2149 124.262 17.4249C124.422 17.6349 124.672 17.7399 125.012 17.7399ZM140.118 16.3749L140.748 17.0799C140.068 18.1599 139.233 18.7699 138.243 18.9099C137.673 18.9999 137.073 18.9249 136.443 18.6849C135.853 19.0149 135.183 19.1799 134.433 19.1799C133.513 19.1799 132.813 18.9449 132.333 18.4749C131.853 17.9949 131.613 17.2949 131.613 16.3749C131.633 15.1549 132.013 14.1549 132.753 13.3749C133.503 12.5849 134.473 12.1899 135.663 12.1899C136.583 12.1899 137.283 12.4299 137.763 12.9099C138.253 13.3899 138.498 14.0849 138.498 14.9949C138.498 16.1049 138.188 17.0249 137.568 17.7549C137.798 17.8449 138.038 17.8749 138.288 17.8449C138.948 17.7449 139.558 17.2549 140.118 16.3749ZM134.613 17.6649C135.143 17.6749 135.588 17.4299 135.948 16.9299C136.308 16.4199 136.488 15.7849 136.488 15.0249C136.488 14.1549 136.158 13.7199 135.498 13.7199C134.958 13.7199 134.513 13.9749 134.163 14.4849C133.823 14.9949 133.648 15.6249 133.638 16.3749C133.628 17.2349 133.953 17.6649 134.613 17.6649ZM143.844 19.1799C143.164 19.1799 142.574 19.0649 142.074 18.8349L142.329 17.4399C142.799 17.6699 143.234 17.7849 143.634 17.7849C144.044 17.7849 144.364 17.6899 144.594 17.4999C144.824 17.3099 144.939 17.0449 144.939 16.7049C144.939 16.4549 144.864 16.1949 144.714 15.9249C144.564 15.6549 144.394 15.4149 144.204 15.2049C144.024 14.9949 143.844 14.7199 143.664 14.3799C143.484 14.0399 143.374 13.6849 143.334 13.3149H143.304C143.144 13.6349 142.894 14.2449 142.554 15.1449C142.214 16.0449 141.914 16.6899 141.654 17.0799L141.024 16.3749C141.204 16.0849 141.484 15.4399 141.864 14.4399C142.254 13.4299 142.644 12.6749 143.034 12.1749L145.074 11.9649C145.044 12.4149 145.089 12.8249 145.209 13.1949C145.329 13.5649 145.484 13.8799 145.674 14.1399C145.874 14.3899 146.074 14.6349 146.274 14.8749C146.474 15.1149 146.644 15.3899 146.784 15.6999C146.924 15.9999 146.994 16.3249 146.994 16.6749C146.994 17.1249 146.904 17.5149 146.724 17.8449C147.654 17.7849 148.409 17.2949 148.989 16.3749L149.604 17.0799C149.084 17.8299 148.499 18.3449 147.849 18.6249C147.209 18.9049 146.404 19.0049 145.434 18.9249C144.984 19.0949 144.454 19.1799 143.844 19.1799Z" fill="white"/>
</g>
<defs>
<clipPath id="clip0_362_52">
<rect width="302" height="27" fill="white" transform="translate(0 0.5)"/>
</clipPath>
</defs>
</svg>
