<svg width="302" height="28" viewBox="0 0 302 28" fill="none" xmlns="http://www.w3.org/2000/svg">
<g clip-path="url(#clip0_362_64)">
<path d="M0.5 6.5C0.5 3.46243 2.96243 1 6 1H296C299.038 1 301.5 3.46242 301.5 6.5V27H0.5V6.5Z" fill="#131312" stroke="#1E1E1D"/>
<path d="M30.985 17.1999H35.59L35.32 18.9999H28.645L30.22 8.94995L32.29 8.76995L30.985 17.1999ZM39.4016 11.3049C39.0716 11.3049 38.7966 11.2049 38.5766 11.0049C38.3566 10.8049 38.2466 10.5499 38.2466 10.2399C38.2466 9.86995 38.3766 9.55995 38.6366 9.30995C38.8966 9.05995 39.2166 8.93495 39.5966 8.93495C39.9166 8.93495 40.1816 9.03995 40.3916 9.24995C40.6016 9.44995 40.7066 9.70495 40.7066 10.0149C40.7066 10.3849 40.5816 10.6949 40.3316 10.9449C40.0816 11.1849 39.7716 11.3049 39.4016 11.3049ZM41.9816 16.3749L42.6116 17.0799C41.6416 18.4799 40.5016 19.1799 39.1916 19.1799C38.4716 19.1799 37.9666 18.9699 37.6766 18.5499C37.3866 18.1199 37.3116 17.4549 37.4516 16.5549L38.1266 12.3699L40.1516 12.1749L39.4916 16.2849C39.4116 16.7949 39.4166 17.1599 39.5066 17.3799C39.5966 17.5899 39.7966 17.6949 40.1066 17.6949C40.8466 17.6849 41.4716 17.2449 41.9816 16.3749ZM45.8341 19.1799C45.1541 19.1799 44.5641 19.0649 44.0641 18.8349L44.3191 17.4399C44.7891 17.6699 45.2241 17.7849 45.6241 17.7849C46.0341 17.7849 46.3541 17.6899 46.5841 17.4999C46.8141 17.3099 46.9291 17.0449 46.9291 16.7049C46.9291 16.4549 46.8541 16.1949 46.7041 15.9249C46.5541 15.6549 46.3841 15.4149 46.1941 15.2049C46.0141 14.9949 45.8341 14.7199 45.6541 14.3799C45.4741 14.0399 45.3641 13.6849 45.3241 13.3149H45.2941C45.1341 13.6349 44.8841 14.2449 44.5441 15.1449C44.2041 16.0449 43.9041 16.6899 43.6441 17.0799L43.0141 16.3749C43.1941 16.0849 43.4741 15.4399 43.8541 14.4399C44.2441 13.4299 44.6341 12.6749 45.0241 12.1749L47.0641 11.9649C47.0341 12.4149 47.0791 12.8249 47.1991 13.1949C47.3191 13.5649 47.4741 13.8799 47.6641 14.1399C47.8641 14.3899 48.0641 14.6349 48.2641 14.8749C48.4641 15.1149 48.6341 15.3899 48.7741 15.6999C48.9141 15.9999 48.9841 16.3249 48.9841 16.6749C48.9841 17.1249 48.8941 17.5149 48.7141 17.8449C49.6441 17.7849 50.3991 17.2949 50.9791 16.3749L51.5941 17.0799C51.0741 17.8299 50.4891 18.3449 49.8391 18.6249C49.1991 18.9049 48.3941 19.0049 47.4241 18.9249C46.9741 19.0949 46.4441 19.1799 45.8341 19.1799ZM56.6232 16.3749L57.2382 17.0799C56.2982 18.4799 55.1482 19.1799 53.7882 19.1799C53.0582 19.1799 52.5382 18.9699 52.2282 18.5499C51.9282 18.1299 51.8482 17.4649 51.9882 16.5549L52.4532 13.6149H51.5232L51.7182 12.3699H52.6632L53.0232 10.1049L55.0332 9.92495L54.6432 12.3699H56.0532L55.8582 13.6149H54.4482L54.0282 16.2999C53.9582 16.8099 53.9732 17.1699 54.0732 17.3799C54.1832 17.5899 54.3982 17.6949 54.7182 17.6949C55.4682 17.6749 56.1032 17.2349 56.6232 16.3749ZM59.9331 19.1799C59.1931 19.1799 58.6231 18.9549 58.2231 18.5049C57.8331 18.0449 57.6381 17.3799 57.6381 16.5099C57.6381 15.2199 58.0031 14.1749 58.7331 13.3749C59.4631 12.5749 60.4331 12.1749 61.6431 12.1749C62.0531 12.1749 62.5431 12.2399 63.1131 12.3699L65.0331 12.1749L64.3131 16.6299C64.2531 17.0099 64.2531 17.2849 64.3131 17.4549C64.3731 17.6149 64.5081 17.6949 64.7181 17.6949C64.9881 17.6949 65.2781 17.5749 65.5881 17.3349C65.9081 17.0849 66.1781 16.7649 66.3981 16.3749L67.0131 17.0799C66.0731 18.4799 65.0031 19.1799 63.8031 19.1799C62.9931 19.1799 62.5181 18.8199 62.3781 18.0999C61.6481 18.8199 60.8331 19.1799 59.9331 19.1799ZM60.6531 17.6949C61.2031 17.6949 61.7481 17.4099 62.2881 16.8399L62.7681 13.8099C62.4981 13.7599 62.1931 13.7349 61.8531 13.7349C61.1631 13.7349 60.6231 13.9749 60.2331 14.4549C59.8531 14.9249 59.6631 15.5749 59.6631 16.4049C59.6631 17.2649 59.9931 17.6949 60.6531 17.6949ZM80.3198 16.3749L80.9498 17.0799C80.4998 17.7599 79.9948 18.2799 79.4348 18.6399C78.8748 18.9999 78.3048 19.1799 77.7248 19.1799C76.9048 19.1799 76.4298 18.8199 76.2998 18.0999C75.5798 18.8199 74.7648 19.1799 73.8548 19.1799C72.3248 19.1799 71.5598 18.2899 71.5598 16.5099C71.5598 15.2199 71.9198 14.1749 72.6398 13.3749C73.3698 12.5749 74.3398 12.1749 75.5498 12.1749C75.9498 12.1749 76.4098 12.2299 76.9298 12.3399L77.5448 8.49995L79.5698 8.31995L78.2348 16.6299C78.1748 17.0099 78.1748 17.2849 78.2348 17.4549C78.2948 17.6149 78.4298 17.6949 78.6398 17.6949C78.9098 17.6949 79.1998 17.5749 79.5098 17.3349C79.8298 17.0849 80.0998 16.7649 80.3198 16.3749ZM76.1948 16.8699L76.7048 13.7499C76.3348 13.6999 76.0348 13.6749 75.8048 13.6749C75.1048 13.6749 74.5598 13.9249 74.1698 14.4249C73.7798 14.9149 73.5848 15.5799 73.5848 16.4199C73.5848 16.8699 73.6598 17.1999 73.8098 17.4099C73.9698 17.6199 74.2198 17.7249 74.5598 17.7249C75.1098 17.7249 75.6548 17.4399 76.1948 16.8699ZM88.2399 16.3749L88.8699 17.0799C87.9099 18.4799 86.5299 19.1799 84.7299 19.1799C83.6399 19.1799 82.7999 18.9099 82.2099 18.3699C81.6299 17.8299 81.3399 17.0649 81.3399 16.0749C81.3399 14.9349 81.6849 13.9999 82.3749 13.2699C83.0649 12.5399 83.9499 12.1749 85.0299 12.1749C85.7799 12.1749 86.3749 12.3549 86.8149 12.7149C87.2649 13.0649 87.4849 13.5399 87.4749 14.1399C87.4649 14.8999 87.1149 15.5149 86.4249 15.9849C85.7349 16.4449 84.8099 16.6849 83.6499 16.7049C83.7599 17.0449 83.9649 17.3149 84.2649 17.5149C84.5649 17.7149 84.9299 17.8149 85.3599 17.8149C86.6499 17.8149 87.6099 17.3349 88.2399 16.3749ZM84.9399 13.6449C84.4999 13.6449 84.1349 13.8349 83.8449 14.2149C83.5649 14.5849 83.4049 15.0749 83.3649 15.6849C84.0849 15.6849 84.6549 15.5649 85.0749 15.3249C85.5049 15.0849 85.7249 14.7599 85.7349 14.3499C85.7449 14.1199 85.6749 13.9449 85.5249 13.8249C85.3849 13.7049 85.1899 13.6449 84.9399 13.6449ZM98.786 8.76995L97.7358 15.5199C97.5258 16.8599 97.0908 17.8199 96.4308 18.3999C95.7708 18.9799 94.7908 19.2399 93.4908 19.1799L93.3708 17.2149C94.0308 17.2149 94.5558 17.0649 94.9458 16.7649C95.3458 16.4549 95.6008 15.9399 95.7108 15.2199L96.7158 8.94995L98.786 8.76995ZM108.581 16.3749L109.211 17.0799C108.531 18.1599 107.696 18.7699 106.706 18.9099C106.136 18.9999 105.536 18.9249 104.906 18.6849C104.316 19.0149 103.646 19.1799 102.896 19.1799C101.976 19.1799 101.276 18.9449 100.796 18.4749C100.316 17.9949 100.076 17.2949 100.076 16.3749C100.096 15.1549 100.476 14.1549 101.216 13.3749C101.966 12.5849 102.936 12.1899 104.126 12.1899C105.046 12.1899 105.746 12.4299 106.226 12.9099C106.716 13.3899 106.961 14.0849 106.961 14.9949C106.961 16.1049 106.651 17.0249 106.031 17.7549C106.261 17.8449 106.501 17.8749 106.751 17.8449C107.411 17.7449 108.021 17.2549 108.581 16.3749ZM103.076 17.6649C103.606 17.6749 104.051 17.4299 104.411 16.9299C104.771 16.4199 104.951 15.7849 104.951 15.0249C104.951 14.1549 104.621 13.7199 103.961 13.7199C103.421 13.7199 102.976 13.9749 102.626 14.4849C102.286 14.9949 102.111 15.6249 102.101 16.3749C102.091 17.2349 102.416 17.6649 103.076 17.6649ZM111.992 22.1349C111.072 22.1349 110.322 21.9999 109.742 21.7299L109.967 20.2449C110.577 20.5549 111.237 20.7049 111.947 20.6949C112.487 20.6849 112.912 20.5449 113.222 20.2749C113.532 20.0149 113.752 19.5899 113.882 18.9999C113.932 18.8499 113.982 18.6399 114.032 18.3699C113.432 18.9099 112.737 19.1799 111.947 19.1799C110.407 19.1799 109.637 18.2899 109.637 16.5099C109.637 15.2099 109.997 14.1649 110.717 13.3749C111.447 12.5749 112.422 12.1749 113.642 12.1749C114.042 12.1749 114.532 12.2399 115.112 12.3699L117.032 12.1749L116.042 18.2799C117.032 17.9099 117.802 17.2749 118.352 16.3749L118.967 17.0799C118.567 17.6799 118.122 18.1749 117.632 18.5649C117.142 18.9449 116.522 19.2649 115.772 19.5249C115.192 21.2649 113.932 22.1349 111.992 22.1349ZM112.637 17.7399C113.197 17.7399 113.747 17.4199 114.287 16.7799L114.782 13.7499C114.412 13.6999 114.107 13.6749 113.867 13.6749C113.177 13.6749 112.637 13.9249 112.247 14.4249C111.857 14.9149 111.662 15.5799 111.662 16.4199C111.662 16.8799 111.737 17.2149 111.887 17.4249C112.047 17.6349 112.297 17.7399 112.637 17.7399ZM121.668 19.1799C120.928 19.1799 120.358 18.9549 119.958 18.5049C119.568 18.0449 119.373 17.3799 119.373 16.5099C119.373 15.2199 119.738 14.1749 120.468 13.3749C121.198 12.5749 122.168 12.1749 123.378 12.1749C123.788 12.1749 124.278 12.2399 124.848 12.3699L126.768 12.1749L126.048 16.6299C125.988 17.0099 125.988 17.2849 126.048 17.4549C126.108 17.6149 126.243 17.6949 126.453 17.6949C126.723 17.6949 127.013 17.5749 127.323 17.3349C127.643 17.0849 127.913 16.7649 128.133 16.3749L128.748 17.0799C127.808 18.4799 126.738 19.1799 125.538 19.1799C124.728 19.1799 124.253 18.8199 124.113 18.0999C123.383 18.8199 122.568 19.1799 121.668 19.1799ZM122.388 17.6949C122.938 17.6949 123.483 17.4099 124.023 16.8399L124.503 13.8099C124.233 13.7599 123.928 13.7349 123.588 13.7349C122.898 13.7349 122.358 13.9749 121.968 14.4549C121.588 14.9249 121.398 15.5749 121.398 16.4049C121.398 17.2649 121.728 17.6949 122.388 17.6949ZM137.929 16.3749L138.559 17.0799C138.109 17.7599 137.604 18.2799 137.044 18.6399C136.484 18.9999 135.914 19.1799 135.334 19.1799C134.514 19.1799 134.039 18.8199 133.909 18.0999C133.189 18.8199 132.374 19.1799 131.464 19.1799C129.934 19.1799 129.169 18.2899 129.169 16.5099C129.169 15.2199 129.529 14.1749 130.249 13.3749C130.979 12.5749 131.949 12.1749 133.159 12.1749C133.559 12.1749 134.019 12.2299 134.539 12.3399L135.154 8.49995L137.179 8.31995L135.844 16.6299C135.784 17.0099 135.784 17.2849 135.844 17.4549C135.904 17.6149 136.039 17.6949 136.249 17.6949C136.519 17.6949 136.809 17.5749 137.119 17.3349C137.439 17.0849 137.709 16.7649 137.929 16.3749ZM133.804 16.8699L134.314 13.7499C133.944 13.6999 133.644 13.6749 133.414 13.6749C132.714 13.6749 132.169 13.9249 131.779 14.4249C131.389 14.9149 131.194 15.5799 131.194 16.4199C131.194 16.8699 131.269 17.1999 131.419 17.4099C131.579 17.6199 131.829 17.7249 132.169 17.7249C132.719 17.7249 133.264 17.4399 133.804 16.8699ZM147.469 16.3749L148.099 17.0799C147.419 18.1599 146.584 18.7699 145.594 18.9099C145.024 18.9999 144.424 18.9249 143.794 18.6849C143.204 19.0149 142.534 19.1799 141.784 19.1799C140.864 19.1799 140.164 18.9449 139.684 18.4749C139.204 17.9949 138.964 17.2949 138.964 16.3749C138.984 15.1549 139.364 14.1549 140.104 13.3749C140.854 12.5849 141.824 12.1899 143.014 12.1899C143.934 12.1899 144.634 12.4299 145.114 12.9099C145.604 13.3899 145.849 14.0849 145.849 14.9949C145.849 16.1049 145.539 17.0249 144.919 17.7549C145.149 17.8449 145.389 17.8749 145.639 17.8449C146.299 17.7449 146.909 17.2549 147.469 16.3749ZM141.964 17.6649C142.494 17.6749 142.939 17.4299 143.299 16.9299C143.659 16.4199 143.839 15.7849 143.839 15.0249C143.839 14.1549 143.509 13.7199 142.849 13.7199C142.309 13.7199 141.864 13.9749 141.514 14.4849C141.174 14.9949 140.999 15.6249 140.989 16.3749C140.979 17.2349 141.304 17.6649 141.964 17.6649ZM155.664 16.3749L156.294 17.0799C155.374 18.4799 154.174 19.1799 152.694 19.1799C151.954 19.1799 151.384 18.9999 150.984 18.6399C150.584 18.2799 150.384 17.7599 150.384 17.0799C150.384 16.0599 150.809 14.9049 151.659 13.6149C151.159 13.6049 150.589 13.5049 149.949 13.3149C150.059 14.7249 149.794 15.9799 149.154 17.0799L148.524 16.3749C149.094 15.3349 149.249 14.1999 148.989 12.9699C148.969 12.9599 148.889 12.9299 148.749 12.8799C148.619 12.8199 148.529 12.7699 148.479 12.7299L148.719 11.2749C149.879 11.9649 151.599 12.3299 153.879 12.3699L153.519 13.7949C152.759 14.8349 152.379 15.7849 152.379 16.6449C152.379 17.3449 152.739 17.6949 153.459 17.6949C153.889 17.6949 154.304 17.5799 154.704 17.3499C155.114 17.1099 155.434 16.7849 155.664 16.3749ZM160.068 19.1799C158.988 19.1799 158.153 18.9099 157.563 18.3699C156.983 17.8299 156.693 17.0649 156.693 16.0749C156.693 14.9349 157.038 13.9999 157.728 13.2699C158.418 12.5399 159.303 12.1749 160.383 12.1749C161.133 12.1749 161.728 12.3549 162.168 12.7149C162.618 13.0649 162.838 13.5399 162.828 14.1399C162.818 14.8999 162.468 15.5149 161.778 15.9849C161.088 16.4449 160.163 16.6849 159.003 16.7049C159.093 17.0749 159.293 17.3549 159.603 17.5449C159.923 17.7249 160.298 17.8149 160.728 17.8149C161.308 17.8049 161.803 17.6649 162.213 17.3949C162.633 17.1249 163.028 16.7099 163.398 16.1499C163.588 15.8599 163.898 15.2349 164.328 14.2749C164.758 13.3049 165.143 12.6049 165.483 12.1749L167.523 11.9649C167.493 12.4149 167.538 12.8249 167.658 13.1949C167.778 13.5549 167.933 13.8649 168.123 14.1249C168.323 14.3749 168.523 14.6199 168.723 14.8599C168.923 15.0899 169.093 15.3599 169.233 15.6699C169.373 15.9799 169.443 16.3149 169.443 16.6749C169.443 17.1249 169.353 17.5149 169.173 17.8449C170.103 17.7849 170.858 17.2949 171.438 16.3749L172.053 17.0799C171.533 17.8299 170.948 18.3449 170.298 18.6249C169.658 18.9049 168.853 19.0049 167.883 18.9249C167.433 19.0949 166.903 19.1799 166.293 19.1799C165.643 19.1799 165.028 19.0499 164.448 18.7899L164.703 17.4099C165.223 17.6599 165.683 17.7849 166.083 17.7849C166.493 17.7849 166.813 17.6899 167.043 17.4999C167.273 17.2999 167.388 17.0249 167.388 16.6749C167.388 16.4149 167.308 16.1549 167.148 15.8949C166.998 15.6249 166.828 15.3899 166.638 15.1899C166.458 14.9799 166.273 14.7049 166.083 14.3649C165.903 14.0149 165.793 13.6499 165.753 13.2699C165.543 13.6199 165.253 14.2199 164.883 15.0699C164.523 15.9099 164.233 16.5049 164.013 16.8549C163.063 18.4049 161.748 19.1799 160.068 19.1799ZM158.718 15.6849C159.438 15.6849 160.008 15.5649 160.428 15.3249C160.858 15.0849 161.078 14.7599 161.088 14.3499C161.098 14.1199 161.028 13.9449 160.878 13.8249C160.738 13.7049 160.548 13.6449 160.308 13.6449C159.868 13.6449 159.503 13.8349 159.213 14.2149C158.933 14.5849 158.768 15.0749 158.718 15.6849Z" fill="white"/>
</g>
<defs>
<clipPath id="clip0_362_64">
<rect width="302" height="27" fill="white" transform="translate(0 0.5)"/>
</clipPath>
</defs>
</svg>
