<svg width="302" height="28" viewBox="0 0 302 28" fill="none" xmlns="http://www.w3.org/2000/svg">
<g clip-path="url(#clip0_362_61)">
<path d="M0.5 6.5C0.5 3.46243 2.96243 1 6 1H296C299.038 1 301.5 3.46242 301.5 6.5V27H0.5V6.5Z" fill="#131312" stroke="#1E1E1D"/>
<path d="M30.985 17.1999H35.59L35.32 18.9999H28.645L30.22 8.94995L32.29 8.76995L30.985 17.1999ZM39.2516 11.3049C38.9216 11.3049 38.6466 11.2049 38.4266 11.0049C38.2066 10.8049 38.0966 10.5499 38.0966 10.2399C38.0966 9.86995 38.2266 9.55995 38.4866 9.30995C38.7466 9.05995 39.0666 8.93495 39.4466 8.93495C39.7666 8.93495 40.0316 9.03995 40.2416 9.24995C40.4516 9.44995 40.5566 9.70495 40.5566 10.0149C40.5566 10.3849 40.4316 10.6949 40.1816 10.9449C39.9316 11.1849 39.6216 11.3049 39.2516 11.3049ZM41.8316 16.3749L42.4616 17.0799C41.4916 18.4799 40.3516 19.1799 39.0416 19.1799C38.3216 19.1799 37.8166 18.9699 37.5266 18.5499C37.2366 18.1199 37.1616 17.4549 37.3016 16.5549L37.9766 12.3699L40.0016 12.1749L39.3416 16.2849C39.2616 16.7949 39.2666 17.1599 39.3566 17.3799C39.4466 17.5899 39.6466 17.6949 39.9566 17.6949C40.6966 17.6849 41.3216 17.2449 41.8316 16.3749ZM45.5341 19.1799C44.8541 19.1799 44.2641 19.0649 43.7641 18.8349L44.0191 17.4399C44.4891 17.6699 44.9241 17.7849 45.3241 17.7849C45.7341 17.7849 46.0541 17.6899 46.2841 17.4999C46.5141 17.3099 46.6291 17.0449 46.6291 16.7049C46.6291 16.4549 46.5541 16.1949 46.4041 15.9249C46.2541 15.6549 46.0841 15.4149 45.8941 15.2049C45.7141 14.9949 45.5341 14.7199 45.3541 14.3799C45.1741 14.0399 45.0641 13.6849 45.0241 13.3149H44.9941C44.8341 13.6349 44.5841 14.2449 44.2441 15.1449C43.9041 16.0449 43.6041 16.6899 43.3441 17.0799L42.7141 16.3749C42.8941 16.0849 43.1741 15.4399 43.5541 14.4399C43.9441 13.4299 44.3341 12.6749 44.7241 12.1749L46.7641 11.9649C46.7341 12.4149 46.7791 12.8249 46.8991 13.1949C47.0191 13.5649 47.1741 13.8799 47.3641 14.1399C47.5641 14.3899 47.7641 14.6349 47.9641 14.8749C48.1641 15.1149 48.3341 15.3899 48.4741 15.6999C48.6141 15.9999 48.6841 16.3249 48.6841 16.6749C48.6841 17.1249 48.5941 17.5149 48.4141 17.8449C49.3441 17.7849 50.0991 17.2949 50.6791 16.3749L51.2941 17.0799C50.7741 17.8299 50.1891 18.3449 49.5391 18.6249C48.8991 18.9049 48.0941 19.0049 47.1241 18.9249C46.6741 19.0949 46.1441 19.1799 45.5341 19.1799ZM56.1732 16.3749L56.7882 17.0799C55.8482 18.4799 54.6982 19.1799 53.3382 19.1799C52.6082 19.1799 52.0882 18.9699 51.7782 18.5499C51.4782 18.1299 51.3982 17.4649 51.5382 16.5549L52.0032 13.6149H51.0732L51.2682 12.3699H52.2132L52.5732 10.1049L54.5832 9.92495L54.1932 12.3699H55.6032L55.4082 13.6149H53.9982L53.5782 16.2999C53.5082 16.8099 53.5232 17.1699 53.6232 17.3799C53.7332 17.5899 53.9482 17.6949 54.2682 17.6949C55.0182 17.6749 55.6532 17.2349 56.1732 16.3749ZM59.3331 19.1799C58.5931 19.1799 58.0231 18.9549 57.6231 18.5049C57.2331 18.0449 57.0381 17.3799 57.0381 16.5099C57.0381 15.2199 57.4031 14.1749 58.1331 13.3749C58.8631 12.5749 59.8331 12.1749 61.0431 12.1749C61.4531 12.1749 61.9431 12.2399 62.5131 12.3699L64.4331 12.1749L63.7131 16.6299C63.6531 17.0099 63.6531 17.2849 63.7131 17.4549C63.7731 17.6149 63.9081 17.6949 64.1181 17.6949C64.3881 17.6949 64.6781 17.5749 64.9881 17.3349C65.3081 17.0849 65.5781 16.7649 65.7981 16.3749L66.4131 17.0799C65.4731 18.4799 64.4031 19.1799 63.2031 19.1799C62.3931 19.1799 61.9181 18.8199 61.7781 18.0999C61.0481 18.8199 60.2331 19.1799 59.3331 19.1799ZM60.0531 17.6949C60.6031 17.6949 61.1481 17.4099 61.6881 16.8399L62.1681 13.8099C61.8981 13.7599 61.5931 13.7349 61.2531 13.7349C60.5631 13.7349 60.0231 13.9749 59.6331 14.4549C59.2531 14.9249 59.0631 15.5749 59.0631 16.4049C59.0631 17.2649 59.3931 17.6949 60.0531 17.6949ZM79.4198 16.3749L80.0498 17.0799C79.5998 17.7599 79.0948 18.2799 78.5348 18.6399C77.9748 18.9999 77.4048 19.1799 76.8248 19.1799C76.0048 19.1799 75.5298 18.8199 75.3998 18.0999C74.6798 18.8199 73.8648 19.1799 72.9548 19.1799C71.4248 19.1799 70.6598 18.2899 70.6598 16.5099C70.6598 15.2199 71.0198 14.1749 71.7398 13.3749C72.4698 12.5749 73.4398 12.1749 74.6498 12.1749C75.0498 12.1749 75.5098 12.2299 76.0298 12.3399L76.6448 8.49995L78.6698 8.31995L77.3348 16.6299C77.2748 17.0099 77.2748 17.2849 77.3348 17.4549C77.3948 17.6149 77.5298 17.6949 77.7398 17.6949C78.0098 17.6949 78.2998 17.5749 78.6098 17.3349C78.9298 17.0849 79.1998 16.7649 79.4198 16.3749ZM75.2948 16.8699L75.8048 13.7499C75.4348 13.6999 75.1348 13.6749 74.9048 13.6749C74.2048 13.6749 73.6598 13.9249 73.2698 14.4249C72.8798 14.9149 72.6848 15.5799 72.6848 16.4199C72.6848 16.8699 72.7598 17.1999 72.9098 17.4099C73.0698 17.6199 73.3198 17.7249 73.6598 17.7249C74.2098 17.7249 74.7548 17.4399 75.2948 16.8699ZM87.1899 16.3749L87.8199 17.0799C86.8599 18.4799 85.4799 19.1799 83.6799 19.1799C82.5899 19.1799 81.7499 18.9099 81.1599 18.3699C80.5799 17.8299 80.2899 17.0649 80.2899 16.0749C80.2899 14.9349 80.6349 13.9999 81.3249 13.2699C82.0149 12.5399 82.8999 12.1749 83.9799 12.1749C84.7299 12.1749 85.3249 12.3549 85.7649 12.7149C86.2149 13.0649 86.4349 13.5399 86.4249 14.1399C86.4149 14.8999 86.0649 15.5149 85.3749 15.9849C84.6849 16.4449 83.7599 16.6849 82.5999 16.7049C82.7099 17.0449 82.9149 17.3149 83.2149 17.5149C83.5149 17.7149 83.8799 17.8149 84.3099 17.8149C85.5999 17.8149 86.5599 17.3349 87.1899 16.3749ZM83.8899 13.6449C83.4499 13.6449 83.0849 13.8349 82.7949 14.2149C82.5149 14.5849 82.3549 15.0749 82.3149 15.6849C83.0349 15.6849 83.6049 15.5649 84.0249 15.3249C84.4549 15.0849 84.6749 14.7599 84.6849 14.3499C84.6949 14.1199 84.6249 13.9449 84.4749 13.8249C84.3349 13.7049 84.1399 13.6449 83.8899 13.6449ZM95.0058 18.9999L93.1308 8.94995H95.1858L96.2658 15.1149L96.4758 16.6749H96.5208L97.1658 15.1449L100.181 8.94995L102.461 8.76995L97.3308 18.9999H95.0058ZM108.757 16.3749L109.387 17.0799C108.427 18.4799 107.047 19.1799 105.247 19.1799C104.157 19.1799 103.317 18.9099 102.727 18.3699C102.147 17.8299 101.857 17.0649 101.857 16.0749C101.857 14.9349 102.202 13.9999 102.892 13.2699C103.582 12.5399 104.467 12.1749 105.547 12.1749C106.297 12.1749 106.892 12.3549 107.332 12.7149C107.782 13.0649 108.002 13.5399 107.992 14.1399C107.982 14.8999 107.632 15.5149 106.942 15.9849C106.252 16.4449 105.327 16.6849 104.167 16.7049C104.277 17.0449 104.482 17.3149 104.782 17.5149C105.082 17.7149 105.447 17.8149 105.877 17.8149C107.167 17.8149 108.127 17.3349 108.757 16.3749ZM105.457 13.6449C105.017 13.6449 104.652 13.8349 104.362 14.2149C104.082 14.5849 103.922 15.0749 103.882 15.6849C104.602 15.6849 105.172 15.5649 105.592 15.3249C106.022 15.0849 106.242 14.7599 106.252 14.3499C106.262 14.1199 106.192 13.9449 106.042 13.8249C105.902 13.7049 105.707 13.6449 105.457 13.6449ZM110.242 11.1699L111.787 8.81495H113.662L111.727 11.1699H110.242ZM114.157 16.3749L114.787 17.0799C113.817 18.4799 112.677 19.1799 111.367 19.1799C110.647 19.1799 110.142 18.9699 109.852 18.5499C109.562 18.1199 109.487 17.4549 109.627 16.5549L110.302 12.3699L112.327 12.1749L111.667 16.2849C111.587 16.7949 111.592 17.1599 111.682 17.3799C111.772 17.5899 111.972 17.6949 112.282 17.6949C113.022 17.6849 113.647 17.2449 114.157 16.3749ZM118.384 19.1799C117.254 19.1799 116.404 18.9099 115.834 18.3699C115.274 17.8199 115.004 17.0249 115.024 15.9849C115.044 14.8549 115.399 13.9399 116.089 13.2399C116.779 12.5299 117.669 12.1749 118.759 12.1749C119.709 12.1749 120.369 12.4449 120.739 12.9849C121.119 13.5249 121.124 14.2199 120.754 15.0699L119.194 14.7099C119.324 14.3999 119.334 14.1499 119.224 13.9599C119.114 13.7599 118.909 13.6599 118.609 13.6599C118.159 13.6599 117.784 13.8749 117.484 14.3049C117.184 14.7249 117.034 15.2549 117.034 15.8949C117.034 17.1749 117.679 17.8149 118.969 17.8149C120.279 17.8149 121.259 17.3349 121.909 16.3749L122.524 17.0799C121.574 18.4799 120.194 19.1799 118.384 19.1799ZM131.39 16.3749L132.02 17.0799C131.05 18.4799 129.97 19.1799 128.78 19.1799C128.02 19.1799 127.57 18.8149 127.43 18.0849C126.54 18.8149 125.61 19.1799 124.64 19.1799C123.12 19.1799 122.49 18.3599 122.75 16.7199L123.455 12.3699L125.465 12.1749L124.775 16.5849C124.705 16.9649 124.73 17.2399 124.85 17.4099C124.98 17.5799 125.205 17.6649 125.525 17.6649C126.055 17.6649 126.64 17.3999 127.28 16.8699L128 12.3699L130.025 12.1749L129.305 16.7799C129.195 17.3899 129.335 17.6949 129.725 17.6949C130.005 17.6949 130.295 17.5699 130.595 17.3199C130.905 17.0699 131.17 16.7549 131.39 16.3749ZM136.898 16.3749L137.513 17.0799C136.563 18.4799 135.418 19.1799 134.078 19.1799C133.328 19.1799 132.803 18.9699 132.503 18.5499C132.203 18.1199 132.123 17.4549 132.263 16.5549L133.538 8.49995L135.563 8.31995L134.303 16.2849C134.223 16.7849 134.233 17.1449 134.333 17.3649C134.443 17.5849 134.663 17.6949 134.993 17.6949C135.363 17.6849 135.713 17.5649 136.043 17.3349C136.383 17.0949 136.668 16.7749 136.898 16.3749ZM146.283 16.3749L146.913 17.0799C146.233 18.1599 145.398 18.7699 144.408 18.9099C143.838 18.9999 143.238 18.9249 142.608 18.6849C142.018 19.0149 141.348 19.1799 140.598 19.1799C139.678 19.1799 138.978 18.9449 138.498 18.4749C138.018 17.9949 137.778 17.2949 137.778 16.3749C137.798 15.1549 138.178 14.1549 138.918 13.3749C139.668 12.5849 140.638 12.1899 141.828 12.1899C142.748 12.1899 143.448 12.4299 143.928 12.9099C144.418 13.3899 144.663 14.0849 144.663 14.9949C144.663 16.1049 144.353 17.0249 143.733 17.7549C143.963 17.8449 144.203 17.8749 144.453 17.8449C145.113 17.7449 145.723 17.2549 146.283 16.3749ZM140.778 17.6649C141.308 17.6749 141.753 17.4299 142.113 16.9299C142.473 16.4199 142.653 15.7849 142.653 15.0249C142.653 14.1549 142.323 13.7199 141.663 13.7199C141.123 13.7199 140.678 13.9749 140.328 14.4849C139.988 14.9949 139.813 15.6249 139.803 16.3749C139.793 17.2349 140.118 17.6649 140.778 17.6649ZM150.009 19.1799C149.329 19.1799 148.739 19.0649 148.239 18.8349L148.494 17.4399C148.964 17.6699 149.399 17.7849 149.799 17.7849C150.209 17.7849 150.529 17.6899 150.759 17.4999C150.989 17.3099 151.104 17.0449 151.104 16.7049C151.104 16.4549 151.029 16.1949 150.879 15.9249C150.729 15.6549 150.559 15.4149 150.369 15.2049C150.189 14.9949 150.009 14.7199 149.829 14.3799C149.649 14.0399 149.539 13.6849 149.499 13.3149H149.469C149.309 13.6349 149.059 14.2449 148.719 15.1449C148.379 16.0449 148.079 16.6899 147.819 17.0799L147.189 16.3749C147.369 16.0849 147.649 15.4399 148.029 14.4399C148.419 13.4299 148.809 12.6749 149.199 12.1749L151.239 11.9649C151.209 12.4149 151.254 12.8249 151.374 13.1949C151.494 13.5649 151.649 13.8799 151.839 14.1399C152.039 14.3899 152.239 14.6349 152.439 14.8749C152.639 15.1149 152.809 15.3899 152.949 15.6999C153.089 15.9999 153.159 16.3249 153.159 16.6749C153.159 17.1249 153.069 17.5149 152.889 17.8449C153.819 17.7849 154.574 17.2949 155.154 16.3749L155.769 17.0799C155.249 17.8299 154.664 18.3449 154.014 18.6249C153.374 18.9049 152.569 19.0049 151.599 18.9249C151.149 19.0949 150.619 19.1799 150.009 19.1799Z" fill="white"/>
</g>
<defs>
<clipPath id="clip0_362_61">
<rect width="302" height="27" fill="white" transform="translate(0 0.5)"/>
</clipPath>
</defs>
</svg>
