<svg width="620" height="28" viewBox="0 0 620 28" fill="none" xmlns="http://www.w3.org/2000/svg">
<g clip-path="url(#clip0_362_46)">
<path d="M0.5 6.5C0.5 3.46243 2.96243 1 6 1H607.902C610.939 1 613.402 3.46247 613.402 6.5V27H0.5V6.5Z" fill="#131312" stroke="#1E1E1D"/>
<path d="M244.238 19.4999L242.363 9.44995H244.418L245.498 15.6149L245.708 17.1749H245.753L246.398 15.6449L249.413 9.44995L251.693 9.26995L246.563 19.4999H244.238ZM257.989 16.8749L258.619 17.5799C257.659 18.9799 256.279 19.6799 254.479 19.6799C253.389 19.6799 252.549 19.4099 251.959 18.8699C251.379 18.3299 251.089 17.5649 251.089 16.5749C251.089 15.4349 251.434 14.4999 252.124 13.7699C252.814 13.0399 253.699 12.6749 254.779 12.6749C255.529 12.6749 256.124 12.8549 256.564 13.2149C257.014 13.5649 257.234 14.0399 257.224 14.6399C257.214 15.3999 256.864 16.0149 256.174 16.4849C255.484 16.9449 254.559 17.1849 253.399 17.2049C253.509 17.5449 253.714 17.8149 254.014 18.0149C254.314 18.2149 254.679 18.3149 255.109 18.3149C256.399 18.3149 257.359 17.8349 257.989 16.8749ZM254.689 14.1449C254.249 14.1449 253.884 14.3349 253.594 14.7149C253.314 15.0849 253.154 15.5749 253.114 16.1849C253.834 16.1849 254.404 16.0649 254.824 15.8249C255.254 15.5849 255.474 15.2599 255.484 14.8499C255.494 14.6199 255.424 14.4449 255.274 14.3249C255.134 14.2049 254.939 14.1449 254.689 14.1449ZM259.474 11.6699L261.019 9.31495H262.894L260.959 11.6699H259.474ZM263.389 16.8749L264.019 17.5799C263.049 18.9799 261.909 19.6799 260.599 19.6799C259.879 19.6799 259.374 19.4699 259.084 19.0499C258.794 18.6199 258.719 17.9549 258.859 17.0549L259.534 12.8699L261.559 12.6749L260.899 16.7849C260.819 17.2949 260.824 17.6599 260.914 17.8799C261.004 18.0899 261.204 18.1949 261.514 18.1949C262.254 18.1849 262.879 17.7449 263.389 16.8749ZM267.616 19.6799C266.486 19.6799 265.636 19.4099 265.066 18.8699C264.506 18.3199 264.236 17.5249 264.256 16.4849C264.276 15.3549 264.631 14.4399 265.321 13.7399C266.011 13.0299 266.901 12.6749 267.991 12.6749C268.941 12.6749 269.601 12.9449 269.971 13.4849C270.351 14.0249 270.356 14.7199 269.986 15.5699L268.426 15.2099C268.556 14.8999 268.566 14.6499 268.456 14.4599C268.346 14.2599 268.141 14.1599 267.841 14.1599C267.391 14.1599 267.016 14.3749 266.716 14.8049C266.416 15.2249 266.266 15.7549 266.266 16.3949C266.266 17.6749 266.911 18.3149 268.201 18.3149C269.511 18.3149 270.491 17.8349 271.141 16.8749L271.756 17.5799C270.806 18.9799 269.426 19.6799 267.616 19.6799ZM280.622 16.8749L281.252 17.5799C280.282 18.9799 279.202 19.6799 278.012 19.6799C277.252 19.6799 276.802 19.3149 276.662 18.5849C275.772 19.3149 274.842 19.6799 273.872 19.6799C272.352 19.6799 271.722 18.8599 271.982 17.2199L272.687 12.8699L274.697 12.6749L274.007 17.0849C273.937 17.4649 273.962 17.7399 274.082 17.9099C274.212 18.0799 274.437 18.1649 274.757 18.1649C275.287 18.1649 275.872 17.8999 276.512 17.3699L277.232 12.8699L279.257 12.6749L278.537 17.2799C278.427 17.8899 278.567 18.1949 278.957 18.1949C279.237 18.1949 279.527 18.0699 279.827 17.8199C280.137 17.5699 280.402 17.2549 280.622 16.8749ZM286.13 16.8749L286.745 17.5799C285.795 18.9799 284.65 19.6799 283.31 19.6799C282.56 19.6799 282.035 19.4699 281.735 19.0499C281.435 18.6199 281.355 17.9549 281.495 17.0549L282.77 8.99995L284.795 8.81995L283.535 16.7849C283.455 17.2849 283.465 17.6449 283.565 17.8649C283.675 18.0849 283.895 18.1949 284.225 18.1949C284.595 18.1849 284.945 18.0649 285.275 17.8349C285.615 17.5949 285.9 17.2749 286.13 16.8749ZM295.515 16.8749L296.145 17.5799C295.465 18.6599 294.63 19.2699 293.64 19.4099C293.07 19.4999 292.47 19.4249 291.84 19.1849C291.25 19.5149 290.58 19.6799 289.83 19.6799C288.91 19.6799 288.21 19.4449 287.73 18.9749C287.25 18.4949 287.01 17.7949 287.01 16.8749C287.03 15.6549 287.41 14.6549 288.15 13.8749C288.9 13.0849 289.87 12.6899 291.06 12.6899C291.98 12.6899 292.68 12.9299 293.16 13.4099C293.65 13.8899 293.895 14.5849 293.895 15.4949C293.895 16.6049 293.585 17.5249 292.965 18.2549C293.195 18.3449 293.435 18.3749 293.685 18.3449C294.345 18.2449 294.955 17.7549 295.515 16.8749ZM290.01 18.1649C290.54 18.1749 290.985 17.9299 291.345 17.4299C291.705 16.9199 291.885 16.2849 291.885 15.5249C291.885 14.6549 291.555 14.2199 290.895 14.2199C290.355 14.2199 289.91 14.4749 289.56 14.9849C289.22 15.4949 289.045 16.1249 289.035 16.8749C289.025 17.7349 289.35 18.1649 290.01 18.1649ZM299.241 19.6799C298.561 19.6799 297.971 19.5649 297.471 19.3349L297.726 17.9399C298.196 18.1699 298.631 18.2849 299.031 18.2849C299.441 18.2849 299.761 18.1899 299.991 17.9999C300.221 17.8099 300.336 17.5449 300.336 17.2049C300.336 16.9549 300.261 16.6949 300.111 16.4249C299.961 16.1549 299.791 15.9149 299.601 15.7049C299.421 15.4949 299.241 15.2199 299.061 14.8799C298.881 14.5399 298.771 14.1849 298.731 13.8149H298.701C298.541 14.1349 298.291 14.7449 297.951 15.6449C297.611 16.5449 297.311 17.1899 297.051 17.5799L296.421 16.8749C296.601 16.5849 296.881 15.9399 297.261 14.9399C297.651 13.9299 298.041 13.1749 298.431 12.6749L300.471 12.4649C300.441 12.9149 300.486 13.3249 300.606 13.6949C300.726 14.0649 300.881 14.3799 301.071 14.6399C301.271 14.8899 301.471 15.1349 301.671 15.3749C301.871 15.6149 302.041 15.8899 302.181 16.1999C302.321 16.4999 302.391 16.8249 302.391 17.1749C302.391 17.6249 302.301 18.0149 302.121 18.3449C303.051 18.2849 303.806 17.7949 304.386 16.8749L305.001 17.5799C304.481 18.3299 303.896 18.8449 303.246 19.1249C302.606 19.4049 301.801 19.5049 300.831 19.4249C300.381 19.5949 299.851 19.6799 299.241 19.6799ZM314.486 9.44995C315.766 9.44995 316.686 9.68995 317.246 10.1699C317.806 10.6499 318.086 11.3499 318.086 12.2699C318.086 13.5099 317.656 14.4949 316.796 15.2249C315.946 15.9549 314.806 16.3199 313.376 16.3199H312.011L311.516 19.4999H309.521L311.096 9.44995H314.486ZM313.436 14.6549C314.246 14.6549 314.881 14.4699 315.341 14.0999C315.811 13.7299 316.046 13.2049 316.046 12.5249C316.046 12.0349 315.896 11.6849 315.596 11.4749C315.306 11.2649 314.806 11.1599 314.096 11.1599H312.821L312.281 14.6549H313.436ZM318.896 13.5299L319.226 11.9699C320.256 12.5499 321.771 12.8499 323.771 12.8699L323.411 14.2949C322.431 15.3649 321.941 16.3099 321.941 17.1299C321.941 17.8399 322.301 18.1949 323.021 18.1949C323.471 18.1949 323.896 18.0749 324.296 17.8349C324.696 17.5949 325.011 17.2749 325.241 16.8749L325.871 17.5799C324.941 18.9799 323.741 19.6799 322.271 19.6799C321.521 19.6799 320.946 19.4999 320.546 19.1399C320.156 18.7699 319.961 18.2449 319.961 17.5649C319.961 16.5749 320.481 15.4549 321.521 14.2049C320.461 14.1549 319.586 13.9299 318.896 13.5299ZM329.027 11.6699L330.572 9.31495H332.447L330.512 11.6699H329.027ZM334.652 16.8749L335.282 17.5799C334.602 18.6599 333.767 19.2699 332.777 19.4099C332.207 19.4999 331.607 19.4249 330.977 19.1849C330.387 19.5149 329.717 19.6799 328.967 19.6799C328.047 19.6799 327.347 19.4449 326.867 18.9749C326.387 18.4949 326.147 17.7949 326.147 16.8749C326.167 15.6549 326.547 14.6549 327.287 13.8749C328.037 13.0849 329.007 12.6899 330.197 12.6899C331.117 12.6899 331.817 12.9299 332.297 13.4099C332.787 13.8899 333.032 14.5849 333.032 15.4949C333.032 16.6049 332.722 17.5249 332.102 18.2549C332.332 18.3449 332.572 18.3749 332.822 18.3449C333.482 18.2449 334.092 17.7549 334.652 16.8749ZM329.147 18.1649C329.677 18.1749 330.122 17.9299 330.482 17.4299C330.842 16.9199 331.022 16.2849 331.022 15.5249C331.022 14.6549 330.692 14.2199 330.032 14.2199C329.492 14.2199 329.047 14.4749 328.697 14.9849C328.357 15.4949 328.182 16.1249 328.172 16.8749C328.162 17.7349 328.487 18.1649 329.147 18.1649ZM344.303 16.8749L344.933 17.5799C343.993 18.9799 342.948 19.6799 341.798 19.6799C341.088 19.6799 340.568 19.3649 340.238 18.7349L339.638 17.5949L338.213 19.4999H336.128L338.723 16.0499L338.138 14.8649C337.888 14.3449 337.748 14.0199 337.718 13.8899H337.688C337.598 14.1299 337.458 14.5249 337.268 15.0749C337.088 15.6249 336.913 16.1049 336.743 16.5149C336.573 16.9249 336.388 17.2799 336.188 17.5799L335.558 16.8749C335.788 16.4949 336.063 15.8349 336.383 14.8949C336.713 13.9449 336.973 13.2699 337.163 12.8699L339.038 12.6749L339.908 14.5649L341.198 12.8099H343.268L340.823 16.0349L341.588 17.5349C341.828 17.9749 342.148 18.1949 342.548 18.1949C342.868 18.1849 343.183 18.0599 343.493 17.8199C343.813 17.5799 344.083 17.2649 344.303 16.8749ZM347.123 11.8049C346.793 11.8049 346.518 11.7049 346.298 11.5049C346.078 11.3049 345.968 11.0499 345.968 10.7399C345.968 10.3699 346.098 10.0599 346.358 9.80995C346.618 9.55995 346.938 9.43495 347.318 9.43495C347.638 9.43495 347.903 9.53995 348.113 9.74995C348.323 9.94995 348.428 10.2049 348.428 10.5149C348.428 10.8849 348.303 11.1949 348.053 11.4449C347.803 11.6849 347.493 11.8049 347.123 11.8049ZM349.703 16.8749L350.333 17.5799C349.363 18.9799 348.223 19.6799 346.913 19.6799C346.193 19.6799 345.688 19.4699 345.398 19.0499C345.108 18.6199 345.033 17.9549 345.173 17.0549L345.848 12.8699L347.873 12.6749L347.213 16.7849C347.133 17.2949 347.138 17.6599 347.228 17.8799C347.318 18.0899 347.518 18.1949 347.828 18.1949C348.568 18.1849 349.193 17.7449 349.703 16.8749ZM363.306 16.8749L363.921 17.5799C362.981 18.9799 361.906 19.6799 360.696 19.6799C360.096 19.6799 359.661 19.5049 359.391 19.1549C359.131 18.7949 359.056 18.2749 359.166 17.5949L359.556 15.2699C359.666 14.5499 359.456 14.1899 358.926 14.1899C358.496 14.1899 357.936 14.4399 357.246 14.9399L356.526 19.4999H354.531L355.206 15.2699C355.326 14.5499 355.121 14.1899 354.591 14.1899C354.151 14.1899 353.581 14.4449 352.881 14.9549L352.161 19.4999H350.166L351.216 12.8699L353.241 12.6749L353.076 13.6649C354.056 13.0049 354.916 12.6749 355.656 12.6749C356.556 12.6749 357.091 13.0449 357.261 13.7849C358.311 13.0449 359.226 12.6749 360.006 12.6749C360.626 12.6749 361.076 12.8649 361.356 13.2449C361.646 13.6149 361.736 14.1399 361.626 14.8199L361.236 17.1749C361.126 17.8549 361.266 18.1949 361.656 18.1949C361.926 18.1949 362.211 18.0749 362.511 17.8349C362.811 17.5949 363.076 17.2749 363.306 16.8749ZM372.691 16.8749L373.321 17.5799C372.641 18.6599 371.806 19.2699 370.816 19.4099C370.246 19.4999 369.646 19.4249 369.016 19.1849C368.426 19.5149 367.756 19.6799 367.006 19.6799C366.086 19.6799 365.386 19.4449 364.906 18.9749C364.426 18.4949 364.186 17.7949 364.186 16.8749C364.206 15.6549 364.586 14.6549 365.326 13.8749C366.076 13.0849 367.046 12.6899 368.236 12.6899C369.156 12.6899 369.856 12.9299 370.336 13.4099C370.826 13.8899 371.071 14.5849 371.071 15.4949C371.071 16.6049 370.761 17.5249 370.141 18.2549C370.371 18.3449 370.611 18.3749 370.861 18.3449C371.521 18.2449 372.131 17.7549 372.691 16.8749ZM367.186 18.1649C367.716 18.1749 368.161 17.9299 368.521 17.4299C368.881 16.9199 369.061 16.2849 369.061 15.5249C369.061 14.6549 368.731 14.2199 368.071 14.2199C367.531 14.2199 367.086 14.4749 366.736 14.9849C366.396 15.4949 366.221 16.1249 366.211 16.8749C366.201 17.7349 366.526 18.1649 367.186 18.1649ZM376.417 19.6799C375.737 19.6799 375.147 19.5649 374.647 19.3349L374.902 17.9399C375.372 18.1699 375.807 18.2849 376.207 18.2849C376.617 18.2849 376.937 18.1899 377.167 17.9999C377.397 17.8099 377.512 17.5449 377.512 17.2049C377.512 16.9549 377.437 16.6949 377.287 16.4249C377.137 16.1549 376.967 15.9149 376.777 15.7049C376.597 15.4949 376.417 15.2199 376.237 14.8799C376.057 14.5399 375.947 14.1849 375.907 13.8149H375.877C375.717 14.1349 375.467 14.7449 375.127 15.6449C374.787 16.5449 374.487 17.1899 374.227 17.5799L373.597 16.8749C373.777 16.5849 374.057 15.9399 374.437 14.9399C374.827 13.9299 375.217 13.1749 375.607 12.6749L377.647 12.4649C377.617 12.9149 377.662 13.3249 377.782 13.6949C377.902 14.0649 378.057 14.3799 378.247 14.6399C378.447 14.8899 378.647 15.1349 378.847 15.3749C379.047 15.6149 379.217 15.8899 379.357 16.1999C379.497 16.4999 379.567 16.8249 379.567 17.1749C379.567 17.6249 379.477 18.0149 379.297 18.3449C380.227 18.2849 380.982 17.7949 381.562 16.8749L382.177 17.5799C381.657 18.3299 381.072 18.8449 380.422 19.1249C379.782 19.4049 378.977 19.5049 378.007 19.4249C377.557 19.5949 377.027 19.6799 376.417 19.6799Z" fill="white"/>
</g>
<defs>
<clipPath id="clip0_362_46">
<rect width="620" height="27" fill="white" transform="translate(0 0.5)"/>
</clipPath>
</defs>
</svg>
