<svg width="620" height="28" viewBox="0 0 620 28" fill="none" xmlns="http://www.w3.org/2000/svg">
<g clip-path="url(#clip0_362_58)">
<path d="M0.5 6.5C0.5 3.46243 2.96243 1 6 1H607.902C610.939 1 613.402 3.46247 613.402 6.5V27H0.5V6.5Z" fill="#131312" stroke="#1E1E1D"/>
<path d="M245.923 17.6999H250.528L250.258 19.4999H243.583L245.158 9.44995L247.228 9.26995L245.923 17.6999ZM260.54 16.8749L261.17 17.5799C260.49 18.6599 259.655 19.2699 258.665 19.4099C258.095 19.4999 257.495 19.4249 256.865 19.1849C256.275 19.5149 255.605 19.6799 254.855 19.6799C253.935 19.6799 253.235 19.4449 252.755 18.9749C252.275 18.4949 252.035 17.7949 252.035 16.8749C252.055 15.6549 252.435 14.6549 253.175 13.8749C253.925 13.0849 254.895 12.6899 256.085 12.6899C257.005 12.6899 257.705 12.9299 258.185 13.4099C258.675 13.8899 258.92 14.5849 258.92 15.4949C258.92 16.6049 258.61 17.5249 257.99 18.2549C258.22 18.3449 258.46 18.3749 258.71 18.3449C259.37 18.2449 259.98 17.7549 260.54 16.8749ZM255.035 18.1649C255.565 18.1749 256.01 17.9299 256.37 17.4299C256.73 16.9199 256.91 16.2849 256.91 15.5249C256.91 14.6549 256.58 14.2199 255.92 14.2199C255.38 14.2199 254.935 14.4749 254.585 14.9849C254.245 15.4949 254.07 16.1249 254.06 16.8749C254.05 17.7349 254.375 18.1649 255.035 18.1649ZM264.791 19.6799C263.661 19.6799 262.811 19.4099 262.241 18.8699C261.681 18.3199 261.411 17.5249 261.431 16.4849C261.451 15.3549 261.806 14.4399 262.496 13.7399C263.186 13.0299 264.076 12.6749 265.166 12.6749C266.116 12.6749 266.776 12.9449 267.146 13.4849C267.526 14.0249 267.531 14.7199 267.161 15.5699L265.601 15.2099C265.731 14.8999 265.741 14.6499 265.631 14.4599C265.521 14.2599 265.316 14.1599 265.016 14.1599C264.566 14.1599 264.191 14.3749 263.891 14.8049C263.591 15.2249 263.441 15.7549 263.441 16.3949C263.441 17.6749 264.086 18.3149 265.376 18.3149C266.686 18.3149 267.666 17.8349 268.316 16.8749L268.931 17.5799C267.981 18.9799 266.601 19.6799 264.791 19.6799ZM271.481 19.6799C270.741 19.6799 270.171 19.4549 269.771 19.0049C269.381 18.5449 269.186 17.8799 269.186 17.0099C269.186 15.7199 269.551 14.6749 270.281 13.8749C271.011 13.0749 271.981 12.6749 273.191 12.6749C273.601 12.6749 274.091 12.7399 274.661 12.8699L276.581 12.6749L275.861 17.1299C275.801 17.5099 275.801 17.7849 275.861 17.9549C275.921 18.1149 276.056 18.1949 276.266 18.1949C276.536 18.1949 276.826 18.0749 277.136 17.8349C277.456 17.5849 277.726 17.2649 277.946 16.8749L278.561 17.5799C277.621 18.9799 276.551 19.6799 275.351 19.6799C274.541 19.6799 274.066 19.3199 273.926 18.5999C273.196 19.3199 272.381 19.6799 271.481 19.6799ZM272.201 18.1949C272.751 18.1949 273.296 17.9099 273.836 17.3399L274.316 14.3099C274.046 14.2599 273.741 14.2349 273.401 14.2349C272.711 14.2349 272.171 14.4749 271.781 14.9549C271.401 15.4249 271.211 16.0749 271.211 16.9049C271.211 17.7649 271.541 18.1949 272.201 18.1949ZM280.752 11.8049C280.422 11.8049 280.147 11.7049 279.927 11.5049C279.707 11.3049 279.597 11.0499 279.597 10.7399C279.597 10.3699 279.727 10.0599 279.987 9.80995C280.247 9.55995 280.567 9.43495 280.947 9.43495C281.267 9.43495 281.532 9.53995 281.742 9.74995C281.952 9.94995 282.057 10.2049 282.057 10.5149C282.057 10.8849 281.932 11.1949 281.682 11.4449C281.432 11.6849 281.122 11.8049 280.752 11.8049ZM283.332 16.8749L283.962 17.5799C282.992 18.9799 281.852 19.6799 280.542 19.6799C279.822 19.6799 279.317 19.4699 279.027 19.0499C278.737 18.6199 278.662 17.9549 278.802 17.0549L279.477 12.8699L281.502 12.6749L280.842 16.7849C280.762 17.2949 280.767 17.6599 280.857 17.8799C280.947 18.0899 281.147 18.1949 281.457 18.1949C282.197 18.1849 282.822 17.7449 283.332 16.8749ZM287.034 19.6799C286.354 19.6799 285.764 19.5649 285.264 19.3349L285.519 17.9399C285.989 18.1699 286.424 18.2849 286.824 18.2849C287.234 18.2849 287.554 18.1899 287.784 17.9999C288.014 17.8099 288.129 17.5449 288.129 17.2049C288.129 16.9549 288.054 16.6949 287.904 16.4249C287.754 16.1549 287.584 15.9149 287.394 15.7049C287.214 15.4949 287.034 15.2199 286.854 14.8799C286.674 14.5399 286.564 14.1849 286.524 13.8149H286.494C286.334 14.1349 286.084 14.7449 285.744 15.6449C285.404 16.5449 285.104 17.1899 284.844 17.5799L284.214 16.8749C284.394 16.5849 284.674 15.9399 285.054 14.9399C285.444 13.9299 285.834 13.1749 286.224 12.6749L288.264 12.4649C288.234 12.9149 288.279 13.3249 288.399 13.6949C288.519 14.0649 288.674 14.3799 288.864 14.6399C289.064 14.8899 289.264 15.1349 289.464 15.3749C289.664 15.6149 289.834 15.8899 289.974 16.1999C290.114 16.4999 290.184 16.8249 290.184 17.1749C290.184 17.6249 290.094 18.0149 289.914 18.3449C290.844 18.2849 291.599 17.7949 292.179 16.8749L292.794 17.5799C292.274 18.3299 291.689 18.8449 291.039 19.1249C290.399 19.4049 289.594 19.5049 288.624 19.4249C288.174 19.5949 287.644 19.6799 287.034 19.6799ZM305.804 16.8749L306.434 17.5799C305.984 18.2599 305.479 18.7799 304.919 19.1399C304.359 19.4999 303.789 19.6799 303.209 19.6799C302.389 19.6799 301.914 19.3199 301.784 18.5999C301.064 19.3199 300.249 19.6799 299.339 19.6799C297.809 19.6799 297.044 18.7899 297.044 17.0099C297.044 15.7199 297.404 14.6749 298.124 13.8749C298.854 13.0749 299.824 12.6749 301.034 12.6749C301.434 12.6749 301.894 12.7299 302.414 12.8399L303.029 8.99995L305.054 8.81995L303.719 17.1299C303.659 17.5099 303.659 17.7849 303.719 17.9549C303.779 18.1149 303.914 18.1949 304.124 18.1949C304.394 18.1949 304.684 18.0749 304.994 17.8349C305.314 17.5849 305.584 17.2649 305.804 16.8749ZM301.679 17.3699L302.189 14.2499C301.819 14.1999 301.519 14.1749 301.289 14.1749C300.589 14.1749 300.044 14.4249 299.654 14.9249C299.264 15.4149 299.069 16.0799 299.069 16.9199C299.069 17.3699 299.144 17.6999 299.294 17.9099C299.454 18.1199 299.704 18.2249 300.044 18.2249C300.594 18.2249 301.139 17.9399 301.679 17.3699ZM313.575 16.8749L314.205 17.5799C313.245 18.9799 311.865 19.6799 310.065 19.6799C308.975 19.6799 308.135 19.4099 307.545 18.8699C306.965 18.3299 306.675 17.5649 306.675 16.5749C306.675 15.4349 307.02 14.4999 307.71 13.7699C308.4 13.0399 309.285 12.6749 310.365 12.6749C311.115 12.6749 311.71 12.8549 312.15 13.2149C312.6 13.5649 312.82 14.0399 312.81 14.6399C312.8 15.3999 312.45 16.0149 311.76 16.4849C311.07 16.9449 310.145 17.1849 308.985 17.2049C309.095 17.5449 309.3 17.8149 309.6 18.0149C309.9 18.2149 310.265 18.3149 310.695 18.3149C311.985 18.3149 312.945 17.8349 313.575 16.8749ZM310.275 14.1449C309.835 14.1449 309.47 14.3349 309.18 14.7149C308.9 15.0849 308.74 15.5749 308.7 16.1849C309.42 16.1849 309.99 16.0649 310.41 15.8249C310.84 15.5849 311.06 15.2599 311.07 14.8499C311.08 14.6199 311.01 14.4449 310.86 14.3249C310.72 14.2049 310.525 14.1449 310.275 14.1449ZM320.985 19.4999L322.275 11.2649H319.425L319.71 9.44995H327.45L327.165 11.2649H324.315L323.055 19.4999H320.985ZM333.794 16.8749L334.424 17.5799C333.464 18.9799 332.084 19.6799 330.284 19.6799C329.194 19.6799 328.354 19.4099 327.764 18.8699C327.184 18.3299 326.894 17.5649 326.894 16.5749C326.894 15.4349 327.239 14.4999 327.929 13.7699C328.619 13.0399 329.504 12.6749 330.584 12.6749C331.334 12.6749 331.929 12.8549 332.369 13.2149C332.819 13.5649 333.039 14.0399 333.029 14.6399C333.019 15.3999 332.669 16.0149 331.979 16.4849C331.289 16.9449 330.364 17.1849 329.204 17.2049C329.314 17.5449 329.519 17.8149 329.819 18.0149C330.119 18.2149 330.484 18.3149 330.914 18.3149C332.204 18.3149 333.164 17.8349 333.794 16.8749ZM330.494 14.1449C330.054 14.1449 329.689 14.3349 329.399 14.7149C329.119 15.0849 328.959 15.5749 328.919 16.1849C329.639 16.1849 330.209 16.0649 330.629 15.8249C331.059 15.5849 331.279 15.2599 331.289 14.8499C331.299 14.6199 331.229 14.4449 331.079 14.3249C330.939 14.2049 330.744 14.1449 330.494 14.1449ZM339.299 16.8749L339.914 17.5799C338.964 18.9799 337.819 19.6799 336.479 19.6799C335.729 19.6799 335.204 19.4699 334.904 19.0499C334.604 18.6199 334.524 17.9549 334.664 17.0549L335.939 8.99995L337.964 8.81995L336.704 16.7849C336.624 17.2849 336.634 17.6449 336.734 17.8649C336.844 18.0849 337.064 18.1949 337.394 18.1949C337.764 18.1849 338.114 18.0649 338.444 17.8349C338.784 17.5949 339.069 17.2749 339.299 16.8749ZM347.064 16.8749L347.694 17.5799C346.734 18.9799 345.354 19.6799 343.554 19.6799C342.464 19.6799 341.624 19.4099 341.034 18.8699C340.454 18.3299 340.164 17.5649 340.164 16.5749C340.164 15.4349 340.509 14.4999 341.199 13.7699C341.889 13.0399 342.774 12.6749 343.854 12.6749C344.604 12.6749 345.199 12.8549 345.639 13.2149C346.089 13.5649 346.309 14.0399 346.299 14.6399C346.289 15.3999 345.939 16.0149 345.249 16.4849C344.559 16.9449 343.634 17.1849 342.474 17.2049C342.584 17.5449 342.789 17.8149 343.089 18.0149C343.389 18.2149 343.754 18.3149 344.184 18.3149C345.474 18.3149 346.434 17.8349 347.064 16.8749ZM343.764 14.1449C343.324 14.1449 342.959 14.3349 342.669 14.7149C342.389 15.0849 342.229 15.5749 342.189 16.1849C342.909 16.1849 343.479 16.0649 343.899 15.8249C344.329 15.5849 344.549 15.2599 344.559 14.8499C344.569 14.6199 344.499 14.4449 344.349 14.3249C344.209 14.2049 344.014 14.1449 343.764 14.1449ZM347.094 22.4549L348.609 12.8699L350.634 12.6749L350.469 13.7699C351.339 13.0399 352.179 12.6749 352.989 12.6749C353.699 12.6749 354.214 12.9199 354.534 13.4099C354.854 13.8999 354.969 14.6149 354.879 15.5549C354.769 16.6549 354.449 17.5649 353.919 18.2849C354.179 18.3849 354.464 18.4099 354.774 18.3599C355.484 18.2599 356.099 17.7649 356.619 16.8749L357.234 17.5799C356.404 18.8399 355.394 19.4649 354.204 19.4549C353.734 19.4549 353.294 19.3649 352.884 19.1849C352.344 19.5149 351.684 19.6799 350.904 19.6799C350.494 19.6799 350.044 19.6299 349.554 19.5299L349.089 22.4549H347.094ZM350.814 18.1799C351.384 18.1699 351.844 17.9699 352.194 17.5799C352.544 17.1899 352.759 16.6099 352.839 15.8399C352.899 15.2799 352.864 14.8699 352.734 14.6099C352.604 14.3399 352.359 14.2049 351.999 14.2049C351.539 14.2049 350.959 14.4949 350.259 15.0749L349.794 18.0299C350.154 18.1299 350.494 18.1799 350.814 18.1799ZM366.011 16.8749L366.641 17.5799C365.961 18.6599 365.126 19.2699 364.136 19.4099C363.566 19.4999 362.966 19.4249 362.336 19.1849C361.746 19.5149 361.076 19.6799 360.326 19.6799C359.406 19.6799 358.706 19.4449 358.226 18.9749C357.746 18.4949 357.506 17.7949 357.506 16.8749C357.526 15.6549 357.906 14.6549 358.646 13.8749C359.396 13.0849 360.366 12.6899 361.556 12.6899C362.476 12.6899 363.176 12.9299 363.656 13.4099C364.146 13.8899 364.391 14.5849 364.391 15.4949C364.391 16.6049 364.081 17.5249 363.461 18.2549C363.691 18.3449 363.931 18.3749 364.181 18.3449C364.841 18.2449 365.451 17.7549 366.011 16.8749ZM360.506 18.1649C361.036 18.1749 361.481 17.9299 361.841 17.4299C362.201 16.9199 362.381 16.2849 362.381 15.5249C362.381 14.6549 362.051 14.2199 361.391 14.2199C360.851 14.2199 360.406 14.4749 360.056 14.9849C359.716 15.4949 359.541 16.1249 359.531 16.8749C359.521 17.7349 359.846 18.1649 360.506 18.1649ZM374.057 16.8749L374.687 17.5799C373.767 18.9799 372.567 19.6799 371.087 19.6799C370.347 19.6799 369.777 19.4999 369.377 19.1399C368.977 18.7799 368.777 18.2599 368.777 17.5799C368.777 16.5599 369.202 15.4049 370.052 14.1149C369.552 14.1049 368.982 14.0049 368.342 13.8149C368.452 15.2249 368.187 16.4799 367.547 17.5799L366.917 16.8749C367.487 15.8349 367.642 14.6999 367.382 13.4699C367.362 13.4599 367.282 13.4299 367.142 13.3799C367.012 13.3199 366.922 13.2699 366.872 13.2299L367.112 11.7749C368.272 12.4649 369.992 12.8299 372.272 12.8699L371.912 14.2949C371.152 15.3349 370.772 16.2849 370.772 17.1449C370.772 17.8449 371.132 18.1949 371.852 18.1949C372.282 18.1949 372.697 18.0799 373.097 17.8499C373.507 17.6099 373.827 17.2849 374.057 16.8749ZM379.556 16.8749L380.171 17.5799C379.231 18.9799 378.081 19.6799 376.721 19.6799C375.991 19.6799 375.471 19.4699 375.161 19.0499C374.861 18.6299 374.781 17.9649 374.921 17.0549L375.386 14.1149H374.456L374.651 12.8699H375.596L375.956 10.6049L377.966 10.4249L377.576 12.8699H378.986L378.791 14.1149H377.381L376.961 16.7999C376.891 17.3099 376.906 17.6699 377.006 17.8799C377.116 18.0899 377.331 18.1949 377.651 18.1949C378.401 18.1749 379.036 17.7349 379.556 16.8749Z" fill="white"/>
</g>
<defs>
<clipPath id="clip0_362_58">
<rect width="620" height="27" fill="white" transform="translate(0 0.5)"/>
</clipPath>
</defs>
</svg>
