<svg width="302" height="28" viewBox="0 0 302 28" fill="none" xmlns="http://www.w3.org/2000/svg">
<g clip-path="url(#clip0_362_55)">
<path d="M0.5 6.5C0.5 3.46243 2.96243 1 6 1H296C299.038 1 301.5 3.46242 301.5 6.5V27H0.5V6.5Z" fill="#131312" stroke="#1E1E1D"/>
<path d="M38.155 8.96495L40.15 8.76995L39.55 18.9999H37.48L37.795 14.2449L37.99 12.4299H37.945L37.105 13.9299L35.215 17.0049L33.55 17.1999L32.455 14.1249L31.93 12.4449H31.885L31.57 14.4699L30.655 18.9999H28.6L30.67 8.94995L32.56 8.76995L33.985 12.9549L34.555 14.7849H34.6L35.62 13.0149L38.155 8.96495ZM50.6692 16.3749L51.2992 17.0799C50.3292 18.4799 49.2492 19.1799 48.0592 19.1799C47.2992 19.1799 46.8492 18.8149 46.7092 18.0849C45.8192 18.8149 44.8892 19.1799 43.9192 19.1799C42.3992 19.1799 41.7692 18.3599 42.0292 16.7199L42.7342 12.3699L44.7442 12.1749L44.0542 16.5849C43.9842 16.9649 44.0092 17.2399 44.1292 17.4099C44.2592 17.5799 44.4842 17.6649 44.8042 17.6649C45.3342 17.6649 45.9192 17.3999 46.5592 16.8699L47.2792 12.3699L49.3042 12.1749L48.5842 16.7799C48.4742 17.3899 48.6142 17.6949 49.0042 17.6949C49.2842 17.6949 49.5742 17.5699 49.8742 17.3199C50.1842 17.0699 50.4492 16.7549 50.6692 16.3749ZM60.0479 16.3749L60.6779 17.0799C59.7279 18.4799 58.6529 19.1799 57.4529 19.1799C56.8529 19.1799 56.4179 19.0049 56.1479 18.6549C55.8879 18.2949 55.8129 17.7749 55.9229 17.0949L56.2979 14.7699C56.4179 14.0499 56.1929 13.6899 55.6229 13.6899C55.0929 13.6899 54.4529 13.9799 53.7029 14.5599L52.9979 18.9999H51.0029L52.0529 12.3699L54.0779 12.1749L53.8979 13.2699C54.9479 12.5399 55.8829 12.1749 56.7029 12.1749C57.3529 12.1749 57.8179 12.3599 58.0979 12.7299C58.3879 13.0999 58.4779 13.6299 58.3679 14.3199L57.9779 16.6749C57.8679 17.3549 58.0129 17.6949 58.4129 17.6949C58.6729 17.6949 58.9529 17.5749 59.2529 17.3349C59.5629 17.0949 59.8279 16.7749 60.0479 16.3749ZM69.5608 16.3749L70.1908 17.0799C69.7408 17.7599 69.2358 18.2799 68.6758 18.6399C68.1158 18.9999 67.5458 19.1799 66.9658 19.1799C66.1458 19.1799 65.6708 18.8199 65.5408 18.0999C64.8208 18.8199 64.0058 19.1799 63.0958 19.1799C61.5658 19.1799 60.8008 18.2899 60.8008 16.5099C60.8008 15.2199 61.1608 14.1749 61.8808 13.3749C62.6108 12.5749 63.5808 12.1749 64.7908 12.1749C65.1908 12.1749 65.6508 12.2299 66.1708 12.3399L66.7858 8.49995L68.8108 8.31995L67.4758 16.6299C67.4158 17.0099 67.4158 17.2849 67.4758 17.4549C67.5358 17.6149 67.6708 17.6949 67.8808 17.6949C68.1508 17.6949 68.4408 17.5749 68.7508 17.3349C69.0708 17.0849 69.3408 16.7649 69.5608 16.3749ZM65.4358 16.8699L65.9458 13.7499C65.5758 13.6999 65.2758 13.6749 65.0458 13.6749C64.3458 13.6749 63.8008 13.9249 63.4108 14.4249C63.0208 14.9149 62.8258 15.5799 62.8258 16.4199C62.8258 16.8699 62.9008 17.1999 63.0508 17.4099C63.2108 17.6199 63.4608 17.7249 63.8008 17.7249C64.3508 17.7249 64.8958 17.4399 65.4358 16.8699ZM78.8009 16.3749L79.4309 17.0799C78.7509 18.1599 77.9159 18.7699 76.9259 18.9099C76.3559 18.9999 75.7559 18.9249 75.1259 18.6849C74.5359 19.0149 73.8659 19.1799 73.1159 19.1799C72.1959 19.1799 71.4959 18.9449 71.0159 18.4749C70.5359 17.9949 70.2959 17.2949 70.2959 16.3749C70.3159 15.1549 70.6959 14.1549 71.4359 13.3749C72.1859 12.5849 73.1559 12.1899 74.3459 12.1899C75.2659 12.1899 75.9659 12.4299 76.4459 12.9099C76.9359 13.3899 77.1809 14.0849 77.1809 14.9949C77.1809 16.1049 76.8709 17.0249 76.2509 17.7549C76.4809 17.8449 76.7209 17.8749 76.9709 17.8449C77.6309 17.7449 78.2409 17.2549 78.8009 16.3749ZM73.2959 17.6649C73.8259 17.6749 74.2709 17.4299 74.6309 16.9299C74.9909 16.4199 75.1709 15.7849 75.1709 15.0249C75.1709 14.1549 74.8409 13.7199 74.1809 13.7199C73.6409 13.7199 73.1959 13.9749 72.8459 14.4849C72.5059 14.9949 72.3309 15.6249 72.3209 16.3749C72.3109 17.2349 72.6359 17.6649 73.2959 17.6649Z" fill="white"/>
</g>
<defs>
<clipPath id="clip0_362_55">
<rect width="302" height="27" fill="white" transform="translate(0 0.5)"/>
</clipPath>
</defs>
</svg>
