<svg width="302" height="28" viewBox="0 0 302 28" fill="none" xmlns="http://www.w3.org/2000/svg">
<g clip-path="url(#clip0_362_67)">
<path d="M0.5 6.5C0.5 3.46243 2.96243 1 6 1H296C299.038 1 301.5 3.46242 301.5 6.5V27H0.5V6.5Z" fill="#131312" stroke="#1E1E1D"/>
<path d="M32.575 19.18C31.335 19.18 30.39 18.815 29.74 18.085C29.1 17.355 28.78 16.305 28.78 14.935C28.78 13.165 29.275 11.695 30.265 10.525C31.265 9.35502 32.535 8.77002 34.075 8.77002C35.315 8.77002 36.26 9.14002 36.91 9.88002C37.56 10.61 37.885 11.655 37.885 13.015C37.885 14.775 37.385 16.245 36.385 17.425C35.385 18.595 34.115 19.18 32.575 19.18ZM32.695 17.41C33.585 17.41 34.325 16.99 34.915 16.15C35.515 15.31 35.815 14.26 35.815 13C35.815 11.36 35.195 10.54 33.955 10.54C33.065 10.54 32.325 10.96 31.735 11.8C31.145 12.64 30.85 13.69 30.85 14.95C30.85 16.59 31.465 17.41 32.695 17.41ZM48.2376 16.375L48.8676 17.08C47.8976 18.48 46.8176 19.18 45.6276 19.18C44.8676 19.18 44.4176 18.815 44.2776 18.085C43.3876 18.815 42.4576 19.18 41.4876 19.18C39.9676 19.18 39.3376 18.36 39.5976 16.72L40.3026 12.37L42.3126 12.175L41.6226 16.585C41.5526 16.965 41.5776 17.24 41.6976 17.41C41.8276 17.58 42.0526 17.665 42.3726 17.665C42.9026 17.665 43.4876 17.4 44.1276 16.87L44.8476 12.37L46.8726 12.175L46.1526 16.78C46.0426 17.39 46.1826 17.695 46.5726 17.695C46.8526 17.695 47.1426 17.57 47.4426 17.32C47.7526 17.07 48.0176 16.755 48.2376 16.375ZM50.7762 19.18C49.2962 19.18 48.6912 18.305 48.9612 16.555L49.4262 13.615H48.4962L48.6912 12.37H49.6362L49.9962 10.105L52.0062 9.92502L51.6312 12.37H53.0262L52.8312 13.615H51.4362L51.0162 16.3C50.9362 16.81 50.9512 17.17 51.0612 17.38C51.1812 17.59 51.4012 17.695 51.7212 17.695C52.5312 17.685 53.1762 17.28 53.6562 16.48C53.9362 16 54.1212 15.445 54.2112 14.815C54.3112 14.175 54.3012 13.555 54.1812 12.955C53.9212 12.825 53.7762 12.75 53.7462 12.73L53.9862 11.275C55.1462 11.965 56.8662 12.33 59.1462 12.37L58.7862 13.795C58.0262 14.835 57.6462 15.785 57.6462 16.645C57.6462 17.345 57.9912 17.695 58.6812 17.695C59.1312 17.695 59.5612 17.58 59.9712 17.35C60.3812 17.11 60.7012 16.785 60.9312 16.375L61.5612 17.08C60.6412 18.48 59.4512 19.18 57.9912 19.18C57.2612 19.18 56.6862 19 56.2662 18.64C55.8562 18.27 55.6512 17.75 55.6512 17.08C55.6512 16.07 56.0862 14.91 56.9562 13.6C56.3362 13.58 55.7212 13.475 55.1112 13.285C55.2512 14.745 55.0062 16.025 54.3762 17.125C53.9862 17.775 53.4812 18.28 52.8612 18.64C52.2512 19 51.5562 19.18 50.7762 19.18ZM70.1847 16.375L70.8147 17.08C70.1347 18.16 69.2997 18.77 68.3097 18.91C67.7397 19 67.1397 18.925 66.5097 18.685C65.9197 19.015 65.2497 19.18 64.4997 19.18C63.5797 19.18 62.8797 18.945 62.3997 18.475C61.9197 17.995 61.6797 17.295 61.6797 16.375C61.6997 15.155 62.0797 14.155 62.8197 13.375C63.5697 12.585 64.5397 12.19 65.7297 12.19C66.6497 12.19 67.3497 12.43 67.8297 12.91C68.3197 13.39 68.5647 14.085 68.5647 14.995C68.5647 16.105 68.2547 17.025 67.6347 17.755C67.8647 17.845 68.1047 17.875 68.3547 17.845C69.0147 17.745 69.6247 17.255 70.1847 16.375ZM64.6797 17.665C65.2097 17.675 65.6547 17.43 66.0147 16.93C66.3747 16.42 66.5547 15.785 66.5547 15.025C66.5547 14.155 66.2247 13.72 65.5647 13.72C65.0247 13.72 64.5797 13.975 64.2297 14.485C63.8897 14.995 63.7147 15.625 63.7047 16.375C63.6947 17.235 64.0197 17.665 64.6797 17.665ZM73.7604 19.18C73.0804 19.18 72.4904 19.065 71.9904 18.835L72.2454 17.44C72.7154 17.67 73.1504 17.785 73.5504 17.785C73.9604 17.785 74.2804 17.69 74.5104 17.5C74.7404 17.31 74.8554 17.045 74.8554 16.705C74.8554 16.455 74.7804 16.195 74.6304 15.925C74.4804 15.655 74.3104 15.415 74.1204 15.205C73.9404 14.995 73.7604 14.72 73.5804 14.38C73.4004 14.04 73.2904 13.685 73.2504 13.315H73.2204C73.0604 13.635 72.8104 14.245 72.4704 15.145C72.1304 16.045 71.8304 16.69 71.5704 17.08L70.9404 16.375C71.1204 16.085 71.4004 15.44 71.7804 14.44C72.1704 13.43 72.5604 12.675 72.9504 12.175L74.9904 11.965C74.9604 12.415 75.0054 12.825 75.1254 13.195C75.2454 13.565 75.4004 13.88 75.5904 14.14C75.7904 14.39 75.9904 14.635 76.1904 14.875C76.3904 15.115 76.5604 15.39 76.7004 15.7C76.8404 16 76.9104 16.325 76.9104 16.675C76.9104 17.125 76.8204 17.515 76.6404 17.845C77.5704 17.785 78.3254 17.295 78.9054 16.375L79.5204 17.08C79.0004 17.83 78.4154 18.345 77.7654 18.625C77.1254 18.905 76.3204 19.005 75.3504 18.925C74.9004 19.095 74.3704 19.18 73.7604 19.18Z" fill="white"/>
</g>
<defs>
<clipPath id="clip0_362_67">
<rect width="302" height="27" fill="white" transform="translate(0 0.5)"/>
</clipPath>
</defs>
</svg>
