<svg width="302" height="28" viewBox="0 0 302 28" fill="none" xmlns="http://www.w3.org/2000/svg">
<g clip-path="url(#clip0_362_70)">
<path d="M0.5 6.5C0.5 3.46243 2.96243 1 6 1H296C299.038 1 301.5 3.46242 301.5 6.5V27H0.5V6.5Z" fill="#131312" stroke="#1E1E1D"/>
<path d="M33.236 8.61998C34.4307 8.61998 35.2893 8.84398 35.812 9.29198C36.3347 9.73998 36.596 10.3933 36.596 11.252C36.596 12.4093 36.1947 13.3287 35.392 14.01C34.5987 14.6913 33.5347 15.032 32.2 15.032H30.926L30.464 18H28.602L30.072 8.61998H33.236ZM32.256 13.478C33.012 13.478 33.6047 13.3053 34.034 12.96C34.4727 12.6147 34.692 12.1247 34.692 11.49C34.692 11.0327 34.552 10.706 34.272 10.51C34.0013 10.314 33.5347 10.216 32.872 10.216H31.682L31.178 13.478H32.256ZM37.352 12.428L37.66 10.972C38.6213 11.5133 40.0353 11.7933 41.902 11.812L41.566 13.142C40.6513 14.1407 40.194 15.0227 40.194 15.788C40.194 16.4507 40.53 16.782 41.202 16.782C41.622 16.782 42.0187 16.67 42.392 16.446C42.7653 16.222 43.0593 15.9233 43.274 15.55L43.862 16.208C42.994 17.5147 41.874 18.168 40.502 18.168C39.802 18.168 39.2653 18 38.892 17.664C38.528 17.3187 38.346 16.8287 38.346 16.194C38.346 15.27 38.8313 14.2247 39.802 13.058C38.8127 13.0113 37.996 12.8013 37.352 12.428ZM45.4917 10.818C45.1837 10.818 44.927 10.7247 44.7217 10.538C44.5164 10.3513 44.4137 10.1133 44.4137 9.82398C44.4137 9.47865 44.535 9.18931 44.7777 8.95598C45.0204 8.72265 45.319 8.60598 45.6737 8.60598C45.9724 8.60598 46.2197 8.70398 46.4157 8.89998C46.6117 9.08665 46.7097 9.32465 46.7097 9.61398C46.7097 9.95931 46.593 10.2487 46.3597 10.482C46.1264 10.706 45.837 10.818 45.4917 10.818ZM47.8997 15.55L48.4877 16.208C47.5824 17.5147 46.5184 18.168 45.2957 18.168C44.6237 18.168 44.1524 17.972 43.8817 17.58C43.611 17.1787 43.541 16.558 43.6717 15.718L44.3017 11.812L46.1917 11.63L45.5757 15.466C45.501 15.942 45.5057 16.2827 45.5897 16.488C45.6737 16.684 45.8604 16.782 46.1497 16.782C46.8404 16.7727 47.4237 16.362 47.8997 15.55ZM56.3533 15.55L56.9413 16.208C56.0546 17.5147 55.0513 18.168 53.9313 18.168C53.3713 18.168 52.9653 18.0047 52.7133 17.678C52.4706 17.342 52.4006 16.8567 52.5033 16.222L52.8533 14.052C52.9653 13.38 52.7553 13.044 52.2233 13.044C51.7286 13.044 51.1313 13.3147 50.4313 13.856L49.7733 18H47.9113L48.8913 11.812L50.7813 11.63L50.6133 12.652C51.5933 11.9707 52.4659 11.63 53.2313 11.63C53.8379 11.63 54.2719 11.8027 54.5333 12.148C54.8039 12.4933 54.8879 12.988 54.7853 13.632L54.4213 15.83C54.3186 16.4647 54.4539 16.782 54.8273 16.782C55.0699 16.782 55.3313 16.67 55.6113 16.446C55.9006 16.222 56.1479 15.9233 56.3533 15.55ZM59.898 18.168C58.8433 18.168 58.05 17.916 57.518 17.412C56.9953 16.8987 56.7433 16.1567 56.762 15.186C56.7807 14.1313 57.112 13.2773 57.756 12.624C58.4 11.9613 59.2307 11.63 60.248 11.63C61.1347 11.63 61.7507 11.882 62.096 12.386C62.4507 12.89 62.4553 13.5387 62.11 14.332L60.654 13.996C60.7753 13.7067 60.7847 13.4733 60.682 13.296C60.5793 13.1093 60.388 13.016 60.108 13.016C59.688 13.016 59.338 13.2167 59.058 13.618C58.778 14.01 58.638 14.5047 58.638 15.102C58.638 16.2967 59.24 16.894 60.444 16.894C61.6667 16.894 62.5813 16.446 63.188 15.55L63.762 16.208C62.8753 17.5147 61.5873 18.168 59.898 18.168ZM65.3865 10.818C65.0785 10.818 64.8218 10.7247 64.6165 10.538C64.4111 10.3513 64.3085 10.1133 64.3085 9.82398C64.3085 9.47865 64.4298 9.18931 64.6725 8.95598C64.9151 8.72265 65.2138 8.60598 65.5685 8.60598C65.8671 8.60598 66.1145 8.70398 66.3105 8.89998C66.5065 9.08665 66.6045 9.32465 66.6045 9.61398C66.6045 9.95931 66.4878 10.2487 66.2545 10.482C66.0211 10.706 65.7318 10.818 65.3865 10.818ZM67.7945 15.55L68.3825 16.208C67.4771 17.5147 66.4131 18.168 65.1905 18.168C64.5185 18.168 64.0471 17.972 63.7765 17.58C63.5058 17.1787 63.4358 16.558 63.5665 15.718L64.1965 11.812L66.0865 11.63L65.4705 15.466C65.3958 15.942 65.4005 16.2827 65.4845 16.488C65.5685 16.684 65.7551 16.782 66.0445 16.782C66.7351 16.7727 67.3185 16.362 67.7945 15.55ZM67.386 20.758L68.8 11.812L70.69 11.63L70.536 12.652C71.348 11.9707 72.132 11.63 72.888 11.63C73.5507 11.63 74.0314 11.8587 74.33 12.316C74.6287 12.7733 74.736 13.4407 74.652 14.318C74.5494 15.3447 74.2507 16.194 73.756 16.866C73.9987 16.9593 74.2647 16.9827 74.554 16.936C75.2167 16.8427 75.7907 16.3807 76.276 15.55L76.85 16.208C76.0754 17.384 75.1327 17.9673 74.022 17.958C73.5834 17.958 73.1727 17.874 72.79 17.706C72.286 18.014 71.67 18.168 70.942 18.168C70.5594 18.168 70.1394 18.1213 69.682 18.028L69.248 20.758H67.386ZM70.858 16.768C71.39 16.7587 71.8194 16.572 72.146 16.208C72.4727 15.844 72.6734 15.3027 72.748 14.584C72.804 14.0613 72.7714 13.6787 72.65 13.436C72.5287 13.184 72.3 13.058 71.964 13.058C71.5347 13.058 70.9934 13.3287 70.34 13.87L69.906 16.628C70.242 16.7213 70.5594 16.768 70.858 16.768ZM78.8125 18.168C78.1218 18.168 77.5898 17.958 77.2165 17.538C76.8525 17.1087 76.6705 16.488 76.6705 15.676C76.6705 14.472 77.0111 13.4967 77.6925 12.75C78.3738 12.0033 79.2791 11.63 80.4085 11.63C80.7911 11.63 81.2485 11.6907 81.7805 11.812L83.5725 11.63L82.9005 15.788C82.8445 16.1427 82.8445 16.3993 82.9005 16.558C82.9565 16.7073 83.0825 16.782 83.2785 16.782C83.5305 16.782 83.8011 16.67 84.0905 16.446C84.3891 16.2127 84.6411 15.914 84.8465 15.55L85.4205 16.208C84.5431 17.5147 83.5445 18.168 82.4245 18.168C81.6685 18.168 81.2251 17.832 81.0945 17.16C80.4131 17.832 79.6525 18.168 78.8125 18.168ZM79.4845 16.782C79.9978 16.782 80.5065 16.516 81.0105 15.984L81.4585 13.156C81.2065 13.1093 80.9218 13.086 80.6045 13.086C79.9605 13.086 79.4565 13.31 79.0925 13.758C78.7378 14.1967 78.5605 14.8033 78.5605 15.578C78.5605 16.3807 78.8685 16.782 79.4845 16.782ZM89.5509 15.55L90.1249 16.208C89.2382 17.5147 88.1696 18.168 86.9189 18.168C86.2189 18.168 85.7289 17.972 85.4489 17.58C85.1689 17.1787 85.0942 16.558 85.2249 15.718L86.4149 8.19998L88.3049 8.03198L87.1289 15.466C87.0542 15.9327 87.0636 16.2687 87.1569 16.474C87.2596 16.6793 87.4649 16.782 87.7729 16.782C88.1182 16.7727 88.4449 16.6607 88.7529 16.446C89.0702 16.222 89.3362 15.9233 89.5509 15.55Z" fill="white"/>
</g>
<defs>
<clipPath id="clip0_362_70">
<rect width="302" height="27" fill="white" transform="translate(0 0.5)"/>
</clipPath>
</defs>
</svg>
