<svg width="302" height="28" viewBox="0 0 302 28" fill="none" xmlns="http://www.w3.org/2000/svg">
<g clip-path="url(#clip0_362_73)">
<path d="M0.5 6.5C0.5 3.46243 2.96243 1 6 1H296C299.038 1 301.5 3.46242 301.5 6.5V27H0.5V6.5Z" fill="#131312" stroke="#1E1E1D"/>
<path d="M33.61 8.94995C34.89 8.94995 35.81 9.18995 36.37 9.66995C36.93 10.1499 37.21 10.8499 37.21 11.7699C37.21 13.0099 36.78 13.9949 35.92 14.7249C35.07 15.4549 33.93 15.8199 32.5 15.8199H31.135L30.64 18.9999H28.645L30.22 8.94995H33.61ZM32.56 14.1549C33.37 14.1549 34.005 13.9699 34.465 13.5999C34.935 13.2299 35.17 12.7049 35.17 12.0249C35.17 11.5349 35.02 11.1849 34.72 10.9749C34.43 10.7649 33.93 10.6599 33.22 10.6599H31.945L31.405 14.1549H32.56ZM38.02 13.0299L38.35 11.4699C39.38 12.0499 40.895 12.3499 42.895 12.3699L42.535 13.7949C41.555 14.8649 41.065 15.8099 41.065 16.6299C41.065 17.3399 41.425 17.6949 42.145 17.6949C42.595 17.6949 43.02 17.5749 43.42 17.3349C43.82 17.0949 44.135 16.7749 44.365 16.3749L44.995 17.0799C44.065 18.4799 42.865 19.1799 41.395 19.1799C40.645 19.1799 40.07 18.9999 39.67 18.6399C39.28 18.2699 39.085 17.7449 39.085 17.0649C39.085 16.0749 39.605 14.9549 40.645 13.7049C39.585 13.6549 38.71 13.4299 38.02 13.0299ZM47.0411 11.3049C46.7111 11.3049 46.4361 11.2049 46.2161 11.0049C45.9961 10.8049 45.8861 10.5499 45.8861 10.2399C45.8861 9.86995 46.0161 9.55995 46.2761 9.30995C46.5361 9.05995 46.8561 8.93495 47.2361 8.93495C47.5561 8.93495 47.8211 9.03995 48.0311 9.24995C48.2411 9.44995 48.3461 9.70495 48.3461 10.0149C48.3461 10.3849 48.2211 10.6949 47.9711 10.9449C47.7211 11.1849 47.4111 11.3049 47.0411 11.3049ZM49.6211 16.3749L50.2511 17.0799C49.2811 18.4799 48.1411 19.1799 46.8311 19.1799C46.1111 19.1799 45.6061 18.9699 45.3161 18.5499C45.0261 18.1199 44.9511 17.4549 45.0911 16.5549L45.7661 12.3699L47.7911 12.1749L47.1311 16.2849C47.0511 16.7949 47.0561 17.1599 47.1461 17.3799C47.2361 17.5899 47.4361 17.6949 47.7461 17.6949C48.4861 17.6849 49.1111 17.2449 49.6211 16.3749ZM58.9785 16.3749L59.6085 17.0799C58.6585 18.4799 57.5835 19.1799 56.3835 19.1799C55.7835 19.1799 55.3485 19.0049 55.0785 18.6549C54.8185 18.2949 54.7435 17.7749 54.8535 17.0949L55.2285 14.7699C55.3485 14.0499 55.1235 13.6899 54.5535 13.6899C54.0235 13.6899 53.3835 13.9799 52.6335 14.5599L51.9285 18.9999H49.9335L50.9835 12.3699L53.0085 12.1749L52.8285 13.2699C53.8785 12.5399 54.8135 12.1749 55.6335 12.1749C56.2835 12.1749 56.7485 12.3599 57.0285 12.7299C57.3185 13.0999 57.4085 13.6299 57.2985 14.3199L56.9085 16.6749C56.7985 17.3549 56.9435 17.6949 57.3435 17.6949C57.6035 17.6949 57.8835 17.5749 58.1835 17.3349C58.4935 17.0949 58.7585 16.7749 58.9785 16.3749ZM63.0764 19.1799C61.9464 19.1799 61.0964 18.9099 60.5264 18.3699C59.9664 17.8199 59.6964 17.0249 59.7164 15.9849C59.7364 14.8549 60.0914 13.9399 60.7814 13.2399C61.4714 12.5299 62.3614 12.1749 63.4514 12.1749C64.4014 12.1749 65.0614 12.4449 65.4314 12.9849C65.8114 13.5249 65.8164 14.2199 65.4464 15.0699L63.8864 14.7099C64.0164 14.3999 64.0264 14.1499 63.9164 13.9599C63.8064 13.7599 63.6014 13.6599 63.3014 13.6599C62.8514 13.6599 62.4764 13.8749 62.1764 14.3049C61.8764 14.7249 61.7264 15.2549 61.7264 15.8949C61.7264 17.1749 62.3714 17.8149 63.6614 17.8149C64.9714 17.8149 65.9514 17.3349 66.6014 16.3749L67.2164 17.0799C66.2664 18.4799 64.8864 19.1799 63.0764 19.1799ZM69.2569 11.3049C68.9269 11.3049 68.6519 11.2049 68.4319 11.0049C68.2119 10.8049 68.1019 10.5499 68.1019 10.2399C68.1019 9.86995 68.2319 9.55995 68.4919 9.30995C68.7519 9.05995 69.0719 8.93495 69.4519 8.93495C69.7719 8.93495 70.0369 9.03995 70.2469 9.24995C70.4569 9.44995 70.5619 9.70495 70.5619 10.0149C70.5619 10.3849 70.4369 10.6949 70.1869 10.9449C69.9369 11.1849 69.6269 11.3049 69.2569 11.3049ZM71.8369 16.3749L72.4669 17.0799C71.4969 18.4799 70.3569 19.1799 69.0469 19.1799C68.3269 19.1799 67.8219 18.9699 67.5319 18.5499C67.2419 18.1199 67.1669 17.4549 67.3069 16.5549L67.9819 12.3699L70.0069 12.1749L69.3469 16.2849C69.2669 16.7949 69.2719 17.1599 69.3619 17.3799C69.4519 17.5899 69.6519 17.6949 69.9619 17.6949C70.7019 17.6849 71.3269 17.2449 71.8369 16.3749ZM71.6993 21.9549L73.2143 12.3699L75.2393 12.1749L75.0743 13.2699C75.9443 12.5399 76.7843 12.1749 77.5943 12.1749C78.3043 12.1749 78.8193 12.4199 79.1393 12.9099C79.4593 13.3999 79.5743 14.1149 79.4843 15.0549C79.3743 16.1549 79.0543 17.0649 78.5243 17.7849C78.7843 17.8849 79.0693 17.9099 79.3793 17.8599C80.0893 17.7599 80.7043 17.2649 81.2243 16.3749L81.8393 17.0799C81.0093 18.3399 79.9993 18.9649 78.8093 18.9549C78.3393 18.9549 77.8993 18.8649 77.4893 18.6849C76.9493 19.0149 76.2893 19.1799 75.5093 19.1799C75.0993 19.1799 74.6493 19.1299 74.1593 19.0299L73.6943 21.9549H71.6993ZM75.4193 17.6799C75.9893 17.6699 76.4493 17.4699 76.7993 17.0799C77.1493 16.6899 77.3643 16.1099 77.4443 15.3399C77.5043 14.7799 77.4693 14.3699 77.3393 14.1099C77.2093 13.8399 76.9643 13.7049 76.6043 13.7049C76.1443 13.7049 75.5643 13.9949 74.8643 14.5749L74.3993 17.5299C74.7593 17.6299 75.0993 17.6799 75.4193 17.6799ZM84.2419 19.1799C83.5019 19.1799 82.9319 18.9549 82.5319 18.5049C82.1419 18.0449 81.9469 17.3799 81.9469 16.5099C81.9469 15.2199 82.3119 14.1749 83.0419 13.3749C83.7719 12.5749 84.7419 12.1749 85.9519 12.1749C86.3619 12.1749 86.8519 12.2399 87.4219 12.3699L89.3419 12.1749L88.6219 16.6299C88.5619 17.0099 88.5619 17.2849 88.6219 17.4549C88.6819 17.6149 88.8169 17.6949 89.0269 17.6949C89.2969 17.6949 89.5869 17.5749 89.8969 17.3349C90.2169 17.0849 90.4869 16.7649 90.7069 16.3749L91.3219 17.0799C90.3819 18.4799 89.3119 19.1799 88.1119 19.1799C87.3019 19.1799 86.8269 18.8199 86.6869 18.0999C85.9569 18.8199 85.1419 19.1799 84.2419 19.1799ZM84.9619 17.6949C85.5119 17.6949 86.0569 17.4099 86.5969 16.8399L87.0769 13.8099C86.8069 13.7599 86.5019 13.7349 86.1619 13.7349C85.4719 13.7349 84.9319 13.9749 84.5419 14.4549C84.1619 14.9249 83.9719 15.5749 83.9719 16.4049C83.9719 17.2649 84.3019 17.6949 84.9619 17.6949ZM96.0474 16.3749L96.6624 17.0799C95.7124 18.4799 94.5674 19.1799 93.2274 19.1799C92.4774 19.1799 91.9524 18.9699 91.6524 18.5499C91.3524 18.1199 91.2724 17.4549 91.4124 16.5549L92.6874 8.49995L94.7124 8.31995L93.4524 16.2849C93.3724 16.7849 93.3824 17.1449 93.4824 17.3649C93.5924 17.5849 93.8124 17.6949 94.1424 17.6949C94.5124 17.6849 94.8624 17.5649 95.1924 17.3349C95.5324 17.0949 95.8174 16.7749 96.0474 16.3749Z" fill="white"/>
</g>
<defs>
<clipPath id="clip0_362_73">
<rect width="302" height="27" fill="white" transform="translate(0 0.5)"/>
</clipPath>
</defs>
</svg>
