<svg width="302" height="27" viewBox="0 0 302 27" fill="none" xmlns="http://www.w3.org/2000/svg">
<path d="M0 6C0 2.68629 2.68629 0 6 0H296C299.314 0 302 2.68629 302 6V27H0V6Z" fill="#0F0F0F"/>
<path d="M34.29 18.68C32.54 18.68 31.3 18.055 30.57 16.805L31.98 15.62C32.57 16.48 33.36 16.915 34.35 16.925C34.89 16.925 35.325 16.815 35.655 16.595C35.995 16.375 36.165 16.08 36.165 15.71C36.165 15.49 36.065 15.28 35.865 15.08C35.665 14.88 35.43 14.715 35.16 14.585C34.89 14.445 34.51 14.265 34.02 14.045C33.98 14.025 33.945 14.01 33.915 14C33.895 13.99 33.87 13.98 33.84 13.97C33.05 13.62 32.475 13.215 32.115 12.755C31.755 12.285 31.585 11.72 31.605 11.06C31.625 10.2 31.94 9.52 32.55 9.02C33.16 8.52 33.99 8.27 35.04 8.27C36.62 8.27 37.725 8.825 38.355 9.935L36.915 10.985C36.485 10.345 35.87 10.025 35.07 10.025C34.13 10.025 33.65 10.36 33.63 11.03C33.63 11.4 33.8 11.715 34.14 11.975C34.49 12.225 35.07 12.53 35.88 12.89C37.46 13.56 38.235 14.525 38.205 15.785C38.185 16.665 37.82 17.37 37.11 17.9C36.4 18.42 35.46 18.68 34.29 18.68ZM46.8137 15.875L47.4437 16.58C46.4837 17.98 45.1037 18.68 43.3037 18.68C42.2137 18.68 41.3737 18.41 40.7837 17.87C40.2037 17.33 39.9137 16.565 39.9137 15.575C39.9137 14.435 40.2587 13.5 40.9487 12.77C41.6387 12.04 42.5237 11.675 43.6037 11.675C44.3537 11.675 44.9487 11.855 45.3887 12.215C45.8387 12.565 46.0587 13.04 46.0487 13.64C46.0387 14.4 45.6887 15.015 44.9987 15.485C44.3087 15.945 43.3837 16.185 42.2237 16.205C42.3337 16.545 42.5387 16.815 42.8387 17.015C43.1387 17.215 43.5037 17.315 43.9337 17.315C45.2237 17.315 46.1837 16.835 46.8137 15.875ZM43.5137 13.145C43.0737 13.145 42.7087 13.335 42.4187 13.715C42.1387 14.085 41.9787 14.575 41.9387 15.185C42.6587 15.185 43.2287 15.065 43.6487 14.825C44.0787 14.585 44.2987 14.26 44.3087 13.85C44.3187 13.62 44.2487 13.445 44.0987 13.325C43.9587 13.205 43.7637 13.145 43.5137 13.145ZM50.9085 18.68C49.7785 18.68 48.9285 18.41 48.3585 17.87C47.7985 17.32 47.5285 16.525 47.5485 15.485C47.5685 14.355 47.9235 13.44 48.6135 12.74C49.3035 12.03 50.1935 11.675 51.2835 11.675C52.2335 11.675 52.8935 11.945 53.2635 12.485C53.6435 13.025 53.6485 13.72 53.2785 14.57L51.7185 14.21C51.8485 13.9 51.8585 13.65 51.7485 13.46C51.6385 13.26 51.4335 13.16 51.1335 13.16C50.6835 13.16 50.3085 13.375 50.0085 13.805C49.7085 14.225 49.5585 14.755 49.5585 15.395C49.5585 16.675 50.2035 17.315 51.4935 17.315C52.8035 17.315 53.7835 16.835 54.4335 15.875L55.0485 16.58C54.0985 17.98 52.7185 18.68 50.9085 18.68ZM63.7639 15.875L64.3939 16.58C63.4239 17.98 62.3439 18.68 61.1539 18.68C60.3939 18.68 59.9439 18.315 59.8039 17.585C58.9139 18.315 57.9839 18.68 57.0139 18.68C55.4939 18.68 54.8639 17.86 55.1239 16.22L55.8289 11.87L57.8389 11.675L57.1489 16.085C57.0789 16.465 57.1039 16.74 57.2239 16.91C57.3539 17.08 57.5789 17.165 57.8989 17.165C58.4289 17.165 59.0139 16.9 59.6539 16.37L60.3739 11.87L62.3989 11.675L61.6789 16.28C61.5689 16.89 61.7089 17.195 62.0989 17.195C62.3789 17.195 62.6689 17.07 62.9689 16.82C63.2789 16.57 63.5439 16.255 63.7639 15.875ZM73.1426 15.875L73.7726 16.58C72.8226 17.98 71.7476 18.68 70.5476 18.68C69.9476 18.68 69.5126 18.505 69.2426 18.155C68.9826 17.795 68.9076 17.275 69.0176 16.595L69.3926 14.27C69.5126 13.55 69.2876 13.19 68.7176 13.19C68.1876 13.19 67.5476 13.48 66.7976 14.06L66.0926 18.5H64.0976L65.1476 11.87L67.1726 11.675L66.9926 12.77C68.0426 12.04 68.9776 11.675 69.7976 11.675C70.4476 11.675 70.9126 11.86 71.1926 12.23C71.4826 12.6 71.5726 13.13 71.4626 13.82L71.0726 16.175C70.9626 16.855 71.1076 17.195 71.5076 17.195C71.7676 17.195 72.0476 17.075 72.3476 16.835C72.6576 16.595 72.9226 16.275 73.1426 15.875ZM82.6555 15.875L83.2855 16.58C82.8355 17.26 82.3305 17.78 81.7705 18.14C81.2105 18.5 80.6405 18.68 80.0605 18.68C79.2405 18.68 78.7655 18.32 78.6355 17.6C77.9155 18.32 77.1005 18.68 76.1905 18.68C74.6605 18.68 73.8955 17.79 73.8955 16.01C73.8955 14.72 74.2555 13.675 74.9755 12.875C75.7055 12.075 76.6755 11.675 77.8855 11.675C78.2855 11.675 78.7455 11.73 79.2655 11.84L79.8805 8L81.9055 7.82L80.5705 16.13C80.5105 16.51 80.5105 16.785 80.5705 16.955C80.6305 17.115 80.7655 17.195 80.9755 17.195C81.2455 17.195 81.5355 17.075 81.8455 16.835C82.1655 16.585 82.4355 16.265 82.6555 15.875ZM78.5305 16.37L79.0405 13.25C78.6705 13.2 78.3705 13.175 78.1405 13.175C77.4405 13.175 76.8955 13.425 76.5055 13.925C76.1155 14.415 75.9205 15.08 75.9205 15.92C75.9205 16.37 75.9955 16.7 76.1455 16.91C76.3055 17.12 76.5555 17.225 76.8955 17.225C77.4455 17.225 77.9905 16.94 78.5305 16.37ZM86.7506 10.67L88.2956 8.315H90.1706L88.2356 10.67H86.7506ZM85.6706 18.68C84.9306 18.68 84.3606 18.455 83.9606 18.005C83.5706 17.545 83.3756 16.88 83.3756 16.01C83.3756 14.72 83.7406 13.675 84.4706 12.875C85.2006 12.075 86.1706 11.675 87.3806 11.675C87.7906 11.675 88.2806 11.74 88.8506 11.87L90.7706 11.675L90.0506 16.13C89.9906 16.51 89.9906 16.785 90.0506 16.955C90.1106 17.115 90.2456 17.195 90.4556 17.195C90.7256 17.195 91.0156 17.075 91.3256 16.835C91.6456 16.585 91.9156 16.265 92.1356 15.875L92.7506 16.58C91.8106 17.98 90.7406 18.68 89.5406 18.68C88.7306 18.68 88.2556 18.32 88.1156 17.6C87.3856 18.32 86.5706 18.68 85.6706 18.68ZM86.3906 17.195C86.9406 17.195 87.4856 16.91 88.0256 16.34L88.5056 13.31C88.2356 13.26 87.9306 13.235 87.5906 13.235C86.9006 13.235 86.3606 13.475 85.9706 13.955C85.5906 14.425 85.4006 15.075 85.4006 15.905C85.4006 16.765 85.7306 17.195 86.3906 17.195ZM100.011 15.875L100.641 16.58C99.7211 17.98 98.5211 18.68 97.0411 18.68C96.3011 18.68 95.7311 18.5 95.3311 18.14C94.9311 17.78 94.7311 17.26 94.7311 16.58C94.7311 15.56 95.1561 14.405 96.0061 13.115C95.5061 13.105 94.9361 13.005 94.2961 12.815C94.4061 14.225 94.1411 15.48 93.5011 16.58L92.8711 15.875C93.4411 14.835 93.5961 13.7 93.3361 12.47C93.3161 12.46 93.2361 12.43 93.0961 12.38C92.9661 12.32 92.8761 12.27 92.8261 12.23L93.0661 10.775C94.2261 11.465 95.9461 11.83 98.2261 11.87L97.8661 13.295C97.1061 14.335 96.7261 15.285 96.7261 16.145C96.7261 16.845 97.0861 17.195 97.8061 17.195C98.2361 17.195 98.6511 17.08 99.0511 16.85C99.4611 16.61 99.7811 16.285 100.011 15.875ZM102.675 10.805C102.345 10.805 102.07 10.705 101.85 10.505C101.63 10.305 101.52 10.05 101.52 9.74C101.52 9.37 101.65 9.06 101.91 8.81C102.17 8.56 102.49 8.435 102.87 8.435C103.19 8.435 103.455 8.54 103.665 8.75C103.875 8.95 103.98 9.205 103.98 9.515C103.98 9.885 103.855 10.195 103.605 10.445C103.355 10.685 103.045 10.805 102.675 10.805ZM105.255 15.875L105.885 16.58C104.915 17.98 103.775 18.68 102.465 18.68C101.745 18.68 101.24 18.47 100.95 18.05C100.66 17.62 100.585 16.955 100.725 16.055L101.4 11.87L103.425 11.675L102.765 15.785C102.685 16.295 102.69 16.66 102.78 16.88C102.87 17.09 103.07 17.195 103.38 17.195C104.12 17.185 104.745 16.745 105.255 15.875ZM114.492 15.875L115.122 16.58C114.442 17.66 113.607 18.27 112.617 18.41C112.047 18.5 111.447 18.425 110.817 18.185C110.227 18.515 109.557 18.68 108.807 18.68C107.887 18.68 107.187 18.445 106.707 17.975C106.227 17.495 105.987 16.795 105.987 15.875C106.007 14.655 106.387 13.655 107.127 12.875C107.877 12.085 108.847 11.69 110.037 11.69C110.957 11.69 111.657 11.93 112.137 12.41C112.627 12.89 112.872 13.585 112.872 14.495C112.872 15.605 112.562 16.525 111.942 17.255C112.172 17.345 112.412 17.375 112.662 17.345C113.322 17.245 113.932 16.755 114.492 15.875ZM108.987 17.165C109.517 17.175 109.962 16.93 110.322 16.43C110.682 15.92 110.862 15.285 110.862 14.525C110.862 13.655 110.532 13.22 109.872 13.22C109.332 13.22 108.887 13.475 108.537 13.985C108.197 14.495 108.022 15.125 108.012 15.875C108.002 16.735 108.327 17.165 108.987 17.165Z" fill="white"/>
</svg>
