<svg width="310" height="21" viewBox="0 0 310 21" fill="none" xmlns="http://www.w3.org/2000/svg">
<path d="M0 6C0 2.68629 2.68629 0 6 0H304C307.314 0 310 2.68629 310 6V20H0V6Z" fill="#0F0F0F"/>
<path d="M26.0423 12.3H29.1123L28.9323 13.5H24.4823L25.5323 6.8L26.9123 6.68L26.0423 12.3ZM31.2534 8.37C31.0334 8.37 30.8501 8.30333 30.7034 8.17C30.5568 8.03667 30.4834 7.86667 30.4834 7.66C30.4834 7.41333 30.5701 7.20667 30.7434 7.04C30.9168 6.87333 31.1301 6.79 31.3834 6.79C31.5968 6.79 31.7734 6.86 31.9134 7C32.0534 7.13333 32.1234 7.30333 32.1234 7.51C32.1234 7.75667 32.0401 7.96333 31.8734 8.13C31.7068 8.29 31.5001 8.37 31.2534 8.37ZM32.9734 11.75L33.3934 12.22C32.7468 13.1533 31.9868 13.62 31.1134 13.62C30.6334 13.62 30.2968 13.48 30.1034 13.2C29.9101 12.9133 29.8601 12.47 29.9534 11.87L30.4034 9.08L31.7534 8.95L31.3134 11.69C31.2601 12.03 31.2634 12.2733 31.3234 12.42C31.3834 12.56 31.5168 12.63 31.7234 12.63C32.2168 12.6233 32.6334 12.33 32.9734 11.75ZM35.1417 13.62C34.6884 13.62 34.2951 13.5433 33.9617 13.39L34.1317 12.46C34.4451 12.6133 34.7351 12.69 35.0017 12.69C35.2751 12.69 35.4884 12.6267 35.6417 12.5C35.7951 12.3733 35.8717 12.1967 35.8717 11.97C35.8717 11.8033 35.8217 11.63 35.7217 11.45C35.6217 11.27 35.5084 11.11 35.3817 10.97C35.2617 10.83 35.1417 10.6467 35.0217 10.42C34.9017 10.1933 34.8284 9.95667 34.8017 9.71H34.7817C34.6751 9.92333 34.5084 10.33 34.2817 10.93C34.0551 11.53 33.8551 11.96 33.6817 12.22L33.2617 11.75C33.3817 11.5567 33.5684 11.1267 33.8217 10.46C34.0817 9.78667 34.3417 9.28333 34.6017 8.95L35.9617 8.81C35.9417 9.11 35.9717 9.38333 36.0517 9.63C36.1317 9.87667 36.2351 10.0867 36.3617 10.26C36.4951 10.4267 36.6284 10.59 36.7617 10.75C36.8951 10.91 37.0084 11.0933 37.1017 11.3C37.1951 11.5 37.2417 11.7167 37.2417 11.95C37.2417 12.25 37.1817 12.51 37.0617 12.73C37.6817 12.69 38.1851 12.3633 38.5717 11.75L38.9817 12.22C38.6351 12.72 38.2451 13.0633 37.8117 13.25C37.3851 13.4367 36.8484 13.5033 36.2017 13.45C35.9017 13.5633 35.5484 13.62 35.1417 13.62ZM41.9345 11.75L42.3445 12.22C41.7178 13.1533 40.9511 13.62 40.0445 13.62C39.5578 13.62 39.2111 13.48 39.0045 13.2C38.8045 12.92 38.7511 12.4767 38.8445 11.87L39.1545 9.91H38.5345L38.6645 9.08H39.2945L39.5345 7.57L40.8745 7.45L40.6145 9.08H41.5545L41.4245 9.91H40.4845L40.2045 11.7C40.1578 12.04 40.1678 12.28 40.2345 12.42C40.3078 12.56 40.4511 12.63 40.6645 12.63C41.1645 12.6167 41.5878 12.3233 41.9345 11.75ZM43.7411 13.62C43.2478 13.62 42.8678 13.47 42.6011 13.17C42.3411 12.8633 42.2111 12.42 42.2111 11.84C42.2111 10.98 42.4544 10.2833 42.9411 9.75C43.4278 9.21667 44.0744 8.95 44.8811 8.95C45.1544 8.95 45.4811 8.99333 45.8611 9.08L47.1411 8.95L46.6611 11.92C46.6211 12.1733 46.6211 12.3567 46.6611 12.47C46.7011 12.5767 46.7911 12.63 46.9311 12.63C47.1111 12.63 47.3044 12.55 47.5111 12.39C47.7244 12.2233 47.9044 12.01 48.0511 11.75L48.4611 12.22C47.8344 13.1533 47.1211 13.62 46.3211 13.62C45.7811 13.62 45.4644 13.38 45.3711 12.9C44.8844 13.38 44.3411 13.62 43.7411 13.62ZM44.2211 12.63C44.5878 12.63 44.9511 12.44 45.3111 12.06L45.6311 10.04C45.4511 10.0067 45.2478 9.99 45.0211 9.99C44.5611 9.99 44.2011 10.15 43.9411 10.47C43.6878 10.7833 43.5611 11.2167 43.5611 11.77C43.5611 12.3433 43.7811 12.63 44.2211 12.63ZM56.5322 11.75L56.9522 12.22C56.6522 12.6733 56.3155 13.02 55.9422 13.26C55.5689 13.5 55.1889 13.62 54.8022 13.62C54.2555 13.62 53.9389 13.38 53.8522 12.9C53.3722 13.38 52.8289 13.62 52.2222 13.62C51.2022 13.62 50.6922 13.0267 50.6922 11.84C50.6922 10.98 50.9322 10.2833 51.4122 9.75C51.8989 9.21667 52.5455 8.95 53.3522 8.95C53.6189 8.95 53.9255 8.98667 54.2722 9.06L54.6822 6.5L56.0322 6.38L55.1422 11.92C55.1022 12.1733 55.1022 12.3567 55.1422 12.47C55.1822 12.5767 55.2722 12.63 55.4122 12.63C55.5922 12.63 55.7855 12.55 55.9922 12.39C56.2055 12.2233 56.3855 12.01 56.5322 11.75ZM53.7822 12.08L54.1222 10C53.8755 9.96667 53.6755 9.95 53.5222 9.95C53.0555 9.95 52.6922 10.1167 52.4322 10.45C52.1722 10.7767 52.0422 11.22 52.0422 11.78C52.0422 12.08 52.0922 12.3 52.1922 12.44C52.2989 12.58 52.4655 12.65 52.6922 12.65C53.0589 12.65 53.4222 12.46 53.7822 12.08ZM61.4123 11.75L61.8323 12.22C61.1923 13.1533 60.2723 13.62 59.0723 13.62C58.3456 13.62 57.7856 13.44 57.3923 13.08C57.0056 12.72 56.8123 12.21 56.8123 11.55C56.8123 10.79 57.0423 10.1667 57.5023 9.68C57.9623 9.19333 58.5523 8.95 59.2723 8.95C59.7723 8.95 60.1689 9.07 60.4623 9.31C60.7623 9.54333 60.9089 9.86 60.9023 10.26C60.8956 10.7667 60.6623 11.1767 60.2023 11.49C59.7423 11.7967 59.1256 11.9567 58.3523 11.97C58.4256 12.1967 58.5623 12.3767 58.7623 12.51C58.9623 12.6433 59.2056 12.71 59.4923 12.71C60.3523 12.71 60.9923 12.39 61.4123 11.75ZM59.2123 9.93C58.9189 9.93 58.6756 10.0567 58.4823 10.31C58.2956 10.5567 58.1889 10.8833 58.1623 11.29C58.6423 11.29 59.0223 11.21 59.3023 11.05C59.5889 10.89 59.7356 10.6733 59.7423 10.4C59.7489 10.2467 59.7023 10.13 59.6023 10.05C59.5089 9.97 59.3789 9.93 59.2123 9.93ZM66.0229 13.5L64.7729 6.8H66.1429L66.8629 10.91L67.0029 11.95H67.0329L67.4629 10.93L69.4729 6.8L70.9929 6.68L67.5729 13.5H66.0229ZM74.8904 11.75L75.3104 12.22C74.6704 13.1533 73.7504 13.62 72.5504 13.62C71.8237 13.62 71.2637 13.44 70.8704 13.08C70.4837 12.72 70.2904 12.21 70.2904 11.55C70.2904 10.79 70.5204 10.1667 70.9804 9.68C71.4404 9.19333 72.0304 8.95 72.7504 8.95C73.2504 8.95 73.6471 9.07 73.9404 9.31C74.2404 9.54333 74.3871 9.86 74.3804 10.26C74.3737 10.7667 74.1404 11.1767 73.6804 11.49C73.2204 11.7967 72.6037 11.9567 71.8304 11.97C71.9037 12.1967 72.0404 12.3767 72.2404 12.51C72.4404 12.6433 72.6837 12.71 72.9704 12.71C73.8304 12.71 74.4704 12.39 74.8904 11.75ZM72.6904 9.93C72.3971 9.93 72.1537 10.0567 71.9604 10.31C71.7737 10.5567 71.6671 10.8833 71.6404 11.29C72.1204 11.29 72.5004 11.21 72.7804 11.05C73.0671 10.89 73.2137 10.6733 73.2204 10.4C73.2271 10.2467 73.1804 10.13 73.0804 10.05C72.9871 9.97 72.8571 9.93 72.6904 9.93ZM75.5802 8.28L76.6102 6.71H77.8602L76.5702 8.28H75.5802ZM78.1902 11.75L78.6102 12.22C77.9636 13.1533 77.2036 13.62 76.3302 13.62C75.8502 13.62 75.5136 13.48 75.3202 13.2C75.1269 12.9133 75.0769 12.47 75.1702 11.87L75.6202 9.08L76.9702 8.95L76.5302 11.69C76.4769 12.03 76.4802 12.2733 76.5402 12.42C76.6002 12.56 76.7336 12.63 76.9402 12.63C77.4336 12.6233 77.8502 12.33 78.1902 11.75ZM80.7085 13.62C79.9552 13.62 79.3885 13.44 79.0085 13.08C78.6352 12.7133 78.4552 12.1833 78.4685 11.49C78.4818 10.7367 78.7185 10.1267 79.1785 9.66C79.6385 9.18667 80.2318 8.95 80.9585 8.95C81.5918 8.95 82.0318 9.13 82.2785 9.49C82.5318 9.85 82.5352 10.3133 82.2885 10.88L81.2485 10.64C81.3352 10.4333 81.3418 10.2667 81.2685 10.14C81.1952 10.0067 81.0585 9.94 80.8585 9.94C80.5585 9.94 80.3085 10.0833 80.1085 10.37C79.9085 10.65 79.8085 11.0033 79.8085 11.43C79.8085 12.2833 80.2385 12.71 81.0985 12.71C81.9718 12.71 82.6252 12.39 83.0585 11.75L83.4685 12.22C82.8352 13.1533 81.9152 13.62 80.7085 13.62ZM89.0788 11.75L89.4988 12.22C88.8522 13.1533 88.1322 13.62 87.3388 13.62C86.8322 13.62 86.5322 13.3767 86.4388 12.89C85.8455 13.3767 85.2255 13.62 84.5788 13.62C83.5655 13.62 83.1455 13.0733 83.3188 11.98L83.7888 9.08L85.1288 8.95L84.6688 11.89C84.6222 12.1433 84.6388 12.3267 84.7188 12.44C84.8055 12.5533 84.9555 12.61 85.1688 12.61C85.5222 12.61 85.9122 12.4333 86.3388 12.08L86.8188 9.08L88.1688 8.95L87.6888 12.02C87.6155 12.4267 87.7088 12.63 87.9688 12.63C88.1555 12.63 88.3488 12.5467 88.5488 12.38C88.7555 12.2133 88.9322 12.0033 89.0788 11.75ZM92.4512 11.75L92.8612 12.22C92.2279 13.1533 91.4646 13.62 90.5712 13.62C90.0712 13.62 89.7212 13.48 89.5212 13.2C89.3212 12.9133 89.2679 12.47 89.3612 11.87L90.2112 6.5L91.5612 6.38L90.7212 11.69C90.6679 12.0233 90.6746 12.2633 90.7412 12.41C90.8146 12.5567 90.9612 12.63 91.1812 12.63C91.4279 12.6233 91.6612 12.5433 91.8812 12.39C92.1079 12.23 92.2979 12.0167 92.4512 11.75ZM98.4079 11.75L98.8279 12.22C98.3746 12.94 97.8179 13.3467 97.1579 13.44C96.7779 13.5 96.3779 13.45 95.9579 13.29C95.5646 13.51 95.1179 13.62 94.6179 13.62C94.0046 13.62 93.5379 13.4633 93.2179 13.15C92.8979 12.83 92.7379 12.3633 92.7379 11.75C92.7512 10.9367 93.0046 10.27 93.4979 9.75C93.9979 9.22333 94.6446 8.96 95.4379 8.96C96.0512 8.96 96.5179 9.12 96.8379 9.44C97.1646 9.76 97.3279 10.2233 97.3279 10.83C97.3279 11.57 97.1212 12.1833 96.7079 12.67C96.8612 12.73 97.0212 12.75 97.1879 12.73C97.6279 12.6633 98.0346 12.3367 98.4079 11.75ZM94.7379 12.61C95.0912 12.6167 95.3879 12.4533 95.6279 12.12C95.8679 11.78 95.9879 11.3567 95.9879 10.85C95.9879 10.27 95.7679 9.98 95.3279 9.98C94.9679 9.98 94.6712 10.15 94.4379 10.49C94.2112 10.83 94.0946 11.25 94.0879 11.75C94.0812 12.3233 94.2979 12.61 94.7379 12.61ZM100.592 13.62C100.138 13.62 99.745 13.5433 99.4117 13.39L99.5817 12.46C99.895 12.6133 100.185 12.69 100.452 12.69C100.725 12.69 100.938 12.6267 101.092 12.5C101.245 12.3733 101.322 12.1967 101.322 11.97C101.322 11.8033 101.272 11.63 101.172 11.45C101.072 11.27 100.958 11.11 100.832 10.97C100.712 10.83 100.592 10.6467 100.472 10.42C100.352 10.1933 100.278 9.95667 100.252 9.71H100.232C100.125 9.92333 99.9584 10.33 99.7317 10.93C99.505 11.53 99.305 11.96 99.1317 12.22L98.7117 11.75C98.8317 11.5567 99.0184 11.1267 99.2717 10.46C99.5317 9.78667 99.7917 9.28333 100.052 8.95L101.412 8.81C101.392 9.11 101.422 9.38333 101.502 9.63C101.582 9.87667 101.685 10.0867 101.812 10.26C101.945 10.4267 102.078 10.59 102.212 10.75C102.345 10.91 102.458 11.0933 102.552 11.3C102.645 11.5 102.692 11.7167 102.692 11.95C102.692 12.25 102.632 12.51 102.512 12.73C103.132 12.69 103.635 12.3633 104.022 11.75L104.432 12.22C104.085 12.72 103.695 13.0633 103.262 13.25C102.835 13.4367 102.298 13.5033 101.652 13.45C101.352 13.5633 100.998 13.62 100.592 13.62Z" fill="#C8C8C8"/>
<rect y="20" width="310" height="1" fill="#131312"/>
</svg>
