<svg width="310" height="21" viewBox="0 0 310 21" fill="none" xmlns="http://www.w3.org/2000/svg">
<path d="M0 6C0 2.68629 2.68629 0 6 0H304C307.314 0 310 2.68629 310 6V20H0V6Z" fill="#0F0F0F"/>
<path d="M27.7923 6.8C28.6457 6.8 29.259 6.96 29.6323 7.28C30.0057 7.6 30.1923 8.06667 30.1923 8.68C30.1923 9.50667 29.9057 10.1633 29.3323 10.65C28.7657 11.1367 28.0057 11.38 27.0523 11.38H26.1423L25.8123 13.5H24.4823L25.5323 6.8H27.7923ZM27.0923 10.27C27.6323 10.27 28.0557 10.1467 28.3623 9.9C28.6757 9.65333 28.8323 9.30333 28.8323 8.85C28.8323 8.52333 28.7323 8.29 28.5323 8.15C28.339 8.01 28.0057 7.94 27.5323 7.94H26.6823L26.3223 10.27H27.0923ZM30.7323 9.52L30.9523 8.48C31.639 8.86667 32.649 9.06667 33.9823 9.08L33.7423 10.03C33.089 10.7433 32.7623 11.3733 32.7623 11.92C32.7623 12.3933 33.0023 12.63 33.4823 12.63C33.7823 12.63 34.0657 12.55 34.3323 12.39C34.599 12.23 34.809 12.0167 34.9623 11.75L35.3823 12.22C34.7623 13.1533 33.9623 13.62 32.9823 13.62C32.4823 13.62 32.099 13.5 31.8323 13.26C31.5723 13.0133 31.4423 12.6633 31.4423 12.21C31.4423 11.55 31.789 10.8033 32.4823 9.97C31.7757 9.93667 31.1923 9.78667 30.7323 9.52ZM36.5464 8.37C36.3264 8.37 36.1431 8.30333 35.9964 8.17C35.8497 8.03667 35.7764 7.86667 35.7764 7.66C35.7764 7.41333 35.8631 7.20667 36.0364 7.04C36.2097 6.87333 36.4231 6.79 36.6764 6.79C36.8897 6.79 37.0664 6.86 37.2064 7C37.3464 7.13333 37.4164 7.30333 37.4164 7.51C37.4164 7.75667 37.3331 7.96333 37.1664 8.13C36.9997 8.29 36.7931 8.37 36.5464 8.37ZM38.2664 11.75L38.6864 12.22C38.0397 13.1533 37.2797 13.62 36.4064 13.62C35.9264 13.62 35.5897 13.48 35.3964 13.2C35.2031 12.9133 35.1531 12.47 35.2464 11.87L35.6964 9.08L37.0464 8.95L36.6064 11.69C36.5531 12.03 36.5564 12.2733 36.6164 12.42C36.6764 12.56 36.8097 12.63 37.0164 12.63C37.5097 12.6233 37.9264 12.33 38.2664 11.75ZM44.3047 11.75L44.7247 12.22C44.0914 13.1533 43.3747 13.62 42.5747 13.62C42.1747 13.62 41.8847 13.5033 41.7047 13.27C41.5314 13.03 41.4814 12.6833 41.5547 12.23L41.8047 10.68C41.8847 10.2 41.7347 9.96 41.3547 9.96C41.0014 9.96 40.5747 10.1533 40.0747 10.54L39.6047 13.5H38.2747L38.9747 9.08L40.3247 8.95L40.2047 9.68C40.9047 9.19333 41.528 8.95 42.0747 8.95C42.508 8.95 42.818 9.07333 43.0047 9.32C43.198 9.56667 43.258 9.92 43.1847 10.38L42.9247 11.95C42.8514 12.4033 42.948 12.63 43.2147 12.63C43.388 12.63 43.5747 12.55 43.7747 12.39C43.9814 12.23 44.158 12.0167 44.3047 11.75ZM46.8366 13.62C46.0833 13.62 45.5166 13.44 45.1366 13.08C44.7633 12.7133 44.5833 12.1833 44.5966 11.49C44.61 10.7367 44.8466 10.1267 45.3066 9.66C45.7666 9.18667 46.36 8.95 47.0866 8.95C47.72 8.95 48.16 9.13 48.4066 9.49C48.66 9.85 48.6633 10.3133 48.4166 10.88L47.3766 10.64C47.4633 10.4333 47.47 10.2667 47.3966 10.14C47.3233 10.0067 47.1866 9.94 46.9866 9.94C46.6866 9.94 46.4366 10.0833 46.2366 10.37C46.0366 10.65 45.9366 11.0033 45.9366 11.43C45.9366 12.2833 46.3666 12.71 47.2266 12.71C48.1 12.71 48.7533 12.39 49.1866 11.75L49.5966 12.22C48.9633 13.1533 48.0433 13.62 46.8366 13.62ZM50.757 8.37C50.537 8.37 50.3536 8.30333 50.207 8.17C50.0603 8.03667 49.987 7.86667 49.987 7.66C49.987 7.41333 50.0736 7.20667 50.247 7.04C50.4203 6.87333 50.6336 6.79 50.887 6.79C51.1003 6.79 51.277 6.86 51.417 7C51.557 7.13333 51.627 7.30333 51.627 7.51C51.627 7.75667 51.5436 7.96333 51.377 8.13C51.2103 8.29 51.0036 8.37 50.757 8.37ZM52.477 11.75L52.897 12.22C52.2503 13.1533 51.4903 13.62 50.617 13.62C50.137 13.62 49.8003 13.48 49.607 13.2C49.4136 12.9133 49.3636 12.47 49.457 11.87L49.907 9.08L51.257 8.95L50.817 11.69C50.7636 12.03 50.767 12.2733 50.827 12.42C50.887 12.56 51.0203 12.63 51.227 12.63C51.7203 12.6233 52.137 12.33 52.477 11.75ZM52.1852 15.47L53.1952 9.08L54.5452 8.95L54.4352 9.68C55.0152 9.19333 55.5752 8.95 56.1152 8.95C56.5886 8.95 56.9319 9.11333 57.1452 9.44C57.3586 9.76667 57.4352 10.2433 57.3752 10.87C57.3019 11.6033 57.0886 12.21 56.7352 12.69C56.9086 12.7567 57.0986 12.7733 57.3052 12.74C57.7786 12.6733 58.1886 12.3433 58.5352 11.75L58.9452 12.22C58.3919 13.06 57.7186 13.4767 56.9252 13.47C56.6119 13.47 56.3186 13.41 56.0452 13.29C55.6852 13.51 55.2452 13.62 54.7252 13.62C54.4519 13.62 54.1519 13.5867 53.8252 13.52L53.5152 15.47H52.1852ZM54.6652 12.62C55.0452 12.6133 55.3519 12.48 55.5852 12.22C55.8186 11.96 55.9619 11.5733 56.0152 11.06C56.0552 10.6867 56.0319 10.4133 55.9452 10.24C55.8586 10.06 55.6952 9.97 55.4552 9.97C55.1486 9.97 54.7619 10.1633 54.2952 10.55L53.9852 12.52C54.2252 12.5867 54.4519 12.62 54.6652 12.62ZM60.347 13.62C59.8536 13.62 59.4736 13.47 59.207 13.17C58.947 12.8633 58.817 12.42 58.817 11.84C58.817 10.98 59.0603 10.2833 59.547 9.75C60.0336 9.21667 60.6803 8.95 61.487 8.95C61.7603 8.95 62.087 8.99333 62.467 9.08L63.747 8.95L63.267 11.92C63.227 12.1733 63.227 12.3567 63.267 12.47C63.307 12.5767 63.397 12.63 63.537 12.63C63.717 12.63 63.9103 12.55 64.117 12.39C64.3303 12.2233 64.5103 12.01 64.657 11.75L65.067 12.22C64.4403 13.1533 63.727 13.62 62.927 13.62C62.387 13.62 62.0703 13.38 61.977 12.9C61.4903 13.38 60.947 13.62 60.347 13.62ZM60.827 12.63C61.1936 12.63 61.557 12.44 61.917 12.06L62.237 10.04C62.057 10.0067 61.8536 9.99 61.627 9.99C61.167 9.99 60.807 10.15 60.547 10.47C60.2936 10.7833 60.167 11.2167 60.167 11.77C60.167 12.3433 60.387 12.63 60.827 12.63ZM66.2273 8.37C66.0073 8.37 65.8239 8.30333 65.6773 8.17C65.5306 8.03667 65.4573 7.86667 65.4573 7.66C65.4573 7.41333 65.5439 7.20667 65.7173 7.04C65.8906 6.87333 66.1039 6.79 66.3573 6.79C66.5706 6.79 66.7473 6.86 66.8873 7C67.0273 7.13333 67.0973 7.30333 67.0973 7.51C67.0973 7.75667 67.0139 7.96333 66.8473 8.13C66.6806 8.29 66.4739 8.37 66.2273 8.37ZM67.9473 11.75L68.3673 12.22C67.7206 13.1533 66.9606 13.62 66.0873 13.62C65.6073 13.62 65.2706 13.48 65.0773 13.2C64.8839 12.9133 64.8339 12.47 64.9273 11.87L65.3773 9.08L66.7273 8.95L66.2873 11.69C66.2339 12.03 66.2373 12.2733 66.2973 12.42C66.3573 12.56 66.4906 12.63 66.6973 12.63C67.1906 12.6233 67.6073 12.33 67.9473 11.75ZM70.1155 13.62C69.6622 13.62 69.2689 13.5433 68.9355 13.39L69.1055 12.46C69.4189 12.6133 69.7089 12.69 69.9755 12.69C70.2489 12.69 70.4622 12.6267 70.6155 12.5C70.7689 12.3733 70.8455 12.1967 70.8455 11.97C70.8455 11.8033 70.7955 11.63 70.6955 11.45C70.5955 11.27 70.4822 11.11 70.3555 10.97C70.2355 10.83 70.1155 10.6467 69.9955 10.42C69.8755 10.1933 69.8022 9.95667 69.7755 9.71H69.7555C69.6489 9.92333 69.4822 10.33 69.2555 10.93C69.0289 11.53 68.8289 11.96 68.6555 12.22L68.2355 11.75C68.3555 11.5567 68.5422 11.1267 68.7955 10.46C69.0555 9.78667 69.3155 9.28333 69.5755 8.95L70.9355 8.81C70.9155 9.11 70.9455 9.38333 71.0255 9.63C71.1055 9.87667 71.2089 10.0867 71.3355 10.26C71.4689 10.4267 71.6022 10.59 71.7355 10.75C71.8689 10.91 71.9822 11.0933 72.0755 11.3C72.1689 11.5 72.2155 11.7167 72.2155 11.95C72.2155 12.25 72.1555 12.51 72.0355 12.73C72.6555 12.69 73.1589 12.3633 73.5455 11.75L73.9555 12.22C73.6089 12.72 73.2189 13.0633 72.7855 13.25C72.3589 13.4367 71.8222 13.5033 71.1755 13.45C70.8755 13.5633 70.5222 13.62 70.1155 13.62Z" fill="#C8C8C8"/>
<rect y="20" width="310" height="1" fill="#131312"/>
</svg>
