<svg width="310" height="21" viewBox="0 0 310 21" fill="none" xmlns="http://www.w3.org/2000/svg">
<path d="M0 6C0 2.68629 2.68629 0 6 0H304C307.314 0 310 2.68629 310 6V20H0V6Z" fill="#0F0F0F"/>
<path d="M26.0423 12.3H29.1123L28.9323 13.5H24.4823L25.5323 6.8L26.9123 6.68L26.0423 12.3ZM31.4534 8.37C31.2334 8.37 31.0501 8.30333 30.9034 8.17C30.7568 8.03667 30.6834 7.86667 30.6834 7.66C30.6834 7.41333 30.7701 7.20667 30.9434 7.04C31.1168 6.87333 31.3301 6.79 31.5834 6.79C31.7968 6.79 31.9734 6.86 32.1134 7C32.2534 7.13333 32.3234 7.30333 32.3234 7.51C32.3234 7.75667 32.2401 7.96333 32.0734 8.13C31.9068 8.29 31.7001 8.37 31.4534 8.37ZM33.1734 11.75L33.5934 12.22C32.9468 13.1533 32.1868 13.62 31.3134 13.62C30.8334 13.62 30.4968 13.48 30.3034 13.2C30.1101 12.9133 30.0601 12.47 30.1534 11.87L30.6034 9.08L31.9534 8.95L31.5134 11.69C31.4601 12.03 31.4634 12.2733 31.5234 12.42C31.5834 12.56 31.7168 12.63 31.9234 12.63C32.4168 12.6233 32.8334 12.33 33.1734 11.75ZM35.5417 13.62C35.0884 13.62 34.6951 13.5433 34.3617 13.39L34.5317 12.46C34.8451 12.6133 35.1351 12.69 35.4017 12.69C35.6751 12.69 35.8884 12.6267 36.0417 12.5C36.1951 12.3733 36.2717 12.1967 36.2717 11.97C36.2717 11.8033 36.2217 11.63 36.1217 11.45C36.0217 11.27 35.9084 11.11 35.7817 10.97C35.6617 10.83 35.5417 10.6467 35.4217 10.42C35.3017 10.1933 35.2284 9.95667 35.2017 9.71H35.1817C35.0751 9.92333 34.9084 10.33 34.6817 10.93C34.4551 11.53 34.2551 11.96 34.0817 12.22L33.6617 11.75C33.7817 11.5567 33.9684 11.1267 34.2217 10.46C34.4817 9.78667 34.7417 9.28333 35.0017 8.95L36.3617 8.81C36.3417 9.11 36.3717 9.38333 36.4517 9.63C36.5317 9.87667 36.6351 10.0867 36.7617 10.26C36.8951 10.4267 37.0284 10.59 37.1617 10.75C37.2951 10.91 37.4084 11.0933 37.5017 11.3C37.5951 11.5 37.6417 11.7167 37.6417 11.95C37.6417 12.25 37.5817 12.51 37.4617 12.73C38.0817 12.69 38.5851 12.3633 38.9717 11.75L39.3817 12.22C39.0351 12.72 38.6451 13.0633 38.2117 13.25C37.7851 13.4367 37.2484 13.5033 36.6017 13.45C36.3017 13.5633 35.9484 13.62 35.5417 13.62ZM42.5345 11.75L42.9445 12.22C42.3178 13.1533 41.5511 13.62 40.6445 13.62C40.1578 13.62 39.8111 13.48 39.6045 13.2C39.4045 12.92 39.3511 12.4767 39.4445 11.87L39.7545 9.91H39.1345L39.2645 9.08H39.8945L40.1345 7.57L41.4745 7.45L41.2145 9.08H42.1545L42.0245 9.91H41.0845L40.8045 11.7C40.7578 12.04 40.7678 12.28 40.8345 12.42C40.9078 12.56 41.0511 12.63 41.2645 12.63C41.7645 12.6167 42.1878 12.3233 42.5345 11.75ZM44.5411 13.62C44.0478 13.62 43.6678 13.47 43.4011 13.17C43.1411 12.8633 43.0111 12.42 43.0111 11.84C43.0111 10.98 43.2544 10.2833 43.7411 9.75C44.2278 9.21667 44.8744 8.95 45.6811 8.95C45.9544 8.95 46.2811 8.99333 46.6611 9.08L47.9411 8.95L47.4611 11.92C47.4211 12.1733 47.4211 12.3567 47.4611 12.47C47.5011 12.5767 47.5911 12.63 47.7311 12.63C47.9111 12.63 48.1044 12.55 48.3111 12.39C48.5244 12.2233 48.7044 12.01 48.8511 11.75L49.2611 12.22C48.6344 13.1533 47.9211 13.62 47.1211 13.62C46.5811 13.62 46.2644 13.38 46.1711 12.9C45.6844 13.38 45.1411 13.62 44.5411 13.62ZM45.0211 12.63C45.3878 12.63 45.7511 12.44 46.1111 12.06L46.4311 10.04C46.2511 10.0067 46.0478 9.99 45.8211 9.99C45.3611 9.99 45.0011 10.15 44.7411 10.47C44.4878 10.7833 44.3611 11.2167 44.3611 11.77C44.3611 12.3433 44.5811 12.63 45.0211 12.63ZM57.7322 11.75L58.1522 12.22C57.8522 12.6733 57.5155 13.02 57.1422 13.26C56.7689 13.5 56.3889 13.62 56.0022 13.62C55.4555 13.62 55.1389 13.38 55.0522 12.9C54.5722 13.38 54.0289 13.62 53.4222 13.62C52.4022 13.62 51.8922 13.0267 51.8922 11.84C51.8922 10.98 52.1322 10.2833 52.6122 9.75C53.0989 9.21667 53.7455 8.95 54.5522 8.95C54.8189 8.95 55.1255 8.98667 55.4722 9.06L55.8822 6.5L57.2322 6.38L56.3422 11.92C56.3022 12.1733 56.3022 12.3567 56.3422 12.47C56.3822 12.5767 56.4722 12.63 56.6122 12.63C56.7922 12.63 56.9855 12.55 57.1922 12.39C57.4055 12.2233 57.5855 12.01 57.7322 11.75ZM54.9822 12.08L55.3222 10C55.0755 9.96667 54.8755 9.95 54.7222 9.95C54.2555 9.95 53.8922 10.1167 53.6322 10.45C53.3722 10.7767 53.2422 11.22 53.2422 11.78C53.2422 12.08 53.2922 12.3 53.3922 12.44C53.4989 12.58 53.6655 12.65 53.8922 12.65C54.2589 12.65 54.6222 12.46 54.9822 12.08ZM62.8123 11.75L63.2323 12.22C62.5923 13.1533 61.6723 13.62 60.4723 13.62C59.7456 13.62 59.1856 13.44 58.7923 13.08C58.4056 12.72 58.2123 12.21 58.2123 11.55C58.2123 10.79 58.4423 10.1667 58.9023 9.68C59.3623 9.19333 59.9523 8.95 60.6723 8.95C61.1723 8.95 61.5689 9.07 61.8623 9.31C62.1623 9.54333 62.3089 9.86 62.3023 10.26C62.2956 10.7667 62.0623 11.1767 61.6023 11.49C61.1423 11.7967 60.5256 11.9567 59.7523 11.97C59.8256 12.1967 59.9623 12.3767 60.1623 12.51C60.3623 12.6433 60.6056 12.71 60.8923 12.71C61.7523 12.71 62.3923 12.39 62.8123 11.75ZM60.6123 9.93C60.3189 9.93 60.0756 10.0567 59.8823 10.31C59.6956 10.5567 59.5889 10.8833 59.5623 11.29C60.0423 11.29 60.4223 11.21 60.7023 11.05C60.9889 10.89 61.1356 10.6733 61.1423 10.4C61.1489 10.2467 61.1023 10.13 61.0023 10.05C60.9089 9.97 60.7789 9.93 60.6123 9.93ZM70.1429 13.5L69.9629 11.93H67.8029L66.9929 13.5H65.5129L69.0329 6.8L70.5229 6.67L71.6029 13.5H70.1429ZM68.3129 10.9H69.8629L69.6829 9.56L69.5829 8.35H69.5629L68.9929 9.6L68.3129 10.9ZM71.9329 9.52L72.1529 8.48C72.8396 8.86667 73.8496 9.06667 75.1829 9.08L74.9429 10.03C74.2896 10.7433 73.9629 11.3733 73.9629 11.92C73.9629 12.3933 74.2029 12.63 74.6829 12.63C74.9829 12.63 75.2662 12.55 75.5329 12.39C75.7996 12.23 76.0096 12.0167 76.1629 11.75L76.5829 12.22C75.9629 13.1533 75.1629 13.62 74.1829 13.62C73.6829 13.62 73.2996 13.5 73.0329 13.26C72.7729 13.0133 72.6429 12.6633 72.6429 12.21C72.6429 11.55 72.9896 10.8033 73.6829 9.97C72.9762 9.93667 72.3929 9.78667 71.9329 9.52ZM85.1456 11.75L85.5556 12.22C84.929 13.1533 84.2123 13.62 83.4056 13.62C83.0056 13.62 82.7156 13.5033 82.5356 13.27C82.3623 13.03 82.3123 12.6833 82.3856 12.23L82.6456 10.68C82.719 10.2 82.579 9.96 82.2256 9.96C81.939 9.96 81.5656 10.1267 81.1056 10.46L80.6256 13.5H79.2956L79.7456 10.68C79.8256 10.2 79.689 9.96 79.3356 9.96C79.0423 9.96 78.6623 10.13 78.1956 10.47L77.7156 13.5H76.3856L77.0856 9.08L78.4356 8.95L78.3256 9.61C78.979 9.17 79.5523 8.95 80.0456 8.95C80.6456 8.95 81.0023 9.19667 81.1156 9.69C81.8156 9.19667 82.4256 8.95 82.9456 8.95C83.359 8.95 83.659 9.07667 83.8456 9.33C84.039 9.57667 84.099 9.92667 84.0256 10.38L83.7656 11.95C83.6923 12.4033 83.7856 12.63 84.0456 12.63C84.2256 12.63 84.4156 12.55 84.6156 12.39C84.8156 12.23 84.9923 12.0167 85.1456 11.75ZM87.1524 13.62C86.6591 13.62 86.2791 13.47 86.0124 13.17C85.7524 12.8633 85.6224 12.42 85.6224 11.84C85.6224 10.98 85.8658 10.2833 86.3524 9.75C86.8391 9.21667 87.4858 8.95 88.2924 8.95C88.5658 8.95 88.8924 8.99333 89.2724 9.08L90.5524 8.95L90.0724 11.92C90.0324 12.1733 90.0324 12.3567 90.0724 12.47C90.1124 12.5767 90.2024 12.63 90.3424 12.63C90.5224 12.63 90.7158 12.55 90.9224 12.39C91.1358 12.2233 91.3158 12.01 91.4624 11.75L91.8724 12.22C91.2458 13.1533 90.5324 13.62 89.7324 13.62C89.1924 13.62 88.8758 13.38 88.7824 12.9C88.2958 13.38 87.7524 13.62 87.1524 13.62ZM87.6324 12.63C87.9991 12.63 88.3624 12.44 88.7224 12.06L89.0424 10.04C88.8624 10.0067 88.6591 9.99 88.4324 9.99C87.9724 9.99 87.6124 10.15 87.3524 10.47C87.0991 10.7833 86.9724 11.2167 86.9724 11.77C86.9724 12.3433 87.1924 12.63 87.6324 12.63ZM93.8327 13.62C93.3794 13.62 92.9861 13.5433 92.6527 13.39L92.8227 12.46C93.1361 12.6133 93.4261 12.69 93.6927 12.69C93.9661 12.69 94.1794 12.6267 94.3327 12.5C94.4861 12.3733 94.5627 12.1967 94.5627 11.97C94.5627 11.8033 94.5127 11.63 94.4127 11.45C94.3127 11.27 94.1994 11.11 94.0727 10.97C93.9527 10.83 93.8327 10.6467 93.7127 10.42C93.5927 10.1933 93.5194 9.95667 93.4927 9.71H93.4727C93.3661 9.92333 93.1994 10.33 92.9727 10.93C92.7461 11.53 92.5461 11.96 92.3727 12.22L91.9527 11.75C92.0727 11.5567 92.2594 11.1267 92.5127 10.46C92.7727 9.78667 93.0327 9.28333 93.2927 8.95L94.6527 8.81C94.6327 9.11 94.6627 9.38333 94.7427 9.63C94.8227 9.87667 94.9261 10.0867 95.0527 10.26C95.1861 10.4267 95.3194 10.59 95.4527 10.75C95.5861 10.91 95.6994 11.0933 95.7927 11.3C95.8861 11.5 95.9327 11.7167 95.9327 11.95C95.9327 12.25 95.8727 12.51 95.7527 12.73C96.3727 12.69 96.8761 12.3633 97.2627 11.75L97.6727 12.22C97.3261 12.72 96.9361 13.0633 96.5027 13.25C96.0761 13.4367 95.5394 13.5033 94.8927 13.45C94.5927 13.5633 94.2394 13.62 93.8327 13.62Z" fill="#C8C8C8"/>
<rect y="20" width="310" height="1" fill="#131312"/>
</svg>
