<svg width="310" height="21" viewBox="0 0 310 21" fill="none" xmlns="http://www.w3.org/2000/svg">
<path d="M0 6C0 2.68629 2.68629 0 6 0H304C307.314 0 310 2.68629 310 6V20H0V6Z" fill="#0F0F0F"/>
<path d="M24.4823 13.5L25.5323 6.8H29.8823L29.7023 7.97H26.6823L26.4423 9.56H29.2923L29.1123 10.67H26.2623L26.0123 12.33H29.1023L28.9223 13.5H24.4823ZM33.0569 13.62C31.8902 13.62 31.0635 13.2033 30.5769 12.37L31.5169 11.58C31.9102 12.1533 32.4369 12.4433 33.0969 12.45C33.4569 12.45 33.7469 12.3767 33.9669 12.23C34.1935 12.0833 34.3069 11.8867 34.3069 11.64C34.3069 11.4933 34.2402 11.3533 34.1069 11.22C33.9735 11.0867 33.8169 10.9767 33.6369 10.89C33.4569 10.7967 33.2035 10.6767 32.8769 10.53C32.8502 10.5167 32.8269 10.5067 32.8069 10.5C32.7935 10.4933 32.7769 10.4867 32.7569 10.48C32.2302 10.2467 31.8469 9.97667 31.6069 9.67C31.3669 9.35667 31.2535 8.98 31.2669 8.54C31.2802 7.96667 31.4902 7.51333 31.8969 7.18C32.3035 6.84667 32.8569 6.68 33.5569 6.68C34.6102 6.68 35.3469 7.05 35.7669 7.79L34.8069 8.49C34.5202 8.06333 34.1102 7.85 33.5769 7.85C32.9502 7.85 32.6302 8.07333 32.6169 8.52C32.6169 8.76667 32.7302 8.97667 32.9569 9.15C33.1902 9.31667 33.5769 9.52 34.1169 9.76C35.1702 10.2067 35.6869 10.85 35.6669 11.69C35.6535 12.2767 35.4102 12.7467 34.9369 13.1C34.4635 13.4467 33.8369 13.62 33.0569 13.62ZM40.2572 6.8C41.1105 6.8 41.7239 6.96 42.0972 7.28C42.4705 7.6 42.6572 8.06667 42.6572 8.68C42.6572 9.50667 42.3705 10.1633 41.7972 10.65C41.2305 11.1367 40.4705 11.38 39.5172 11.38H38.6072L38.2772 13.5H36.9472L37.9972 6.8H40.2572ZM39.5572 10.27C40.0972 10.27 40.5205 10.1467 40.8272 9.9C41.1405 9.65333 41.2972 9.30333 41.2972 8.85C41.2972 8.52333 41.1972 8.29 40.9972 8.15C40.8039 8.01 40.4705 7.94 39.9972 7.94H39.1472L38.7872 10.27H39.5572Z" fill="#C8C8C8"/>
<rect y="20" width="310" height="1" fill="#131312"/>
</svg>
