<svg width="310" height="21" viewBox="0 0 310 21" fill="none" xmlns="http://www.w3.org/2000/svg">
<path d="M0 6C0 2.68629 2.68629 0 6 0H304C307.314 0 310 2.68629 310 6V20H0V6Z" fill="#0F0F0F"/>
<path d="M27.1023 13.62C26.2757 13.62 25.6457 13.3767 25.2123 12.89C24.7857 12.4033 24.5723 11.7033 24.5723 10.79C24.5723 9.61 24.9023 8.63 25.5623 7.85C26.229 7.07 27.0757 6.68 28.1023 6.68C28.929 6.68 29.559 6.92667 29.9923 7.42C30.4257 7.90667 30.6423 8.60333 30.6423 9.51C30.6423 10.6833 30.309 11.6633 29.6423 12.45C28.9757 13.23 28.129 13.62 27.1023 13.62ZM27.1823 12.44C27.7757 12.44 28.269 12.16 28.6623 11.6C29.0623 11.04 29.2623 10.34 29.2623 9.5C29.2623 8.40667 28.849 7.86 28.0223 7.86C27.429 7.86 26.9357 8.14 26.5423 8.7C26.149 9.26 25.9523 9.96 25.9523 10.8C25.9523 11.8933 26.3623 12.44 27.1823 12.44ZM37.3441 11.75L37.7641 12.22C37.1174 13.1533 36.3974 13.62 35.6041 13.62C35.0974 13.62 34.7974 13.3767 34.7041 12.89C34.1107 13.3767 33.4907 13.62 32.8441 13.62C31.8307 13.62 31.4107 13.0733 31.5841 11.98L32.0541 9.08L33.3941 8.95L32.9341 11.89C32.8874 12.1433 32.9041 12.3267 32.9841 12.44C33.0707 12.5533 33.2207 12.61 33.4341 12.61C33.7874 12.61 34.1774 12.4333 34.6041 12.08L35.0841 9.08L36.4341 8.95L35.9541 12.02C35.8807 12.4267 35.9741 12.63 36.2341 12.63C36.4207 12.63 36.6141 12.5467 36.8141 12.38C37.0207 12.2133 37.1974 12.0033 37.3441 11.75ZM38.8365 13.62C37.8498 13.62 37.4465 13.0367 37.6265 11.87L37.9365 9.91H37.3165L37.4465 9.08H38.0765L38.3165 7.57L39.6565 7.45L39.4065 9.08H40.3365L40.2065 9.91H39.2765L38.9965 11.7C38.9432 12.04 38.9532 12.28 39.0265 12.42C39.1065 12.56 39.2532 12.63 39.4665 12.63C40.0065 12.6233 40.4365 12.3533 40.7565 11.82C40.9432 11.5 41.0665 11.13 41.1265 10.71C41.1932 10.2833 41.1865 9.87 41.1065 9.47C40.9332 9.38333 40.8365 9.33333 40.8165 9.32L40.9765 8.35C41.7498 8.81 42.8965 9.05333 44.4165 9.08L44.1765 10.03C43.6698 10.7233 43.4165 11.3567 43.4165 11.93C43.4165 12.3967 43.6465 12.63 44.1065 12.63C44.4065 12.63 44.6932 12.5533 44.9665 12.4C45.2398 12.24 45.4532 12.0233 45.6065 11.75L46.0265 12.22C45.4132 13.1533 44.6198 13.62 43.6465 13.62C43.1598 13.62 42.7765 13.5 42.4965 13.26C42.2232 13.0133 42.0865 12.6667 42.0865 12.22C42.0865 11.5467 42.3765 10.7733 42.9565 9.9C42.5432 9.88667 42.1332 9.81667 41.7265 9.69C41.8198 10.6633 41.6565 11.5167 41.2365 12.25C40.9765 12.6833 40.6398 13.02 40.2265 13.26C39.8198 13.5 39.3565 13.62 38.8365 13.62ZM51.5755 11.75L51.9955 12.22C51.5421 12.94 50.9855 13.3467 50.3255 13.44C49.9455 13.5 49.5455 13.45 49.1255 13.29C48.7321 13.51 48.2855 13.62 47.7855 13.62C47.1721 13.62 46.7055 13.4633 46.3855 13.15C46.0655 12.83 45.9055 12.3633 45.9055 11.75C45.9188 10.9367 46.1721 10.27 46.6655 9.75C47.1655 9.22333 47.8121 8.96 48.6055 8.96C49.2188 8.96 49.6855 9.12 50.0055 9.44C50.3321 9.76 50.4955 10.2233 50.4955 10.83C50.4955 11.57 50.2888 12.1833 49.8755 12.67C50.0288 12.73 50.1888 12.75 50.3555 12.73C50.7955 12.6633 51.2021 12.3367 51.5755 11.75ZM47.9055 12.61C48.2588 12.6167 48.5555 12.4533 48.7955 12.12C49.0355 11.78 49.1555 11.3567 49.1555 10.85C49.1555 10.27 48.9355 9.98 48.4955 9.98C48.1355 9.98 47.8388 10.15 47.6055 10.49C47.3788 10.83 47.2621 11.25 47.2555 11.75C47.2488 12.3233 47.4655 12.61 47.9055 12.61ZM53.7593 13.62C53.306 13.62 52.9126 13.5433 52.5793 13.39L52.7493 12.46C53.0626 12.6133 53.3526 12.69 53.6193 12.69C53.8926 12.69 54.106 12.6267 54.2593 12.5C54.4126 12.3733 54.4893 12.1967 54.4893 11.97C54.4893 11.8033 54.4393 11.63 54.3393 11.45C54.2393 11.27 54.126 11.11 53.9993 10.97C53.8793 10.83 53.7593 10.6467 53.6393 10.42C53.5193 10.1933 53.446 9.95667 53.4193 9.71H53.3993C53.2926 9.92333 53.126 10.33 52.8993 10.93C52.6726 11.53 52.4726 11.96 52.2993 12.22L51.8793 11.75C51.9993 11.5567 52.186 11.1267 52.4393 10.46C52.6993 9.78667 52.9593 9.28333 53.2193 8.95L54.5793 8.81C54.5593 9.11 54.5893 9.38333 54.6693 9.63C54.7493 9.87667 54.8526 10.0867 54.9793 10.26C55.1126 10.4267 55.246 10.59 55.3793 10.75C55.5126 10.91 55.626 11.0933 55.7193 11.3C55.8126 11.5 55.8593 11.7167 55.8593 11.95C55.8593 12.25 55.7993 12.51 55.6793 12.73C56.2993 12.69 56.8026 12.3633 57.1893 11.75L57.5993 12.22C57.2526 12.72 56.8626 13.0633 56.4293 13.25C56.0026 13.4367 55.466 13.5033 54.8193 13.45C54.5193 13.5633 54.166 13.62 53.7593 13.62Z" fill="#C8C8C8"/>
<rect y="20" width="310" height="1" fill="#131312"/>
</svg>
