<svg width="620" height="21" viewBox="0 0 620 21" fill="none" xmlns="http://www.w3.org/2000/svg">
<path d="M0 6C0 2.68629 2.68629 0 6 0H614C617.314 0 620 2.68629 620 6V20H0V6Z" fill="#0F0F0F"/>
<path d="M288.262 14L287.012 7.3H288.382L289.102 11.41L289.242 12.45H289.272L289.702 11.43L291.712 7.3L293.232 7.18L289.812 14H288.262ZM297.13 12.25L297.55 12.72C296.91 13.6533 295.99 14.12 294.79 14.12C294.063 14.12 293.503 13.94 293.11 13.58C292.723 13.22 292.53 12.71 292.53 12.05C292.53 11.29 292.76 10.6667 293.22 10.18C293.68 9.69333 294.27 9.45 294.99 9.45C295.49 9.45 295.887 9.57 296.18 9.81C296.48 10.0433 296.627 10.36 296.62 10.76C296.613 11.2667 296.38 11.6767 295.92 11.99C295.46 12.2967 294.843 12.4567 294.07 12.47C294.143 12.6967 294.28 12.8767 294.48 13.01C294.68 13.1433 294.923 13.21 295.21 13.21C296.07 13.21 296.71 12.89 297.13 12.25ZM294.93 10.43C294.637 10.43 294.393 10.5567 294.2 10.81C294.013 11.0567 293.907 11.3833 293.88 11.79C294.36 11.79 294.74 11.71 295.02 11.55C295.307 11.39 295.453 11.1733 295.46 10.9C295.467 10.7467 295.42 10.63 295.32 10.55C295.227 10.47 295.097 10.43 294.93 10.43ZM297.82 8.78L298.85 7.21H300.1L298.81 8.78H297.82ZM300.43 12.25L300.85 12.72C300.203 13.6533 299.443 14.12 298.57 14.12C298.09 14.12 297.753 13.98 297.56 13.7C297.366 13.4133 297.316 12.97 297.41 12.37L297.86 9.58L299.21 9.45L298.77 12.19C298.716 12.53 298.72 12.7733 298.78 12.92C298.84 13.06 298.973 13.13 299.18 13.13C299.673 13.1233 300.09 12.83 300.43 12.25ZM302.948 14.12C302.195 14.12 301.628 13.94 301.248 13.58C300.875 13.2133 300.695 12.6833 300.708 11.99C300.721 11.2367 300.958 10.6267 301.418 10.16C301.878 9.68667 302.471 9.45 303.198 9.45C303.831 9.45 304.271 9.63 304.518 9.99C304.771 10.35 304.775 10.8133 304.528 11.38L303.488 11.14C303.575 10.9333 303.581 10.7667 303.508 10.64C303.435 10.5067 303.298 10.44 303.098 10.44C302.798 10.44 302.548 10.5833 302.348 10.87C302.148 11.15 302.048 11.5033 302.048 11.93C302.048 12.7833 302.478 13.21 303.338 13.21C304.211 13.21 304.865 12.89 305.298 12.25L305.708 12.72C305.075 13.6533 304.155 14.12 302.948 14.12ZM311.318 12.25L311.738 12.72C311.092 13.6533 310.372 14.12 309.578 14.12C309.072 14.12 308.772 13.8767 308.678 13.39C308.085 13.8767 307.465 14.12 306.818 14.12C305.805 14.12 305.385 13.5733 305.558 12.48L306.028 9.58L307.368 9.45L306.908 12.39C306.862 12.6433 306.878 12.8267 306.958 12.94C307.045 13.0533 307.195 13.11 307.408 13.11C307.762 13.11 308.152 12.9333 308.578 12.58L309.058 9.58L310.408 9.45L309.928 12.52C309.855 12.9267 309.948 13.13 310.208 13.13C310.395 13.13 310.588 13.0467 310.788 12.88C310.995 12.7133 311.172 12.5033 311.318 12.25ZM314.691 12.25L315.101 12.72C314.467 13.6533 313.704 14.12 312.811 14.12C312.311 14.12 311.961 13.98 311.761 13.7C311.561 13.4133 311.507 12.97 311.601 12.37L312.451 7L313.801 6.88L312.961 12.19C312.907 12.5233 312.914 12.7633 312.981 12.91C313.054 13.0567 313.201 13.13 313.421 13.13C313.667 13.1233 313.901 13.0433 314.121 12.89C314.347 12.73 314.537 12.5167 314.691 12.25ZM320.647 12.25L321.067 12.72C320.614 13.44 320.057 13.8467 319.397 13.94C319.017 14 318.617 13.95 318.197 13.79C317.804 14.01 317.357 14.12 316.857 14.12C316.244 14.12 315.777 13.9633 315.457 13.65C315.137 13.33 314.977 12.8633 314.977 12.25C314.991 11.4367 315.244 10.77 315.737 10.25C316.237 9.72333 316.884 9.46 317.677 9.46C318.291 9.46 318.757 9.62 319.077 9.94C319.404 10.26 319.567 10.7233 319.567 11.33C319.567 12.07 319.361 12.6833 318.947 13.17C319.101 13.23 319.261 13.25 319.427 13.23C319.867 13.1633 320.274 12.8367 320.647 12.25ZM316.977 13.11C317.331 13.1167 317.627 12.9533 317.867 12.62C318.107 12.28 318.227 11.8567 318.227 11.35C318.227 10.77 318.007 10.48 317.567 10.48C317.207 10.48 316.911 10.65 316.677 10.99C316.451 11.33 316.334 11.75 316.327 12.25C316.321 12.8233 316.537 13.11 316.977 13.11ZM322.831 14.12C322.378 14.12 321.985 14.0433 321.651 13.89L321.821 12.96C322.135 13.1133 322.425 13.19 322.691 13.19C322.965 13.19 323.178 13.1267 323.331 13C323.485 12.8733 323.561 12.6967 323.561 12.47C323.561 12.3033 323.511 12.13 323.411 11.95C323.311 11.77 323.198 11.61 323.071 11.47C322.951 11.33 322.831 11.1467 322.711 10.92C322.591 10.6933 322.518 10.4567 322.491 10.21H322.471C322.365 10.4233 322.198 10.83 321.971 11.43C321.745 12.03 321.545 12.46 321.371 12.72L320.951 12.25C321.071 12.0567 321.258 11.6267 321.511 10.96C321.771 10.2867 322.031 9.78333 322.291 9.45L323.651 9.31C323.631 9.61 323.661 9.88333 323.741 10.13C323.821 10.3767 323.925 10.5867 324.051 10.76C324.185 10.9267 324.318 11.09 324.451 11.25C324.585 11.41 324.698 11.5933 324.791 11.8C324.885 12 324.931 12.2167 324.931 12.45C324.931 12.75 324.871 13.01 324.751 13.23C325.371 13.19 325.875 12.8633 326.261 12.25L326.671 12.72C326.325 13.22 325.935 13.5633 325.501 13.75C325.075 13.9367 324.538 14.0033 323.891 13.95C323.591 14.0633 323.238 14.12 322.831 14.12ZM332.395 7.3C333.248 7.3 333.861 7.46 334.235 7.78C334.608 8.1 334.795 8.56667 334.795 9.18C334.795 10.0067 334.508 10.6633 333.935 11.15C333.368 11.6367 332.608 11.88 331.655 11.88H330.745L330.415 14H329.085L330.135 7.3H332.395ZM331.695 10.77C332.235 10.77 332.658 10.6467 332.965 10.4C333.278 10.1533 333.435 9.80333 333.435 9.35C333.435 9.02333 333.335 8.79 333.135 8.65C332.941 8.51 332.608 8.44 332.135 8.44H331.285L330.925 10.77H331.695ZM335.335 10.02L335.555 8.98C336.241 9.36667 337.251 9.56667 338.585 9.58L338.345 10.53C337.691 11.2433 337.365 11.8733 337.365 12.42C337.365 12.8933 337.605 13.13 338.085 13.13C338.385 13.13 338.668 13.05 338.935 12.89C339.201 12.73 339.411 12.5167 339.565 12.25L339.985 12.72C339.365 13.6533 338.565 14.12 337.585 14.12C337.085 14.12 336.701 14 336.435 13.76C336.175 13.5133 336.045 13.1633 336.045 12.71C336.045 12.05 336.391 11.3033 337.085 10.47C336.378 10.4367 335.795 10.2867 335.335 10.02ZM341.789 8.78L342.819 7.21H344.069L342.779 8.78H341.789ZM345.539 12.25L345.959 12.72C345.505 13.44 344.949 13.8467 344.289 13.94C343.909 14 343.509 13.95 343.089 13.79C342.695 14.01 342.249 14.12 341.749 14.12C341.135 14.12 340.669 13.9633 340.349 13.65C340.029 13.33 339.869 12.8633 339.869 12.25C339.882 11.4367 340.135 10.77 340.629 10.25C341.129 9.72333 341.775 9.46 342.569 9.46C343.182 9.46 343.649 9.62 343.969 9.94C344.295 10.26 344.459 10.7233 344.459 11.33C344.459 12.07 344.252 12.6833 343.839 13.17C343.992 13.23 344.152 13.25 344.319 13.23C344.759 13.1633 345.165 12.8367 345.539 12.25ZM341.869 13.11C342.222 13.1167 342.519 12.9533 342.759 12.62C342.999 12.28 343.119 11.8567 343.119 11.35C343.119 10.77 342.899 10.48 342.459 10.48C342.099 10.48 341.802 10.65 341.569 10.99C341.342 11.33 341.225 11.75 341.219 12.25C341.212 12.8233 341.429 13.11 341.869 13.11ZM351.673 12.25L352.093 12.72C351.466 13.6533 350.769 14.12 350.003 14.12C349.529 14.12 349.183 13.91 348.963 13.49L348.563 12.73L347.613 14H346.223L347.953 11.7L347.563 10.91C347.396 10.5633 347.303 10.3467 347.283 10.26H347.263C347.203 10.42 347.109 10.6833 346.983 11.05C346.863 11.4167 346.746 11.7367 346.633 12.01C346.519 12.2833 346.396 12.52 346.263 12.72L345.843 12.25C345.996 11.9967 346.179 11.5567 346.393 10.93C346.613 10.2967 346.786 9.84667 346.913 9.58L348.163 9.45L348.743 10.71L349.603 9.54H350.983L349.353 11.69L349.863 12.69C350.023 12.9833 350.236 13.13 350.503 13.13C350.716 13.1233 350.926 13.04 351.133 12.88C351.346 12.72 351.526 12.51 351.673 12.25ZM353.253 8.87C353.033 8.87 352.849 8.80333 352.703 8.67C352.556 8.53667 352.483 8.36667 352.483 8.16C352.483 7.91333 352.569 7.70667 352.743 7.54C352.916 7.37333 353.129 7.29 353.383 7.29C353.596 7.29 353.773 7.36 353.913 7.5C354.053 7.63333 354.123 7.80333 354.123 8.01C354.123 8.25667 354.039 8.46333 353.873 8.63C353.706 8.79 353.499 8.87 353.253 8.87ZM354.973 12.25L355.393 12.72C354.746 13.6533 353.986 14.12 353.113 14.12C352.633 14.12 352.296 13.98 352.103 13.7C351.909 13.4133 351.859 12.97 351.953 12.37L352.403 9.58L353.753 9.45L353.313 12.19C353.259 12.53 353.263 12.7733 353.323 12.92C353.383 13.06 353.516 13.13 353.723 13.13C354.216 13.1233 354.633 12.83 354.973 12.25ZM363.741 12.25L364.151 12.72C363.524 13.6533 362.808 14.12 362.001 14.12C361.601 14.12 361.311 14.0033 361.131 13.77C360.958 13.53 360.908 13.1833 360.981 12.73L361.241 11.18C361.314 10.7 361.174 10.46 360.821 10.46C360.534 10.46 360.161 10.6267 359.701 10.96L359.221 14H357.891L358.341 11.18C358.421 10.7 358.284 10.46 357.931 10.46C357.638 10.46 357.258 10.63 356.791 10.97L356.311 14H354.981L355.681 9.58L357.031 9.45L356.921 10.11C357.574 9.67 358.148 9.45 358.641 9.45C359.241 9.45 359.598 9.69667 359.711 10.19C360.411 9.69667 361.021 9.45 361.541 9.45C361.954 9.45 362.254 9.57667 362.441 9.83C362.634 10.0767 362.694 10.4267 362.621 10.88L362.361 12.45C362.288 12.9033 362.381 13.13 362.641 13.13C362.821 13.13 363.011 13.05 363.211 12.89C363.411 12.73 363.588 12.5167 363.741 12.25ZM369.698 12.25L370.118 12.72C369.664 13.44 369.108 13.8467 368.448 13.94C368.068 14 367.668 13.95 367.248 13.79C366.854 14.01 366.408 14.12 365.908 14.12C365.294 14.12 364.828 13.9633 364.508 13.65C364.188 13.33 364.028 12.8633 364.028 12.25C364.041 11.4367 364.294 10.77 364.788 10.25C365.288 9.72333 365.934 9.46 366.728 9.46C367.341 9.46 367.808 9.62 368.128 9.94C368.454 10.26 368.618 10.7233 368.618 11.33C368.618 12.07 368.411 12.6833 367.998 13.17C368.151 13.23 368.311 13.25 368.478 13.23C368.918 13.1633 369.324 12.8367 369.698 12.25ZM366.028 13.11C366.381 13.1167 366.678 12.9533 366.918 12.62C367.158 12.28 367.278 11.8567 367.278 11.35C367.278 10.77 367.058 10.48 366.618 10.48C366.258 10.48 365.961 10.65 365.728 10.99C365.501 11.33 365.384 11.75 365.378 12.25C365.371 12.8233 365.588 13.11 366.028 13.11ZM371.882 14.12C371.428 14.12 371.035 14.0433 370.702 13.89L370.872 12.96C371.185 13.1133 371.475 13.19 371.742 13.19C372.015 13.19 372.228 13.1267 372.382 13C372.535 12.8733 372.612 12.6967 372.612 12.47C372.612 12.3033 372.562 12.13 372.462 11.95C372.362 11.77 372.248 11.61 372.122 11.47C372.002 11.33 371.882 11.1467 371.762 10.92C371.642 10.6933 371.568 10.4567 371.542 10.21H371.522C371.415 10.4233 371.248 10.83 371.022 11.43C370.795 12.03 370.595 12.46 370.422 12.72L370.002 12.25C370.122 12.0567 370.308 11.6267 370.562 10.96C370.822 10.2867 371.082 9.78333 371.342 9.45L372.702 9.31C372.682 9.61 372.712 9.88333 372.792 10.13C372.872 10.3767 372.975 10.5867 373.102 10.76C373.235 10.9267 373.368 11.09 373.502 11.25C373.635 11.41 373.748 11.5933 373.842 11.8C373.935 12 373.982 12.2167 373.982 12.45C373.982 12.75 373.922 13.01 373.802 13.23C374.422 13.19 374.925 12.8633 375.312 12.25L375.722 12.72C375.375 13.22 374.985 13.5633 374.552 13.75C374.125 13.9367 373.588 14.0033 372.942 13.95C372.642 14.0633 372.288 14.12 371.882 14.12Z" fill="#C8C8C8"/>
<rect y="20" width="620" height="1" fill="#131312"/>
</svg>
