<svg width="310" height="21" viewBox="0 0 310 21" fill="none" xmlns="http://www.w3.org/2000/svg">
<path d="M0 6C0 2.68629 2.68629 0 6 0H304C307.314 0 310 2.68629 310 6V20H0V6Z" fill="#0F0F0F"/>
<path d="M26.9123 13.62C25.7457 13.62 24.919 13.2033 24.4323 12.37L25.3723 11.58C25.7657 12.1533 26.2923 12.4433 26.9523 12.45C27.3123 12.45 27.6023 12.3767 27.8223 12.23C28.049 12.0833 28.1623 11.8867 28.1623 11.64C28.1623 11.4933 28.0957 11.3533 27.9623 11.22C27.829 11.0867 27.6723 10.9767 27.4923 10.89C27.3123 10.7967 27.059 10.6767 26.7323 10.53C26.7057 10.5167 26.6823 10.5067 26.6623 10.5C26.649 10.4933 26.6323 10.4867 26.6123 10.48C26.0857 10.2467 25.7023 9.97667 25.4623 9.67C25.2223 9.35667 25.109 8.98 25.1223 8.54C25.1357 7.96667 25.3457 7.51333 25.7523 7.18C26.159 6.84667 26.7123 6.68 27.4123 6.68C28.4657 6.68 29.2023 7.05 29.6223 7.79L28.6623 8.49C28.3757 8.06333 27.9657 7.85 27.4323 7.85C26.8057 7.85 26.4857 8.07333 26.4723 8.52C26.4723 8.76667 26.5857 8.97667 26.8123 9.15C27.0457 9.31667 27.4323 9.52 27.9723 9.76C29.0257 10.2067 29.5423 10.85 29.5223 11.69C29.509 12.2767 29.2657 12.7467 28.7923 13.1C28.319 13.4467 27.6923 13.62 26.9123 13.62ZM32.0882 8.37C31.8682 8.37 31.6849 8.30333 31.5382 8.17C31.3915 8.03667 31.3182 7.86667 31.3182 7.66C31.3182 7.41333 31.4049 7.20667 31.5782 7.04C31.7515 6.87333 31.9649 6.79 32.2182 6.79C32.4315 6.79 32.6082 6.86 32.7482 7C32.8882 7.13333 32.9582 7.30333 32.9582 7.51C32.9582 7.75667 32.8749 7.96333 32.7082 8.13C32.5415 8.29 32.3349 8.37 32.0882 8.37ZM33.8082 11.75L34.2282 12.22C33.5815 13.1533 32.8215 13.62 31.9482 13.62C31.4682 13.62 31.1315 13.48 30.9382 13.2C30.7449 12.9133 30.6949 12.47 30.7882 11.87L31.2382 9.08L32.5882 8.95L32.1482 11.69C32.0949 12.03 32.0982 12.2733 32.1582 12.42C32.2182 12.56 32.3515 12.63 32.5582 12.63C33.0515 12.6233 33.4682 12.33 33.8082 11.75ZM37.3665 11.75L37.7765 12.22C37.1432 13.1533 36.3798 13.62 35.4865 13.62C34.9865 13.62 34.6365 13.48 34.4365 13.2C34.2365 12.9133 34.1832 12.47 34.2765 11.87L35.1265 6.5L36.4765 6.38L35.6365 11.69C35.5832 12.0233 35.5898 12.2633 35.6565 12.41C35.7298 12.5567 35.8765 12.63 36.0965 12.63C36.3432 12.6233 36.5765 12.5433 36.7965 12.39C37.0232 12.23 37.2132 12.0167 37.3665 11.75ZM42.4431 11.75L42.8631 12.22C42.2231 13.1533 41.3031 13.62 40.1031 13.62C39.3765 13.62 38.8165 13.44 38.4231 13.08C38.0365 12.72 37.8431 12.21 37.8431 11.55C37.8431 10.79 38.0731 10.1667 38.5331 9.68C38.9931 9.19333 39.5831 8.95 40.3031 8.95C40.8031 8.95 41.1998 9.07 41.4931 9.31C41.7931 9.54333 41.9398 9.86 41.9331 10.26C41.9265 10.7667 41.6931 11.1767 41.2331 11.49C40.7731 11.7967 40.1565 11.9567 39.3831 11.97C39.4565 12.1967 39.5931 12.3767 39.7931 12.51C39.9931 12.6433 40.2365 12.71 40.5231 12.71C41.3831 12.71 42.0231 12.39 42.4431 11.75ZM40.2431 9.93C39.9498 9.93 39.7065 10.0567 39.5131 10.31C39.3265 10.5567 39.2198 10.8833 39.1931 11.29C39.6731 11.29 40.0531 11.21 40.3331 11.05C40.6198 10.89 40.7665 10.6733 40.7731 10.4C40.7798 10.2467 40.7331 10.13 40.6331 10.05C40.5398 9.97 40.4098 9.93 40.2431 9.93ZM48.693 11.75L49.113 12.22C48.4796 13.1533 47.763 13.62 46.963 13.62C46.563 13.62 46.273 13.5033 46.093 13.27C45.9196 13.03 45.8696 12.6833 45.943 12.23L46.193 10.68C46.273 10.2 46.123 9.96 45.743 9.96C45.3896 9.96 44.963 10.1533 44.463 10.54L43.993 13.5H42.663L43.363 9.08L44.713 8.95L44.593 9.68C45.293 9.19333 45.9163 8.95 46.463 8.95C46.8963 8.95 47.2063 9.07333 47.393 9.32C47.5863 9.56667 47.6463 9.92 47.573 10.38L47.313 11.95C47.2396 12.4033 47.3363 12.63 47.603 12.63C47.7763 12.63 47.963 12.55 48.163 12.39C48.3696 12.23 48.5463 12.0167 48.693 11.75ZM52.2649 11.75L52.6749 12.22C52.0483 13.1533 51.2816 13.62 50.3749 13.62C49.8883 13.62 49.5416 13.48 49.3349 13.2C49.1349 12.92 49.0816 12.4767 49.1749 11.87L49.4849 9.91H48.8649L48.9949 9.08H49.6249L49.8649 7.57L51.2049 7.45L50.9449 9.08H51.8849L51.7549 9.91H50.8149L50.5349 11.7C50.4883 12.04 50.4983 12.28 50.5649 12.42C50.6383 12.56 50.7816 12.63 50.9949 12.63C51.4949 12.6167 51.9183 12.3233 52.2649 11.75ZM59.5823 13.5L59.4023 11.93H57.2423L56.4323 13.5H54.9523L58.4723 6.8L59.9623 6.67L61.0423 13.5H59.5823ZM57.7523 10.9H59.3023L59.1223 9.56L59.0223 8.35H59.0023L58.4323 9.6L57.7523 10.9ZM63.5472 8.37C63.3272 8.37 63.1439 8.30333 62.9972 8.17C62.8505 8.03667 62.7772 7.86667 62.7772 7.66C62.7772 7.41333 62.8639 7.20667 63.0372 7.04C63.2105 6.87333 63.4239 6.79 63.6772 6.79C63.8905 6.79 64.0672 6.86 64.2072 7C64.3472 7.13333 64.4172 7.30333 64.4172 7.51C64.4172 7.75667 64.3339 7.96333 64.1672 8.13C64.0005 8.29 63.7939 8.37 63.5472 8.37ZM65.2672 11.75L65.6872 12.22C65.0405 13.1533 64.2805 13.62 63.4072 13.62C62.9272 13.62 62.5905 13.48 62.3972 13.2C62.2039 12.9133 62.1539 12.47 62.2472 11.87L62.6972 9.08L64.0472 8.95L63.6072 11.69C63.5539 12.03 63.5572 12.2733 63.6172 12.42C63.6772 12.56 63.8105 12.63 64.0172 12.63C64.5105 12.6233 64.9272 12.33 65.2672 11.75ZM74.2355 11.75L74.6455 12.22C74.0188 13.1533 73.3021 13.62 72.4955 13.62C72.0955 13.62 71.8055 13.5033 71.6255 13.27C71.4521 13.03 71.4021 12.6833 71.4755 12.23L71.7355 10.68C71.8088 10.2 71.6688 9.96 71.3155 9.96C71.0288 9.96 70.6555 10.1267 70.1955 10.46L69.7155 13.5H68.3855L68.8355 10.68C68.9155 10.2 68.7788 9.96 68.4255 9.96C68.1321 9.96 67.7521 10.13 67.2855 10.47L66.8055 13.5H65.4755L66.1755 9.08L67.5255 8.95L67.4155 9.61C68.0688 9.17 68.6421 8.95 69.1355 8.95C69.7355 8.95 70.0921 9.19667 70.2055 9.69C70.9055 9.19667 71.5155 8.95 72.0355 8.95C72.4488 8.95 72.7488 9.07667 72.9355 9.33C73.1288 9.57667 73.1888 9.92667 73.1155 10.38L72.8555 11.95C72.7821 12.4033 72.8755 12.63 73.1355 12.63C73.3155 12.63 73.5055 12.55 73.7055 12.39C73.9055 12.23 74.0821 12.0167 74.2355 11.75Z" fill="#C8C8C8"/>
<rect y="20" width="310" height="1" fill="#131312"/>
</svg>
