<svg width="622" height="21" viewBox="0 0 622 21" fill="none" xmlns="http://www.w3.org/2000/svg">
<path d="M0 6C0 2.68629 2.68629 0 6 0H614C617.314 0 620 2.68629 620 6V20H0V6Z" fill="#0F0F0F"/>
<path d="M288.02 14L288.88 8.51H286.98L287.17 7.3H292.33L292.14 8.51H290.24L289.4 14H288.02ZM296.259 12.25L296.679 12.72C296.039 13.6533 295.119 14.12 293.919 14.12C293.192 14.12 292.632 13.94 292.239 13.58C291.852 13.22 291.659 12.71 291.659 12.05C291.659 11.29 291.889 10.6667 292.349 10.18C292.809 9.69333 293.399 9.45 294.119 9.45C294.619 9.45 295.015 9.57 295.309 9.81C295.609 10.0433 295.755 10.36 295.749 10.76C295.742 11.2667 295.509 11.6767 295.049 11.99C294.589 12.2967 293.972 12.4567 293.199 12.47C293.272 12.6967 293.409 12.8767 293.609 13.01C293.809 13.1433 294.052 13.21 294.339 13.21C295.199 13.21 295.839 12.89 296.259 12.25ZM294.059 10.43C293.765 10.43 293.522 10.5567 293.329 10.81C293.142 11.0567 293.035 11.3833 293.009 11.79C293.489 11.79 293.869 11.71 294.149 11.55C294.435 11.39 294.582 11.1733 294.589 10.9C294.595 10.7467 294.549 10.63 294.449 10.55C294.355 10.47 294.225 10.43 294.059 10.43ZM299.629 12.25L300.039 12.72C299.405 13.6533 298.642 14.12 297.749 14.12C297.249 14.12 296.899 13.98 296.699 13.7C296.499 13.4133 296.445 12.97 296.539 12.37L297.389 7L298.739 6.88L297.899 12.19C297.845 12.5233 297.852 12.7633 297.919 12.91C297.992 13.0567 298.139 13.13 298.359 13.13C298.605 13.1233 298.839 13.0433 299.059 12.89C299.285 12.73 299.475 12.5167 299.629 12.25ZM304.505 12.25L304.925 12.72C304.285 13.6533 303.365 14.12 302.165 14.12C301.439 14.12 300.879 13.94 300.485 13.58C300.099 13.22 299.905 12.71 299.905 12.05C299.905 11.29 300.135 10.6667 300.595 10.18C301.055 9.69333 301.645 9.45 302.365 9.45C302.865 9.45 303.262 9.57 303.555 9.81C303.855 10.0433 304.002 10.36 303.995 10.76C303.989 11.2667 303.755 11.6767 303.295 11.99C302.835 12.2967 302.219 12.4567 301.445 12.47C301.519 12.6967 301.655 12.8767 301.855 13.01C302.055 13.1433 302.299 13.21 302.585 13.21C303.445 13.21 304.085 12.89 304.505 12.25ZM302.305 10.43C302.012 10.43 301.769 10.5567 301.575 10.81C301.389 11.0567 301.282 11.3833 301.255 11.79C301.735 11.79 302.115 11.71 302.395 11.55C302.682 11.39 302.829 11.1733 302.835 10.9C302.842 10.7467 302.795 10.63 302.695 10.55C302.602 10.47 302.472 10.43 302.305 10.43ZM304.225 15.97L305.235 9.58L306.585 9.45L306.475 10.18C307.055 9.69333 307.615 9.45 308.155 9.45C308.628 9.45 308.972 9.61333 309.185 9.94C309.398 10.2667 309.475 10.7433 309.415 11.37C309.342 12.1033 309.128 12.71 308.775 13.19C308.948 13.2567 309.138 13.2733 309.345 13.24C309.818 13.1733 310.228 12.8433 310.575 12.25L310.985 12.72C310.432 13.56 309.758 13.9767 308.965 13.97C308.652 13.97 308.358 13.91 308.085 13.79C307.725 14.01 307.285 14.12 306.765 14.12C306.492 14.12 306.192 14.0867 305.865 14.02L305.555 15.97H304.225ZM306.705 13.12C307.085 13.1133 307.392 12.98 307.625 12.72C307.858 12.46 308.002 12.0733 308.055 11.56C308.095 11.1867 308.072 10.9133 307.985 10.74C307.898 10.56 307.735 10.47 307.495 10.47C307.188 10.47 306.802 10.6633 306.335 11.05L306.025 13.02C306.265 13.0867 306.492 13.12 306.705 13.12ZM316.537 12.25L316.957 12.72C316.503 13.44 315.947 13.8467 315.287 13.94C314.907 14 314.507 13.95 314.087 13.79C313.693 14.01 313.247 14.12 312.747 14.12C312.133 14.12 311.667 13.9633 311.347 13.65C311.027 13.33 310.867 12.8633 310.867 12.25C310.88 11.4367 311.133 10.77 311.627 10.25C312.127 9.72333 312.773 9.46 313.567 9.46C314.18 9.46 314.647 9.62 314.967 9.94C315.293 10.26 315.457 10.7233 315.457 11.33C315.457 12.07 315.25 12.6833 314.837 13.17C314.99 13.23 315.15 13.25 315.317 13.23C315.757 13.1633 316.163 12.8367 316.537 12.25ZM312.867 13.11C313.22 13.1167 313.517 12.9533 313.757 12.62C313.997 12.28 314.117 11.8567 314.117 11.35C314.117 10.77 313.897 10.48 313.457 10.48C313.097 10.48 312.8 10.65 312.567 10.99C312.34 11.33 312.223 11.75 312.217 12.25C312.21 12.8233 312.427 13.11 312.867 13.11ZM321.601 12.25L322.021 12.72C321.407 13.6533 320.607 14.12 319.621 14.12C319.127 14.12 318.747 14 318.481 13.76C318.214 13.52 318.081 13.1733 318.081 12.72C318.081 12.04 318.364 11.27 318.931 10.41C318.597 10.4033 318.217 10.3367 317.791 10.21C317.864 11.15 317.687 11.9867 317.261 12.72L316.841 12.25C317.221 11.5567 317.324 10.8 317.151 9.98C317.137 9.97333 317.084 9.95333 316.991 9.92C316.904 9.88 316.844 9.84667 316.811 9.82L316.971 8.85C317.744 9.31 318.891 9.55333 320.411 9.58L320.171 10.53C319.664 11.2233 319.411 11.8567 319.411 12.43C319.411 12.8967 319.651 13.13 320.131 13.13C320.417 13.13 320.694 13.0533 320.961 12.9C321.234 12.74 321.447 12.5233 321.601 12.25ZM324.966 12.25L325.376 12.72C324.75 13.6533 323.983 14.12 323.076 14.12C322.59 14.12 322.243 13.98 322.036 13.7C321.836 13.42 321.783 12.9767 321.876 12.37L322.186 10.41H321.566L321.696 9.58H322.326L322.566 8.07L323.906 7.95L323.646 9.58H324.586L324.456 10.41H323.516L323.236 12.2C323.19 12.54 323.2 12.78 323.266 12.92C323.34 13.06 323.483 13.13 323.696 13.13C324.196 13.1167 324.62 12.8233 324.966 12.25ZM329.344 12.8H332.414L332.234 14H327.784L328.834 7.3L330.214 7.18L329.344 12.8ZM334.555 8.87C334.335 8.87 334.152 8.80333 334.005 8.67C333.858 8.53667 333.785 8.36667 333.785 8.16C333.785 7.91333 333.872 7.70667 334.045 7.54C334.218 7.37333 334.432 7.29 334.685 7.29C334.898 7.29 335.075 7.36 335.215 7.5C335.355 7.63333 335.425 7.80333 335.425 8.01C335.425 8.25667 335.342 8.46333 335.175 8.63C335.008 8.79 334.802 8.87 334.555 8.87ZM336.275 12.25L336.695 12.72C336.048 13.6533 335.288 14.12 334.415 14.12C333.935 14.12 333.598 13.98 333.405 13.7C333.212 13.4133 333.162 12.97 333.255 12.37L333.705 9.58L335.055 9.45L334.615 12.19C334.562 12.53 334.565 12.7733 334.625 12.92C334.685 13.06 334.818 13.13 335.025 13.13C335.518 13.1233 335.935 12.83 336.275 12.25ZM338.443 14.12C337.99 14.12 337.597 14.0433 337.263 13.89L337.433 12.96C337.747 13.1133 338.037 13.19 338.303 13.19C338.577 13.19 338.79 13.1267 338.943 13C339.097 12.8733 339.173 12.6967 339.173 12.47C339.173 12.3033 339.123 12.13 339.023 11.95C338.923 11.77 338.81 11.61 338.683 11.47C338.563 11.33 338.443 11.1467 338.323 10.92C338.203 10.6933 338.13 10.4567 338.103 10.21H338.083C337.977 10.4233 337.81 10.83 337.583 11.43C337.357 12.03 337.157 12.46 336.983 12.72L336.563 12.25C336.683 12.0567 336.87 11.6267 337.123 10.96C337.383 10.2867 337.643 9.78333 337.903 9.45L339.263 9.31C339.243 9.61 339.273 9.88333 339.353 10.13C339.433 10.3767 339.537 10.5867 339.663 10.76C339.797 10.9267 339.93 11.09 340.063 11.25C340.197 11.41 340.31 11.5933 340.403 11.8C340.497 12 340.543 12.2167 340.543 12.45C340.543 12.75 340.483 13.01 340.363 13.23C340.983 13.19 341.487 12.8633 341.873 12.25L342.283 12.72C341.937 13.22 341.547 13.5633 341.113 13.75C340.687 13.9367 340.15 14.0033 339.503 13.95C339.203 14.0633 338.85 14.12 338.443 14.12ZM345.236 12.25L345.646 12.72C345.019 13.6533 344.253 14.12 343.346 14.12C342.859 14.12 342.513 13.98 342.306 13.7C342.106 13.42 342.053 12.9767 342.146 12.37L342.456 10.41H341.836L341.966 9.58H342.596L342.836 8.07L344.176 7.95L343.916 9.58H344.856L344.726 10.41H343.786L343.506 12.2C343.459 12.54 343.469 12.78 343.536 12.92C343.609 13.06 343.753 13.13 343.966 13.13C344.466 13.1167 344.889 12.8233 345.236 12.25Z" fill="#C8C8C8"/>
<rect y="20" width="620" height="1" fill="#131312"/>
</svg>
