<svg width="310" height="21" viewBox="0 0 310 21" fill="none" xmlns="http://www.w3.org/2000/svg">
<path d="M0 6C0 2.68629 2.68629 0 6 0H304C307.314 0 310 2.68629 310 6V20H0V6Z" fill="#0F0F0F"/>
<path d="M26.9123 13.62C25.7457 13.62 24.919 13.2033 24.4323 12.37L25.3723 11.58C25.7657 12.1533 26.2923 12.4433 26.9523 12.45C27.3123 12.45 27.6023 12.3767 27.8223 12.23C28.049 12.0833 28.1623 11.8867 28.1623 11.64C28.1623 11.4933 28.0957 11.3533 27.9623 11.22C27.829 11.0867 27.6723 10.9767 27.4923 10.89C27.3123 10.7967 27.059 10.6767 26.7323 10.53C26.7057 10.5167 26.6823 10.5067 26.6623 10.5C26.649 10.4933 26.6323 10.4867 26.6123 10.48C26.0857 10.2467 25.7023 9.97667 25.4623 9.67C25.2223 9.35667 25.109 8.98 25.1223 8.54C25.1357 7.96667 25.3457 7.51333 25.7523 7.18C26.159 6.84667 26.7123 6.68 27.4123 6.68C28.4657 6.68 29.2023 7.05 29.6223 7.79L28.6623 8.49C28.3757 8.06333 27.9657 7.85 27.4323 7.85C26.8057 7.85 26.4857 8.07333 26.4723 8.52C26.4723 8.76667 26.5857 8.97667 26.8123 9.15C27.0457 9.31667 27.4323 9.52 27.9723 9.76C29.0257 10.2067 29.5423 10.85 29.5223 11.69C29.509 12.2767 29.2657 12.7467 28.7923 13.1C28.319 13.4467 27.6923 13.62 26.9123 13.62ZM35.0615 11.75L35.4815 12.22C34.8415 13.1533 33.9215 13.62 32.7215 13.62C31.9948 13.62 31.4348 13.44 31.0415 13.08C30.6548 12.72 30.4615 12.21 30.4615 11.55C30.4615 10.79 30.6915 10.1667 31.1515 9.68C31.6115 9.19333 32.2015 8.95 32.9215 8.95C33.4215 8.95 33.8182 9.07 34.1115 9.31C34.4115 9.54333 34.5582 9.86 34.5515 10.26C34.5448 10.7667 34.3115 11.1767 33.8515 11.49C33.3915 11.7967 32.7748 11.9567 32.0015 11.97C32.0748 12.1967 32.2115 12.3767 32.4115 12.51C32.6115 12.6433 32.8548 12.71 33.1415 12.71C34.0015 12.71 34.6415 12.39 35.0615 11.75ZM32.8615 9.93C32.5682 9.93 32.3248 10.0567 32.1315 10.31C31.9448 10.5567 31.8382 10.8833 31.8115 11.29C32.2915 11.29 32.6715 11.21 32.9515 11.05C33.2382 10.89 33.3848 10.6733 33.3915 10.4C33.3982 10.2467 33.3515 10.13 33.2515 10.05C33.1582 9.97 33.0282 9.93 32.8615 9.93ZM37.5913 13.62C36.838 13.62 36.2713 13.44 35.8913 13.08C35.518 12.7133 35.338 12.1833 35.3513 11.49C35.3647 10.7367 35.6013 10.1267 36.0613 9.66C36.5213 9.18667 37.1147 8.95 37.8413 8.95C38.4747 8.95 38.9147 9.13 39.1613 9.49C39.4147 9.85 39.418 10.3133 39.1713 10.88L38.1313 10.64C38.218 10.4333 38.2247 10.2667 38.1513 10.14C38.078 10.0067 37.9413 9.94 37.7413 9.94C37.4413 9.94 37.1913 10.0833 36.9913 10.37C36.7913 10.65 36.6913 11.0033 36.6913 11.43C36.6913 12.2833 37.1213 12.71 37.9813 12.71C38.8547 12.71 39.508 12.39 39.9413 11.75L40.3513 12.22C39.718 13.1533 38.798 13.62 37.5913 13.62ZM45.9616 11.75L46.3816 12.22C45.735 13.1533 45.015 13.62 44.2216 13.62C43.715 13.62 43.415 13.3767 43.3216 12.89C42.7283 13.3767 42.1083 13.62 41.4616 13.62C40.4483 13.62 40.0283 13.0733 40.2016 11.98L40.6716 9.08L42.0116 8.95L41.5516 11.89C41.505 12.1433 41.5216 12.3267 41.6016 12.44C41.6883 12.5533 41.8383 12.61 42.0516 12.61C42.405 12.61 42.795 12.4333 43.2216 12.08L43.7016 9.08L45.0516 8.95L44.5716 12.02C44.4983 12.4267 44.5916 12.63 44.8516 12.63C45.0383 12.63 45.2316 12.5467 45.4316 12.38C45.6383 12.2133 45.815 12.0033 45.9616 11.75ZM52.0141 11.75L52.4341 12.22C51.8007 13.1533 51.0841 13.62 50.2841 13.62C49.8841 13.62 49.5941 13.5033 49.4141 13.27C49.2407 13.03 49.1907 12.6833 49.2641 12.23L49.5141 10.68C49.5941 10.2 49.4441 9.96 49.0641 9.96C48.7107 9.96 48.2841 10.1533 47.7841 10.54L47.3141 13.5H45.9841L46.6841 9.08L48.0341 8.95L47.9141 9.68C48.6141 9.19333 49.2374 8.95 49.7841 8.95C50.2174 8.95 50.5274 9.07333 50.7141 9.32C50.9074 9.56667 50.9674 9.92 50.8941 10.38L50.6341 11.95C50.5607 12.4033 50.6574 12.63 50.9241 12.63C51.0974 12.63 51.2841 12.55 51.4841 12.39C51.6907 12.23 51.8674 12.0167 52.0141 11.75ZM58.156 11.75L58.576 12.22C58.276 12.6733 57.9394 13.02 57.566 13.26C57.1927 13.5 56.8127 13.62 56.426 13.62C55.8794 13.62 55.5627 13.38 55.476 12.9C54.996 13.38 54.4527 13.62 53.846 13.62C52.826 13.62 52.316 13.0267 52.316 11.84C52.316 10.98 52.556 10.2833 53.036 9.75C53.5227 9.21667 54.1694 8.95 54.976 8.95C55.2427 8.95 55.5494 8.98667 55.896 9.06L56.306 6.5L57.656 6.38L56.766 11.92C56.726 12.1733 56.726 12.3567 56.766 12.47C56.806 12.5767 56.896 12.63 57.036 12.63C57.216 12.63 57.4094 12.55 57.616 12.39C57.8294 12.2233 58.0094 12.01 58.156 11.75ZM55.406 12.08L55.746 10C55.4994 9.96667 55.2994 9.95 55.146 9.95C54.6794 9.95 54.316 10.1167 54.056 10.45C53.796 10.7767 53.666 11.22 53.666 11.78C53.666 12.08 53.716 12.3 53.816 12.44C53.9227 12.58 54.0894 12.65 54.316 12.65C54.6827 12.65 55.046 12.46 55.406 12.08ZM60.6861 8.28L61.7161 6.71H62.9661L61.6761 8.28H60.6861ZM59.9661 13.62C59.4728 13.62 59.0928 13.47 58.8261 13.17C58.5661 12.8633 58.4361 12.42 58.4361 11.84C58.4361 10.98 58.6794 10.2833 59.1661 9.75C59.6528 9.21667 60.2994 8.95 61.1061 8.95C61.3794 8.95 61.7061 8.99333 62.0861 9.08L63.3661 8.95L62.8861 11.92C62.8461 12.1733 62.8461 12.3567 62.8861 12.47C62.9261 12.5767 63.0161 12.63 63.1561 12.63C63.3361 12.63 63.5294 12.55 63.7361 12.39C63.9494 12.2233 64.1294 12.01 64.2761 11.75L64.6861 12.22C64.0594 13.1533 63.3461 13.62 62.5461 13.62C62.0061 13.62 61.6894 13.38 61.5961 12.9C61.1094 13.38 60.5661 13.62 59.9661 13.62ZM60.4461 12.63C60.8128 12.63 61.1761 12.44 61.5361 12.06L61.8561 10.04C61.6761 10.0067 61.4728 9.99 61.2461 9.99C60.7861 9.99 60.4261 10.15 60.1661 10.47C59.9128 10.7833 59.7861 11.2167 59.7861 11.77C59.7861 12.3433 60.0061 12.63 60.4461 12.63ZM69.3264 11.75L69.7464 12.22C69.1331 13.1533 68.3331 13.62 67.3464 13.62C66.8531 13.62 66.4731 13.5 66.2064 13.26C65.9397 13.02 65.8064 12.6733 65.8064 12.22C65.8064 11.54 66.0897 10.77 66.6564 9.91C66.3231 9.90333 65.9431 9.83667 65.5164 9.71C65.5897 10.65 65.4131 11.4867 64.9864 12.22L64.5664 11.75C64.9464 11.0567 65.0497 10.3 64.8764 9.48C64.8631 9.47333 64.8097 9.45333 64.7164 9.42C64.6297 9.38 64.5697 9.34667 64.5364 9.32L64.6964 8.35C65.4697 8.81 66.6164 9.05333 68.1364 9.08L67.8964 10.03C67.3897 10.7233 67.1364 11.3567 67.1364 11.93C67.1364 12.3967 67.3764 12.63 67.8564 12.63C68.1431 12.63 68.4197 12.5533 68.6864 12.4C68.9597 12.24 69.1731 12.0233 69.3264 11.75ZM70.9023 8.37C70.6823 8.37 70.4989 8.30333 70.3523 8.17C70.2056 8.03667 70.1323 7.86667 70.1323 7.66C70.1323 7.41333 70.2189 7.20667 70.3923 7.04C70.5656 6.87333 70.7789 6.79 71.0323 6.79C71.2456 6.79 71.4223 6.86 71.5623 7C71.7023 7.13333 71.7723 7.30333 71.7723 7.51C71.7723 7.75667 71.6889 7.96333 71.5223 8.13C71.3556 8.29 71.1489 8.37 70.9023 8.37ZM72.6223 11.75L73.0423 12.22C72.3956 13.1533 71.6356 13.62 70.7623 13.62C70.2823 13.62 69.9456 13.48 69.7523 13.2C69.5589 12.9133 69.5089 12.47 69.6023 11.87L70.0523 9.08L71.4023 8.95L70.9623 11.69C70.9089 12.03 70.9123 12.2733 70.9723 12.42C71.0323 12.56 71.1656 12.63 71.3723 12.63C71.8656 12.6233 72.2823 12.33 72.6223 11.75ZM78.5805 11.75L79.0005 12.22C78.5472 12.94 77.9905 13.3467 77.3305 13.44C76.9505 13.5 76.5505 13.45 76.1305 13.29C75.7372 13.51 75.2905 13.62 74.7905 13.62C74.1772 13.62 73.7105 13.4633 73.3905 13.15C73.0705 12.83 72.9105 12.3633 72.9105 11.75C72.9239 10.9367 73.1772 10.27 73.6705 9.75C74.1705 9.22333 74.8172 8.96 75.6105 8.96C76.2239 8.96 76.6905 9.12 77.0105 9.44C77.3372 9.76 77.5005 10.2233 77.5005 10.83C77.5005 11.57 77.2939 12.1833 76.8805 12.67C77.0339 12.73 77.1939 12.75 77.3605 12.73C77.8005 12.6633 78.2072 12.3367 78.5805 11.75ZM74.9105 12.61C75.2639 12.6167 75.5605 12.4533 75.8005 12.12C76.0405 11.78 76.1605 11.3567 76.1605 10.85C76.1605 10.27 75.9405 9.98 75.5005 9.98C75.1405 9.98 74.8439 10.15 74.6105 10.49C74.3839 10.83 74.2672 11.25 74.2605 11.75C74.2539 12.3233 74.4705 12.61 74.9105 12.61Z" fill="#C8C8C8"/>
<rect y="20" width="310" height="1" fill="#131312"/>
</svg>
