<svg width="310" height="21" viewBox="0 0 310 21" fill="none" xmlns="http://www.w3.org/2000/svg">
<path d="M0 6C0 2.68629 2.68629 0 6 0H304C307.314 0 310 2.68629 310 6V20H0V6Z" fill="#0F0F0F"/>
<path d="M28.5823 13.5L28.4023 11.93H26.2423L25.4323 13.5H23.9523L27.4723 6.8L28.9623 6.67L30.0423 13.5H28.5823ZM26.7523 10.9H28.3023L28.1223 9.56L28.0223 8.35H28.0023L27.4323 9.6L26.7523 10.9ZM32.5472 8.37C32.3272 8.37 32.1439 8.30333 31.9972 8.17C31.8505 8.03667 31.7772 7.86667 31.7772 7.66C31.7772 7.41333 31.8639 7.20667 32.0372 7.04C32.2105 6.87333 32.4239 6.79 32.6772 6.79C32.8905 6.79 33.0672 6.86 33.2072 7C33.3472 7.13333 33.4172 7.30333 33.4172 7.51C33.4172 7.75667 33.3339 7.96333 33.1672 8.13C33.0005 8.29 32.7939 8.37 32.5472 8.37ZM34.2672 11.75L34.6872 12.22C34.0405 13.1533 33.2805 13.62 32.4072 13.62C31.9272 13.62 31.5905 13.48 31.3972 13.2C31.2039 12.9133 31.1539 12.47 31.2472 11.87L31.6972 9.08L33.0472 8.95L32.6072 11.69C32.5539 12.03 32.5572 12.2733 32.6172 12.42C32.6772 12.56 32.8105 12.63 33.0172 12.63C33.5105 12.6233 33.9272 12.33 34.2672 11.75ZM43.2355 11.75L43.6455 12.22C43.0188 13.1533 42.3021 13.62 41.4955 13.62C41.0955 13.62 40.8055 13.5033 40.6255 13.27C40.4521 13.03 40.4021 12.6833 40.4755 12.23L40.7355 10.68C40.8088 10.2 40.6688 9.96 40.3155 9.96C40.0288 9.96 39.6555 10.1267 39.1955 10.46L38.7155 13.5H37.3855L37.8355 10.68C37.9155 10.2 37.7788 9.96 37.4255 9.96C37.1321 9.96 36.7521 10.13 36.2855 10.47L35.8055 13.5H34.4755L35.1755 9.08L36.5255 8.95L36.4155 9.61C37.0688 9.17 37.6421 8.95 38.1355 8.95C38.7355 8.95 39.0921 9.19667 39.2055 9.69C39.9055 9.19667 40.5155 8.95 41.0355 8.95C41.4488 8.95 41.7488 9.07667 41.9355 9.33C42.1288 9.57667 42.1888 9.92667 42.1155 10.38L41.8555 11.95C41.7821 12.4033 41.8755 12.63 42.1355 12.63C42.3155 12.63 42.5055 12.55 42.7055 12.39C42.9055 12.23 43.0821 12.0167 43.2355 11.75ZM46.7923 11.75L47.2023 12.22C46.5689 13.1533 45.8056 13.62 44.9123 13.62C44.4123 13.62 44.0623 13.48 43.8623 13.2C43.6623 12.9133 43.6089 12.47 43.7023 11.87L44.5523 6.5L45.9023 6.38L45.0623 11.69C45.0089 12.0233 45.0156 12.2633 45.0823 12.41C45.1556 12.5567 45.3023 12.63 45.5223 12.63C45.7689 12.6233 46.0023 12.5433 46.2223 12.39C46.4489 12.23 46.6389 12.0167 46.7923 11.75ZM52.9489 11.75L53.3689 12.22C52.9156 12.94 52.3589 13.3467 51.6989 13.44C51.3189 13.5 50.9189 13.45 50.4989 13.29C50.1056 13.51 49.6589 13.62 49.1589 13.62C48.5456 13.62 48.0789 13.4633 47.7589 13.15C47.4389 12.83 47.2789 12.3633 47.2789 11.75C47.2922 10.9367 47.5456 10.27 48.0389 9.75C48.5389 9.22333 49.1856 8.96 49.9789 8.96C50.5922 8.96 51.0589 9.12 51.3789 9.44C51.7056 9.76 51.8689 10.2233 51.8689 10.83C51.8689 11.57 51.6622 12.1833 51.2489 12.67C51.4022 12.73 51.5622 12.75 51.7289 12.73C52.1689 12.6633 52.5756 12.3367 52.9489 11.75ZM49.2789 12.61C49.6322 12.6167 49.9289 12.4533 50.1689 12.12C50.4089 11.78 50.5289 11.3567 50.5289 10.85C50.5289 10.27 50.3089 9.98 49.8689 9.98C49.5089 9.98 49.2122 10.15 48.9789 10.49C48.7522 10.83 48.6356 11.25 48.6289 11.75C48.6222 12.3233 48.8389 12.61 49.2789 12.61ZM55.6827 13.62C54.9294 13.62 54.3627 13.44 53.9827 13.08C53.6094 12.7133 53.4294 12.1833 53.4427 11.49C53.4561 10.7367 53.6927 10.1267 54.1527 9.66C54.6127 9.18667 55.2061 8.95 55.9327 8.95C56.5661 8.95 57.0061 9.13 57.2527 9.49C57.5061 9.85 57.5094 10.3133 57.2627 10.88L56.2227 10.64C56.3094 10.4333 56.3161 10.2667 56.2427 10.14C56.1694 10.0067 56.0327 9.94 55.8327 9.94C55.5327 9.94 55.2827 10.0833 55.0827 10.37C54.8827 10.65 54.7827 11.0033 54.7827 11.43C54.7827 12.2833 55.2127 12.71 56.0727 12.71C56.9461 12.71 57.5994 12.39 58.0327 11.75L58.4427 12.22C57.8094 13.1533 56.8894 13.62 55.6827 13.62ZM63.663 11.75L64.083 12.22C63.4497 13.1533 62.7564 13.62 62.003 13.62C61.5697 13.62 61.2097 13.4433 60.923 13.09C60.643 12.7367 60.4497 12.2467 60.343 11.62C60.2497 11.6533 60.0864 11.6933 59.853 11.74L59.583 13.5H58.243L59.363 6.5L60.713 6.38L60.023 10.71C60.363 10.59 60.683 10.3867 60.983 10.1C61.283 9.80667 61.5297 9.46667 61.723 9.08H63.103C62.683 9.97333 62.1364 10.6433 61.463 11.09C61.6364 12.13 61.973 12.65 62.473 12.65C62.893 12.65 63.2897 12.35 63.663 11.75Z" fill="#C8C8C8"/>
<rect y="20" width="310" height="1" fill="#131312"/>
</svg>
