<svg width="310" height="21" viewBox="0 0 310 21" fill="none" xmlns="http://www.w3.org/2000/svg">
<path d="M0 6C0 2.68629 2.68629 0 6 0H304C307.314 0 310 2.68629 310 6V20H0V6Z" fill="#0F0F0F"/>
<path d="M26.0423 12.3H29.1123L28.9323 13.5H24.4823L25.5323 6.8L26.9123 6.68L26.0423 12.3ZM31.4534 8.37C31.2334 8.37 31.0501 8.30333 30.9034 8.17C30.7568 8.03667 30.6834 7.86667 30.6834 7.66C30.6834 7.41333 30.7701 7.20667 30.9434 7.04C31.1168 6.87333 31.3301 6.79 31.5834 6.79C31.7968 6.79 31.9734 6.86 32.1134 7C32.2534 7.13333 32.3234 7.30333 32.3234 7.51C32.3234 7.75667 32.2401 7.96333 32.0734 8.13C31.9068 8.29 31.7001 8.37 31.4534 8.37ZM33.1734 11.75L33.5934 12.22C32.9468 13.1533 32.1868 13.62 31.3134 13.62C30.8334 13.62 30.4968 13.48 30.3034 13.2C30.1101 12.9133 30.0601 12.47 30.1534 11.87L30.6034 9.08L31.9534 8.95L31.5134 11.69C31.4601 12.03 31.4634 12.2733 31.5234 12.42C31.5834 12.56 31.7168 12.63 31.9234 12.63C32.4168 12.6233 32.8334 12.33 33.1734 11.75ZM35.5417 13.62C35.0884 13.62 34.6951 13.5433 34.3617 13.39L34.5317 12.46C34.8451 12.6133 35.1351 12.69 35.4017 12.69C35.6751 12.69 35.8884 12.6267 36.0417 12.5C36.1951 12.3733 36.2717 12.1967 36.2717 11.97C36.2717 11.8033 36.2217 11.63 36.1217 11.45C36.0217 11.27 35.9084 11.11 35.7817 10.97C35.6617 10.83 35.5417 10.6467 35.4217 10.42C35.3017 10.1933 35.2284 9.95667 35.2017 9.71H35.1817C35.0751 9.92333 34.9084 10.33 34.6817 10.93C34.4551 11.53 34.2551 11.96 34.0817 12.22L33.6617 11.75C33.7817 11.5567 33.9684 11.1267 34.2217 10.46C34.4817 9.78667 34.7417 9.28333 35.0017 8.95L36.3617 8.81C36.3417 9.11 36.3717 9.38333 36.4517 9.63C36.5317 9.87667 36.6351 10.0867 36.7617 10.26C36.8951 10.4267 37.0284 10.59 37.1617 10.75C37.2951 10.91 37.4084 11.0933 37.5017 11.3C37.5951 11.5 37.6417 11.7167 37.6417 11.95C37.6417 12.25 37.5817 12.51 37.4617 12.73C38.0817 12.69 38.5851 12.3633 38.9717 11.75L39.3817 12.22C39.0351 12.72 38.6451 13.0633 38.2117 13.25C37.7851 13.4367 37.2484 13.5033 36.6017 13.45C36.3017 13.5633 35.9484 13.62 35.5417 13.62ZM42.5345 11.75L42.9445 12.22C42.3178 13.1533 41.5511 13.62 40.6445 13.62C40.1578 13.62 39.8111 13.48 39.6045 13.2C39.4045 12.92 39.3511 12.4767 39.4445 11.87L39.7545 9.91H39.1345L39.2645 9.08H39.8945L40.1345 7.57L41.4745 7.45L41.2145 9.08H42.1545L42.0245 9.91H41.0845L40.8045 11.7C40.7578 12.04 40.7678 12.28 40.8345 12.42C40.9078 12.56 41.0511 12.63 41.2645 12.63C41.7645 12.6167 42.1878 12.3233 42.5345 11.75ZM44.5411 13.62C44.0478 13.62 43.6678 13.47 43.4011 13.17C43.1411 12.8633 43.0111 12.42 43.0111 11.84C43.0111 10.98 43.2544 10.2833 43.7411 9.75C44.2278 9.21667 44.8744 8.95 45.6811 8.95C45.9544 8.95 46.2811 8.99333 46.6611 9.08L47.9411 8.95L47.4611 11.92C47.4211 12.1733 47.4211 12.3567 47.4611 12.47C47.5011 12.5767 47.5911 12.63 47.7311 12.63C47.9111 12.63 48.1044 12.55 48.3111 12.39C48.5244 12.2233 48.7044 12.01 48.8511 11.75L49.2611 12.22C48.6344 13.1533 47.9211 13.62 47.1211 13.62C46.5811 13.62 46.2644 13.38 46.1711 12.9C45.6844 13.38 45.1411 13.62 44.5411 13.62ZM45.0211 12.63C45.3878 12.63 45.7511 12.44 46.1111 12.06L46.4311 10.04C46.2511 10.0067 46.0478 9.99 45.8211 9.99C45.3611 9.99 45.0011 10.15 44.7411 10.47C44.4878 10.7833 44.3611 11.2167 44.3611 11.77C44.3611 12.3433 44.5811 12.63 45.0211 12.63ZM57.7322 11.75L58.1522 12.22C57.8522 12.6733 57.5155 13.02 57.1422 13.26C56.7689 13.5 56.3889 13.62 56.0022 13.62C55.4555 13.62 55.1389 13.38 55.0522 12.9C54.5722 13.38 54.0289 13.62 53.4222 13.62C52.4022 13.62 51.8922 13.0267 51.8922 11.84C51.8922 10.98 52.1322 10.2833 52.6122 9.75C53.0989 9.21667 53.7455 8.95 54.5522 8.95C54.8189 8.95 55.1255 8.98667 55.4722 9.06L55.8822 6.5L57.2322 6.38L56.3422 11.92C56.3022 12.1733 56.3022 12.3567 56.3422 12.47C56.3822 12.5767 56.4722 12.63 56.6122 12.63C56.7922 12.63 56.9855 12.55 57.1922 12.39C57.4055 12.2233 57.5855 12.01 57.7322 11.75ZM54.9822 12.08L55.3222 10C55.0755 9.96667 54.8755 9.95 54.7222 9.95C54.2555 9.95 53.8922 10.1167 53.6322 10.45C53.3722 10.7767 53.2422 11.22 53.2422 11.78C53.2422 12.08 53.2922 12.3 53.3922 12.44C53.4989 12.58 53.6655 12.65 53.8922 12.65C54.2589 12.65 54.6222 12.46 54.9822 12.08ZM62.8123 11.75L63.2323 12.22C62.5923 13.1533 61.6723 13.62 60.4723 13.62C59.7456 13.62 59.1856 13.44 58.7923 13.08C58.4056 12.72 58.2123 12.21 58.2123 11.55C58.2123 10.79 58.4423 10.1667 58.9023 9.68C59.3623 9.19333 59.9523 8.95 60.6723 8.95C61.1723 8.95 61.5689 9.07 61.8623 9.31C62.1623 9.54333 62.3089 9.86 62.3023 10.26C62.2956 10.7667 62.0623 11.1767 61.6023 11.49C61.1423 11.7967 60.5256 11.9567 59.7523 11.97C59.8256 12.1967 59.9623 12.3767 60.1623 12.51C60.3623 12.6433 60.6056 12.71 60.8923 12.71C61.7523 12.71 62.3923 12.39 62.8123 11.75ZM60.6123 9.93C60.3189 9.93 60.0756 10.0567 59.8823 10.31C59.6956 10.5567 59.5889 10.8833 59.5623 11.29C60.0423 11.29 60.4223 11.21 60.7023 11.05C60.9889 10.89 61.1356 10.6733 61.1423 10.4C61.1489 10.2467 61.1023 10.13 61.0023 10.05C60.9089 9.97 60.7789 9.93 60.6123 9.93ZM70.1429 13.5L69.9629 11.93H67.8029L66.9929 13.5H65.5129L69.0329 6.8L70.5229 6.67L71.6029 13.5H70.1429ZM68.3129 10.9H69.8629L69.6829 9.56L69.5829 8.35H69.5629L68.9929 9.6L68.3129 10.9ZM81.5519 11.75L81.9619 12.22C81.3352 13.1533 80.6185 13.62 79.8119 13.62C79.4119 13.62 79.1219 13.5033 78.9419 13.27C78.7685 13.03 78.7185 12.6833 78.7919 12.23L79.0519 10.68C79.1252 10.2 78.9852 9.96 78.6319 9.96C78.3452 9.96 77.9719 10.1267 77.5119 10.46L77.0319 13.5H75.7019L76.1519 10.68C76.2319 10.2 76.0952 9.96 75.7419 9.96C75.4485 9.96 75.0685 10.13 74.6019 10.47L74.1219 13.5H72.7919L73.4919 9.08L74.8419 8.95L74.7319 9.61C75.3852 9.17 75.9585 8.95 76.4519 8.95C77.0519 8.95 77.4085 9.19667 77.5219 9.69C78.2219 9.19667 78.8319 8.95 79.3519 8.95C79.7652 8.95 80.0652 9.07667 80.2519 9.33C80.4452 9.57667 80.5052 9.92667 80.4319 10.38L80.1719 11.95C80.0985 12.4033 80.1919 12.63 80.4519 12.63C80.6319 12.63 80.8219 12.55 81.0219 12.39C81.2219 12.23 81.3985 12.0167 81.5519 11.75ZM83.3187 8.37C83.0987 8.37 82.9153 8.30333 82.7687 8.17C82.622 8.03667 82.5487 7.86667 82.5487 7.66C82.5487 7.41333 82.6353 7.20667 82.8087 7.04C82.982 6.87333 83.1953 6.79 83.4487 6.79C83.662 6.79 83.8387 6.86 83.9787 7C84.1187 7.13333 84.1887 7.30333 84.1887 7.51C84.1887 7.75667 84.1053 7.96333 83.9387 8.13C83.772 8.29 83.5653 8.37 83.3187 8.37ZM85.0387 11.75L85.4587 12.22C84.812 13.1533 84.052 13.62 83.1787 13.62C82.6987 13.62 82.362 13.48 82.1687 13.2C81.9753 12.9133 81.9253 12.47 82.0187 11.87L82.4687 9.08L83.8187 8.95L83.3787 11.69C83.3253 12.03 83.3287 12.2733 83.3887 12.42C83.4487 12.56 83.582 12.63 83.7887 12.63C84.282 12.6233 84.6987 12.33 85.0387 11.75ZM87.097 15.59C86.4836 15.59 85.9836 15.5 85.597 15.32L85.747 14.33C86.1536 14.5367 86.5936 14.6367 87.067 14.63C87.427 14.6233 87.7103 14.53 87.917 14.35C88.1236 14.1767 88.2703 13.8933 88.357 13.5C88.3903 13.4 88.4236 13.26 88.457 13.08C88.057 13.44 87.5936 13.62 87.067 13.62C86.0403 13.62 85.527 13.0267 85.527 11.84C85.527 10.9733 85.767 10.2767 86.247 9.75C86.7336 9.21667 87.3836 8.95 88.197 8.95C88.4636 8.95 88.7903 8.99333 89.177 9.08L90.457 8.95L89.797 13.02C90.457 12.7733 90.9703 12.35 91.337 11.75L91.747 12.22C91.4803 12.62 91.1836 12.95 90.857 13.21C90.5303 13.4633 90.117 13.6767 89.617 13.85C89.2303 15.01 88.3903 15.59 87.097 15.59ZM87.527 12.66C87.9003 12.66 88.267 12.4467 88.627 12.02L88.957 10C88.7103 9.96667 88.507 9.95 88.347 9.95C87.887 9.95 87.527 10.1167 87.267 10.45C87.007 10.7767 86.877 11.22 86.877 11.78C86.877 12.0867 86.927 12.31 87.027 12.45C87.1336 12.59 87.3003 12.66 87.527 12.66ZM97.4977 11.75L97.9177 12.22C97.4644 12.94 96.9077 13.3467 96.2477 13.44C95.8677 13.5 95.4677 13.45 95.0477 13.29C94.6544 13.51 94.2077 13.62 93.7077 13.62C93.0944 13.62 92.6277 13.4633 92.3077 13.15C91.9877 12.83 91.8277 12.3633 91.8277 11.75C91.8411 10.9367 92.0944 10.27 92.5877 9.75C93.0877 9.22333 93.7344 8.96 94.5277 8.96C95.1411 8.96 95.6077 9.12 95.9277 9.44C96.2544 9.76 96.4177 10.2233 96.4177 10.83C96.4177 11.57 96.2111 12.1833 95.7977 12.67C95.9511 12.73 96.1111 12.75 96.2777 12.73C96.7177 12.6633 97.1244 12.3367 97.4977 11.75ZM93.8277 12.61C94.1811 12.6167 94.4777 12.4533 94.7177 12.12C94.9577 11.78 95.0777 11.3567 95.0777 10.85C95.0777 10.27 94.8577 9.98 94.4177 9.98C94.0577 9.98 93.7611 10.15 93.5277 10.49C93.3011 10.83 93.1844 11.25 93.1777 11.75C93.1711 12.3233 93.3877 12.61 93.8277 12.61ZM99.8816 13.62C99.4282 13.62 99.0349 13.5433 98.7016 13.39L98.8716 12.46C99.1849 12.6133 99.4749 12.69 99.7416 12.69C100.015 12.69 100.228 12.6267 100.382 12.5C100.535 12.3733 100.612 12.1967 100.612 11.97C100.612 11.8033 100.562 11.63 100.462 11.45C100.362 11.27 100.248 11.11 100.122 10.97C100.002 10.83 99.8816 10.6467 99.7616 10.42C99.6416 10.1933 99.5682 9.95667 99.5416 9.71H99.5216C99.4149 9.92333 99.2482 10.33 99.0216 10.93C98.7949 11.53 98.5949 11.96 98.4216 12.22L98.0016 11.75C98.1216 11.5567 98.3082 11.1267 98.5616 10.46C98.8216 9.78667 99.0816 9.28333 99.3416 8.95L100.702 8.81C100.682 9.11 100.712 9.38333 100.792 9.63C100.872 9.87667 100.975 10.0867 101.102 10.26C101.235 10.4267 101.368 10.59 101.502 10.75C101.635 10.91 101.748 11.0933 101.842 11.3C101.935 11.5 101.982 11.7167 101.982 11.95C101.982 12.25 101.922 12.51 101.802 12.73C102.422 12.69 102.925 12.3633 103.312 11.75L103.722 12.22C103.375 12.72 102.985 13.0633 102.552 13.25C102.125 13.4367 101.588 13.5033 100.942 13.45C100.642 13.5633 100.288 13.62 99.8816 13.62Z" fill="#C8C8C8"/>
<rect y="20" width="310" height="1" fill="#131312"/>
</svg>
