<svg width="75" height="10" viewBox="0 0 75 10" fill="none" xmlns="http://www.w3.org/2000/svg">
<path d="M2.06586 7.36477C1.7952 7.36477 1.53853 7.31344 1.29586 7.21077C1.06253 7.10811 0.857197 6.97277 0.679863 6.80477C0.511863 6.62744 0.37653 6.42211 0.273863 6.18877C0.171197 5.94611 0.119863 5.68944 0.119863 5.41877C0.119863 5.14811 0.171197 4.89611 0.273863 4.66277C0.37653 4.42011 0.511863 4.21477 0.679863 4.04677C0.857197 3.86944 1.06253 3.72944 1.29586 3.62677C1.53853 3.52411 1.7952 3.47277 2.06586 3.47277C2.33653 3.47277 2.58853 3.52411 2.82186 3.62677C3.06453 3.72944 3.26986 3.86944 3.43786 4.04677C3.6152 4.21477 3.7552 4.42011 3.85786 4.66277C3.96053 4.89611 4.01186 5.14811 4.01186 5.41877C4.01186 5.68944 3.96053 5.94611 3.85786 6.18877C3.7552 6.42211 3.6152 6.62744 3.43786 6.80477C3.26986 6.97277 3.06453 7.10811 2.82186 7.21077C2.58853 7.31344 2.33653 7.36477 2.06586 7.36477ZM13.0212 0.952773C13.0212 0.728774 13.0865 0.55144 13.2172 0.420774C13.3479 0.280774 13.5299 0.210774 13.7632 0.210774H16.7032C17.7019 0.210774 18.4439 0.444107 18.9292 0.910773C19.4239 1.36811 19.6712 1.97477 19.6712 2.73077C19.6712 3.23477 19.5685 3.65477 19.3632 3.99077C19.1672 4.32677 18.9012 4.58344 18.5652 4.76077V4.78877C18.9199 4.92877 19.2185 5.19011 19.4612 5.57277C19.7132 5.95544 19.8392 6.42677 19.8392 6.98677C19.8392 7.89211 19.5545 8.57811 18.9852 9.04477C18.4252 9.50211 17.6459 9.73077 16.6472 9.73077H13.7632C13.5299 9.73077 13.3479 9.66544 13.2172 9.53477C13.0865 9.40411 13.0212 9.22677 13.0212 9.00277V0.952773ZM16.6612 4.17277C17.0812 4.17277 17.4125 4.06077 17.6552 3.83677C17.8979 3.60344 18.0192 3.30011 18.0192 2.92677C18.0192 2.54411 17.8979 2.24077 17.6552 2.01677C17.4125 1.78344 17.0812 1.66677 16.6612 1.66677H14.7572C14.7012 1.66677 14.6732 1.69477 14.6732 1.75077V4.08877C14.6732 4.14477 14.7012 4.17277 14.7572 4.17277H16.6612ZM14.6732 8.19077C14.6732 8.24677 14.7012 8.27477 14.7572 8.27477H16.7452C17.2119 8.27477 17.5665 8.15344 17.8092 7.91077C18.0612 7.66811 18.1872 7.34611 18.1872 6.94477C18.1872 6.55277 18.0612 6.23544 17.8092 5.99277C17.5665 5.75011 17.2119 5.62877 16.7452 5.62877H14.7572C14.7012 5.62877 14.6732 5.65677 14.6732 5.71277V8.19077ZM21.3431 1.02277C21.3431 0.76144 21.4318 0.542107 21.6091 0.364774C21.7958 0.178107 22.0198 0.0847738 22.2811 0.0847738C22.5424 0.0847738 22.7618 0.178107 22.9391 0.364774C23.1258 0.542107 23.2191 0.76144 23.2191 1.02277C23.2191 1.28411 23.1258 1.50811 22.9391 1.69477C22.7618 1.87211 22.5424 1.96077 22.2811 1.96077C22.0198 1.96077 21.7958 1.87211 21.6091 1.69477C21.4318 1.50811 21.3431 1.28411 21.3431 1.02277ZM22.2811 9.80077C22.0478 9.80077 21.8564 9.73077 21.7071 9.59077C21.5671 9.44144 21.4971 9.23611 21.4971 8.97477V3.73877C21.4971 3.47744 21.5671 3.27677 21.7071 3.13677C21.8564 2.98744 22.0478 2.91277 22.2811 2.91277C22.5144 2.91277 22.7011 2.98744 22.8411 3.13677C22.9904 3.27677 23.0651 3.47744 23.0651 3.73877V8.97477C23.0651 9.23611 22.9904 9.44144 22.8411 9.59077C22.7011 9.73077 22.5144 9.80077 22.2811 9.80077ZM26.6885 3.61277C26.8658 3.37011 27.1038 3.17877 27.4025 3.03877C27.7105 2.89877 28.0651 2.82877 28.4665 2.82877C28.8305 2.82877 29.1525 2.89411 29.4325 3.02477C29.7218 3.14611 29.9691 3.31877 30.1745 3.54277C30.3798 3.76677 30.5338 4.03277 30.6365 4.34077C30.7485 4.63944 30.8045 4.97077 30.8045 5.33477V8.97477C30.8045 9.23611 30.7298 9.44144 30.5805 9.59077C30.4405 9.73077 30.2538 9.80077 30.0205 9.80077C29.7871 9.80077 29.5958 9.73077 29.4465 9.59077C29.3065 9.44144 29.2365 9.23611 29.2365 8.97477V5.69877C29.2365 5.26011 29.1291 4.90544 28.9145 4.63477C28.7091 4.36411 28.3918 4.22877 27.9625 4.22877C27.5425 4.22877 27.2205 4.36411 26.9965 4.63477C26.7818 4.90544 26.6745 5.26011 26.6745 5.69877V8.97477C26.6745 9.23611 26.5998 9.44144 26.4505 9.59077C26.3105 9.73077 26.1238 9.80077 25.8905 9.80077C25.6571 9.80077 25.4658 9.73077 25.3165 9.59077C25.1765 9.44144 25.1065 9.23611 25.1065 8.97477V3.73877C25.1065 3.47744 25.1765 3.27677 25.3165 3.13677C25.4658 2.98744 25.6571 2.91277 25.8905 2.91277C26.1238 2.91277 26.3011 2.97811 26.4225 3.10877C26.5531 3.23944 26.6371 3.40744 26.6745 3.61277H26.6885ZM37.5784 0.140773C37.8117 0.140773 37.9984 0.21544 38.1384 0.364774C38.2877 0.504773 38.3624 0.70544 38.3624 0.966773V8.97477C38.3624 9.23611 38.2877 9.44144 38.1384 9.59077C37.9984 9.73077 37.8117 9.80077 37.5784 9.80077C37.3451 9.80077 37.1631 9.73544 37.0324 9.60477C36.9111 9.47411 36.8317 9.30144 36.7944 9.08677H36.7804C36.6217 9.32011 36.3977 9.51144 36.1084 9.66077C35.8191 9.81011 35.4364 9.88477 34.9604 9.88477C34.4004 9.88477 33.9197 9.73544 33.5184 9.43677C33.1171 9.12877 32.8277 8.70877 32.6504 8.17677C32.5664 7.91544 32.5057 7.64477 32.4684 7.36477C32.4311 7.07544 32.4124 6.73944 32.4124 6.35677C32.4124 5.97411 32.4311 5.64277 32.4684 5.36277C32.5057 5.07344 32.5664 4.79811 32.6504 4.53677C32.8277 4.00477 33.1171 3.58944 33.5184 3.29077C33.9197 2.98277 34.4004 2.82877 34.9604 2.82877C35.4364 2.82877 35.8191 2.90811 36.1084 3.06677C36.4071 3.22544 36.6311 3.41211 36.7804 3.62677H36.7944V0.966773C36.7944 0.70544 36.8644 0.504773 37.0044 0.364774C37.1537 0.21544 37.3451 0.140773 37.5784 0.140773ZM35.3944 4.22877C35.0957 4.22877 34.8391 4.29877 34.6244 4.43877C34.4097 4.56944 34.2511 4.79811 34.1484 5.12477C34.0551 5.40477 34.0084 5.81544 34.0084 6.35677C34.0084 6.89811 34.0551 7.30877 34.1484 7.58877C34.2511 7.91544 34.4097 8.14877 34.6244 8.28877C34.8391 8.41944 35.0957 8.48477 35.3944 8.48477C35.6931 8.48477 35.9497 8.41944 36.1644 8.28877C36.3884 8.14877 36.5517 7.91544 36.6544 7.58877C36.7477 7.30877 36.7944 6.89811 36.7944 6.35677C36.7944 5.81544 36.7477 5.40477 36.6544 5.12477C36.5517 4.79811 36.3884 4.56944 36.1644 4.43877C35.9497 4.29877 35.6931 4.22877 35.3944 4.22877ZM42.8833 9.88477C42.3606 9.88477 41.8893 9.81944 41.4693 9.68877C41.0493 9.54877 40.6993 9.38544 40.4193 9.19877C40.1673 9.04011 40.0413 8.83011 40.0413 8.56877C40.0413 8.38211 40.1066 8.21877 40.2373 8.07877C40.368 7.92944 40.5406 7.85477 40.7553 7.85477C40.9046 7.85477 41.068 7.90611 41.2453 8.00877C41.5066 8.16744 41.768 8.29811 42.0293 8.40077C42.3 8.50344 42.6126 8.55477 42.9673 8.55477C43.3593 8.55477 43.6626 8.48477 43.8773 8.34477C44.1013 8.20477 44.2133 8.00877 44.2133 7.75677C44.2133 7.55144 44.134 7.38811 43.9753 7.26677C43.826 7.14544 43.532 7.06144 43.0933 7.01477L42.3653 6.94477C41.6653 6.87011 41.1426 6.66477 40.7973 6.32877C40.4613 5.99277 40.2933 5.53544 40.2933 4.95677C40.2933 4.31277 40.5173 3.79944 40.9653 3.41677C41.4133 3.02477 42.062 2.82877 42.9113 2.82877C43.3033 2.82877 43.672 2.87544 44.0173 2.96877C44.372 3.06211 44.6846 3.18344 44.9553 3.33277C45.114 3.41677 45.2306 3.51011 45.3053 3.61277C45.3893 3.71544 45.4313 3.83677 45.4313 3.97677C45.4313 4.17277 45.3706 4.33611 45.2493 4.46677C45.128 4.59744 44.9693 4.66277 44.7733 4.66277C44.6426 4.66277 44.4793 4.61144 44.2833 4.50877C44.0686 4.40611 43.8353 4.32211 43.5833 4.25677C43.3313 4.18211 43.0793 4.14477 42.8273 4.14477C42.4726 4.14477 42.2113 4.21477 42.0433 4.35477C41.8846 4.48544 41.8053 4.64877 41.8053 4.84477C41.8053 5.04077 41.88 5.19944 42.0293 5.32077C42.188 5.43277 42.482 5.51211 42.9113 5.55877L43.6393 5.62877C44.358 5.70344 44.8853 5.91344 45.2213 6.25877C45.5573 6.60411 45.7253 7.05677 45.7253 7.61677C45.7253 8.28877 45.4826 8.83477 44.9973 9.25477C44.512 9.67477 43.8073 9.88477 42.8833 9.88477ZM50.7556 1.00877C50.7556 0.738107 50.8302 0.528107 50.9796 0.378773C51.1382 0.220106 51.3389 0.140773 51.5816 0.140773C51.8242 0.140773 52.0202 0.220106 52.1696 0.378773C52.3282 0.528107 52.4076 0.738107 52.4076 1.00877V8.16277C52.4076 8.21877 52.4356 8.24677 52.4916 8.24677H56.2436C56.5049 8.24677 56.7102 8.31677 56.8596 8.45677C57.0089 8.59677 57.0836 8.77411 57.0836 8.98877C57.0836 9.20344 57.0089 9.38077 56.8596 9.52077C56.7102 9.66077 56.5049 9.73077 56.2436 9.73077H51.5816C51.3296 9.73077 51.1289 9.65611 50.9796 9.50677C50.8302 9.35744 50.7556 9.15677 50.7556 8.90477V1.00877ZM58.1045 4.97077C58.1045 4.62544 58.1091 4.32677 58.1185 4.07477C58.1278 3.82277 58.1418 3.59877 58.1605 3.40277C58.1791 3.19744 58.2071 3.01077 58.2445 2.84277C58.2818 2.67477 58.3285 2.50677 58.3845 2.33877C58.6271 1.58277 59.0378 1.01344 59.6165 0.630773C60.1951 0.248107 60.8951 0.0567733 61.7165 0.0567733C62.5471 0.0567733 63.2518 0.248107 63.8305 0.630773C64.4091 1.01344 64.8198 1.58277 65.0625 2.33877C65.1185 2.50677 65.1651 2.67477 65.2025 2.84277C65.2398 3.01077 65.2678 3.19744 65.2865 3.40277C65.3051 3.59877 65.3191 3.82277 65.3285 4.07477C65.3378 4.32677 65.3425 4.62544 65.3425 4.97077C65.3425 5.31611 65.3378 5.61477 65.3285 5.86677C65.3191 6.11877 65.3051 6.34744 65.2865 6.55277C65.2678 6.74877 65.2398 6.93077 65.2025 7.09877C65.1651 7.26677 65.1185 7.43477 65.0625 7.60277C64.8198 8.35877 64.4091 8.92811 63.8305 9.31077C63.2518 9.69344 62.5471 9.88477 61.7165 9.88477C60.8951 9.88477 60.1951 9.69344 59.6165 9.31077C59.0378 8.92811 58.6271 8.35877 58.3845 7.60277C58.3285 7.43477 58.2818 7.26677 58.2445 7.09877C58.2071 6.93077 58.1791 6.74877 58.1605 6.55277C58.1418 6.34744 58.1278 6.11877 58.1185 5.86677C58.1091 5.61477 58.1045 5.31611 58.1045 4.97077ZM63.6625 4.97077C63.6625 4.65344 63.6578 4.38277 63.6485 4.15877C63.6391 3.92544 63.6251 3.72477 63.6065 3.55677C63.5971 3.38877 63.5785 3.24411 63.5505 3.12277C63.5318 3.00144 63.5038 2.88944 63.4665 2.78677C63.3358 2.39477 63.1305 2.09144 62.8505 1.87677C62.5705 1.65277 62.1925 1.54077 61.7165 1.54077C61.2498 1.54077 60.8765 1.65277 60.5965 1.87677C60.3165 2.09144 60.1111 2.39477 59.9805 2.78677C59.9431 2.88944 59.9105 3.00144 59.8825 3.12277C59.8638 3.24411 59.8451 3.38877 59.8265 3.55677C59.8171 3.72477 59.8078 3.92544 59.7985 4.15877C59.7891 4.38277 59.7845 4.65344 59.7845 4.97077C59.7845 5.28811 59.7891 5.56344 59.7985 5.79677C59.8078 6.02077 59.8171 6.21677 59.8265 6.38477C59.8451 6.55277 59.8638 6.69744 59.8825 6.81877C59.9105 6.94011 59.9431 7.05211 59.9805 7.15477C60.1111 7.54677 60.3165 7.85477 60.5965 8.07877C60.8765 8.29344 61.2498 8.40077 61.7165 8.40077C62.1925 8.40077 62.5705 8.29344 62.8505 8.07877C63.1305 7.85477 63.3358 7.54677 63.4665 7.15477C63.5038 7.05211 63.5318 6.94011 63.5505 6.81877C63.5785 6.69744 63.5971 6.55277 63.6065 6.38477C63.6251 6.21677 63.6391 6.02077 63.6485 5.79677C63.6578 5.56344 63.6625 5.28811 63.6625 4.97077ZM67.1478 7.60277C67.0918 7.43477 67.0451 7.26677 67.0078 7.09877C66.9798 6.93077 66.9565 6.74877 66.9378 6.55277C66.9191 6.34744 66.9051 6.11877 66.8958 5.86677C66.8865 5.61477 66.8818 5.31611 66.8818 4.97077C66.8818 4.62544 66.8865 4.32677 66.8958 4.07477C66.9051 3.82277 66.9191 3.59877 66.9378 3.40277C66.9565 3.19744 66.9798 3.01077 67.0078 2.84277C67.0451 2.67477 67.0918 2.50677 67.1478 2.33877C67.3905 1.58277 67.8011 1.01344 68.3798 0.630773C68.9678 0.248107 69.6818 0.0567733 70.5218 0.0567733C71.2685 0.0567733 71.8985 0.20144 72.4118 0.490774C72.9345 0.770773 73.3172 1.13477 73.5598 1.58277C73.6532 1.75077 73.6998 1.91411 73.6998 2.07277C73.6998 2.28744 73.6252 2.46477 73.4758 2.60477C73.3358 2.74477 73.1585 2.81477 72.9438 2.81477C72.8038 2.81477 72.6731 2.78677 72.5518 2.73077C72.4398 2.66544 72.3278 2.55344 72.2158 2.39477C71.8331 1.82544 71.2685 1.54077 70.5218 1.54077C70.0365 1.54077 69.6491 1.65277 69.3598 1.87677C69.0798 2.10077 68.8745 2.40877 68.7438 2.80077C68.7158 2.90344 68.6878 3.01544 68.6598 3.13677C68.6411 3.24877 68.6225 3.38877 68.6038 3.55677C68.5945 3.72477 68.5851 3.92544 68.5758 4.15877C68.5665 4.38277 68.5618 4.65344 68.5618 4.97077C68.5618 5.28811 68.5665 5.56344 68.5758 5.79677C68.5851 6.02077 68.5945 6.21677 68.6038 6.38477C68.6225 6.55277 68.6411 6.69744 68.6598 6.81877C68.6878 6.93077 68.7158 7.03811 68.7438 7.14077C68.8745 7.53277 69.0845 7.84077 69.3738 8.06477C69.6631 8.28877 70.0505 8.40077 70.5358 8.40077C70.9838 8.40077 71.3618 8.29811 71.6698 8.09277C71.9778 7.88744 72.1971 7.58877 72.3278 7.19677C72.3838 7.02877 72.4212 6.83744 72.4398 6.62277C72.4678 6.40811 72.4818 6.19344 72.4818 5.97877C72.4818 5.92277 72.4538 5.89477 72.3978 5.89477H71.3058C71.0818 5.89477 70.9045 5.82944 70.7738 5.69877C70.6431 5.56811 70.5778 5.40011 70.5778 5.19477C70.5778 4.98944 70.6431 4.82144 70.7738 4.69077C70.9045 4.56011 71.0818 4.49477 71.3058 4.49477H73.4478C73.6625 4.49477 73.8258 4.55544 73.9378 4.67677C74.0592 4.78877 74.1198 4.95211 74.1198 5.16677V5.43277C74.1198 5.82477 74.1012 6.20744 74.0638 6.58077C74.0265 6.95411 73.9611 7.27611 73.8678 7.54677C73.6251 8.30277 73.2145 8.88144 72.6358 9.28277C72.0571 9.68411 71.3525 9.88477 70.5218 9.88477C69.6818 9.88477 68.9678 9.69344 68.3798 9.31077C67.8011 8.92811 67.3905 8.35877 67.1478 7.60277Z" fill="white"/>
</svg>
