<svg width="99" height="13" viewBox="0 0 99 13" fill="none" xmlns="http://www.w3.org/2000/svg">
<path d="M2.06586 7.91861C1.7952 7.91861 1.53853 7.86727 1.29586 7.76461C1.06253 7.66194 0.857197 7.52661 0.679863 7.35861C0.511863 7.18127 0.37653 6.97594 0.273863 6.74261C0.171197 6.49994 0.119863 6.24327 0.119863 5.97261C0.119863 5.70194 0.171197 5.44994 0.273863 5.21661C0.37653 4.97394 0.511863 4.76861 0.679863 4.60061C0.857197 4.42327 1.06253 4.28327 1.29586 4.18061C1.53853 4.07794 1.7952 4.02661 2.06586 4.02661C2.33653 4.02661 2.58853 4.07794 2.82186 4.18061C3.06453 4.28327 3.26986 4.42327 3.43786 4.60061C3.6152 4.76861 3.7552 4.97394 3.85786 5.21661C3.96053 5.44994 4.01186 5.70194 4.01186 5.97261C4.01186 6.24327 3.96053 6.49994 3.85786 6.74261C3.7552 6.97594 3.6152 7.18127 3.43786 7.35861C3.26986 7.52661 3.06453 7.66194 2.82186 7.76461C2.58853 7.86727 2.33653 7.91861 2.06586 7.91861ZM13.0072 8.14261C12.9605 7.97461 12.9185 7.81127 12.8812 7.65261C12.8439 7.49394 12.8159 7.31661 12.7972 7.12061C12.7785 6.92461 12.7645 6.70061 12.7552 6.44861C12.7459 6.18727 12.7412 5.87927 12.7412 5.52461C12.7412 5.16994 12.7459 4.86661 12.7552 4.61461C12.7645 4.35327 12.7785 4.12461 12.7972 3.92861C12.8159 3.73261 12.8439 3.55527 12.8812 3.39661C12.9185 3.23794 12.9605 3.07461 13.0072 2.90661C13.2499 2.15061 13.6559 1.58127 14.2252 1.19861C14.7945 0.806606 15.4899 0.610606 16.3112 0.610606C16.9832 0.610606 17.5665 0.750606 18.0612 1.03061C18.5652 1.31061 18.9385 1.68861 19.1812 2.16461C19.2745 2.33261 19.3212 2.49594 19.3212 2.65461C19.3212 2.86927 19.2465 3.04661 19.0972 3.18661C18.9572 3.32661 18.7799 3.39661 18.5652 3.39661C18.4252 3.39661 18.2945 3.36394 18.1732 3.29861C18.0612 3.22394 17.9492 3.10727 17.8372 2.94861C17.6505 2.65927 17.4359 2.44461 17.1932 2.30461C16.9599 2.16461 16.6659 2.09461 16.3112 2.09461C15.8539 2.09461 15.4852 2.20661 15.2052 2.43061C14.9345 2.64527 14.7339 2.94861 14.6032 3.34061C14.5752 3.44327 14.5472 3.55061 14.5192 3.66261C14.5005 3.77461 14.4819 3.91461 14.4632 4.08261C14.4539 4.24127 14.4445 4.43727 14.4352 4.67061C14.4259 4.90394 14.4212 5.18861 14.4212 5.52461C14.4212 5.86061 14.4259 6.14527 14.4352 6.37861C14.4445 6.61194 14.4539 6.81261 14.4632 6.98061C14.4819 7.13927 14.5005 7.27461 14.5192 7.38661C14.5472 7.49861 14.5752 7.60594 14.6032 7.70861C14.7339 8.10061 14.9345 8.40861 15.2052 8.63261C15.4852 8.84727 15.8539 8.95461 16.3112 8.95461C16.6659 8.95461 16.9599 8.88461 17.1932 8.74461C17.4359 8.60461 17.6505 8.38994 17.8372 8.10061C17.9492 7.94194 18.0612 7.82994 18.1732 7.76461C18.2945 7.68994 18.4252 7.65261 18.5652 7.65261C18.7799 7.65261 18.9572 7.72261 19.0972 7.86261C19.2465 8.00261 19.3212 8.18461 19.3212 8.40861C19.3212 8.55794 19.2745 8.71661 19.1812 8.88461C18.9385 9.36061 18.5652 9.73861 18.0612 10.0186C17.5665 10.2986 16.9832 10.4386 16.3112 10.4386C15.4899 10.4386 14.7945 10.2473 14.2252 9.86461C13.6559 9.47261 13.2499 8.89861 13.0072 8.14261ZM23.5826 10.4386C22.8919 10.4386 22.2992 10.2753 21.8046 9.94861C21.3192 9.62194 20.9832 9.16461 20.7966 8.57661C20.7219 8.33394 20.6659 8.09127 20.6286 7.84861C20.5912 7.59661 20.5726 7.28394 20.5726 6.91061C20.5726 6.53727 20.5912 6.22927 20.6286 5.98661C20.6659 5.73461 20.7219 5.48727 20.7966 5.24461C20.9832 4.65661 21.3192 4.19927 21.8046 3.87261C22.2992 3.54594 22.8919 3.38261 23.5826 3.38261C24.2639 3.38261 24.8472 3.54594 25.3326 3.87261C25.8272 4.19927 26.1679 4.65661 26.3546 5.24461C26.4292 5.48727 26.4852 5.73461 26.5226 5.98661C26.5599 6.22927 26.5786 6.53727 26.5786 6.91061C26.5786 7.28394 26.5599 7.59661 26.5226 7.84861C26.4852 8.09127 26.4292 8.33394 26.3546 8.57661C26.1679 9.16461 25.8272 9.62194 25.3326 9.94861C24.8472 10.2753 24.2639 10.4386 23.5826 10.4386ZM23.5826 9.03861C23.8999 9.03861 24.1612 8.96394 24.3666 8.81461C24.5812 8.65594 24.7399 8.43661 24.8426 8.15661C24.8986 7.97927 24.9359 7.80194 24.9546 7.62461C24.9732 7.43794 24.9826 7.19994 24.9826 6.91061C24.9826 6.62127 24.9732 6.38794 24.9546 6.21061C24.9359 6.03327 24.8986 5.85127 24.8426 5.66461C24.7399 5.38461 24.5812 5.16994 24.3666 5.02061C24.1612 4.86194 23.8999 4.78261 23.5826 4.78261C23.2652 4.78261 22.9992 4.86194 22.7846 5.02061C22.5699 5.16994 22.4112 5.38461 22.3086 5.66461C22.2526 5.85127 22.2152 6.03327 22.1966 6.21061C22.1779 6.38794 22.1686 6.62127 22.1686 6.91061C22.1686 7.19994 22.1779 7.43794 22.1966 7.62461C22.2152 7.80194 22.2526 7.97927 22.3086 8.15661C22.4112 8.43661 22.5699 8.65594 22.7846 8.81461C22.9992 8.96394 23.2652 9.03861 23.5826 9.03861ZM29.8467 4.16661C30.024 3.92394 30.262 3.73261 30.5607 3.59261C30.8687 3.45261 31.2233 3.38261 31.6247 3.38261C31.9887 3.38261 32.3107 3.44794 32.5907 3.57861C32.88 3.69994 33.1273 3.87261 33.3327 4.09661C33.538 4.32061 33.692 4.58661 33.7947 4.89461C33.9067 5.19327 33.9627 5.52461 33.9627 5.88861V9.52861C33.9627 9.78994 33.888 9.99527 33.7387 10.1446C33.5987 10.2846 33.412 10.3546 33.1787 10.3546C32.9453 10.3546 32.754 10.2846 32.6047 10.1446C32.4647 9.99527 32.3947 9.78994 32.3947 9.52861V6.25261C32.3947 5.81394 32.2873 5.45927 32.0727 5.18861C31.8673 4.91794 31.55 4.78261 31.1207 4.78261C30.7007 4.78261 30.3787 4.91794 30.1547 5.18861C29.94 5.45927 29.8327 5.81394 29.8327 6.25261V9.52861C29.8327 9.78994 29.758 9.99527 29.6087 10.1446C29.4687 10.2846 29.282 10.3546 29.0487 10.3546C28.8153 10.3546 28.624 10.2846 28.4747 10.1446C28.3347 9.99527 28.2647 9.78994 28.2647 9.52861V4.29261C28.2647 4.03127 28.3347 3.83061 28.4747 3.69061C28.624 3.54127 28.8153 3.46661 29.0487 3.46661C29.282 3.46661 29.4593 3.53194 29.5807 3.66261C29.7113 3.79327 29.7953 3.96127 29.8327 4.16661H29.8467ZM38.4406 0.764607C38.6833 0.764607 38.8746 0.82994 39.0146 0.960607C39.1639 1.08194 39.2386 1.24994 39.2386 1.46461C39.2386 1.66994 39.1733 1.83794 39.0426 1.96861C38.9119 2.09927 38.7393 2.16461 38.5246 2.16461C38.1979 2.16461 37.9786 2.22061 37.8666 2.33261C37.7639 2.44461 37.7126 2.65927 37.7126 2.97661V3.45261C37.7126 3.50861 37.7406 3.53661 37.7966 3.53661H38.5666C38.7626 3.53661 38.9166 3.59261 39.0286 3.70461C39.1499 3.81661 39.2106 3.96594 39.2106 4.15261C39.2106 4.33927 39.1499 4.48861 39.0286 4.60061C38.9166 4.70327 38.7626 4.75461 38.5666 4.75461H37.7966C37.7406 4.75461 37.7126 4.78261 37.7126 4.83861V9.52861C37.7126 9.78994 37.6379 9.99527 37.4886 10.1446C37.3393 10.2846 37.1526 10.3546 36.9286 10.3546C36.6953 10.3546 36.5039 10.2846 36.3546 10.1446C36.2146 9.99527 36.1446 9.78994 36.1446 9.52861V4.83861C36.1446 4.78261 36.1119 4.75461 36.0466 4.75461H35.8226C35.6266 4.75461 35.4679 4.70327 35.3466 4.60061C35.2346 4.48861 35.1786 4.33927 35.1786 4.15261C35.1786 3.96594 35.2346 3.81661 35.3466 3.70461C35.4679 3.59261 35.6266 3.53661 35.8226 3.53661H36.0466C36.1119 3.53661 36.1446 3.50861 36.1446 3.45261V3.00461C36.1446 2.18327 36.3219 1.60461 36.6766 1.26861C37.0406 0.932607 37.6099 0.764607 38.3846 0.764607H38.4406ZM40.3866 1.57661C40.3866 1.31527 40.4753 1.09594 40.6526 0.918607C40.8393 0.73194 41.0633 0.638607 41.3246 0.638607C41.5859 0.638607 41.8053 0.73194 41.9826 0.918607C42.1693 1.09594 42.2626 1.31527 42.2626 1.57661C42.2626 1.83794 42.1693 2.06194 41.9826 2.24861C41.8053 2.42594 41.5859 2.51461 41.3246 2.51461C41.0633 2.51461 40.8393 2.42594 40.6526 2.24861C40.4753 2.06194 40.3866 1.83794 40.3866 1.57661ZM41.3246 10.3546C41.0913 10.3546 40.8999 10.2846 40.7506 10.1446C40.6106 9.99527 40.5406 9.78994 40.5406 9.52861V4.29261C40.5406 4.03127 40.6106 3.83061 40.7506 3.69061C40.8999 3.54127 41.0913 3.46661 41.3246 3.46661C41.5579 3.46661 41.7446 3.54127 41.8846 3.69061C42.0339 3.83061 42.1086 4.03127 42.1086 4.29261V9.52861C42.1086 9.78994 42.0339 9.99527 41.8846 10.1446C41.7446 10.2846 41.5579 10.3546 41.3246 10.3546ZM46.4614 12.9586C46.2374 12.9586 46.0134 12.9353 45.7894 12.8886C45.5747 12.8513 45.3694 12.7953 45.1734 12.7206C44.9867 12.6553 44.8141 12.5759 44.6554 12.4826C44.5061 12.3893 44.3847 12.2913 44.2914 12.1886C44.2167 12.1139 44.1607 12.0299 44.1234 11.9366C44.0954 11.8433 44.0814 11.7546 44.0814 11.6706C44.0814 11.4839 44.1421 11.3206 44.2634 11.1806C44.3941 11.0499 44.5574 10.9846 44.7534 10.9846C44.8654 10.9846 44.9727 11.0033 45.0754 11.0406C45.1781 11.0779 45.2807 11.1339 45.3834 11.2086C45.7287 11.4419 46.1161 11.5586 46.5454 11.5586C47.0307 11.5586 47.3994 11.4279 47.6514 11.1666C47.9127 10.9146 48.0434 10.5039 48.0434 9.93461V9.31861H48.0294C47.8614 9.57994 47.6327 9.77594 47.3434 9.90661C47.0541 10.0373 46.6854 10.1026 46.2374 10.1026C45.6774 10.1026 45.2061 9.95794 44.8234 9.66861C44.4407 9.37927 44.1607 8.96394 43.9834 8.42261C43.9087 8.17994 43.8527 7.92794 43.8154 7.66661C43.7781 7.40527 43.7594 7.10194 43.7594 6.75661C43.7594 6.08461 43.8341 5.51994 43.9834 5.06261C44.1607 4.53061 44.4407 4.11994 44.8234 3.83061C45.2061 3.53194 45.6774 3.38261 46.2374 3.38261C46.7134 3.38261 47.0961 3.46661 47.3854 3.63461C47.6747 3.79327 47.8987 3.99394 48.0574 4.23661H48.0714V4.08261C48.1087 3.91461 48.1881 3.76994 48.3094 3.64861C48.4401 3.52727 48.6127 3.46661 48.8274 3.46661C49.0607 3.46661 49.2474 3.54127 49.3874 3.69061C49.5367 3.83061 49.6114 4.03127 49.6114 4.29261V9.73861C49.6114 10.8213 49.3407 11.6286 48.7994 12.1606C48.2674 12.6926 47.4881 12.9586 46.4614 12.9586ZM48.0434 6.74261C48.0434 6.32261 47.9921 5.96794 47.8894 5.67861C47.7867 5.37994 47.6421 5.15594 47.4554 5.00661C47.2687 4.85727 47.0167 4.78261 46.6994 4.78261C46.3821 4.78261 46.1301 4.85727 45.9434 5.00661C45.7567 5.15594 45.6121 5.37994 45.5094 5.67861C45.4067 5.96794 45.3554 6.32261 45.3554 6.74261C45.3554 7.17194 45.4067 7.53127 45.5094 7.82061C45.6121 8.11927 45.7567 8.34327 45.9434 8.49261C46.1301 8.64194 46.3821 8.71661 46.6994 8.71661C47.0167 8.71661 47.2687 8.64194 47.4554 8.49261C47.6421 8.34327 47.7867 8.11927 47.8894 7.82061C47.9921 7.53127 48.0434 7.17194 48.0434 6.74261ZM56.4453 10.3546C56.2119 10.3546 56.0299 10.2893 55.8993 10.1586C55.7779 10.0279 55.6986 9.85994 55.6613 9.65461H55.6473C55.4699 9.89727 55.2319 10.0886 54.9333 10.2286C54.6346 10.3686 54.2846 10.4386 53.8833 10.4386C53.5193 10.4386 53.1926 10.3779 52.9033 10.2566C52.6233 10.1259 52.3853 9.94861 52.1893 9.72461C51.9933 9.50061 51.8393 9.23927 51.7273 8.94061C51.6246 8.63261 51.5733 8.29661 51.5733 7.93261V4.29261C51.5733 4.03127 51.6433 3.83061 51.7833 3.69061C51.9326 3.54127 52.1239 3.46661 52.3573 3.46661C52.5906 3.46661 52.7773 3.54127 52.9173 3.69061C53.0666 3.83061 53.1413 4.03127 53.1413 4.29261V7.56861C53.1413 8.00727 53.2393 8.36194 53.4353 8.63261C53.6406 8.90327 53.9579 9.03861 54.3873 9.03861C54.8073 9.03861 55.1246 8.90327 55.3393 8.63261C55.5539 8.36194 55.6613 8.00727 55.6613 7.56861V4.29261C55.6613 4.03127 55.7313 3.83061 55.8713 3.69061C56.0206 3.54127 56.2119 3.46661 56.4453 3.46661C56.6786 3.46661 56.8653 3.54127 57.0053 3.69061C57.1546 3.83061 57.2293 4.03127 57.2293 4.29261V9.52861C57.2293 9.78994 57.1546 9.99527 57.0053 10.1446C56.8653 10.2846 56.6786 10.3546 56.4453 10.3546ZM60.8405 4.32061H60.8545C61.0038 4.05927 61.2232 3.83994 61.5125 3.66261C61.8112 3.47594 62.1612 3.38261 62.5625 3.38261C62.7492 3.38261 62.9125 3.40127 63.0525 3.43861C63.1925 3.47594 63.3138 3.51794 63.4165 3.56461C63.6965 3.71394 63.8365 3.92861 63.8365 4.20861C63.8365 4.44194 63.7665 4.63327 63.6265 4.78261C63.4865 4.93194 63.2998 5.00661 63.0665 5.00661C62.9638 5.00661 62.8425 4.98327 62.7025 4.93661C62.5998 4.90861 62.4925 4.88527 62.3805 4.86661C62.2778 4.83861 62.1752 4.82461 62.0725 4.82461C61.6338 4.82461 61.3165 4.98327 61.1205 5.30061C60.9338 5.60861 60.8405 6.01927 60.8405 6.53261V9.52861C60.8405 9.78994 60.7658 9.99527 60.6165 10.1446C60.4765 10.2846 60.2898 10.3546 60.0565 10.3546C59.8325 10.3546 59.6458 10.2846 59.4965 10.1446C59.3472 9.99527 59.2725 9.78994 59.2725 9.52861V4.29261C59.2725 4.03127 59.3425 3.83061 59.4825 3.69061C59.6318 3.54127 59.8232 3.46661 60.0565 3.46661C60.2898 3.46661 60.4765 3.54127 60.6165 3.69061C60.7658 3.83061 60.8405 4.03127 60.8405 4.29261V4.32061ZM70.5893 9.16461C70.6733 9.32327 70.7153 9.47727 70.7153 9.62661C70.7153 9.84127 70.6406 10.0186 70.4913 10.1586C70.342 10.2893 70.1553 10.3546 69.9313 10.3546C69.642 10.3546 69.4226 10.2473 69.2733 10.0326L69.0493 9.69661H69.0353C68.8393 9.92994 68.5733 10.1119 68.2373 10.2426C67.9013 10.3733 67.5046 10.4386 67.0473 10.4386C66.2446 10.4386 65.6333 10.2613 65.2133 9.90661C64.8026 9.54261 64.5973 9.03861 64.5973 8.39461C64.5973 7.66661 64.8353 7.12527 65.3113 6.77061C65.7873 6.41594 66.4453 6.23861 67.2853 6.23861H68.6713C68.7273 6.23861 68.7553 6.21061 68.7553 6.15461V5.98661C68.7553 5.59461 68.634 5.29127 68.3913 5.07661C68.158 4.85261 67.7753 4.74061 67.2433 4.74061C67.0006 4.74061 66.772 4.76861 66.5573 4.82461C66.3426 4.88061 66.1606 4.94594 66.0113 5.02061C65.8713 5.07661 65.736 5.10461 65.6053 5.10461C65.4186 5.10461 65.2646 5.04861 65.1433 4.93661C65.022 4.81527 64.9613 4.65661 64.9613 4.46061C64.9613 4.34861 64.9893 4.23661 65.0453 4.12461C65.1106 4.01261 65.2133 3.91927 65.3533 3.84461C65.568 3.71394 65.848 3.60661 66.1933 3.52261C66.5386 3.42927 66.9446 3.38261 67.4113 3.38261C68.3726 3.38261 69.082 3.61127 69.5393 4.06861C70.006 4.51661 70.2393 5.16061 70.2393 6.00061V8.12861C70.2393 8.30594 70.2486 8.44127 70.2673 8.53461C70.2953 8.61861 70.3326 8.70727 70.3793 8.80061L70.5893 9.16461ZM67.2713 9.16461C67.7286 9.16461 68.088 9.07594 68.3493 8.89861C68.62 8.72127 68.7553 8.45527 68.7553 8.10061V7.49861C68.7553 7.44261 68.7273 7.41461 68.6713 7.41461H67.5513C67.0286 7.41461 66.6553 7.48927 66.4313 7.63861C66.2073 7.78794 66.0953 8.01661 66.0953 8.32461C66.0953 8.88461 66.4873 9.16461 67.2713 9.16461ZM74.7814 12.2026C74.7348 12.3613 74.6554 12.4779 74.5434 12.5526C74.4314 12.6273 74.3101 12.6646 74.1794 12.6646C74.0114 12.6646 73.8621 12.6133 73.7314 12.5106C73.6101 12.4079 73.5494 12.2633 73.5494 12.0766C73.5494 12.0299 73.5541 11.9786 73.5634 11.9226C73.5728 11.8666 73.5868 11.8153 73.6054 11.7686L74.1374 10.3686C73.6521 10.2753 73.2274 10.0793 72.8634 9.78061C72.4994 9.48194 72.2381 9.08061 72.0794 8.57661C71.9394 8.15661 71.8694 7.60127 71.8694 6.91061C71.8694 6.21994 71.9394 5.66461 72.0794 5.24461C72.2754 4.63794 72.6161 4.17594 73.1014 3.85861C73.5868 3.54127 74.1701 3.38261 74.8514 3.38261C75.3274 3.38261 75.7474 3.46661 76.1114 3.63461C76.4754 3.79327 76.7648 3.99394 76.9794 4.23661C77.0821 4.34861 77.1521 4.45594 77.1894 4.55861C77.2361 4.65194 77.2594 4.74994 77.2594 4.85261C77.2594 5.04861 77.1941 5.21194 77.0634 5.34261C76.9328 5.47327 76.7694 5.53861 76.5734 5.53861C76.4521 5.53861 76.3401 5.51061 76.2374 5.45461C76.1348 5.38927 76.0321 5.30527 75.9294 5.20261C75.7988 5.06261 75.6494 4.95994 75.4814 4.89461C75.3134 4.81994 75.1081 4.78261 74.8654 4.78261C74.5668 4.78261 74.3054 4.85727 74.0814 5.00661C73.8668 5.14661 73.7081 5.36594 73.6054 5.66461C73.5494 5.83261 73.5121 6.01927 73.4934 6.22461C73.4748 6.42061 73.4654 6.64927 73.4654 6.91061C73.4654 7.17194 73.4748 7.40527 73.4934 7.61061C73.5121 7.80661 73.5494 7.98861 73.6054 8.15661C73.7081 8.45527 73.8668 8.67927 74.0814 8.82861C74.3054 8.96861 74.5668 9.03861 74.8654 9.03861C75.1081 9.03861 75.3134 9.00594 75.4814 8.94061C75.6494 8.86594 75.7988 8.75861 75.9294 8.61861C76.0321 8.51594 76.1348 8.43661 76.2374 8.38061C76.3401 8.31527 76.4521 8.28261 76.5734 8.28261C76.7694 8.28261 76.9328 8.34794 77.0634 8.47861C77.1941 8.60927 77.2594 8.77261 77.2594 8.96861C77.2594 9.07127 77.2361 9.17394 77.1894 9.27661C77.1521 9.36994 77.0821 9.47261 76.9794 9.58461C76.8114 9.77127 76.5921 9.93927 76.3214 10.0886C76.0508 10.2379 75.7474 10.3406 75.4114 10.3966L74.7814 12.2026ZM81.5376 10.4386C80.847 10.4386 80.2543 10.2753 79.7596 9.94861C79.2743 9.62194 78.9383 9.16461 78.7516 8.57661C78.677 8.33394 78.621 8.09127 78.5836 7.84861C78.5463 7.59661 78.5276 7.28394 78.5276 6.91061C78.5276 6.53727 78.5463 6.22927 78.5836 5.98661C78.621 5.73461 78.677 5.48727 78.7516 5.24461C78.9383 4.65661 79.2743 4.19927 79.7596 3.87261C80.2543 3.54594 80.847 3.38261 81.5376 3.38261C82.219 3.38261 82.8023 3.54594 83.2876 3.87261C83.7823 4.19927 84.123 4.65661 84.3096 5.24461C84.3843 5.48727 84.4403 5.73461 84.4776 5.98661C84.515 6.22927 84.5336 6.53727 84.5336 6.91061C84.5336 7.28394 84.515 7.59661 84.4776 7.84861C84.4403 8.09127 84.3843 8.33394 84.3096 8.57661C84.123 9.16461 83.7823 9.62194 83.2876 9.94861C82.8023 10.2753 82.219 10.4386 81.5376 10.4386ZM81.5376 9.03861C81.855 9.03861 82.1163 8.96394 82.3216 8.81461C82.5363 8.65594 82.695 8.43661 82.7976 8.15661C82.8536 7.97927 82.891 7.80194 82.9096 7.62461C82.9283 7.43794 82.9376 7.19994 82.9376 6.91061C82.9376 6.62127 82.9283 6.38794 82.9096 6.21061C82.891 6.03327 82.8536 5.85127 82.7976 5.66461C82.695 5.38461 82.5363 5.16994 82.3216 5.02061C82.1163 4.86194 81.855 4.78261 81.5376 4.78261C81.2203 4.78261 80.9543 4.86194 80.7396 5.02061C80.525 5.16994 80.3663 5.38461 80.2636 5.66461C80.2076 5.85127 80.1703 6.03327 80.1516 6.21061C80.133 6.38794 80.1236 6.62127 80.1236 6.91061C80.1236 7.19994 80.133 7.43794 80.1516 7.62461C80.1703 7.80194 80.2076 7.97927 80.2636 8.15661C80.3663 8.43661 80.525 8.65594 80.7396 8.81461C80.9543 8.96394 81.2203 9.03861 81.5376 9.03861ZM82.3216 2.36061C82.135 2.36061 81.9716 2.33261 81.8316 2.27661C81.701 2.22061 81.5563 2.14594 81.3976 2.05261C81.239 1.94994 81.1176 1.88461 81.0336 1.85661C80.959 1.81927 80.8796 1.80061 80.7956 1.80061C80.6463 1.80061 80.4876 1.88927 80.3196 2.06661C80.1796 2.20661 80.0303 2.27661 79.8716 2.27661C79.7223 2.27661 79.601 2.23461 79.5076 2.15061C79.4143 2.05727 79.3676 1.93594 79.3676 1.78661C79.3676 1.64661 79.419 1.50194 79.5216 1.35261C79.7083 1.10061 79.8996 0.923273 80.0956 0.820606C80.301 0.708606 80.511 0.652607 80.7256 0.652607C80.9123 0.652607 81.071 0.680607 81.2016 0.736606C81.3416 0.792606 81.491 0.867273 81.6496 0.960607C81.8083 1.06327 81.925 1.13327 81.9996 1.17061C82.0836 1.19861 82.1676 1.21261 82.2516 1.21261C82.401 1.21261 82.5596 1.12394 82.7276 0.946606C82.8676 0.806606 83.017 0.736606 83.1756 0.736606C83.325 0.736606 83.4463 0.783273 83.5396 0.876606C83.633 0.960606 83.6796 1.07727 83.6796 1.22661C83.6796 1.36661 83.6283 1.51127 83.5256 1.66061C83.339 1.91261 83.143 2.09461 82.9376 2.20661C82.7416 2.30927 82.5363 2.36061 82.3216 2.36061ZM88.9218 10.4386C88.1938 10.4386 87.5871 10.2753 87.1018 9.94861C86.6164 9.61261 86.2804 9.15061 86.0938 8.56261C86.0191 8.34794 85.9584 8.10994 85.9118 7.84861C85.8744 7.57794 85.8558 7.26527 85.8558 6.91061C85.8558 6.55594 85.8744 6.24327 85.9118 5.97261C85.9491 5.70194 86.0051 5.45927 86.0798 5.24461C86.2664 4.65661 86.6024 4.19927 87.0878 3.87261C87.5824 3.54594 88.1658 3.38261 88.8378 3.38261C89.5378 3.38261 90.1258 3.55061 90.6018 3.88661C91.0871 4.21327 91.4231 4.66594 91.6098 5.24461C91.6844 5.46861 91.7404 5.71594 91.7778 5.98661C91.8151 6.24794 91.8338 6.54194 91.8338 6.86861C91.8338 7.02727 91.7871 7.15794 91.6938 7.26061C91.6004 7.36327 91.4651 7.41461 91.2878 7.41461H87.5218C87.4658 7.41461 87.4378 7.44261 87.4378 7.49861C87.4378 7.60127 87.4471 7.69461 87.4658 7.77861C87.4844 7.86261 87.5078 7.94194 87.5358 8.01661C87.7691 8.69794 88.2778 9.03861 89.0618 9.03861C89.3511 9.03861 89.5984 9.00127 89.8038 8.92661C90.0184 8.84261 90.2331 8.72594 90.4478 8.57661C90.5411 8.51127 90.6344 8.45994 90.7278 8.42261C90.8211 8.37594 90.9191 8.35261 91.0218 8.35261C91.2271 8.35261 91.3858 8.41794 91.4978 8.54861C91.6191 8.66994 91.6798 8.82394 91.6798 9.01061C91.6798 9.25327 91.5724 9.45861 91.3578 9.62661C91.0591 9.86927 90.7138 10.0653 90.3218 10.2146C89.9391 10.3639 89.4724 10.4386 88.9218 10.4386ZM90.2518 6.15461C90.2518 5.93994 90.2238 5.74861 90.1678 5.58061C90.0744 5.30994 89.9111 5.09994 89.6778 4.95061C89.4444 4.79194 89.1691 4.71261 88.8518 4.71261C88.5251 4.71261 88.2451 4.79194 88.0118 4.95061C87.7784 5.09994 87.6151 5.30994 87.5218 5.58061C87.4658 5.74861 87.4378 5.93994 87.4378 6.15461C87.4378 6.21061 87.4658 6.23861 87.5218 6.23861H90.1678C90.2238 6.23861 90.2518 6.21061 90.2518 6.15461ZM95.9985 10.4386C95.4759 10.4386 95.0045 10.3733 94.5845 10.2426C94.1645 10.1026 93.8145 9.93927 93.5345 9.75261C93.2825 9.59394 93.1565 9.38394 93.1565 9.12261C93.1565 8.93594 93.2219 8.77261 93.3525 8.63261C93.4832 8.48327 93.6559 8.40861 93.8705 8.40861C94.0199 8.40861 94.1832 8.45994 94.3605 8.56261C94.6219 8.72127 94.8832 8.85194 95.1445 8.95461C95.4152 9.05727 95.7279 9.10861 96.0825 9.10861C96.4745 9.10861 96.7779 9.03861 96.9925 8.89861C97.2165 8.75861 97.3285 8.56261 97.3285 8.31061C97.3285 8.10527 97.2492 7.94194 97.0905 7.82061C96.9412 7.69927 96.6472 7.61527 96.2085 7.56861L95.4805 7.49861C94.7805 7.42394 94.2579 7.21861 93.9125 6.88261C93.5765 6.54661 93.4085 6.08927 93.4085 5.51061C93.4085 4.86661 93.6325 4.35327 94.0805 3.97061C94.5285 3.57861 95.1772 3.38261 96.0265 3.38261C96.4185 3.38261 96.7872 3.42927 97.1325 3.52261C97.4872 3.61594 97.7999 3.73727 98.0705 3.88661C98.2292 3.97061 98.3459 4.06394 98.4205 4.16661C98.5045 4.26927 98.5465 4.39061 98.5465 4.53061C98.5465 4.72661 98.4859 4.88994 98.3645 5.02061C98.2432 5.15127 98.0845 5.21661 97.8885 5.21661C97.7579 5.21661 97.5945 5.16527 97.3985 5.06261C97.1839 4.95994 96.9505 4.87594 96.6985 4.81061C96.4465 4.73594 96.1945 4.69861 95.9425 4.69861C95.5879 4.69861 95.3265 4.76861 95.1585 4.90861C94.9999 5.03927 94.9205 5.20261 94.9205 5.39861C94.9205 5.59461 94.9952 5.75327 95.1445 5.87461C95.3032 5.98661 95.5972 6.06594 96.0265 6.11261L96.7545 6.18261C97.4732 6.25727 98.0005 6.46727 98.3365 6.81261C98.6725 7.15794 98.8405 7.61061 98.8405 8.17061C98.8405 8.84261 98.5979 9.38861 98.1125 9.80861C97.6272 10.2286 96.9225 10.4386 95.9985 10.4386Z" fill="white"/>
</svg>
