<svg width="93" height="13" viewBox="0 0 93 13" fill="none" xmlns="http://www.w3.org/2000/svg">
<path d="M2.06586 8.73391C1.7952 8.73391 1.53853 8.68258 1.29586 8.57991C1.06253 8.47725 0.857197 8.34191 0.679863 8.17391C0.511863 7.99658 0.37653 7.79125 0.273863 7.55791C0.171197 7.31525 0.119863 7.05858 0.119863 6.78791C0.119863 6.51725 0.171197 6.26525 0.273863 6.03191C0.37653 5.78925 0.511863 5.58391 0.679863 5.41591C0.857197 5.23858 1.06253 5.09858 1.29586 4.99591C1.53853 4.89325 1.7952 4.84191 2.06586 4.84191C2.33653 4.84191 2.58853 4.89325 2.82186 4.99591C3.06453 5.09858 3.26986 5.23858 3.43786 5.41591C3.6152 5.58391 3.7552 5.78925 3.85786 6.03191C3.96053 6.26525 4.01186 6.51725 4.01186 6.78791C4.01186 7.05858 3.96053 7.31525 3.85786 7.55791C3.7552 7.79125 3.6152 7.99658 3.43786 8.17391C3.26986 8.34191 3.06453 8.47725 2.82186 8.57991C2.58853 8.68258 2.33653 8.73391 2.06586 8.73391ZM15.5504 11.1699C15.3077 11.1699 15.107 11.0999 14.9484 10.9599C14.7897 10.8199 14.6497 10.5726 14.5284 10.2179L11.9384 2.62991C11.901 2.52725 11.8824 2.41058 11.8824 2.27991C11.8824 2.06525 11.957 1.88325 12.1064 1.73391C12.2557 1.58458 12.447 1.50991 12.6804 1.50991C13.0724 1.50991 13.3384 1.71991 13.4784 2.13991L15.5644 8.49591H15.6064L17.6084 2.13991C17.7484 1.71991 18.0144 1.50991 18.4064 1.50991C18.649 1.50991 18.8404 1.58458 18.9804 1.73391C19.1297 1.88325 19.2044 2.06525 19.2044 2.27991C19.2044 2.33591 19.1997 2.39658 19.1904 2.46191C19.181 2.51791 19.167 2.57391 19.1484 2.62991L16.5584 10.2179C16.437 10.5726 16.297 10.8199 16.1384 10.9599C15.9797 11.0999 15.7837 11.1699 15.5504 11.1699ZM23.2284 11.2539C22.5004 11.2539 21.8937 11.0906 21.4084 10.7639C20.9231 10.4279 20.5871 9.96591 20.4004 9.37791C20.3257 9.16325 20.2651 8.92525 20.2184 8.66391C20.1811 8.39325 20.1624 8.08058 20.1624 7.72591C20.1624 7.37125 20.1811 7.05858 20.2184 6.78791C20.2557 6.51725 20.3117 6.27458 20.3864 6.05991C20.5731 5.47191 20.9091 5.01458 21.3944 4.68791C21.8891 4.36125 22.4724 4.19791 23.1444 4.19791C23.8444 4.19791 24.4324 4.36591 24.9084 4.70191C25.3937 5.02858 25.7297 5.48125 25.9164 6.05991C25.9911 6.28391 26.0471 6.53125 26.0844 6.80191C26.1217 7.06325 26.1404 7.35725 26.1404 7.68391C26.1404 7.84258 26.0937 7.97325 26.0004 8.07591C25.9071 8.17858 25.7717 8.22991 25.5944 8.22991H21.8284C21.7724 8.22991 21.7444 8.25791 21.7444 8.31391C21.7444 8.41658 21.7537 8.50991 21.7724 8.59391C21.7911 8.67791 21.8144 8.75725 21.8424 8.83191C22.0757 9.51325 22.5844 9.85391 23.3684 9.85391C23.6577 9.85391 23.9051 9.81658 24.1104 9.74191C24.3251 9.65791 24.5397 9.54125 24.7544 9.39191C24.8477 9.32658 24.9411 9.27525 25.0344 9.23791C25.1277 9.19125 25.2257 9.16791 25.3284 9.16791C25.5337 9.16791 25.6924 9.23325 25.8044 9.36391C25.9257 9.48525 25.9864 9.63925 25.9864 9.82591C25.9864 10.0686 25.8791 10.2739 25.6644 10.4419C25.3657 10.6846 25.0204 10.8806 24.6284 11.0299C24.2457 11.1792 23.7791 11.2539 23.2284 11.2539ZM24.5584 6.96991C24.5584 6.75525 24.5304 6.56391 24.4744 6.39591C24.3811 6.12525 24.2177 5.91525 23.9844 5.76591C23.7511 5.60725 23.4757 5.52791 23.1584 5.52791C22.8317 5.52791 22.5517 5.60725 22.3184 5.76591C22.0851 5.91525 21.9217 6.12525 21.8284 6.39591C21.7724 6.56391 21.7444 6.75525 21.7444 6.96991C21.7444 7.02591 21.7724 7.05391 21.8284 7.05391H24.4744C24.5304 7.05391 24.5584 7.02591 24.5584 6.96991ZM27.6732 2.39191C27.6732 2.13058 27.7618 1.91125 27.9392 1.73391C28.1258 1.54725 28.3498 1.45391 28.6112 1.45391C28.8725 1.45391 29.0918 1.54725 29.2692 1.73391C29.4558 1.91125 29.5492 2.13058 29.5492 2.39191C29.5492 2.65325 29.4558 2.87725 29.2692 3.06391C29.0918 3.24125 28.8725 3.32991 28.6112 3.32991C28.3498 3.32991 28.1258 3.24125 27.9392 3.06391C27.7618 2.87725 27.6732 2.65325 27.6732 2.39191ZM28.6112 11.1699C28.3778 11.1699 28.1865 11.0999 28.0372 10.9599C27.8972 10.8106 27.8272 10.6052 27.8272 10.3439V5.10791C27.8272 4.84658 27.8972 4.64591 28.0372 4.50591C28.1865 4.35658 28.3778 4.28191 28.6112 4.28191C28.8445 4.28191 29.0312 4.35658 29.1712 4.50591C29.3205 4.64591 29.3952 4.84658 29.3952 5.10791V10.3439C29.3952 10.6052 29.3205 10.8106 29.1712 10.9599C29.0312 11.0999 28.8445 11.1699 28.6112 11.1699ZM34.0546 11.2539C33.3732 11.2539 32.7899 11.0952 32.3046 10.7779C31.8192 10.4606 31.4786 9.99858 31.2826 9.39191C31.1426 8.97191 31.0726 8.41658 31.0726 7.72591C31.0726 7.03525 31.1426 6.47991 31.2826 6.05991C31.4786 5.45325 31.8192 4.99125 32.3046 4.67391C32.7899 4.35658 33.3732 4.19791 34.0546 4.19791C34.5306 4.19791 34.9506 4.28191 35.3146 4.44991C35.6786 4.60858 35.9679 4.80925 36.1826 5.05191C36.2852 5.16391 36.3552 5.27125 36.3926 5.37391C36.4392 5.46725 36.4626 5.56525 36.4626 5.66791C36.4626 5.86391 36.3972 6.02725 36.2666 6.15791C36.1359 6.28858 35.9726 6.35391 35.7766 6.35391C35.6552 6.35391 35.5432 6.32591 35.4406 6.26991C35.3379 6.20458 35.2352 6.12058 35.1326 6.01791C35.0019 5.87791 34.8526 5.77525 34.6846 5.70991C34.5166 5.63525 34.3112 5.59791 34.0686 5.59791C33.7699 5.59791 33.5086 5.67258 33.2846 5.82191C33.0699 5.96191 32.9112 6.18125 32.8086 6.47991C32.7526 6.64791 32.7152 6.83458 32.6966 7.03991C32.6779 7.23591 32.6686 7.46458 32.6686 7.72591C32.6686 7.98725 32.6779 8.22058 32.6966 8.42591C32.7152 8.62191 32.7526 8.80391 32.8086 8.97191C32.9112 9.27058 33.0699 9.49458 33.2846 9.64391C33.5086 9.78391 33.7699 9.85391 34.0686 9.85391C34.3112 9.85391 34.5166 9.82125 34.6846 9.75591C34.8526 9.68125 35.0019 9.57391 35.1326 9.43391C35.2352 9.33125 35.3379 9.25191 35.4406 9.19591C35.5432 9.13058 35.6552 9.09791 35.7766 9.09791C35.9726 9.09791 36.1359 9.16325 36.2666 9.29391C36.3972 9.42458 36.4626 9.58791 36.4626 9.78391C36.4626 9.88658 36.4392 9.98925 36.3926 10.0919C36.3552 10.1852 36.2852 10.2879 36.1826 10.3999C35.9679 10.6426 35.6786 10.8479 35.3146 11.0159C34.9506 11.1746 34.5306 11.2539 34.0546 11.2539ZM42.8828 11.1699C42.6494 11.1699 42.4674 11.1046 42.3368 10.9739C42.2154 10.8432 42.1361 10.6752 42.0988 10.4699H42.0848C41.9074 10.7126 41.6694 10.9039 41.3708 11.0439C41.0721 11.1839 40.7221 11.2539 40.3208 11.2539C39.9568 11.2539 39.6301 11.1932 39.3408 11.0719C39.0608 10.9412 38.8228 10.7639 38.6268 10.5399C38.4308 10.3159 38.2768 10.0546 38.1648 9.75591C38.0621 9.44791 38.0108 9.11191 38.0108 8.74791V5.10791C38.0108 4.84658 38.0808 4.64591 38.2208 4.50591C38.3701 4.35658 38.5614 4.28191 38.7948 4.28191C39.0281 4.28191 39.2148 4.35658 39.3548 4.50591C39.5041 4.64591 39.5788 4.84658 39.5788 5.10791V8.38391C39.5788 8.82258 39.6768 9.17725 39.8728 9.44791C40.0781 9.71858 40.3954 9.85391 40.8248 9.85391C41.2448 9.85391 41.5621 9.71858 41.7768 9.44791C41.9914 9.17725 42.0988 8.82258 42.0988 8.38391V5.10791C42.0988 4.84658 42.1688 4.64591 42.3088 4.50591C42.4581 4.35658 42.6494 4.28191 42.8828 4.28191C43.1161 4.28191 43.3028 4.35658 43.4428 4.50591C43.5921 4.64591 43.6668 4.84658 43.6668 5.10791V10.3439C43.6668 10.6052 43.5921 10.8106 43.4428 10.9599C43.3028 11.0999 43.1161 11.1699 42.8828 11.1699ZM47.53 11.1839C46.8393 11.1839 46.3587 11.0159 46.088 10.6799C45.8173 10.3439 45.682 9.85391 45.682 9.20991V2.33591C45.682 2.07458 45.752 1.87391 45.892 1.73391C46.0413 1.58458 46.2327 1.50991 46.466 1.50991C46.69 1.50991 46.8767 1.58458 47.026 1.73391C47.1753 1.87391 47.25 2.07458 47.25 2.33591V9.08391C47.25 9.32658 47.292 9.49925 47.376 9.60191C47.46 9.69525 47.6 9.75591 47.796 9.78391C48.0293 9.81191 48.1973 9.89125 48.3 10.0219C48.4027 10.1432 48.454 10.2926 48.454 10.4699C48.454 10.6752 48.3887 10.8479 48.258 10.9879C48.1273 11.1186 47.922 11.1839 47.642 11.1839H47.53ZM52.4302 11.2539C51.7395 11.2539 51.1469 11.0906 50.6522 10.7639C50.1669 10.4372 49.8309 9.97991 49.6442 9.39191C49.5695 9.14925 49.5135 8.90658 49.4762 8.66391C49.4389 8.41191 49.4202 8.09925 49.4202 7.72591C49.4202 7.35258 49.4389 7.04458 49.4762 6.80191C49.5135 6.54991 49.5695 6.30258 49.6442 6.05991C49.8309 5.47191 50.1669 5.01458 50.6522 4.68791C51.1469 4.36125 51.7395 4.19791 52.4302 4.19791C53.1115 4.19791 53.6949 4.36125 54.1802 4.68791C54.6749 5.01458 55.0155 5.47191 55.2022 6.05991C55.2769 6.30258 55.3329 6.54991 55.3702 6.80191C55.4075 7.04458 55.4262 7.35258 55.4262 7.72591C55.4262 8.09925 55.4075 8.41191 55.3702 8.66391C55.3329 8.90658 55.2769 9.14925 55.2022 9.39191C55.0155 9.97991 54.6749 10.4372 54.1802 10.7639C53.6949 11.0906 53.1115 11.2539 52.4302 11.2539ZM52.4302 9.85391C52.7475 9.85391 53.0089 9.77925 53.2142 9.62991C53.4289 9.47125 53.5875 9.25191 53.6902 8.97191C53.7462 8.79458 53.7835 8.61725 53.8022 8.43991C53.8209 8.25325 53.8302 8.01525 53.8302 7.72591C53.8302 7.43658 53.8209 7.20325 53.8022 7.02591C53.7835 6.84858 53.7462 6.66658 53.6902 6.47991C53.5875 6.19991 53.4289 5.98525 53.2142 5.83591C53.0089 5.67725 52.7475 5.59791 52.4302 5.59791C52.1129 5.59791 51.8469 5.67725 51.6322 5.83591C51.4175 5.98525 51.2589 6.19991 51.1562 6.47991C51.1002 6.66658 51.0629 6.84858 51.0442 7.02591C51.0255 7.20325 51.0162 7.43658 51.0162 7.72591C51.0162 8.01525 51.0255 8.25325 51.0442 8.43991C51.0629 8.61725 51.1002 8.79458 51.1562 8.97191C51.2589 9.25191 51.4175 9.47125 51.6322 9.62991C51.8469 9.77925 52.1129 9.85391 52.4302 9.85391ZM59.5903 11.2539C59.0677 11.2539 58.5963 11.1886 58.1763 11.0579C57.7563 10.9179 57.4063 10.7546 57.1263 10.5679C56.8743 10.4092 56.7483 10.1992 56.7483 9.93791C56.7483 9.75125 56.8137 9.58791 56.9443 9.44791C57.075 9.29858 57.2477 9.22391 57.4623 9.22391C57.6117 9.22391 57.775 9.27525 57.9523 9.37791C58.2137 9.53658 58.475 9.66725 58.7363 9.76991C59.007 9.87258 59.3197 9.92391 59.6743 9.92391C60.0663 9.92391 60.3697 9.85391 60.5843 9.71391C60.8083 9.57391 60.9203 9.37791 60.9203 9.12591C60.9203 8.92058 60.841 8.75725 60.6823 8.63591C60.533 8.51458 60.239 8.43058 59.8003 8.38391L59.0723 8.31391C58.3723 8.23925 57.8497 8.03391 57.5043 7.69791C57.1683 7.36191 57.0003 6.90458 57.0003 6.32591C57.0003 5.68191 57.2243 5.16858 57.6723 4.78591C58.1203 4.39391 58.769 4.19791 59.6183 4.19791C60.0103 4.19791 60.379 4.24458 60.7243 4.33791C61.079 4.43125 61.3917 4.55258 61.6623 4.70191C61.821 4.78591 61.9377 4.87925 62.0123 4.98191C62.0963 5.08458 62.1383 5.20591 62.1383 5.34591C62.1383 5.54191 62.0777 5.70525 61.9563 5.83591C61.835 5.96658 61.6763 6.03191 61.4803 6.03191C61.3497 6.03191 61.1863 5.98058 60.9903 5.87791C60.7757 5.77525 60.5423 5.69125 60.2903 5.62591C60.0383 5.55125 59.7863 5.51391 59.5343 5.51391C59.1797 5.51391 58.9183 5.58391 58.7503 5.72391C58.5917 5.85458 58.5123 6.01791 58.5123 6.21391C58.5123 6.40991 58.587 6.56858 58.7363 6.68991C58.895 6.80191 59.189 6.88125 59.6183 6.92791L60.3463 6.99791C61.065 7.07258 61.5923 7.28258 61.9283 7.62791C62.2643 7.97325 62.4323 8.42591 62.4323 8.98591C62.4323 9.65791 62.1897 10.2039 61.7043 10.6239C61.219 11.0439 60.5143 11.2539 59.5903 11.2539ZM68.8066 1.94391C68.7506 1.94391 68.7226 1.97191 68.7226 2.02791V10.9879C68.7226 11.0439 68.7506 11.0719 68.8066 11.0719H69.3526C69.5673 11.0719 69.7306 11.1232 69.8426 11.2259C69.9546 11.3379 70.0106 11.4872 70.0106 11.6739C70.0106 11.8606 69.9546 12.0052 69.8426 12.1079C69.7306 12.2199 69.5673 12.2759 69.3526 12.2759H67.8966C67.7099 12.2759 67.5606 12.2199 67.4486 12.1079C67.3366 12.0052 67.2806 11.8606 67.2806 11.6739V1.34191C67.2806 1.15525 67.3366 1.01058 67.4486 0.907914C67.5606 0.795914 67.7099 0.739914 67.8966 0.739914H69.3526C69.5673 0.739914 69.7306 0.795914 69.8426 0.907914C69.9546 1.01058 70.0106 1.15525 70.0106 1.34191C70.0106 1.52858 69.9546 1.67791 69.8426 1.78991C69.7306 1.89258 69.5673 1.94391 69.3526 1.94391H68.8066ZM73.8638 11.2539C73.3411 11.2539 72.8698 11.1886 72.4498 11.0579C72.0298 10.9179 71.6798 10.7546 71.3998 10.5679C71.1478 10.4092 71.0218 10.1992 71.0218 9.93791C71.0218 9.75125 71.0871 9.58791 71.2178 9.44791C71.3484 9.29858 71.5211 9.22391 71.7358 9.22391C71.8851 9.22391 72.0484 9.27525 72.2258 9.37791C72.4871 9.53658 72.7484 9.66725 73.0098 9.76991C73.2804 9.87258 73.5931 9.92391 73.9478 9.92391C74.3398 9.92391 74.6431 9.85391 74.8578 9.71391C75.0818 9.57391 75.1938 9.37791 75.1938 9.12591C75.1938 8.92058 75.1144 8.75725 74.9558 8.63591C74.8064 8.51458 74.5124 8.43058 74.0738 8.38391L73.3458 8.31391C72.6458 8.23925 72.1231 8.03391 71.7778 7.69791C71.4418 7.36191 71.2738 6.90458 71.2738 6.32591C71.2738 5.68191 71.4978 5.16858 71.9458 4.78591C72.3938 4.39391 73.0424 4.19791 73.8918 4.19791C74.2838 4.19791 74.6524 4.24458 74.9978 4.33791C75.3524 4.43125 75.6651 4.55258 75.9358 4.70191C76.0944 4.78591 76.2111 4.87925 76.2858 4.98191C76.3698 5.08458 76.4118 5.20591 76.4118 5.34591C76.4118 5.54191 76.3511 5.70525 76.2298 5.83591C76.1084 5.96658 75.9498 6.03191 75.7538 6.03191C75.6231 6.03191 75.4598 5.98058 75.2638 5.87791C75.0491 5.77525 74.8158 5.69125 74.5638 5.62591C74.3118 5.55125 74.0598 5.51391 73.8078 5.51391C73.4531 5.51391 73.1918 5.58391 73.0238 5.72391C72.8651 5.85458 72.7858 6.01791 72.7858 6.21391C72.7858 6.40991 72.8604 6.56858 73.0098 6.68991C73.1684 6.80191 73.4624 6.88125 73.8918 6.92791L74.6198 6.99791C75.3384 7.07258 75.8658 7.28258 76.2018 7.62791C76.5378 7.97325 76.7058 8.42591 76.7058 8.98591C76.7058 9.65791 76.4631 10.2039 75.9778 10.6239C75.4924 11.0439 74.7878 11.2539 73.8638 11.2539ZM79.9264 5.13591H79.9404C80.0898 4.87458 80.3091 4.65525 80.5984 4.47791C80.8971 4.29125 81.2471 4.19791 81.6484 4.19791C81.8351 4.19791 81.9984 4.21658 82.1384 4.25391C82.2784 4.29125 82.3998 4.33325 82.5024 4.37991C82.7824 4.52925 82.9224 4.74391 82.9224 5.02391C82.9224 5.25725 82.8524 5.44858 82.7124 5.59791C82.5724 5.74725 82.3858 5.82191 82.1524 5.82191C82.0498 5.82191 81.9284 5.79858 81.7884 5.75191C81.6858 5.72391 81.5784 5.70058 81.4664 5.68191C81.3638 5.65391 81.2611 5.63991 81.1584 5.63991C80.7198 5.63991 80.4024 5.79858 80.2064 6.11591C80.0198 6.42391 79.9264 6.83458 79.9264 7.34791V10.3439C79.9264 10.6052 79.8518 10.8106 79.7024 10.9599C79.5624 11.0999 79.3758 11.1699 79.1424 11.1699C78.9184 11.1699 78.7318 11.0999 78.5824 10.9599C78.4331 10.8106 78.3584 10.6052 78.3584 10.3439V5.10791C78.3584 4.84658 78.4284 4.64591 78.5684 4.50591C78.7178 4.35658 78.9091 4.28191 79.1424 4.28191C79.3758 4.28191 79.5624 4.35658 79.7024 4.50591C79.8518 4.64591 79.9264 4.84658 79.9264 5.10791V5.13591ZM86.6092 11.2539C85.9279 11.2539 85.3446 11.0952 84.8592 10.7779C84.3739 10.4606 84.0332 9.99858 83.8372 9.39191C83.6972 8.97191 83.6272 8.41658 83.6272 7.72591C83.6272 7.03525 83.6972 6.47991 83.8372 6.05991C84.0332 5.45325 84.3739 4.99125 84.8592 4.67391C85.3446 4.35658 85.9279 4.19791 86.6092 4.19791C87.0852 4.19791 87.5052 4.28191 87.8692 4.44991C88.2332 4.60858 88.5226 4.80925 88.7372 5.05191C88.8399 5.16391 88.9099 5.27125 88.9472 5.37391C88.9939 5.46725 89.0172 5.56525 89.0172 5.66791C89.0172 5.86391 88.9519 6.02725 88.8212 6.15791C88.6906 6.28858 88.5272 6.35391 88.3312 6.35391C88.2099 6.35391 88.0979 6.32591 87.9952 6.26991C87.8926 6.20458 87.7899 6.12058 87.6872 6.01791C87.5566 5.87791 87.4072 5.77525 87.2392 5.70991C87.0712 5.63525 86.8659 5.59791 86.6232 5.59791C86.3246 5.59791 86.0632 5.67258 85.8392 5.82191C85.6246 5.96191 85.4659 6.18125 85.3632 6.47991C85.3072 6.64791 85.2699 6.83458 85.2512 7.03991C85.2326 7.23591 85.2232 7.46458 85.2232 7.72591C85.2232 7.98725 85.2326 8.22058 85.2512 8.42591C85.2699 8.62191 85.3072 8.80391 85.3632 8.97191C85.4659 9.27058 85.6246 9.49458 85.8392 9.64391C86.0632 9.78391 86.3246 9.85391 86.6232 9.85391C86.8659 9.85391 87.0712 9.82125 87.2392 9.75591C87.4072 9.68125 87.5566 9.57391 87.6872 9.43391C87.7899 9.33125 87.8926 9.25191 87.9952 9.19591C88.0979 9.13058 88.2099 9.09791 88.3312 9.09791C88.5272 9.09791 88.6906 9.16325 88.8212 9.29391C88.9519 9.42458 89.0172 9.58791 89.0172 9.78391C89.0172 9.88658 88.9939 9.98925 88.9472 10.0919C88.9099 10.1852 88.8399 10.2879 88.7372 10.3999C88.5226 10.6426 88.2332 10.8479 87.8692 11.0159C87.5052 11.1746 87.0852 11.2539 86.6092 11.2539ZM90.6354 1.94391C90.4208 1.94391 90.2574 1.89258 90.1454 1.78991C90.0334 1.67791 89.9774 1.52858 89.9774 1.34191C89.9774 1.15525 90.0334 1.01058 90.1454 0.907914C90.2574 0.795914 90.4208 0.739914 90.6354 0.739914H92.0914C92.2781 0.739914 92.4274 0.795914 92.5394 0.907914C92.6514 1.01058 92.7074 1.15525 92.7074 1.34191V11.6739C92.7074 11.8606 92.6514 12.0052 92.5394 12.1079C92.4274 12.2199 92.2781 12.2759 92.0914 12.2759H90.6354C90.4208 12.2759 90.2574 12.2199 90.1454 12.1079C90.0334 12.0052 89.9774 11.8606 89.9774 11.6739C89.9774 11.4872 90.0334 11.3379 90.1454 11.2259C90.2574 11.1232 90.4208 11.0719 90.6354 11.0719H91.1814C91.2374 11.0719 91.2654 11.0439 91.2654 10.9879V2.02791C91.2654 1.97191 91.2374 1.94391 91.1814 1.94391H90.6354Z" fill="white"/>
</svg>
