<svg width="62" height="14" viewBox="0 0 62 14" fill="none" xmlns="http://www.w3.org/2000/svg">
<path d="M2.06586 8.08786C1.7952 8.08786 1.53853 8.03652 1.29586 7.93386C1.06253 7.83119 0.857197 7.69586 0.679863 7.52786C0.511863 7.35052 0.37653 7.14519 0.273863 6.91186C0.171197 6.66919 0.119863 6.41252 0.119863 6.14186C0.119863 5.87119 0.171197 5.61919 0.273863 5.38586C0.37653 5.14319 0.511863 4.93786 0.679863 4.76986C0.857197 4.59252 1.06253 4.45252 1.29586 4.34986C1.53853 4.24719 1.7952 4.19586 2.06586 4.19586C2.33653 4.19586 2.58853 4.24719 2.82186 4.34986C3.06453 4.45252 3.26986 4.59252 3.43786 4.76986C3.6152 4.93786 3.7552 5.14319 3.85786 5.38586C3.96053 5.61919 4.01186 5.87119 4.01186 6.14186C4.01186 6.41252 3.96053 6.66919 3.85786 6.91186C3.7552 7.14519 3.6152 7.35052 3.43786 7.52786C3.26986 7.69586 3.06453 7.83119 2.82186 7.93386C2.58853 8.03652 2.33653 8.08786 2.06586 8.08786ZM12.7272 9.86586C12.5685 9.70719 12.4892 9.50652 12.4892 9.26386C12.4892 9.06786 12.5545 8.90452 12.6852 8.77386C12.8252 8.63386 13.0025 8.56386 13.2172 8.56386C13.4039 8.56386 13.6092 8.64319 13.8332 8.80186C13.9732 8.90452 14.1365 8.98386 14.3232 9.03986C14.5099 9.09586 14.6965 9.12386 14.8832 9.12386C15.3499 9.12386 15.7185 8.98386 15.9892 8.70386C16.2599 8.42386 16.3952 7.96186 16.3952 7.31786V1.73186C16.3952 1.46119 16.4699 1.25119 16.6192 1.10186C16.7779 0.94319 16.9785 0.863857 17.2212 0.863857C17.4639 0.863857 17.6599 0.94319 17.8092 1.10186C17.9679 1.25119 18.0472 1.46119 18.0472 1.73186V7.21986C18.0472 7.76119 17.9679 8.24186 17.8092 8.66186C17.6599 9.08186 17.4452 9.43652 17.1652 9.72586C16.8852 10.0152 16.5445 10.2345 16.1432 10.3839C15.7512 10.5332 15.3125 10.6079 14.8272 10.6079C14.4072 10.6079 14.0012 10.5379 13.6092 10.3979C13.2265 10.2485 12.9325 10.0712 12.7272 9.86586ZM22.7076 10.6079C22.0169 10.6079 21.4242 10.4445 20.9296 10.1179C20.4442 9.79119 20.1082 9.33386 19.9216 8.74586C19.8469 8.50319 19.7909 8.26052 19.7536 8.01786C19.7162 7.76586 19.6976 7.45319 19.6976 7.07986C19.6976 6.70652 19.7162 6.39852 19.7536 6.15586C19.7909 5.90386 19.8469 5.65652 19.9216 5.41386C20.1082 4.82586 20.4442 4.36852 20.9296 4.04186C21.4242 3.71519 22.0169 3.55186 22.7076 3.55186C23.3889 3.55186 23.9722 3.71519 24.4576 4.04186C24.9522 4.36852 25.2929 4.82586 25.4796 5.41386C25.5542 5.65652 25.6102 5.90386 25.6476 6.15586C25.6849 6.39852 25.7036 6.70652 25.7036 7.07986C25.7036 7.45319 25.6849 7.76586 25.6476 8.01786C25.6102 8.26052 25.5542 8.50319 25.4796 8.74586C25.2929 9.33386 24.9522 9.79119 24.4576 10.1179C23.9722 10.4445 23.3889 10.6079 22.7076 10.6079ZM22.7076 9.20786C23.0249 9.20786 23.2862 9.13319 23.4916 8.98386C23.7062 8.82519 23.8649 8.60586 23.9676 8.32586C24.0236 8.14852 24.0609 7.97119 24.0796 7.79386C24.0982 7.60719 24.1076 7.36919 24.1076 7.07986C24.1076 6.79052 24.0982 6.55719 24.0796 6.37986C24.0609 6.20252 24.0236 6.02052 23.9676 5.83386C23.8649 5.55386 23.7062 5.33919 23.4916 5.18986C23.2862 5.03119 23.0249 4.95186 22.7076 4.95186C22.3902 4.95186 22.1242 5.03119 21.9096 5.18986C21.6949 5.33919 21.5362 5.55386 21.4336 5.83386C21.3776 6.02052 21.3402 6.20252 21.3216 6.37986C21.3029 6.55719 21.2936 6.79052 21.2936 7.07986C21.2936 7.36919 21.3029 7.60719 21.3216 7.79386C21.3402 7.97119 21.3776 8.14852 21.4336 8.32586C21.5362 8.60586 21.6949 8.82519 21.9096 8.98386C22.1242 9.13319 22.3902 9.20786 22.7076 9.20786ZM29.6997 13.1279C29.4757 13.1279 29.2517 13.1045 29.0277 13.0579C28.813 13.0205 28.6077 12.9645 28.4117 12.8899C28.225 12.8245 28.0523 12.7452 27.8937 12.6519C27.7443 12.5585 27.623 12.4605 27.5297 12.3579C27.455 12.2832 27.399 12.1992 27.3617 12.1059C27.3337 12.0125 27.3197 11.9239 27.3197 11.8399C27.3197 11.6532 27.3803 11.4899 27.5017 11.3499C27.6323 11.2192 27.7957 11.1539 27.9917 11.1539C28.1037 11.1539 28.211 11.1725 28.3137 11.2099C28.4163 11.2472 28.519 11.3032 28.6217 11.3779C28.967 11.6112 29.3543 11.7279 29.7837 11.7279C30.269 11.7279 30.6377 11.5972 30.8897 11.3359C31.151 11.0839 31.2817 10.6732 31.2817 10.1039V9.48786H31.2677C31.0997 9.74919 30.871 9.94519 30.5817 10.0759C30.2923 10.2065 29.9237 10.2719 29.4757 10.2719C28.9157 10.2719 28.4443 10.1272 28.0617 9.83786C27.679 9.54852 27.399 9.13319 27.2217 8.59186C27.147 8.34919 27.091 8.09719 27.0537 7.83586C27.0163 7.57452 26.9977 7.27119 26.9977 6.92586C26.9977 6.25386 27.0723 5.68919 27.2217 5.23186C27.399 4.69986 27.679 4.28919 28.0617 3.99986C28.4443 3.70119 28.9157 3.55186 29.4757 3.55186C29.9517 3.55186 30.3343 3.63586 30.6237 3.80386C30.913 3.96252 31.137 4.16319 31.2957 4.40586H31.3097V4.25186C31.347 4.08386 31.4263 3.93919 31.5477 3.81786C31.6783 3.69652 31.851 3.63586 32.0657 3.63586C32.299 3.63586 32.4857 3.71052 32.6257 3.85986C32.775 3.99986 32.8497 4.20052 32.8497 4.46186V9.90786C32.8497 10.9905 32.579 11.7979 32.0377 12.3299C31.5057 12.8619 30.7263 13.1279 29.6997 13.1279ZM31.2817 6.91186C31.2817 6.49186 31.2303 6.13719 31.1277 5.84786C31.025 5.54919 30.8803 5.32519 30.6937 5.17586C30.507 5.02652 30.255 4.95186 29.9377 4.95186C29.6203 4.95186 29.3683 5.02652 29.1817 5.17586C28.995 5.32519 28.8503 5.54919 28.7477 5.84786C28.645 6.13719 28.5937 6.49186 28.5937 6.91186C28.5937 7.34119 28.645 7.70052 28.7477 7.98986C28.8503 8.28852 28.995 8.51252 29.1817 8.66186C29.3683 8.81119 29.6203 8.88586 29.9377 8.88586C30.255 8.88586 30.507 8.81119 30.6937 8.66186C30.8803 8.51252 31.025 8.28852 31.1277 7.98986C31.2303 7.70052 31.2817 7.34119 31.2817 6.91186ZM40.5795 9.33386C40.6635 9.49252 40.7055 9.64652 40.7055 9.79586C40.7055 10.0105 40.6309 10.1879 40.4815 10.3279C40.3322 10.4585 40.1455 10.5239 39.9215 10.5239C39.6322 10.5239 39.4129 10.4165 39.2635 10.2019L39.0395 9.86586H39.0255C38.8295 10.0992 38.5635 10.2812 38.2275 10.4119C37.8915 10.5425 37.4949 10.6079 37.0375 10.6079C36.2349 10.6079 35.6235 10.4305 35.2035 10.0759C34.7929 9.71186 34.5875 9.20786 34.5875 8.56386C34.5875 7.83586 34.8255 7.29452 35.3015 6.93986C35.7775 6.58519 36.4355 6.40786 37.2755 6.40786H38.6615C38.7175 6.40786 38.7455 6.37986 38.7455 6.32386V6.15586C38.7455 5.76386 38.6242 5.46052 38.3815 5.24586C38.1482 5.02186 37.7655 4.90986 37.2335 4.90986C36.9909 4.90986 36.7622 4.93786 36.5475 4.99386C36.3329 5.04986 36.1509 5.11519 36.0015 5.18986C35.8615 5.24586 35.7262 5.27386 35.5955 5.27386C35.4089 5.27386 35.2549 5.21786 35.1335 5.10586C35.0122 4.98452 34.9515 4.82586 34.9515 4.62986C34.9515 4.51786 34.9795 4.40586 35.0355 4.29386C35.1009 4.18186 35.2035 4.08852 35.3435 4.01386C35.5582 3.88319 35.8382 3.77586 36.1835 3.69186C36.5289 3.59852 36.9349 3.55186 37.4015 3.55186C38.3629 3.55186 39.0722 3.78052 39.5295 4.23786C39.9962 4.68586 40.2295 5.32986 40.2295 6.16986V8.29786C40.2295 8.47519 40.2389 8.61052 40.2575 8.70386C40.2855 8.78786 40.3229 8.87652 40.3695 8.96986L40.5795 9.33386ZM37.2615 9.33386C37.7189 9.33386 38.0782 9.24519 38.3395 9.06786C38.6102 8.89052 38.7455 8.62452 38.7455 8.26986V7.66786C38.7455 7.61186 38.7175 7.58386 38.6615 7.58386H37.5415C37.0189 7.58386 36.6455 7.65852 36.4215 7.80786C36.1975 7.95719 36.0855 8.18586 36.0855 8.49386C36.0855 9.05386 36.4775 9.33386 37.2615 9.33386ZM47.0257 0.863857C47.259 0.863857 47.4457 0.938523 47.5857 1.08786C47.735 1.22786 47.8097 1.42852 47.8097 1.68986V9.69786C47.8097 9.95919 47.735 10.1645 47.5857 10.3139C47.4457 10.4539 47.259 10.5239 47.0257 10.5239C46.7923 10.5239 46.6103 10.4585 46.4797 10.3279C46.3583 10.1972 46.279 10.0245 46.2417 9.80986H46.2277C46.069 10.0432 45.845 10.2345 45.5557 10.3839C45.2663 10.5332 44.8837 10.6079 44.4077 10.6079C43.8477 10.6079 43.367 10.4585 42.9657 10.1599C42.5643 9.85186 42.275 9.43186 42.0977 8.89986C42.0137 8.63852 41.953 8.36786 41.9157 8.08786C41.8783 7.79852 41.8597 7.46252 41.8597 7.07986C41.8597 6.69719 41.8783 6.36586 41.9157 6.08586C41.953 5.79652 42.0137 5.52119 42.0977 5.25986C42.275 4.72786 42.5643 4.31252 42.9657 4.01386C43.367 3.70586 43.8477 3.55186 44.4077 3.55186C44.8837 3.55186 45.2663 3.63119 45.5557 3.78986C45.8543 3.94852 46.0783 4.13519 46.2277 4.34986H46.2417V1.68986C46.2417 1.42852 46.3117 1.22786 46.4517 1.08786C46.601 0.938523 46.7923 0.863857 47.0257 0.863857ZM44.8417 4.95186C44.543 4.95186 44.2863 5.02186 44.0717 5.16186C43.857 5.29252 43.6983 5.52119 43.5957 5.84786C43.5023 6.12786 43.4557 6.53852 43.4557 7.07986C43.4557 7.62119 43.5023 8.03186 43.5957 8.31186C43.6983 8.63852 43.857 8.87186 44.0717 9.01186C44.2863 9.14252 44.543 9.20786 44.8417 9.20786C45.1403 9.20786 45.397 9.14252 45.6117 9.01186C45.8357 8.87186 45.999 8.63852 46.1017 8.31186C46.195 8.03186 46.2417 7.62119 46.2417 7.07986C46.2417 6.53852 46.195 6.12786 46.1017 5.84786C45.999 5.52119 45.8357 5.29252 45.6117 5.16186C45.397 5.02186 45.1403 4.95186 44.8417 4.95186ZM52.4986 10.6079C51.8079 10.6079 51.2152 10.4445 50.7206 10.1179C50.2352 9.79119 49.8992 9.33386 49.7126 8.74586C49.6379 8.50319 49.5819 8.26052 49.5446 8.01786C49.5072 7.76586 49.4886 7.45319 49.4886 7.07986C49.4886 6.70652 49.5072 6.39852 49.5446 6.15586C49.5819 5.90386 49.6379 5.65652 49.7126 5.41386C49.8992 4.82586 50.2352 4.36852 50.7206 4.04186C51.2152 3.71519 51.8079 3.55186 52.4986 3.55186C53.1799 3.55186 53.7632 3.71519 54.2486 4.04186C54.7432 4.36852 55.0839 4.82586 55.2706 5.41386C55.3452 5.65652 55.4012 5.90386 55.4386 6.15586C55.4759 6.39852 55.4946 6.70652 55.4946 7.07986C55.4946 7.45319 55.4759 7.76586 55.4386 8.01786C55.4012 8.26052 55.3452 8.50319 55.2706 8.74586C55.0839 9.33386 54.7432 9.79119 54.2486 10.1179C53.7632 10.4445 53.1799 10.6079 52.4986 10.6079ZM52.4986 9.20786C52.8159 9.20786 53.0772 9.13319 53.2826 8.98386C53.4972 8.82519 53.6559 8.60586 53.7586 8.32586C53.8146 8.14852 53.8519 7.97119 53.8706 7.79386C53.8892 7.60719 53.8986 7.36919 53.8986 7.07986C53.8986 6.79052 53.8892 6.55719 53.8706 6.37986C53.8519 6.20252 53.8146 6.02052 53.7586 5.83386C53.6559 5.55386 53.4972 5.33919 53.2826 5.18986C53.0772 5.03119 52.8159 4.95186 52.4986 4.95186C52.1812 4.95186 51.9152 5.03119 51.7006 5.18986C51.4859 5.33919 51.3272 5.55386 51.2246 5.83386C51.1686 6.02052 51.1312 6.20252 51.1126 6.37986C51.0939 6.55719 51.0846 6.79052 51.0846 7.07986C51.0846 7.36919 51.0939 7.60719 51.1126 7.79386C51.1312 7.97119 51.1686 8.14852 51.2246 8.32586C51.3272 8.60586 51.4859 8.82519 51.7006 8.98386C51.9152 9.13319 52.1812 9.20786 52.4986 9.20786ZM58.7487 4.48986H58.7627C58.912 4.22852 59.1314 4.00919 59.4207 3.83186C59.7194 3.64519 60.0694 3.55186 60.4707 3.55186C60.6574 3.55186 60.8207 3.57052 60.9607 3.60786C61.1007 3.64519 61.222 3.68719 61.3247 3.73386C61.6047 3.88319 61.7447 4.09786 61.7447 4.37786C61.7447 4.61119 61.6747 4.80252 61.5347 4.95186C61.3947 5.10119 61.208 5.17586 60.9747 5.17586C60.872 5.17586 60.7507 5.15252 60.6107 5.10586C60.508 5.07786 60.4007 5.05452 60.2887 5.03586C60.186 5.00786 60.0834 4.99386 59.9807 4.99386C59.542 4.99386 59.2247 5.15252 59.0287 5.46986C58.842 5.77786 58.7487 6.18852 58.7487 6.70186V9.69786C58.7487 9.95919 58.674 10.1645 58.5247 10.3139C58.3847 10.4539 58.198 10.5239 57.9647 10.5239C57.7407 10.5239 57.554 10.4539 57.4047 10.3139C57.2554 10.1645 57.1807 9.95919 57.1807 9.69786V4.46186C57.1807 4.20052 57.2507 3.99986 57.3907 3.85986C57.54 3.71052 57.7314 3.63586 57.9647 3.63586C58.198 3.63586 58.3847 3.71052 58.5247 3.85986C58.674 3.99986 58.7487 4.20052 58.7487 4.46186V4.48986Z" fill="#BEBEBE"/>
</svg>
