<svg width="106" height="10" viewBox="0 0 106 10" fill="none" xmlns="http://www.w3.org/2000/svg">
<path d="M2.06586 7.34939C1.7952 7.34939 1.53853 7.29806 1.29586 7.19539C1.06253 7.09273 0.857197 6.95739 0.679863 6.78939C0.511863 6.61206 0.37653 6.40673 0.273863 6.17339C0.171197 5.93073 0.119863 5.67406 0.119863 5.40339C0.119863 5.13273 0.171197 4.88073 0.273863 4.64739C0.37653 4.40473 0.511863 4.19939 0.679863 4.03139C0.857197 3.85406 1.06253 3.71406 1.29586 3.61139C1.53853 3.50873 1.7952 3.45739 2.06586 3.45739C2.33653 3.45739 2.58853 3.50873 2.82186 3.61139C3.06453 3.71406 3.26986 3.85406 3.43786 4.03139C3.6152 4.19939 3.7552 4.40473 3.85786 4.64739C3.96053 4.88073 4.01186 5.13273 4.01186 5.40339C4.01186 5.67406 3.96053 5.93073 3.85786 6.17339C3.7552 6.40673 3.6152 6.61206 3.43786 6.78939C3.26986 6.95739 3.06453 7.09273 2.82186 7.19539C2.58853 7.29806 2.33653 7.34939 2.06586 7.34939ZM12.3772 9.01539C12.3772 8.95939 12.3819 8.90806 12.3912 8.86139C12.4005 8.80539 12.4145 8.75406 12.4332 8.70739L15.2052 1.06339C15.3079 0.764726 15.4432 0.536059 15.6112 0.377392C15.7792 0.209392 16.0079 0.125392 16.2972 0.125392C16.5865 0.125392 16.8152 0.209392 16.9832 0.377392C17.1605 0.536059 17.3005 0.764726 17.4032 1.06339L20.1472 8.70739C20.1659 8.75406 20.1799 8.80539 20.1892 8.86139C20.1985 8.90806 20.2032 8.95939 20.2032 9.01539C20.2032 9.25806 20.1239 9.44939 19.9652 9.58939C19.8065 9.72006 19.6199 9.78539 19.4052 9.78539C19.2185 9.78539 19.0552 9.73873 18.9152 9.64539C18.7845 9.54273 18.6865 9.39806 18.6212 9.21139L18.1032 7.72739H14.4632L13.9592 9.21139C13.8939 9.39806 13.7912 9.54273 13.6512 9.64539C13.5205 9.73873 13.3619 9.78539 13.1752 9.78539C12.9605 9.78539 12.7739 9.72006 12.6152 9.58939C12.4565 9.44939 12.3772 9.25806 12.3772 9.01539ZM17.5992 6.25739L16.3112 2.54739H16.2692L14.9812 6.25739H17.5992ZM21.4798 1.00739C21.4798 0.746059 21.5685 0.526726 21.7458 0.349393C21.9325 0.162726 22.1565 0.0693929 22.4178 0.0693929C22.6791 0.0693929 22.8985 0.162726 23.0758 0.349393C23.2625 0.526726 23.3558 0.746059 23.3558 1.00739C23.3558 1.26873 23.2625 1.49273 23.0758 1.67939C22.8985 1.85673 22.6791 1.94539 22.4178 1.94539C22.1565 1.94539 21.9325 1.85673 21.7458 1.67939C21.5685 1.49273 21.4798 1.26873 21.4798 1.00739ZM22.4178 9.78539C22.1845 9.78539 21.9931 9.71539 21.8438 9.57539C21.7038 9.42606 21.6338 9.22073 21.6338 8.95939V3.72339C21.6338 3.46206 21.7038 3.26139 21.8438 3.12139C21.9931 2.97206 22.1845 2.89739 22.4178 2.89739C22.6511 2.89739 22.8378 2.97206 22.9778 3.12139C23.1271 3.26139 23.2018 3.46206 23.2018 3.72339V8.95939C23.2018 9.22073 23.1271 9.42606 22.9778 9.57539C22.8378 9.71539 22.6511 9.78539 22.4178 9.78539ZM25.2432 3.72339C25.2432 3.46206 25.3132 3.26139 25.4532 3.12139C25.6025 2.97206 25.7939 2.89739 26.0272 2.89739C26.2605 2.89739 26.4379 2.96273 26.5592 3.09339C26.6899 3.22406 26.7739 3.39206 26.8112 3.59739H26.8252C26.9745 3.38273 27.1939 3.20073 27.4832 3.05139C27.7819 2.89273 28.1552 2.81339 28.6032 2.81339C29.0045 2.81339 29.3592 2.89273 29.6672 3.05139C29.9845 3.20073 30.2459 3.42006 30.4512 3.70939H30.4652C30.7265 3.42939 31.0299 3.21006 31.3752 3.05139C31.7205 2.89273 32.1359 2.81339 32.6212 2.81339C33.0132 2.81339 33.3585 2.87873 33.6572 3.00939C33.9652 3.13073 34.2219 3.30339 34.4272 3.52739C34.6419 3.75139 34.8005 4.01739 34.9032 4.32539C35.0152 4.62406 35.0712 4.95539 35.0712 5.31939V8.95939C35.0712 9.22073 34.9965 9.42606 34.8472 9.57539C34.7072 9.71539 34.5205 9.78539 34.2872 9.78539C34.0539 9.78539 33.8625 9.71539 33.7132 9.57539C33.5732 9.42606 33.5032 9.22073 33.5032 8.95939V5.68339C33.5032 5.24473 33.3959 4.89006 33.1812 4.61939C32.9665 4.34873 32.6492 4.21339 32.2292 4.21339C31.8185 4.21339 31.5012 4.34873 31.2772 4.61939C31.0532 4.89006 30.9412 5.24473 30.9412 5.68339V8.95939C30.9412 9.22073 30.8665 9.42606 30.7172 9.57539C30.5772 9.71539 30.3905 9.78539 30.1572 9.78539C29.9239 9.78539 29.7325 9.71539 29.5832 9.57539C29.4432 9.42606 29.3732 9.22073 29.3732 8.95939V5.68339C29.3732 5.24473 29.2659 4.89006 29.0512 4.61939C28.8365 4.34873 28.5192 4.21339 28.0992 4.21339C27.6885 4.21339 27.3712 4.34873 27.1472 4.61939C26.9232 4.89006 26.8112 5.24473 26.8112 5.68339V8.95939C26.8112 9.22073 26.7365 9.42606 26.5872 9.57539C26.4472 9.71539 26.2605 9.78539 26.0272 9.78539C25.7939 9.78539 25.6025 9.71539 25.4532 9.57539C25.3132 9.42606 25.2432 9.22073 25.2432 8.95939V3.72339ZM39.7756 9.01539C39.7756 8.95939 39.7803 8.90806 39.7896 8.86139C39.799 8.80539 39.813 8.75406 39.8316 8.70739L42.6036 1.06339C42.7063 0.764726 42.8416 0.536059 43.0096 0.377392C43.1776 0.209392 43.4063 0.125392 43.6956 0.125392C43.985 0.125392 44.2136 0.209392 44.3816 0.377392C44.559 0.536059 44.699 0.764726 44.8016 1.06339L47.5456 8.70739C47.5643 8.75406 47.5783 8.80539 47.5876 8.86139C47.597 8.90806 47.6016 8.95939 47.6016 9.01539C47.6016 9.25806 47.5223 9.44939 47.3636 9.58939C47.205 9.72006 47.0183 9.78539 46.8036 9.78539C46.617 9.78539 46.4536 9.73873 46.3136 9.64539C46.183 9.54273 46.085 9.39806 46.0196 9.21139L45.5016 7.72739H41.8616L41.3576 9.21139C41.2923 9.39806 41.1896 9.54273 41.0496 9.64539C40.919 9.73873 40.7603 9.78539 40.5736 9.78539C40.359 9.78539 40.1723 9.72006 40.0136 9.58939C39.855 9.44939 39.7756 9.25806 39.7756 9.01539ZM44.9976 6.25739L43.7096 2.54739H43.6676L42.3796 6.25739H44.9976ZM51.5103 9.86939C50.9876 9.86939 50.5163 9.80406 50.0963 9.67339C49.6763 9.53339 49.3263 9.37006 49.0463 9.18339C48.7943 9.02473 48.6683 8.81473 48.6683 8.55339C48.6683 8.36673 48.7336 8.20339 48.8643 8.06339C48.9949 7.91406 49.1676 7.83939 49.3823 7.83939C49.5316 7.83939 49.6949 7.89073 49.8723 7.99339C50.1336 8.15206 50.3949 8.28273 50.6563 8.38539C50.9269 8.48806 51.2396 8.53939 51.5943 8.53939C51.9863 8.53939 52.2896 8.46939 52.5043 8.32939C52.7283 8.18939 52.8403 7.99339 52.8403 7.74139C52.8403 7.53606 52.7609 7.37273 52.6023 7.25139C52.4529 7.13006 52.1589 7.04606 51.7203 6.99939L50.9923 6.92939C50.2923 6.85473 49.7696 6.64939 49.4243 6.31339C49.0883 5.97739 48.9203 5.52006 48.9203 4.94139C48.9203 4.29739 49.1443 3.78406 49.5923 3.40139C50.0403 3.00939 50.6889 2.81339 51.5383 2.81339C51.9303 2.81339 52.2989 2.86006 52.6443 2.95339C52.9989 3.04673 53.3116 3.16806 53.5823 3.31739C53.7409 3.40139 53.8576 3.49473 53.9323 3.59739C54.0163 3.70006 54.0583 3.82139 54.0583 3.96139C54.0583 4.15739 53.9976 4.32073 53.8763 4.45139C53.7549 4.58206 53.5963 4.64739 53.4003 4.64739C53.2696 4.64739 53.1063 4.59606 52.9103 4.49339C52.6956 4.39073 52.4623 4.30673 52.2103 4.24139C51.9583 4.16673 51.7063 4.12939 51.4543 4.12939C51.0996 4.12939 50.8383 4.19939 50.6703 4.33939C50.5116 4.47006 50.4323 4.63339 50.4323 4.82939C50.4323 5.02539 50.5069 5.18406 50.6563 5.30539C50.8149 5.41739 51.1089 5.49673 51.5383 5.54339L52.2663 5.61339C52.9849 5.68806 53.5123 5.89806 53.8483 6.24339C54.1843 6.58873 54.3523 7.04139 54.3523 7.60139C54.3523 8.27339 54.1096 8.81939 53.6243 9.23939C53.1389 9.65939 52.4343 9.86939 51.5103 9.86939ZM58.4829 9.86939C57.9602 9.86939 57.4889 9.80406 57.0689 9.67339C56.6489 9.53339 56.2989 9.37006 56.0189 9.18339C55.7669 9.02473 55.6409 8.81473 55.6409 8.55339C55.6409 8.36673 55.7062 8.20339 55.8369 8.06339C55.9676 7.91406 56.1402 7.83939 56.3549 7.83939C56.5042 7.83939 56.6676 7.89073 56.8449 7.99339C57.1062 8.15206 57.3676 8.28273 57.6289 8.38539C57.8996 8.48806 58.2122 8.53939 58.5669 8.53939C58.9589 8.53939 59.2622 8.46939 59.4769 8.32939C59.7009 8.18939 59.8129 7.99339 59.8129 7.74139C59.8129 7.53606 59.7336 7.37273 59.5749 7.25139C59.4256 7.13006 59.1316 7.04606 58.6929 6.99939L57.9649 6.92939C57.2649 6.85473 56.7422 6.64939 56.3969 6.31339C56.0609 5.97739 55.8929 5.52006 55.8929 4.94139C55.8929 4.29739 56.1169 3.78406 56.5649 3.40139C57.0129 3.00939 57.6616 2.81339 58.5109 2.81339C58.9029 2.81339 59.2716 2.86006 59.6169 2.95339C59.9716 3.04673 60.2842 3.16806 60.5549 3.31739C60.7136 3.40139 60.8302 3.49473 60.9049 3.59739C60.9889 3.70006 61.0309 3.82139 61.0309 3.96139C61.0309 4.15739 60.9702 4.32073 60.8489 4.45139C60.7276 4.58206 60.5689 4.64739 60.3729 4.64739C60.2422 4.64739 60.0789 4.59606 59.8829 4.49339C59.6682 4.39073 59.4349 4.30673 59.1829 4.24139C58.9309 4.16673 58.6789 4.12939 58.4269 4.12939C58.0722 4.12939 57.8109 4.19939 57.6429 4.33939C57.4842 4.47006 57.4049 4.63339 57.4049 4.82939C57.4049 5.02539 57.4796 5.18406 57.6289 5.30539C57.7876 5.41739 58.0816 5.49673 58.5109 5.54339L59.2389 5.61339C59.9576 5.68806 60.4849 5.89806 60.8209 6.24339C61.1569 6.58873 61.3249 7.04139 61.3249 7.60139C61.3249 8.27339 61.0822 8.81939 60.5969 9.23939C60.1116 9.65939 59.4069 9.86939 58.4829 9.86939ZM62.8236 1.00739C62.8236 0.746059 62.9122 0.526726 63.0896 0.349393C63.2762 0.162726 63.5002 0.0693929 63.7616 0.0693929C64.0229 0.0693929 64.2422 0.162726 64.4196 0.349393C64.6062 0.526726 64.6996 0.746059 64.6996 1.00739C64.6996 1.26873 64.6062 1.49273 64.4196 1.67939C64.2422 1.85673 64.0229 1.94539 63.7616 1.94539C63.5002 1.94539 63.2762 1.85673 63.0896 1.67939C62.9122 1.49273 62.8236 1.26873 62.8236 1.00739ZM63.7616 9.78539C63.5282 9.78539 63.3369 9.71539 63.1876 9.57539C63.0476 9.42606 62.9776 9.22073 62.9776 8.95939V3.72339C62.9776 3.46206 63.0476 3.26139 63.1876 3.12139C63.3369 2.97206 63.5282 2.89739 63.7616 2.89739C63.9949 2.89739 64.1816 2.97206 64.3216 3.12139C64.4709 3.26139 64.5456 3.46206 64.5456 3.72339V8.95939C64.5456 9.22073 64.4709 9.42606 64.3216 9.57539C64.1816 9.71539 63.9949 9.78539 63.7616 9.78539ZM69.0649 9.86939C68.5423 9.86939 68.0709 9.80406 67.6509 9.67339C67.2309 9.53339 66.8809 9.37006 66.6009 9.18339C66.3489 9.02473 66.2229 8.81473 66.2229 8.55339C66.2229 8.36673 66.2883 8.20339 66.4189 8.06339C66.5496 7.91406 66.7223 7.83939 66.9369 7.83939C67.0863 7.83939 67.2496 7.89073 67.4269 7.99339C67.6883 8.15206 67.9496 8.28273 68.2109 8.38539C68.4816 8.48806 68.7943 8.53939 69.1489 8.53939C69.5409 8.53939 69.8443 8.46939 70.0589 8.32939C70.2829 8.18939 70.3949 7.99339 70.3949 7.74139C70.3949 7.53606 70.3156 7.37273 70.1569 7.25139C70.0076 7.13006 69.7136 7.04606 69.2749 6.99939L68.5469 6.92939C67.8469 6.85473 67.3243 6.64939 66.9789 6.31339C66.6429 5.97739 66.4749 5.52006 66.4749 4.94139C66.4749 4.29739 66.6989 3.78406 67.1469 3.40139C67.5949 3.00939 68.2436 2.81339 69.0929 2.81339C69.4849 2.81339 69.8536 2.86006 70.1989 2.95339C70.5536 3.04673 70.8663 3.16806 71.1369 3.31739C71.2956 3.40139 71.4123 3.49473 71.4869 3.59739C71.5709 3.70006 71.6129 3.82139 71.6129 3.96139C71.6129 4.15739 71.5523 4.32073 71.4309 4.45139C71.3096 4.58206 71.1509 4.64739 70.9549 4.64739C70.8243 4.64739 70.6609 4.59606 70.4649 4.49339C70.2503 4.39073 70.0169 4.30673 69.7649 4.24139C69.5129 4.16673 69.2609 4.12939 69.0089 4.12939C68.6543 4.12939 68.3929 4.19939 68.2249 4.33939C68.0663 4.47006 67.9869 4.63339 67.9869 4.82939C67.9869 5.02539 68.0616 5.18406 68.2109 5.30539C68.3696 5.41739 68.6636 5.49673 69.0929 5.54339L69.8209 5.61339C70.5396 5.68806 71.0669 5.89806 71.4029 6.24339C71.7389 6.58873 71.9069 7.04139 71.9069 7.60139C71.9069 8.27339 71.6643 8.81939 71.1789 9.23939C70.6936 9.65939 69.9889 9.86939 69.0649 9.86939ZM73.3636 4.18539C73.1676 4.18539 73.0089 4.13406 72.8876 4.03139C72.7756 3.91939 72.7196 3.77006 72.7196 3.58339C72.7196 3.39673 72.7756 3.24739 72.8876 3.13539C73.0089 3.02339 73.1676 2.96739 73.3636 2.96739H73.5596C73.6249 2.96739 73.6576 2.93939 73.6576 2.88339V1.65139C73.6576 1.39006 73.7323 1.18939 73.8816 1.04939C74.0309 0.900059 74.2223 0.825392 74.4556 0.825392C74.6796 0.825392 74.8616 0.900059 75.0016 1.04939C75.1509 1.18939 75.2256 1.39006 75.2256 1.65139V2.88339C75.2256 2.93939 75.2536 2.96739 75.3096 2.96739H76.0236C76.2196 2.96739 76.3736 3.02339 76.4856 3.13539C76.6069 3.24739 76.6676 3.39673 76.6676 3.58339C76.6676 3.77006 76.6069 3.91939 76.4856 4.03139C76.3736 4.13406 76.2196 4.18539 76.0236 4.18539H75.3096C75.2536 4.18539 75.2256 4.21339 75.2256 4.26939V7.62939C75.2256 7.90006 75.2723 8.09139 75.3656 8.20339C75.4683 8.30606 75.6643 8.37139 75.9536 8.39939C76.1963 8.41806 76.3736 8.49739 76.4856 8.63739C76.6069 8.76806 76.6676 8.92206 76.6676 9.09939C76.6676 9.29539 76.5976 9.46339 76.4576 9.60339C76.3176 9.73406 76.1029 9.79939 75.8136 9.79939H75.6876C74.9503 9.79939 74.4276 9.63139 74.1196 9.29539C73.8116 8.95006 73.6576 8.40873 73.6576 7.67139V4.26939C73.6576 4.21339 73.6249 4.18539 73.5596 4.18539H73.3636ZM80.7733 9.86939C80.0453 9.86939 79.4386 9.70606 78.9533 9.37939C78.468 9.04339 78.132 8.58139 77.9453 7.99339C77.8706 7.77873 77.81 7.54073 77.7633 7.27939C77.726 7.00873 77.7073 6.69606 77.7073 6.34139C77.7073 5.98673 77.726 5.67406 77.7633 5.40339C77.8006 5.13273 77.8566 4.89006 77.9313 4.67539C78.118 4.08739 78.454 3.63006 78.9393 3.30339C79.434 2.97673 80.0173 2.81339 80.6893 2.81339C81.3893 2.81339 81.9773 2.98139 82.4533 3.31739C82.9386 3.64406 83.2747 4.09673 83.4613 4.67539C83.536 4.89939 83.592 5.14673 83.6293 5.41739C83.6667 5.67873 83.6853 5.97273 83.6853 6.29939C83.6853 6.45806 83.6387 6.58873 83.5453 6.69139C83.452 6.79406 83.3167 6.84539 83.1393 6.84539H79.3733C79.3173 6.84539 79.2893 6.87339 79.2893 6.92939C79.2893 7.03206 79.2986 7.12539 79.3173 7.20939C79.336 7.29339 79.3593 7.37273 79.3873 7.44739C79.6206 8.12873 80.1293 8.46939 80.9133 8.46939C81.2026 8.46939 81.45 8.43206 81.6553 8.35739C81.87 8.27339 82.0847 8.15673 82.2993 8.00739C82.3927 7.94206 82.486 7.89073 82.5793 7.85339C82.6727 7.80673 82.7707 7.78339 82.8733 7.78339C83.0786 7.78339 83.2373 7.84873 83.3493 7.97939C83.4707 8.10073 83.5313 8.25473 83.5313 8.44139C83.5313 8.68406 83.424 8.88939 83.2093 9.05739C82.9107 9.30006 82.5653 9.49606 82.1733 9.64539C81.7907 9.79473 81.324 9.86939 80.7733 9.86939ZM82.1033 5.58539C82.1033 5.37073 82.0753 5.17939 82.0193 5.01139C81.926 4.74073 81.7627 4.53073 81.5293 4.38139C81.296 4.22273 81.0206 4.14339 80.7033 4.14339C80.3766 4.14339 80.0966 4.22273 79.8633 4.38139C79.63 4.53073 79.4666 4.74073 79.3733 5.01139C79.3173 5.17939 79.2893 5.37073 79.2893 5.58539C79.2893 5.64139 79.3173 5.66939 79.3733 5.66939H82.0193C82.0753 5.66939 82.1033 5.64139 82.1033 5.58539ZM86.9541 3.59739C87.1314 3.35473 87.3694 3.16339 87.6681 3.02339C87.9761 2.88339 88.3308 2.81339 88.7321 2.81339C89.0961 2.81339 89.4181 2.87873 89.6981 3.00939C89.9874 3.13073 90.2348 3.30339 90.4401 3.52739C90.6454 3.75139 90.7994 4.01739 90.9021 4.32539C91.0141 4.62406 91.0701 4.95539 91.0701 5.31939V8.95939C91.0701 9.22073 90.9954 9.42606 90.8461 9.57539C90.7061 9.71539 90.5194 9.78539 90.2861 9.78539C90.0528 9.78539 89.8614 9.71539 89.7121 9.57539C89.5721 9.42606 89.5021 9.22073 89.5021 8.95939V5.68339C89.5021 5.24473 89.3948 4.89006 89.1801 4.61939C88.9748 4.34873 88.6574 4.21339 88.2281 4.21339C87.8081 4.21339 87.4861 4.34873 87.2621 4.61939C87.0474 4.89006 86.9401 5.24473 86.9401 5.68339V8.95939C86.9401 9.22073 86.8654 9.42606 86.7161 9.57539C86.5761 9.71539 86.3894 9.78539 86.1561 9.78539C85.9228 9.78539 85.7314 9.71539 85.5821 9.57539C85.4421 9.42606 85.3721 9.22073 85.3721 8.95939V3.72339C85.3721 3.46206 85.4421 3.26139 85.5821 3.12139C85.7314 2.97206 85.9228 2.89739 86.1561 2.89739C86.3894 2.89739 86.5668 2.96273 86.6881 3.09339C86.8188 3.22406 86.9028 3.39206 86.9401 3.59739H86.9541ZM95.66 9.86939C94.9787 9.86939 94.3954 9.71073 93.91 9.39339C93.4247 9.07606 93.084 8.61406 92.888 8.00739C92.748 7.58739 92.678 7.03206 92.678 6.34139C92.678 5.65073 92.748 5.09539 92.888 4.67539C93.084 4.06873 93.4247 3.60673 93.91 3.28939C94.3954 2.97206 94.9787 2.81339 95.66 2.81339C96.136 2.81339 96.556 2.89739 96.92 3.06539C97.284 3.22406 97.5734 3.42473 97.788 3.66739C97.8907 3.77939 97.9607 3.88673 97.998 3.98939C98.0447 4.08273 98.068 4.18073 98.068 4.28339C98.068 4.47939 98.0027 4.64273 97.872 4.77339C97.7414 4.90406 97.578 4.96939 97.382 4.96939C97.2607 4.96939 97.1487 4.94139 97.046 4.88539C96.9434 4.82006 96.8407 4.73606 96.738 4.63339C96.6074 4.49339 96.458 4.39073 96.29 4.32539C96.122 4.25073 95.9167 4.21339 95.674 4.21339C95.3754 4.21339 95.114 4.28806 94.89 4.43739C94.6754 4.57739 94.5167 4.79673 94.414 5.09539C94.358 5.26339 94.3207 5.45006 94.302 5.65539C94.2834 5.85139 94.274 6.08006 94.274 6.34139C94.274 6.60273 94.2834 6.83606 94.302 7.04139C94.3207 7.23739 94.358 7.41939 94.414 7.58739C94.5167 7.88606 94.6754 8.11006 94.89 8.25939C95.114 8.39939 95.3754 8.46939 95.674 8.46939C95.9167 8.46939 96.122 8.43673 96.29 8.37139C96.458 8.29673 96.6074 8.18939 96.738 8.04939C96.8407 7.94673 96.9434 7.86739 97.046 7.81139C97.1487 7.74606 97.2607 7.71339 97.382 7.71339C97.578 7.71339 97.7414 7.77873 97.872 7.90939C98.0027 8.04006 98.068 8.20339 98.068 8.39939C98.068 8.50206 98.0447 8.60473 97.998 8.70739C97.9607 8.80073 97.8907 8.90339 97.788 9.01539C97.5734 9.25806 97.284 9.46339 96.92 9.63139C96.556 9.79006 96.136 9.86939 95.66 9.86939ZM102.402 9.86939C101.674 9.86939 101.068 9.70606 100.582 9.37939C100.097 9.04339 99.7609 8.58139 99.5742 7.99339C99.4996 7.77873 99.4389 7.54073 99.3922 7.27939C99.3549 7.00873 99.3362 6.69606 99.3362 6.34139C99.3362 5.98673 99.3549 5.67406 99.3922 5.40339C99.4296 5.13273 99.4856 4.89006 99.5602 4.67539C99.7469 4.08739 100.083 3.63006 100.568 3.30339C101.063 2.97673 101.646 2.81339 102.318 2.81339C103.018 2.81339 103.606 2.98139 104.082 3.31739C104.568 3.64406 104.904 4.09673 105.09 4.67539C105.165 4.89939 105.221 5.14673 105.258 5.41739C105.296 5.67873 105.314 5.97273 105.314 6.29939C105.314 6.45806 105.268 6.58873 105.174 6.69139C105.081 6.79406 104.946 6.84539 104.768 6.84539H101.002C100.946 6.84539 100.918 6.87339 100.918 6.92939C100.918 7.03206 100.928 7.12539 100.946 7.20939C100.965 7.29339 100.988 7.37273 101.016 7.44739C101.25 8.12873 101.758 8.46939 102.542 8.46939C102.832 8.46939 103.079 8.43206 103.284 8.35739C103.499 8.27339 103.714 8.15673 103.928 8.00739C104.022 7.94206 104.115 7.89073 104.208 7.85339C104.302 7.80673 104.4 7.78339 104.502 7.78339C104.708 7.78339 104.866 7.84873 104.978 7.97939C105.1 8.10073 105.16 8.25473 105.16 8.44139C105.16 8.68406 105.053 8.88939 104.838 9.05739C104.54 9.30006 104.194 9.49606 103.802 9.64539C103.42 9.79473 102.953 9.86939 102.402 9.86939ZM103.732 5.58539C103.732 5.37073 103.704 5.17939 103.648 5.01139C103.555 4.74073 103.392 4.53073 103.158 4.38139C102.925 4.22273 102.65 4.14339 102.332 4.14339C102.006 4.14339 101.726 4.22273 101.492 4.38139C101.259 4.53073 101.096 4.74073 101.002 5.01139C100.946 5.17939 100.918 5.37073 100.918 5.58539C100.918 5.64139 100.946 5.66939 101.002 5.66939H103.648C103.704 5.66939 103.732 5.64139 103.732 5.58539Z" fill="white"/>
</svg>
