<svg width="52" height="11" viewBox="0 0 52 11" fill="none" xmlns="http://www.w3.org/2000/svg">
<path d="M2.06586 8.19552C1.7952 8.19552 1.53853 8.14419 1.29586 8.04152C1.06253 7.93886 0.857197 7.80352 0.679863 7.63552C0.511863 7.45819 0.37653 7.25286 0.273863 7.01952C0.171197 6.77686 0.119863 6.52019 0.119863 6.24952C0.119863 5.97886 0.171197 5.72686 0.273863 5.49352C0.37653 5.25086 0.511863 5.04552 0.679863 4.87752C0.857197 4.70019 1.06253 4.56019 1.29586 4.45752C1.53853 4.35486 1.7952 4.30352 2.06586 4.30352C2.33653 4.30352 2.58853 4.35486 2.82186 4.45752C3.06453 4.56019 3.26986 4.70019 3.43786 4.87752C3.6152 5.04552 3.7552 5.25086 3.85786 5.49352C3.96053 5.72686 4.01186 5.97886 4.01186 6.24952C4.01186 6.52019 3.96053 6.77686 3.85786 7.01952C3.7552 7.25286 3.6152 7.45819 3.43786 7.63552C3.26986 7.80352 3.06453 7.93886 2.82186 8.04152C2.58853 8.14419 2.33653 8.19552 2.06586 8.19552ZM12.3772 9.86152C12.3772 9.80552 12.3819 9.75419 12.3912 9.70752C12.4005 9.65152 12.4145 9.60019 12.4332 9.55352L15.2052 1.90952C15.3079 1.61086 15.4432 1.38219 15.6112 1.22352C15.7792 1.05552 16.0079 0.971523 16.2972 0.971523C16.5865 0.971523 16.8152 1.05552 16.9832 1.22352C17.1605 1.38219 17.3005 1.61086 17.4032 1.90952L20.1472 9.55352C20.1659 9.60019 20.1799 9.65152 20.1892 9.70752C20.1985 9.75419 20.2032 9.80552 20.2032 9.86152C20.2032 10.1042 20.1239 10.2955 19.9652 10.4355C19.8065 10.5662 19.6199 10.6315 19.4052 10.6315C19.2185 10.6315 19.0552 10.5849 18.9152 10.4915C18.7845 10.3889 18.6865 10.2442 18.6212 10.0575L18.1032 8.57352H14.4632L13.9592 10.0575C13.8939 10.2442 13.7912 10.3889 13.6512 10.4915C13.5205 10.5849 13.3619 10.6315 13.1752 10.6315C12.9605 10.6315 12.7739 10.5662 12.6152 10.4355C12.4565 10.2955 12.3772 10.1042 12.3772 9.86152ZM17.5992 7.10352L16.3112 3.39352H16.2692L14.9812 7.10352H17.5992ZM23.2018 4.59752H23.2158C23.3651 4.33619 23.5845 4.11686 23.8738 3.93952C24.1725 3.75286 24.5225 3.65952 24.9238 3.65952C25.1105 3.65952 25.2738 3.67819 25.4138 3.71552C25.5538 3.75286 25.6751 3.79486 25.7778 3.84152C26.0578 3.99086 26.1978 4.20552 26.1978 4.48552C26.1978 4.71886 26.1278 4.91019 25.9878 5.05952C25.8478 5.20886 25.6611 5.28352 25.4278 5.28352C25.3251 5.28352 25.2038 5.26019 25.0638 5.21352C24.9611 5.18552 24.8538 5.16219 24.7418 5.14352C24.6391 5.11552 24.5365 5.10152 24.4338 5.10152C23.9951 5.10152 23.6778 5.26019 23.4818 5.57752C23.2951 5.88552 23.2018 6.29619 23.2018 6.80952V9.80552C23.2018 10.0669 23.1271 10.2722 22.9778 10.4215C22.8378 10.5615 22.6511 10.6315 22.4178 10.6315C22.1938 10.6315 22.0071 10.5615 21.8578 10.4215C21.7085 10.2722 21.6338 10.0669 21.6338 9.80552V4.56952C21.6338 4.30819 21.7038 4.10752 21.8438 3.96752C21.9931 3.81819 22.1845 3.74352 22.4178 3.74352C22.6511 3.74352 22.8378 3.81819 22.9778 3.96752C23.1271 4.10752 23.2018 4.30819 23.2018 4.56952V4.59752ZM27.5127 4.56952C27.5127 4.30819 27.5827 4.10752 27.7227 3.96752C27.8721 3.81819 28.0634 3.74352 28.2967 3.74352C28.5301 3.74352 28.7074 3.80886 28.8287 3.93952C28.9594 4.07019 29.0434 4.23819 29.0807 4.44352H29.0947C29.2441 4.22886 29.4634 4.04686 29.7527 3.89752C30.0514 3.73886 30.4247 3.65952 30.8727 3.65952C31.2741 3.65952 31.6287 3.73886 31.9367 3.89752C32.2541 4.04686 32.5154 4.26619 32.7207 4.55552H32.7347C32.9961 4.27552 33.2994 4.05619 33.6447 3.89752C33.9901 3.73886 34.4054 3.65952 34.8907 3.65952C35.2827 3.65952 35.6281 3.72486 35.9267 3.85552C36.2347 3.97686 36.4914 4.14952 36.6967 4.37352C36.9114 4.59752 37.0701 4.86352 37.1727 5.17152C37.2847 5.47019 37.3407 5.80152 37.3407 6.16552V9.80552C37.3407 10.0669 37.2661 10.2722 37.1167 10.4215C36.9767 10.5615 36.7901 10.6315 36.5567 10.6315C36.3234 10.6315 36.1321 10.5615 35.9827 10.4215C35.8427 10.2722 35.7727 10.0669 35.7727 9.80552V6.52952C35.7727 6.09086 35.6654 5.73619 35.4507 5.46552C35.2361 5.19486 34.9187 5.05952 34.4987 5.05952C34.0881 5.05952 33.7707 5.19486 33.5467 5.46552C33.3227 5.73619 33.2107 6.09086 33.2107 6.52952V9.80552C33.2107 10.0669 33.1361 10.2722 32.9867 10.4215C32.8467 10.5615 32.6601 10.6315 32.4267 10.6315C32.1934 10.6315 32.0021 10.5615 31.8527 10.4215C31.7127 10.2722 31.6427 10.0669 31.6427 9.80552V6.52952C31.6427 6.09086 31.5354 5.73619 31.3207 5.46552C31.1061 5.19486 30.7887 5.05952 30.3687 5.05952C29.9581 5.05952 29.6407 5.19486 29.4167 5.46552C29.1927 5.73619 29.0807 6.09086 29.0807 6.52952V9.80552C29.0807 10.0669 29.0061 10.2722 28.8567 10.4215C28.7167 10.5615 28.5301 10.6315 28.2967 10.6315C28.0634 10.6315 27.8721 10.5615 27.7227 10.4215C27.5827 10.2722 27.5127 10.0669 27.5127 9.80552V4.56952ZM44.9956 9.44152C45.0796 9.60019 45.1216 9.75419 45.1216 9.90352C45.1216 10.1182 45.0469 10.2955 44.8976 10.4355C44.7482 10.5662 44.5616 10.6315 44.3376 10.6315C44.0482 10.6315 43.8289 10.5242 43.6796 10.3095L43.4556 9.97352H43.4416C43.2456 10.2069 42.9796 10.3889 42.6436 10.5195C42.3076 10.6502 41.9109 10.7155 41.4536 10.7155C40.6509 10.7155 40.0396 10.5382 39.6196 10.1835C39.2089 9.81952 39.0036 9.31552 39.0036 8.67152C39.0036 7.94352 39.2416 7.40219 39.7176 7.04752C40.1936 6.69286 40.8516 6.51552 41.6916 6.51552H43.0776C43.1336 6.51552 43.1616 6.48752 43.1616 6.43152V6.26352C43.1616 5.87152 43.0402 5.56819 42.7976 5.35352C42.5642 5.12952 42.1816 5.01752 41.6496 5.01752C41.4069 5.01752 41.1782 5.04552 40.9636 5.10152C40.7489 5.15752 40.5669 5.22286 40.4176 5.29752C40.2776 5.35352 40.1422 5.38152 40.0116 5.38152C39.8249 5.38152 39.6709 5.32552 39.5496 5.21352C39.4282 5.09219 39.3676 4.93352 39.3676 4.73752C39.3676 4.62552 39.3956 4.51352 39.4516 4.40152C39.5169 4.28952 39.6196 4.19619 39.7596 4.12152C39.9742 3.99086 40.2542 3.88352 40.5996 3.79952C40.9449 3.70619 41.3509 3.65952 41.8176 3.65952C42.7789 3.65952 43.4882 3.88819 43.9456 4.34552C44.4122 4.79352 44.6456 5.43752 44.6456 6.27752V8.40552C44.6456 8.58286 44.6549 8.71819 44.6736 8.81152C44.7016 8.89552 44.7389 8.98419 44.7856 9.07752L44.9956 9.44152ZM41.6776 9.44152C42.1349 9.44152 42.4942 9.35286 42.7556 9.17552C43.0262 8.99819 43.1616 8.73219 43.1616 8.37752V7.77552C43.1616 7.71952 43.1336 7.69152 43.0776 7.69152H41.9576C41.4349 7.69152 41.0616 7.76619 40.8376 7.91552C40.6136 8.06486 40.5016 8.29352 40.5016 8.60152C40.5016 9.16152 40.8936 9.44152 41.6776 9.44152ZM49.1177 10.7155C48.595 10.7155 48.1237 10.6502 47.7037 10.5195C47.2837 10.3795 46.9337 10.2162 46.6537 10.0295C46.4017 9.87086 46.2757 9.66086 46.2757 9.39952C46.2757 9.21286 46.341 9.04952 46.4717 8.90952C46.6023 8.76019 46.775 8.68552 46.9897 8.68552C47.139 8.68552 47.3023 8.73686 47.4797 8.83952C47.741 8.99819 48.0023 9.12886 48.2637 9.23152C48.5343 9.33419 48.847 9.38552 49.2017 9.38552C49.5937 9.38552 49.897 9.31552 50.1117 9.17552C50.3357 9.03552 50.4477 8.83952 50.4477 8.58752C50.4477 8.38219 50.3683 8.21886 50.2097 8.09752C50.0603 7.97619 49.7663 7.89219 49.3277 7.84552L48.5997 7.77552C47.8997 7.70086 47.377 7.49552 47.0317 7.15952C46.6957 6.82352 46.5277 6.36619 46.5277 5.78752C46.5277 5.14352 46.7517 4.63019 47.1997 4.24752C47.6477 3.85552 48.2963 3.65952 49.1457 3.65952C49.5377 3.65952 49.9063 3.70619 50.2517 3.79952C50.6063 3.89286 50.919 4.01419 51.1897 4.16352C51.3483 4.24752 51.465 4.34086 51.5397 4.44352C51.6237 4.54619 51.6657 4.66752 51.6657 4.80752C51.6657 5.00352 51.605 5.16686 51.4837 5.29752C51.3623 5.42819 51.2037 5.49352 51.0077 5.49352C50.877 5.49352 50.7137 5.44219 50.5177 5.33952C50.303 5.23686 50.0697 5.15286 49.8177 5.08752C49.5657 5.01286 49.3137 4.97552 49.0617 4.97552C48.707 4.97552 48.4457 5.04552 48.2777 5.18552C48.119 5.31619 48.0397 5.47952 48.0397 5.67552C48.0397 5.87152 48.1143 6.03019 48.2637 6.15152C48.4223 6.26352 48.7163 6.34286 49.1457 6.38952L49.8737 6.45952C50.5923 6.53419 51.1197 6.74419 51.4557 7.08952C51.7917 7.43486 51.9597 7.88752 51.9597 8.44752C51.9597 9.11952 51.717 9.66552 51.2317 10.0855C50.7463 10.5055 50.0417 10.7155 49.1177 10.7155Z" fill="white"/>
</svg>
