<svg width="89" height="11" viewBox="0 0 89 11" fill="none" xmlns="http://www.w3.org/2000/svg">
<path d="M2.06586 7.79556C1.7952 7.79556 1.53853 7.74423 1.29586 7.64156C1.06253 7.53889 0.857197 7.40356 0.679863 7.23556C0.511863 7.05823 0.37653 6.85289 0.273863 6.61956C0.171197 6.37689 0.119863 6.12023 0.119863 5.84956C0.119863 5.57889 0.171197 5.32689 0.273863 5.09356C0.37653 4.85089 0.511863 4.64556 0.679863 4.47756C0.857197 4.30023 1.06253 4.16023 1.29586 4.05756C1.53853 3.95489 1.7952 3.90356 2.06586 3.90356C2.33653 3.90356 2.58853 3.95489 2.82186 4.05756C3.06453 4.16023 3.26986 4.30023 3.43786 4.47756C3.6152 4.64556 3.7552 4.85089 3.85786 5.09356C3.96053 5.32689 4.01186 5.57889 4.01186 5.84956C4.01186 6.12023 3.96053 6.37689 3.85786 6.61956C3.7552 6.85289 3.6152 7.05823 3.43786 7.23556C3.26986 7.40356 3.06453 7.53889 2.82186 7.64156C2.58853 7.74423 2.33653 7.79556 2.06586 7.79556ZM15.5504 10.2316C15.3077 10.2316 15.107 10.1616 14.9484 10.0216C14.7897 9.88156 14.6497 9.63423 14.5284 9.27956L11.9384 1.69156C11.901 1.58889 11.8824 1.47223 11.8824 1.34156C11.8824 1.12689 11.957 0.944893 12.1064 0.79556C12.2557 0.646226 12.447 0.571559 12.6804 0.571559C13.0724 0.571559 13.3384 0.781559 13.4784 1.20156L15.5644 7.55756H15.6064L17.6084 1.20156C17.7484 0.781559 18.0144 0.571559 18.4064 0.571559C18.649 0.571559 18.8404 0.646226 18.9804 0.79556C19.1297 0.944893 19.2044 1.12689 19.2044 1.34156C19.2044 1.39756 19.1997 1.45823 19.1904 1.52356C19.181 1.57956 19.167 1.63556 19.1484 1.69156L16.5584 9.27956C16.437 9.63423 16.297 9.88156 16.1384 10.0216C15.9797 10.1616 15.7837 10.2316 15.5504 10.2316ZM20.3724 1.45356C20.3724 1.19223 20.4611 0.972893 20.6384 0.79556C20.8251 0.608893 21.0491 0.51556 21.3104 0.51556C21.5717 0.51556 21.7911 0.608893 21.9684 0.79556C22.1551 0.972893 22.2484 1.19223 22.2484 1.45356C22.2484 1.71489 22.1551 1.93889 21.9684 2.12556C21.7911 2.30289 21.5717 2.39156 21.3104 2.39156C21.0491 2.39156 20.8251 2.30289 20.6384 2.12556C20.4611 1.93889 20.3724 1.71489 20.3724 1.45356ZM21.3104 10.2316C21.0771 10.2316 20.8857 10.1616 20.7364 10.0216C20.5964 9.87223 20.5264 9.66689 20.5264 9.40556V4.16956C20.5264 3.90823 20.5964 3.70756 20.7364 3.56756C20.8857 3.41823 21.0771 3.34356 21.3104 3.34356C21.5437 3.34356 21.7304 3.41823 21.8704 3.56756C22.0197 3.70756 22.0944 3.90823 22.0944 4.16956V9.40556C22.0944 9.66689 22.0197 9.87223 21.8704 10.0216C21.7304 10.1616 21.5437 10.2316 21.3104 10.2316ZM26.6138 10.3156C26.0911 10.3156 25.6198 10.2502 25.1998 10.1196C24.7798 9.97956 24.4298 9.81623 24.1498 9.62956C23.8978 9.47089 23.7718 9.26089 23.7718 8.99956C23.7718 8.81289 23.8371 8.64956 23.9678 8.50956C24.0984 8.36023 24.2711 8.28556 24.4858 8.28556C24.6351 8.28556 24.7984 8.33689 24.9758 8.43956C25.2371 8.59823 25.4984 8.72889 25.7598 8.83156C26.0304 8.93423 26.3431 8.98556 26.6978 8.98556C27.0898 8.98556 27.3931 8.91556 27.6078 8.77556C27.8318 8.63556 27.9438 8.43956 27.9438 8.18756C27.9438 7.98223 27.8644 7.81889 27.7058 7.69756C27.5564 7.57623 27.2624 7.49223 26.8238 7.44556L26.0958 7.37556C25.3958 7.30089 24.8731 7.09556 24.5278 6.75956C24.1918 6.42356 24.0238 5.96623 24.0238 5.38756C24.0238 4.74356 24.2478 4.23023 24.6958 3.84756C25.1438 3.45556 25.7924 3.25956 26.6418 3.25956C27.0338 3.25956 27.4024 3.30623 27.7478 3.39956C28.1024 3.49289 28.4151 3.61423 28.6858 3.76356C28.8444 3.84756 28.9611 3.94089 29.0358 4.04356C29.1198 4.14623 29.1618 4.26756 29.1618 4.40756C29.1618 4.60356 29.1011 4.76689 28.9798 4.89756C28.8584 5.02823 28.6998 5.09356 28.5038 5.09356C28.3731 5.09356 28.2098 5.04223 28.0138 4.93956C27.7991 4.83689 27.5658 4.75289 27.3138 4.68756C27.0618 4.61289 26.8098 4.57556 26.5578 4.57556C26.2031 4.57556 25.9418 4.64556 25.7738 4.78556C25.6151 4.91623 25.5358 5.07956 25.5358 5.27556C25.5358 5.47156 25.6104 5.63023 25.7598 5.75156C25.9184 5.86356 26.2124 5.94289 26.6418 5.98956L27.3698 6.05956C28.0884 6.13423 28.6158 6.34423 28.9518 6.68956C29.2878 7.03489 29.4558 7.48756 29.4558 8.04756C29.4558 8.71956 29.2131 9.26556 28.7278 9.68556C28.2424 10.1056 27.5378 10.3156 26.6138 10.3156ZM35.8964 10.2316C35.6631 10.2316 35.4811 10.1662 35.3504 10.0356C35.2291 9.90489 35.1498 9.73689 35.1124 9.53156H35.0984C34.9211 9.77423 34.6831 9.96556 34.3844 10.1056C34.0858 10.2456 33.7358 10.3156 33.3344 10.3156C32.9704 10.3156 32.6438 10.2549 32.3544 10.1336C32.0744 10.0029 31.8364 9.82556 31.6404 9.60156C31.4444 9.37756 31.2904 9.11623 31.1784 8.81756C31.0758 8.50956 31.0244 8.17356 31.0244 7.80956V4.16956C31.0244 3.90823 31.0944 3.70756 31.2344 3.56756C31.3838 3.41823 31.5751 3.34356 31.8084 3.34356C32.0418 3.34356 32.2284 3.41823 32.3684 3.56756C32.5178 3.70756 32.5924 3.90823 32.5924 4.16956V7.44556C32.5924 7.88423 32.6904 8.23889 32.8864 8.50956C33.0918 8.78023 33.4091 8.91556 33.8384 8.91556C34.2584 8.91556 34.5758 8.78023 34.7904 8.50956C35.0051 8.23889 35.1124 7.88423 35.1124 7.44556V4.16956C35.1124 3.90823 35.1824 3.70756 35.3224 3.56756C35.4718 3.41823 35.6631 3.34356 35.8964 3.34356C36.1298 3.34356 36.3164 3.41823 36.4564 3.56756C36.6058 3.70756 36.6804 3.90823 36.6804 4.16956V9.40556C36.6804 9.66689 36.6058 9.87223 36.4564 10.0216C36.3164 10.1616 36.1298 10.2316 35.8964 10.2316ZM44.4077 9.04156C44.4917 9.20023 44.5337 9.35423 44.5337 9.50356C44.5337 9.71823 44.459 9.89556 44.3097 10.0356C44.1603 10.1662 43.9737 10.2316 43.7497 10.2316C43.4603 10.2316 43.241 10.1242 43.0917 9.90956L42.8677 9.57356H42.8537C42.6577 9.80689 42.3917 9.98889 42.0557 10.1196C41.7197 10.2502 41.323 10.3156 40.8657 10.3156C40.063 10.3156 39.4517 10.1382 39.0317 9.78356C38.621 9.41956 38.4157 8.91556 38.4157 8.27156C38.4157 7.54356 38.6537 7.00223 39.1297 6.64756C39.6057 6.29289 40.2637 6.11556 41.1037 6.11556H42.4897C42.5457 6.11556 42.5737 6.08756 42.5737 6.03156V5.86356C42.5737 5.47156 42.4523 5.16823 42.2097 4.95356C41.9763 4.72956 41.5937 4.61756 41.0617 4.61756C40.819 4.61756 40.5903 4.64556 40.3757 4.70156C40.161 4.75756 39.979 4.82289 39.8297 4.89756C39.6897 4.95356 39.5543 4.98156 39.4237 4.98156C39.237 4.98156 39.083 4.92556 38.9617 4.81356C38.8403 4.69223 38.7797 4.53356 38.7797 4.33756C38.7797 4.22556 38.8077 4.11356 38.8637 4.00156C38.929 3.88956 39.0317 3.79623 39.1717 3.72156C39.3863 3.59089 39.6663 3.48356 40.0117 3.39956C40.357 3.30623 40.763 3.25956 41.2297 3.25956C42.191 3.25956 42.9003 3.48823 43.3577 3.94556C43.8243 4.39356 44.0577 5.03756 44.0577 5.87756V8.00556C44.0577 8.18289 44.067 8.31823 44.0857 8.41156C44.1137 8.49556 44.151 8.58423 44.1977 8.67756L44.4077 9.04156ZM41.0897 9.04156C41.547 9.04156 41.9063 8.95289 42.1677 8.77556C42.4383 8.59823 42.5737 8.33223 42.5737 7.97756V7.37556C42.5737 7.31956 42.5457 7.29156 42.4897 7.29156H41.3697C40.847 7.29156 40.4737 7.36623 40.2497 7.51556C40.0257 7.66489 39.9137 7.89356 39.9137 8.20156C39.9137 8.76156 40.3057 9.04156 41.0897 9.04156ZM47.8718 10.2456C47.1811 10.2456 46.7005 10.0776 46.4298 9.74156C46.1591 9.40556 46.0238 8.91556 46.0238 8.27156V1.39756C46.0238 1.13623 46.0938 0.93556 46.2338 0.79556C46.3831 0.646226 46.5745 0.571559 46.8078 0.571559C47.0318 0.571559 47.2185 0.646226 47.3678 0.79556C47.5171 0.93556 47.5918 1.13623 47.5918 1.39756V8.14556C47.5918 8.38823 47.6338 8.56089 47.7178 8.66356C47.8018 8.75689 47.9418 8.81756 48.1378 8.84556C48.3711 8.87356 48.5391 8.95289 48.6418 9.08356C48.7445 9.20489 48.7958 9.35423 48.7958 9.53156C48.7958 9.73689 48.7305 9.90956 48.5998 10.0496C48.4691 10.1802 48.2638 10.2456 47.9838 10.2456H47.8718ZM53.3496 7.76756C53.3496 7.26356 53.4803 6.78289 53.7416 6.32556C54.0123 5.86823 54.4836 5.37823 55.1556 4.85556C54.9596 4.60356 54.7916 4.38423 54.6516 4.19756C54.5209 4.00156 54.4136 3.81956 54.3296 3.65156C54.2456 3.48356 54.1849 3.32489 54.1476 3.17556C54.1103 3.01689 54.0916 2.84889 54.0916 2.67156C54.0916 2.35423 54.1523 2.06489 54.2736 1.80356C54.3949 1.53289 54.5629 1.29956 54.7776 1.10356C54.9923 0.90756 55.2443 0.758226 55.5336 0.65556C55.8229 0.54356 56.1309 0.487559 56.4576 0.487559C56.8029 0.487559 57.1203 0.548226 57.4096 0.66956C57.6989 0.78156 57.9416 0.93556 58.1376 1.13156C58.3429 1.32756 58.5016 1.55623 58.6136 1.81756C58.7256 2.07889 58.7816 2.34956 58.7816 2.62956C58.7816 2.84423 58.7536 3.04956 58.6976 3.24556C58.6416 3.43223 58.5483 3.62356 58.4176 3.81956C58.2869 4.00623 58.1143 4.20223 57.8996 4.40756C57.6943 4.61289 57.4376 4.83223 57.1296 5.06556L58.6136 6.96956L59.2716 6.18556C59.4303 5.99889 59.6076 5.90556 59.8036 5.90556C59.9903 5.90556 60.1443 5.96623 60.2656 6.08756C60.3869 6.20889 60.4476 6.36289 60.4476 6.54956C60.4476 6.71756 60.3776 6.88556 60.2376 7.05356L59.4396 8.01956L59.7756 8.45356C59.8783 8.58423 59.9576 8.66823 60.0136 8.70556C60.0789 8.74289 60.1629 8.76156 60.2656 8.76156C60.4896 8.76156 60.6669 8.82689 60.7976 8.95756C60.9283 9.08823 60.9936 9.25623 60.9936 9.46156C60.9936 9.66689 60.9189 9.83489 60.7696 9.96556C60.6296 10.0962 60.4243 10.1616 60.1536 10.1616H60.0976C59.7803 10.1616 59.5236 10.1102 59.3276 10.0076C59.1409 9.90489 58.9356 9.70889 58.7116 9.41956L58.4736 9.12556C58.0629 9.53623 57.6663 9.83956 57.2836 10.0356C56.9103 10.2222 56.4809 10.3156 55.9956 10.3156C55.5569 10.3156 55.1696 10.2549 54.8336 10.1336C54.5069 10.0029 54.2316 9.82556 54.0076 9.60156C53.7929 9.36823 53.6296 9.09756 53.5176 8.78956C53.4056 8.47223 53.3496 8.13156 53.3496 7.76756ZM56.3036 4.00156C56.5276 3.83356 56.7049 3.68423 56.8356 3.55356C56.9756 3.42289 57.0829 3.30623 57.1576 3.20356C57.2323 3.10089 57.2836 3.00289 57.3116 2.90956C57.3396 2.81623 57.3536 2.71823 57.3536 2.61556C57.3536 2.38223 57.2696 2.18623 57.1016 2.02756C56.9336 1.85956 56.7236 1.77556 56.4716 1.77556C56.2009 1.77556 55.9816 1.85956 55.8136 2.02756C55.6456 2.18623 55.5616 2.38689 55.5616 2.62956C55.5616 2.71356 55.5709 2.79289 55.5896 2.86756C55.6083 2.94223 55.6409 3.03089 55.6876 3.13356C55.7436 3.22689 55.8183 3.34356 55.9116 3.48356C56.0143 3.62356 56.1449 3.79623 56.3036 4.00156ZM54.8056 7.68356C54.8056 8.06623 54.9176 8.37423 55.1416 8.60756C55.3749 8.84089 55.6969 8.95756 56.1076 8.95756C56.3689 8.95756 56.6163 8.89689 56.8496 8.77556C57.0829 8.64489 57.3583 8.41623 57.6756 8.08956L55.9816 5.91956C55.5243 6.27423 55.2116 6.59156 55.0436 6.87156C54.8849 7.15156 54.8056 7.42223 54.8056 7.68356ZM65.904 1.38356C65.904 1.15956 65.9693 0.982226 66.1 0.85156C66.2307 0.71156 66.4127 0.64156 66.646 0.64156H71.392C71.6533 0.64156 71.8587 0.71156 72.008 0.85156C72.1573 0.99156 72.232 1.16889 72.232 1.38356C72.232 1.59823 72.1573 1.77556 72.008 1.91556C71.8587 2.05556 71.6533 2.12556 71.392 2.12556H67.64C67.584 2.12556 67.556 2.15356 67.556 2.20956V4.53356C67.556 4.58956 67.584 4.61756 67.64 4.61756H70.692C70.9533 4.61756 71.1587 4.68756 71.308 4.82756C71.4573 4.96756 71.532 5.14489 71.532 5.35956C71.532 5.57423 71.4573 5.75156 71.308 5.89156C71.1587 6.03156 70.9533 6.10156 70.692 6.10156H67.64C67.584 6.10156 67.556 6.12956 67.556 6.18556V8.59356C67.556 8.64956 67.584 8.67756 67.64 8.67756H71.392C71.6533 8.67756 71.8587 8.74756 72.008 8.88756C72.1573 9.02756 72.232 9.20489 72.232 9.41956C72.232 9.63423 72.1573 9.81156 72.008 9.95156C71.8587 10.0916 71.6533 10.1616 71.392 10.1616H66.646C66.4127 10.1616 66.2307 10.0962 66.1 9.96556C65.9693 9.82556 65.904 9.64356 65.904 9.41956V1.38356ZM76.8564 10.3156C76.2124 10.3156 75.6384 10.2269 75.1344 10.0496C74.6304 9.87223 74.215 9.67623 73.8884 9.46156C73.6084 9.28423 73.4684 9.04623 73.4684 8.74756C73.4684 8.55156 73.5384 8.37889 73.6784 8.22956C73.8184 8.07089 73.9957 7.99156 74.2104 7.99156C74.3877 7.99156 74.565 8.04289 74.7424 8.14556C75.1064 8.36023 75.461 8.52823 75.8064 8.64956C76.161 8.77089 76.539 8.83156 76.9404 8.83156C77.5284 8.83156 77.981 8.71023 78.2984 8.46756C78.625 8.21556 78.7884 7.87956 78.7884 7.45956C78.7884 7.11423 78.667 6.82956 78.4244 6.60556C78.1817 6.38156 77.729 6.22756 77.0664 6.14356L76.5764 6.07356C74.6537 5.82156 73.6924 4.91156 73.6924 3.34356C73.6924 2.91423 73.767 2.52689 73.9164 2.18156C74.0657 1.82689 74.2804 1.52356 74.5604 1.27156C74.8404 1.01956 75.1764 0.828226 75.5684 0.697559C75.9697 0.557559 76.413 0.487559 76.8984 0.487559C77.421 0.487559 77.911 0.548226 78.3684 0.66956C78.835 0.790893 79.2084 0.944893 79.4884 1.13156C79.7684 1.29023 79.9084 1.51423 79.9084 1.80356C79.9084 2.01823 79.8384 2.19556 79.6984 2.33556C79.5677 2.46623 79.395 2.53156 79.1804 2.53156C79.0964 2.53156 79.0077 2.52223 78.9144 2.50356C78.821 2.47556 78.737 2.44289 78.6624 2.40556C78.3917 2.27489 78.107 2.17223 77.8084 2.09756C77.519 2.01356 77.211 1.97156 76.8844 1.97156C76.3804 1.97156 76.0024 2.09289 75.7504 2.33556C75.4984 2.57823 75.3724 2.88156 75.3724 3.24556C75.3724 3.59089 75.503 3.87089 75.7644 4.08556C76.0257 4.29089 76.4737 4.44023 77.1084 4.53356L77.5844 4.60356C78.5644 4.73423 79.2877 5.02823 79.7544 5.48556C80.2304 5.93356 80.4684 6.56823 80.4684 7.38956C80.4684 7.80956 80.389 8.20156 80.2304 8.56556C80.081 8.92023 79.857 9.22823 79.5584 9.48956C79.2597 9.75089 78.8817 9.95623 78.4244 10.1056C77.9764 10.2456 77.4537 10.3156 76.8564 10.3156ZM82.9312 10.2316C82.6885 10.2316 82.4878 10.1569 82.3292 10.0076C82.1798 9.84889 82.1052 9.63423 82.1052 9.36356V1.38356C82.1052 1.15956 82.1705 0.982226 82.3012 0.85156C82.4318 0.71156 82.6092 0.64156 82.8332 0.64156H85.8152C86.2725 0.64156 86.6925 0.716226 87.0752 0.86556C87.4672 1.00556 87.7985 1.20623 88.0692 1.46756C88.3492 1.71956 88.5638 2.02756 88.7132 2.39156C88.8718 2.75556 88.9512 3.15689 88.9512 3.59556C88.9512 4.04356 88.8718 4.44956 88.7132 4.81356C88.5638 5.17756 88.3492 5.49023 88.0692 5.75156C87.7985 6.00356 87.4672 6.20423 87.0752 6.35356C86.6925 6.49356 86.2725 6.56356 85.8152 6.56356H83.8412C83.7852 6.56356 83.7572 6.59156 83.7572 6.64756V9.36356C83.7572 9.63423 83.6778 9.84889 83.5192 10.0076C83.3698 10.1569 83.1738 10.2316 82.9312 10.2316ZM85.7172 5.06556C86.2118 5.06556 86.5992 4.93489 86.8792 4.67356C87.1592 4.40289 87.2992 4.04356 87.2992 3.59556C87.2992 3.15689 87.1592 2.80223 86.8792 2.53156C86.5992 2.26089 86.2118 2.12556 85.7172 2.12556H83.8412C83.7852 2.12556 83.7572 2.15356 83.7572 2.20956V4.98156C83.7572 5.03756 83.7852 5.06556 83.8412 5.06556H85.7172Z" fill="white"/>
</svg>
