<svg width="56" height="11" viewBox="0 0 56 11" fill="none" xmlns="http://www.w3.org/2000/svg">
<path d="M2.06586 7.64169C1.7952 7.64169 1.53853 7.59036 1.29586 7.48769C1.06253 7.38502 0.857197 7.24969 0.679863 7.08169C0.511863 6.90436 0.37653 6.69902 0.273863 6.46569C0.171197 6.22302 0.119863 5.96636 0.119863 5.69569C0.119863 5.42502 0.171197 5.17302 0.273863 4.93969C0.37653 4.69702 0.511863 4.49169 0.679863 4.32369C0.857197 4.14636 1.06253 4.00636 1.29586 3.90369C1.53853 3.80102 1.7952 3.74969 2.06586 3.74969C2.33653 3.74969 2.58853 3.80102 2.82186 3.90369C3.06453 4.00636 3.26986 4.14636 3.43786 4.32369C3.6152 4.49169 3.7552 4.69702 3.85786 4.93969C3.96053 5.17302 4.01186 5.42502 4.01186 5.69569C4.01186 5.96636 3.96053 6.22302 3.85786 6.46569C3.7552 6.69902 3.6152 6.90436 3.43786 7.08169C3.26986 7.24969 3.06453 7.38502 2.82186 7.48769C2.58853 7.59036 2.33653 7.64169 2.06586 7.64169ZM15.5504 10.0777C15.3077 10.0777 15.107 10.0077 14.9484 9.86769C14.7897 9.72769 14.6497 9.48036 14.5284 9.12569L11.9384 1.53769C11.901 1.43502 11.8824 1.31836 11.8824 1.18769C11.8824 0.973023 11.957 0.791023 12.1064 0.64169C12.2557 0.492356 12.447 0.41769 12.6804 0.41769C13.0724 0.41769 13.3384 0.62769 13.4784 1.04769L15.5644 7.40369H15.6064L17.6084 1.04769C17.7484 0.62769 18.0144 0.41769 18.4064 0.41769C18.649 0.41769 18.8404 0.492356 18.9804 0.64169C19.1297 0.791023 19.2044 0.973023 19.2044 1.18769C19.2044 1.24369 19.1997 1.30436 19.1904 1.36969C19.181 1.42569 19.167 1.48169 19.1484 1.53769L16.5584 9.12569C16.437 9.48036 16.297 9.72769 16.1384 9.86769C15.9797 10.0077 15.7837 10.0777 15.5504 10.0777ZM23.2284 10.1617C22.5004 10.1617 21.8937 9.99836 21.4084 9.67169C20.9231 9.33569 20.5871 8.87369 20.4004 8.28569C20.3257 8.07102 20.2651 7.83302 20.2184 7.57169C20.1811 7.30102 20.1624 6.98836 20.1624 6.63369C20.1624 6.27902 20.1811 5.96636 20.2184 5.69569C20.2557 5.42502 20.3117 5.18236 20.3864 4.96769C20.5731 4.37969 20.9091 3.92236 21.3944 3.59569C21.8891 3.26902 22.4724 3.10569 23.1444 3.10569C23.8444 3.10569 24.4324 3.27369 24.9084 3.60969C25.3937 3.93636 25.7297 4.38902 25.9164 4.96769C25.9911 5.19169 26.0471 5.43902 26.0844 5.70969C26.1217 5.97102 26.1404 6.26502 26.1404 6.59169C26.1404 6.75036 26.0937 6.88102 26.0004 6.98369C25.9071 7.08636 25.7717 7.13769 25.5944 7.13769H21.8284C21.7724 7.13769 21.7444 7.16569 21.7444 7.22169C21.7444 7.32436 21.7537 7.41769 21.7724 7.50169C21.7911 7.58569 21.8144 7.66502 21.8424 7.73969C22.0757 8.42102 22.5844 8.76169 23.3684 8.76169C23.6577 8.76169 23.9051 8.72436 24.1104 8.64969C24.3251 8.56569 24.5397 8.44902 24.7544 8.29969C24.8477 8.23436 24.9411 8.18302 25.0344 8.14569C25.1277 8.09902 25.2257 8.07569 25.3284 8.07569C25.5337 8.07569 25.6924 8.14102 25.8044 8.27169C25.9257 8.39302 25.9864 8.54702 25.9864 8.73369C25.9864 8.97636 25.8791 9.18169 25.6644 9.34969C25.3657 9.59236 25.0204 9.78836 24.6284 9.93769C24.2457 10.087 23.7791 10.1617 23.2284 10.1617ZM24.5584 5.87769C24.5584 5.66302 24.5304 5.47169 24.4744 5.30369C24.3811 5.03302 24.2177 4.82302 23.9844 4.67369C23.7511 4.51502 23.4757 4.43569 23.1584 4.43569C22.8317 4.43569 22.5517 4.51502 22.3184 4.67369C22.0851 4.82302 21.9217 5.03302 21.8284 5.30369C21.7724 5.47169 21.7444 5.66302 21.7444 5.87769C21.7444 5.93369 21.7724 5.96169 21.8284 5.96169H24.4744C24.5304 5.96169 24.5584 5.93369 24.5584 5.87769ZM27.6732 1.29969C27.6732 1.03836 27.7618 0.819023 27.9392 0.64169C28.1258 0.455024 28.3498 0.36169 28.6112 0.36169C28.8725 0.36169 29.0918 0.455024 29.2692 0.64169C29.4558 0.819023 29.5492 1.03836 29.5492 1.29969C29.5492 1.56102 29.4558 1.78502 29.2692 1.97169C29.0918 2.14902 28.8725 2.23769 28.6112 2.23769C28.3498 2.23769 28.1258 2.14902 27.9392 1.97169C27.7618 1.78502 27.6732 1.56102 27.6732 1.29969ZM28.6112 10.0777C28.3778 10.0777 28.1865 10.0077 28.0372 9.86769C27.8972 9.71836 27.8272 9.51302 27.8272 9.25169V4.01569C27.8272 3.75436 27.8972 3.55369 28.0372 3.41369C28.1865 3.26436 28.3778 3.18969 28.6112 3.18969C28.8445 3.18969 29.0312 3.26436 29.1712 3.41369C29.3205 3.55369 29.3952 3.75436 29.3952 4.01569V9.25169C29.3952 9.51302 29.3205 9.71836 29.1712 9.86769C29.0312 10.0077 28.8445 10.0777 28.6112 10.0777ZM34.0546 10.1617C33.3732 10.1617 32.7899 10.003 32.3046 9.68569C31.8192 9.36836 31.4786 8.90636 31.2826 8.29969C31.1426 7.87969 31.0726 7.32436 31.0726 6.63369C31.0726 5.94302 31.1426 5.38769 31.2826 4.96769C31.4786 4.36102 31.8192 3.89902 32.3046 3.58169C32.7899 3.26436 33.3732 3.10569 34.0546 3.10569C34.5306 3.10569 34.9506 3.18969 35.3146 3.35769C35.6786 3.51636 35.9679 3.71702 36.1826 3.95969C36.2852 4.07169 36.3552 4.17902 36.3926 4.28169C36.4392 4.37502 36.4626 4.47302 36.4626 4.57569C36.4626 4.77169 36.3972 4.93502 36.2666 5.06569C36.1359 5.19636 35.9726 5.26169 35.7766 5.26169C35.6552 5.26169 35.5432 5.23369 35.4406 5.17769C35.3379 5.11236 35.2352 5.02836 35.1326 4.92569C35.0019 4.78569 34.8526 4.68302 34.6846 4.61769C34.5166 4.54302 34.3112 4.50569 34.0686 4.50569C33.7699 4.50569 33.5086 4.58036 33.2846 4.72969C33.0699 4.86969 32.9112 5.08902 32.8086 5.38769C32.7526 5.55569 32.7152 5.74236 32.6966 5.94769C32.6779 6.14369 32.6686 6.37236 32.6686 6.63369C32.6686 6.89502 32.6779 7.12836 32.6966 7.33369C32.7152 7.52969 32.7526 7.71169 32.8086 7.87969C32.9112 8.17836 33.0699 8.40236 33.2846 8.55169C33.5086 8.69169 33.7699 8.76169 34.0686 8.76169C34.3112 8.76169 34.5166 8.72902 34.6846 8.66369C34.8526 8.58902 35.0019 8.48169 35.1326 8.34169C35.2352 8.23902 35.3379 8.15969 35.4406 8.10369C35.5432 8.03836 35.6552 8.00569 35.7766 8.00569C35.9726 8.00569 36.1359 8.07102 36.2666 8.20169C36.3972 8.33236 36.4626 8.49569 36.4626 8.69169C36.4626 8.79436 36.4392 8.89702 36.3926 8.99969C36.3552 9.09302 36.2852 9.19569 36.1826 9.30769C35.9679 9.55036 35.6786 9.75569 35.3146 9.92369C34.9506 10.0824 34.5306 10.1617 34.0546 10.1617ZM42.8828 10.0777C42.6494 10.0777 42.4674 10.0124 42.3368 9.88169C42.2154 9.75102 42.1361 9.58302 42.0988 9.37769H42.0848C41.9074 9.62036 41.6694 9.81169 41.3708 9.95169C41.0721 10.0917 40.7221 10.1617 40.3208 10.1617C39.9568 10.1617 39.6301 10.101 39.3408 9.97969C39.0608 9.84902 38.8228 9.67169 38.6268 9.44769C38.4308 9.22369 38.2768 8.96236 38.1648 8.66369C38.0621 8.35569 38.0108 8.01969 38.0108 7.65569V4.01569C38.0108 3.75436 38.0808 3.55369 38.2208 3.41369C38.3701 3.26436 38.5614 3.18969 38.7948 3.18969C39.0281 3.18969 39.2148 3.26436 39.3548 3.41369C39.5041 3.55369 39.5788 3.75436 39.5788 4.01569V7.29169C39.5788 7.73036 39.6768 8.08502 39.8728 8.35569C40.0781 8.62636 40.3954 8.76169 40.8248 8.76169C41.2448 8.76169 41.5621 8.62636 41.7768 8.35569C41.9914 8.08502 42.0988 7.73036 42.0988 7.29169V4.01569C42.0988 3.75436 42.1688 3.55369 42.3088 3.41369C42.4581 3.26436 42.6494 3.18969 42.8828 3.18969C43.1161 3.18969 43.3028 3.26436 43.4428 3.41369C43.5921 3.55369 43.6668 3.75436 43.6668 4.01569V9.25169C43.6668 9.51302 43.5921 9.71836 43.4428 9.86769C43.3028 10.0077 43.1161 10.0777 42.8828 10.0777ZM47.53 10.0917C46.8393 10.0917 46.3587 9.92369 46.088 9.58769C45.8173 9.25169 45.682 8.76169 45.682 8.11769V1.24369C45.682 0.982356 45.752 0.78169 45.892 0.64169C46.0413 0.492356 46.2327 0.41769 46.466 0.41769C46.69 0.41769 46.8767 0.492356 47.026 0.64169C47.1753 0.78169 47.25 0.982356 47.25 1.24369V7.99169C47.25 8.23436 47.292 8.40702 47.376 8.50969C47.46 8.60302 47.6 8.66369 47.796 8.69169C48.0293 8.71969 48.1973 8.79902 48.3 8.92969C48.4027 9.05102 48.454 9.20036 48.454 9.37769C48.454 9.58302 48.3887 9.75569 48.258 9.89569C48.1273 10.0264 47.922 10.0917 47.642 10.0917H47.53ZM52.4302 10.1617C51.7395 10.1617 51.1469 9.99836 50.6522 9.67169C50.1669 9.34502 49.8309 8.88769 49.6442 8.29969C49.5695 8.05702 49.5135 7.81436 49.4762 7.57169C49.4389 7.31969 49.4202 7.00702 49.4202 6.63369C49.4202 6.26036 49.4389 5.95236 49.4762 5.70969C49.5135 5.45769 49.5695 5.21036 49.6442 4.96769C49.8309 4.37969 50.1669 3.92236 50.6522 3.59569C51.1469 3.26902 51.7395 3.10569 52.4302 3.10569C53.1115 3.10569 53.6949 3.26902 54.1802 3.59569C54.6749 3.92236 55.0155 4.37969 55.2022 4.96769C55.2769 5.21036 55.3329 5.45769 55.3702 5.70969C55.4075 5.95236 55.4262 6.26036 55.4262 6.63369C55.4262 7.00702 55.4075 7.31969 55.3702 7.57169C55.3329 7.81436 55.2769 8.05702 55.2022 8.29969C55.0155 8.88769 54.6749 9.34502 54.1802 9.67169C53.6949 9.99836 53.1115 10.1617 52.4302 10.1617ZM52.4302 8.76169C52.7475 8.76169 53.0089 8.68702 53.2142 8.53769C53.4289 8.37902 53.5875 8.15969 53.6902 7.87969C53.7462 7.70236 53.7835 7.52502 53.8022 7.34769C53.8209 7.16102 53.8302 6.92302 53.8302 6.63369C53.8302 6.34436 53.8209 6.11102 53.8022 5.93369C53.7835 5.75636 53.7462 5.57436 53.6902 5.38769C53.5875 5.10769 53.4289 4.89302 53.2142 4.74369C53.0089 4.58502 52.7475 4.50569 52.4302 4.50569C52.1129 4.50569 51.8469 4.58502 51.6322 4.74369C51.4175 4.89302 51.2589 5.10769 51.1562 5.38769C51.1002 5.57436 51.0629 5.75636 51.0442 5.93369C51.0255 6.11102 51.0162 6.34436 51.0162 6.63369C51.0162 6.92302 51.0255 7.16102 51.0442 7.34769C51.0629 7.52502 51.1002 7.70236 51.1562 7.87969C51.2589 8.15969 51.4175 8.37902 51.6322 8.53769C51.8469 8.68702 52.1129 8.76169 52.4302 8.76169Z" fill="white"/>
</svg>
