<svg width="76" height="14" viewBox="0 0 76 14" fill="none" xmlns="http://www.w3.org/2000/svg">
<path d="M2.06586 8.18014C1.7952 8.18014 1.53853 8.12881 1.29586 8.02614C1.06253 7.92348 0.857197 7.78814 0.679863 7.62014C0.511863 7.44281 0.37653 7.23748 0.273863 7.00414C0.171197 6.76148 0.119863 6.50481 0.119863 6.23414C0.119863 5.96348 0.171197 5.71148 0.273863 5.47814C0.37653 5.23548 0.511863 5.03014 0.679863 4.86214C0.857197 4.68481 1.06253 4.54481 1.29586 4.44214C1.53853 4.33948 1.7952 4.28814 2.06586 4.28814C2.33653 4.28814 2.58853 4.33948 2.82186 4.44214C3.06453 4.54481 3.26986 4.68481 3.43786 4.86214C3.6152 5.03014 3.7552 5.23548 3.85786 5.47814C3.96053 5.71148 4.01186 5.96348 4.01186 6.23414C4.01186 6.50481 3.96053 6.76148 3.85786 7.00414C3.7552 7.23748 3.6152 7.44281 3.43786 7.62014C3.26986 7.78814 3.06453 7.92348 2.82186 8.02614C2.58853 8.12881 2.33653 8.18014 2.06586 8.18014ZM12.7272 9.95814C12.5685 9.79948 12.4892 9.59881 12.4892 9.35614C12.4892 9.16014 12.5545 8.99681 12.6852 8.86614C12.8252 8.72614 13.0025 8.65614 13.2172 8.65614C13.4039 8.65614 13.6092 8.73548 13.8332 8.89414C13.9732 8.99681 14.1365 9.07614 14.3232 9.13214C14.5099 9.18814 14.6965 9.21614 14.8832 9.21614C15.3499 9.21614 15.7185 9.07614 15.9892 8.79614C16.2599 8.51614 16.3952 8.05414 16.3952 7.41014V1.82414C16.3952 1.55348 16.4699 1.34348 16.6192 1.19414C16.7779 1.03548 16.9785 0.956142 17.2212 0.956142C17.4639 0.956142 17.6599 1.03548 17.8092 1.19414C17.9679 1.34348 18.0472 1.55348 18.0472 1.82414V7.31214C18.0472 7.85348 17.9679 8.33414 17.8092 8.75414C17.6599 9.17414 17.4452 9.52881 17.1652 9.81814C16.8852 10.1075 16.5445 10.3268 16.1432 10.4761C15.7512 10.6255 15.3125 10.7001 14.8272 10.7001C14.4072 10.7001 14.0012 10.6301 13.6092 10.4901C13.2265 10.3408 12.9325 10.1635 12.7272 9.95814ZM22.7076 10.7001C22.0169 10.7001 21.4242 10.5368 20.9296 10.2101C20.4442 9.88348 20.1082 9.42614 19.9216 8.83814C19.8469 8.59548 19.7909 8.35281 19.7536 8.11014C19.7162 7.85814 19.6976 7.54548 19.6976 7.17214C19.6976 6.79881 19.7162 6.49081 19.7536 6.24814C19.7909 5.99614 19.8469 5.74881 19.9216 5.50614C20.1082 4.91814 20.4442 4.46081 20.9296 4.13414C21.4242 3.80748 22.0169 3.64414 22.7076 3.64414C23.3889 3.64414 23.9722 3.80748 24.4576 4.13414C24.9522 4.46081 25.2929 4.91814 25.4796 5.50614C25.5542 5.74881 25.6102 5.99614 25.6476 6.24814C25.6849 6.49081 25.7036 6.79881 25.7036 7.17214C25.7036 7.54548 25.6849 7.85814 25.6476 8.11014C25.6102 8.35281 25.5542 8.59548 25.4796 8.83814C25.2929 9.42614 24.9522 9.88348 24.4576 10.2101C23.9722 10.5368 23.3889 10.7001 22.7076 10.7001ZM22.7076 9.30014C23.0249 9.30014 23.2862 9.22548 23.4916 9.07614C23.7062 8.91748 23.8649 8.69814 23.9676 8.41814C24.0236 8.24081 24.0609 8.06348 24.0796 7.88614C24.0982 7.69948 24.1076 7.46148 24.1076 7.17214C24.1076 6.88281 24.0982 6.64948 24.0796 6.47214C24.0609 6.29481 24.0236 6.11281 23.9676 5.92614C23.8649 5.64614 23.7062 5.43148 23.4916 5.28214C23.2862 5.12348 23.0249 5.04414 22.7076 5.04414C22.3902 5.04414 22.1242 5.12348 21.9096 5.28214C21.6949 5.43148 21.5362 5.64614 21.4336 5.92614C21.3776 6.11281 21.3402 6.29481 21.3216 6.47214C21.3029 6.64948 21.2936 6.88281 21.2936 7.17214C21.2936 7.46148 21.3029 7.69948 21.3216 7.88614C21.3402 8.06348 21.3776 8.24081 21.4336 8.41814C21.5362 8.69814 21.6949 8.91748 21.9096 9.07614C22.1242 9.22548 22.3902 9.30014 22.7076 9.30014ZM29.6997 13.2201C29.4757 13.2201 29.2517 13.1968 29.0277 13.1501C28.813 13.1128 28.6077 13.0568 28.4117 12.9821C28.225 12.9168 28.0523 12.8375 27.8937 12.7441C27.7443 12.6508 27.623 12.5528 27.5297 12.4501C27.455 12.3755 27.399 12.2915 27.3617 12.1981C27.3337 12.1048 27.3197 12.0161 27.3197 11.9321C27.3197 11.7455 27.3803 11.5821 27.5017 11.4421C27.6323 11.3115 27.7957 11.2461 27.9917 11.2461C28.1037 11.2461 28.211 11.2648 28.3137 11.3021C28.4163 11.3395 28.519 11.3955 28.6217 11.4701C28.967 11.7035 29.3543 11.8201 29.7837 11.8201C30.269 11.8201 30.6377 11.6895 30.8897 11.4281C31.151 11.1761 31.2817 10.7655 31.2817 10.1961V9.58014H31.2677C31.0997 9.84148 30.871 10.0375 30.5817 10.1681C30.2923 10.2988 29.9237 10.3641 29.4757 10.3641C28.9157 10.3641 28.4443 10.2195 28.0617 9.93014C27.679 9.64081 27.399 9.22548 27.2217 8.68414C27.147 8.44148 27.091 8.18948 27.0537 7.92814C27.0163 7.66681 26.9977 7.36348 26.9977 7.01814C26.9977 6.34614 27.0723 5.78148 27.2217 5.32414C27.399 4.79214 27.679 4.38148 28.0617 4.09214C28.4443 3.79348 28.9157 3.64414 29.4757 3.64414C29.9517 3.64414 30.3343 3.72814 30.6237 3.89614C30.913 4.05481 31.137 4.25548 31.2957 4.49814H31.3097V4.34414C31.347 4.17614 31.4263 4.03148 31.5477 3.91014C31.6783 3.78881 31.851 3.72814 32.0657 3.72814C32.299 3.72814 32.4857 3.80281 32.6257 3.95214C32.775 4.09214 32.8497 4.29281 32.8497 4.55414V10.0001C32.8497 11.0828 32.579 11.8901 32.0377 12.4221C31.5057 12.9541 30.7263 13.2201 29.6997 13.2201ZM31.2817 7.00414C31.2817 6.58414 31.2303 6.22948 31.1277 5.94014C31.025 5.64148 30.8803 5.41748 30.6937 5.26814C30.507 5.11881 30.255 5.04414 29.9377 5.04414C29.6203 5.04414 29.3683 5.11881 29.1817 5.26814C28.995 5.41748 28.8503 5.64148 28.7477 5.94014C28.645 6.22948 28.5937 6.58414 28.5937 7.00414C28.5937 7.43348 28.645 7.79281 28.7477 8.08214C28.8503 8.38081 28.995 8.60481 29.1817 8.75414C29.3683 8.90348 29.6203 8.97814 29.9377 8.97814C30.255 8.97814 30.507 8.90348 30.6937 8.75414C30.8803 8.60481 31.025 8.38081 31.1277 8.08214C31.2303 7.79281 31.2817 7.43348 31.2817 7.00414ZM40.5795 9.42614C40.6635 9.58481 40.7055 9.73881 40.7055 9.88814C40.7055 10.1028 40.6309 10.2801 40.4815 10.4201C40.3322 10.5508 40.1455 10.6161 39.9215 10.6161C39.6322 10.6161 39.4129 10.5088 39.2635 10.2941L39.0395 9.95814H39.0255C38.8295 10.1915 38.5635 10.3735 38.2275 10.5041C37.8915 10.6348 37.4949 10.7001 37.0375 10.7001C36.2349 10.7001 35.6235 10.5228 35.2035 10.1681C34.7929 9.80414 34.5875 9.30014 34.5875 8.65614C34.5875 7.92814 34.8255 7.38681 35.3015 7.03214C35.7775 6.67748 36.4355 6.50014 37.2755 6.50014H38.6615C38.7175 6.50014 38.7455 6.47214 38.7455 6.41614V6.24814C38.7455 5.85614 38.6242 5.55281 38.3815 5.33814C38.1482 5.11414 37.7655 5.00214 37.2335 5.00214C36.9909 5.00214 36.7622 5.03014 36.5475 5.08614C36.3329 5.14214 36.1509 5.20748 36.0015 5.28214C35.8615 5.33814 35.7262 5.36614 35.5955 5.36614C35.4089 5.36614 35.2549 5.31014 35.1335 5.19814C35.0122 5.07681 34.9515 4.91814 34.9515 4.72214C34.9515 4.61014 34.9795 4.49814 35.0355 4.38614C35.1009 4.27414 35.2035 4.18081 35.3435 4.10614C35.5582 3.97548 35.8382 3.86814 36.1835 3.78414C36.5289 3.69081 36.9349 3.64414 37.4015 3.64414C38.3629 3.64414 39.0722 3.87281 39.5295 4.33014C39.9962 4.77814 40.2295 5.42214 40.2295 6.26214V8.39014C40.2295 8.56748 40.2389 8.70281 40.2575 8.79614C40.2855 8.88014 40.3229 8.96881 40.3695 9.06214L40.5795 9.42614ZM37.2615 9.42614C37.7189 9.42614 38.0782 9.33748 38.3395 9.16014C38.6102 8.98281 38.7455 8.71681 38.7455 8.36214V7.76014C38.7455 7.70414 38.7175 7.67614 38.6615 7.67614H37.5415C37.0189 7.67614 36.6455 7.75081 36.4215 7.90014C36.1975 8.04948 36.0855 8.27814 36.0855 8.58614C36.0855 9.14614 36.4775 9.42614 37.2615 9.42614ZM47.0257 0.956142C47.259 0.956142 47.4457 1.03081 47.5857 1.18014C47.735 1.32014 47.8097 1.52081 47.8097 1.78214V9.79014C47.8097 10.0515 47.735 10.2568 47.5857 10.4061C47.4457 10.5461 47.259 10.6161 47.0257 10.6161C46.7923 10.6161 46.6103 10.5508 46.4797 10.4201C46.3583 10.2895 46.279 10.1168 46.2417 9.90214H46.2277C46.069 10.1355 45.845 10.3268 45.5557 10.4761C45.2663 10.6255 44.8837 10.7001 44.4077 10.7001C43.8477 10.7001 43.367 10.5508 42.9657 10.2521C42.5643 9.94414 42.275 9.52414 42.0977 8.99214C42.0137 8.73081 41.953 8.46014 41.9157 8.18014C41.8783 7.89081 41.8597 7.55481 41.8597 7.17214C41.8597 6.78948 41.8783 6.45814 41.9157 6.17814C41.953 5.88881 42.0137 5.61348 42.0977 5.35214C42.275 4.82014 42.5643 4.40481 42.9657 4.10614C43.367 3.79814 43.8477 3.64414 44.4077 3.64414C44.8837 3.64414 45.2663 3.72348 45.5557 3.88214C45.8543 4.04081 46.0783 4.22748 46.2277 4.44214H46.2417V1.78214C46.2417 1.52081 46.3117 1.32014 46.4517 1.18014C46.601 1.03081 46.7923 0.956142 47.0257 0.956142ZM44.8417 5.04414C44.543 5.04414 44.2863 5.11414 44.0717 5.25414C43.857 5.38481 43.6983 5.61348 43.5957 5.94014C43.5023 6.22014 43.4557 6.63081 43.4557 7.17214C43.4557 7.71348 43.5023 8.12414 43.5957 8.40414C43.6983 8.73081 43.857 8.96414 44.0717 9.10414C44.2863 9.23481 44.543 9.30014 44.8417 9.30014C45.1403 9.30014 45.397 9.23481 45.6117 9.10414C45.8357 8.96414 45.999 8.73081 46.1017 8.40414C46.195 8.12414 46.2417 7.71348 46.2417 7.17214C46.2417 6.63081 46.195 6.22014 46.1017 5.94014C45.999 5.61348 45.8357 5.38481 45.6117 5.25414C45.397 5.11414 45.1403 5.04414 44.8417 5.04414ZM52.4986 10.7001C51.8079 10.7001 51.2152 10.5368 50.7206 10.2101C50.2352 9.88348 49.8992 9.42614 49.7126 8.83814C49.6379 8.59548 49.5819 8.35281 49.5446 8.11014C49.5072 7.85814 49.4886 7.54548 49.4886 7.17214C49.4886 6.79881 49.5072 6.49081 49.5446 6.24814C49.5819 5.99614 49.6379 5.74881 49.7126 5.50614C49.8992 4.91814 50.2352 4.46081 50.7206 4.13414C51.2152 3.80748 51.8079 3.64414 52.4986 3.64414C53.1799 3.64414 53.7632 3.80748 54.2486 4.13414C54.7432 4.46081 55.0839 4.91814 55.2706 5.50614C55.3452 5.74881 55.4012 5.99614 55.4386 6.24814C55.4759 6.49081 55.4946 6.79881 55.4946 7.17214C55.4946 7.54548 55.4759 7.85814 55.4386 8.11014C55.4012 8.35281 55.3452 8.59548 55.2706 8.83814C55.0839 9.42614 54.7432 9.88348 54.2486 10.2101C53.7632 10.5368 53.1799 10.7001 52.4986 10.7001ZM52.4986 9.30014C52.8159 9.30014 53.0772 9.22548 53.2826 9.07614C53.4972 8.91748 53.6559 8.69814 53.7586 8.41814C53.8146 8.24081 53.8519 8.06348 53.8706 7.88614C53.8892 7.69948 53.8986 7.46148 53.8986 7.17214C53.8986 6.88281 53.8892 6.64948 53.8706 6.47214C53.8519 6.29481 53.8146 6.11281 53.7586 5.92614C53.6559 5.64614 53.4972 5.43148 53.2826 5.28214C53.0772 5.12348 52.8159 5.04414 52.4986 5.04414C52.1812 5.04414 51.9152 5.12348 51.7006 5.28214C51.4859 5.43148 51.3272 5.64614 51.2246 5.92614C51.1686 6.11281 51.1312 6.29481 51.1126 6.47214C51.0939 6.64948 51.0846 6.88281 51.0846 7.17214C51.0846 7.46148 51.0939 7.69948 51.1126 7.88614C51.1312 8.06348 51.1686 8.24081 51.2246 8.41814C51.3272 8.69814 51.4859 8.91748 51.7006 9.07614C51.9152 9.22548 52.1812 9.30014 52.4986 9.30014ZM58.7487 4.58214H58.7627C58.912 4.32081 59.1314 4.10148 59.4207 3.92414C59.7194 3.73748 60.0694 3.64414 60.4707 3.64414C60.6574 3.64414 60.8207 3.66281 60.9607 3.70014C61.1007 3.73748 61.222 3.77948 61.3247 3.82614C61.6047 3.97548 61.7447 4.19014 61.7447 4.47014C61.7447 4.70348 61.6747 4.89481 61.5347 5.04414C61.3947 5.19348 61.208 5.26814 60.9747 5.26814C60.872 5.26814 60.7507 5.24481 60.6107 5.19814C60.508 5.17014 60.4007 5.14681 60.2887 5.12814C60.186 5.10014 60.0834 5.08614 59.9807 5.08614C59.542 5.08614 59.2247 5.24481 59.0287 5.56214C58.842 5.87014 58.7487 6.28081 58.7487 6.79414V9.79014C58.7487 10.0515 58.674 10.2568 58.5247 10.4061C58.3847 10.5461 58.198 10.6161 57.9647 10.6161C57.7407 10.6161 57.554 10.5461 57.4047 10.4061C57.2554 10.2568 57.1807 10.0515 57.1807 9.79014V4.55414C57.1807 4.29281 57.2507 4.09214 57.3907 3.95214C57.54 3.80281 57.7314 3.72814 57.9647 3.72814C58.198 3.72814 58.3847 3.80281 58.5247 3.95214C58.674 4.09214 58.7487 4.29281 58.7487 4.55414V4.58214ZM65.7616 10.7001C65.0336 10.7001 64.4269 10.5368 63.9416 10.2101C63.4563 9.87414 63.1203 9.41214 62.9336 8.82414C62.8589 8.60948 62.7983 8.37148 62.7516 8.11014C62.7143 7.83948 62.6956 7.52681 62.6956 7.17214C62.6956 6.81748 62.7143 6.50481 62.7516 6.23414C62.7889 5.96348 62.8449 5.72081 62.9196 5.50614C63.1063 4.91814 63.4423 4.46081 63.9276 4.13414C64.4223 3.80748 65.0056 3.64414 65.6776 3.64414C66.3776 3.64414 66.9656 3.81214 67.4416 4.14814C67.9269 4.47481 68.2629 4.92748 68.4496 5.50614C68.5243 5.73014 68.5803 5.97748 68.6176 6.24814C68.6549 6.50948 68.6736 6.80348 68.6736 7.13014C68.6736 7.28881 68.6269 7.41948 68.5336 7.52214C68.4403 7.62481 68.3049 7.67614 68.1276 7.67614H64.3616C64.3056 7.67614 64.2776 7.70414 64.2776 7.76014C64.2776 7.86281 64.2869 7.95614 64.3056 8.04014C64.3243 8.12414 64.3476 8.20348 64.3756 8.27814C64.6089 8.95948 65.1176 9.30014 65.9016 9.30014C66.1909 9.30014 66.4383 9.26281 66.6436 9.18814C66.8583 9.10414 67.0729 8.98748 67.2876 8.83814C67.3809 8.77281 67.4743 8.72148 67.5676 8.68414C67.6609 8.63748 67.7589 8.61414 67.8616 8.61414C68.0669 8.61414 68.2256 8.67948 68.3376 8.81014C68.4589 8.93148 68.5196 9.08548 68.5196 9.27214C68.5196 9.51481 68.4123 9.72014 68.1976 9.88814C67.8989 10.1308 67.5536 10.3268 67.1616 10.4761C66.7789 10.6255 66.3123 10.7001 65.7616 10.7001ZM67.0916 6.41614C67.0916 6.20148 67.0636 6.01014 67.0076 5.84214C66.9143 5.57148 66.7509 5.36148 66.5176 5.21214C66.2843 5.05348 66.0089 4.97414 65.6916 4.97414C65.3649 4.97414 65.0849 5.05348 64.8516 5.21214C64.6183 5.36148 64.4549 5.57148 64.3616 5.84214C64.3056 6.01014 64.2776 6.20148 64.2776 6.41614C64.2776 6.47214 64.3056 6.50014 64.3616 6.50014H67.0076C67.0636 6.50014 67.0916 6.47214 67.0916 6.41614ZM72.8384 10.7001C72.3157 10.7001 71.8444 10.6348 71.4244 10.5041C71.0044 10.3641 70.6544 10.2008 70.3744 10.0141C70.1224 9.85548 69.9964 9.64548 69.9964 9.38414C69.9964 9.19748 70.0617 9.03414 70.1924 8.89414C70.323 8.74481 70.4957 8.67014 70.7104 8.67014C70.8597 8.67014 71.023 8.72148 71.2004 8.82414C71.4617 8.98281 71.723 9.11348 71.9844 9.21614C72.255 9.31881 72.5677 9.37014 72.9224 9.37014C73.3144 9.37014 73.6177 9.30014 73.8324 9.16014C74.0564 9.02014 74.1684 8.82414 74.1684 8.57214C74.1684 8.36681 74.089 8.20348 73.9304 8.08214C73.781 7.96081 73.487 7.87681 73.0484 7.83014L72.3204 7.76014C71.6204 7.68548 71.0977 7.48014 70.7524 7.14414C70.4164 6.80814 70.2484 6.35081 70.2484 5.77214C70.2484 5.12814 70.4724 4.61481 70.9204 4.23214C71.3684 3.84014 72.017 3.64414 72.8664 3.64414C73.2584 3.64414 73.627 3.69081 73.9724 3.78414C74.327 3.87748 74.6397 3.99881 74.9104 4.14814C75.069 4.23214 75.1857 4.32548 75.2604 4.42814C75.3444 4.53081 75.3864 4.65214 75.3864 4.79214C75.3864 4.98814 75.3257 5.15148 75.2044 5.28214C75.083 5.41281 74.9244 5.47814 74.7284 5.47814C74.5977 5.47814 74.4344 5.42681 74.2384 5.32414C74.0237 5.22148 73.7904 5.13748 73.5384 5.07214C73.2864 4.99748 73.0344 4.96014 72.7824 4.96014C72.4277 4.96014 72.1664 5.03014 71.9984 5.17014C71.8397 5.30081 71.7604 5.46414 71.7604 5.66014C71.7604 5.85614 71.835 6.01481 71.9844 6.13614C72.143 6.24814 72.437 6.32748 72.8664 6.37414L73.5944 6.44414C74.313 6.51881 74.8404 6.72881 75.1764 7.07414C75.5124 7.41948 75.6804 7.87214 75.6804 8.43214C75.6804 9.10414 75.4377 9.65014 74.9524 10.0701C74.467 10.4901 73.7624 10.7001 72.8384 10.7001Z" fill="white"/>
</svg>
