<svg width="302" height="26" viewBox="0 0 302 26" fill="none" xmlns="http://www.w3.org/2000/svg">
<path d="M0 7C0 3.68629 2.68629 1 6 1H296C299.314 1 302 3.68629 302 7V24H0V7Z" fill="#0F0F0F"/>
<path d="M35.889 16.5L35.655 14.459H32.847L31.794 16.5H29.87L34.446 7.79L36.383 7.621L37.787 16.5H35.889ZM33.51 13.12H35.525L35.291 11.378L35.161 9.805H35.135L34.394 11.43L33.51 13.12ZM41.0433 9.831C40.7573 9.831 40.519 9.74433 40.3283 9.571C40.1376 9.39767 40.0423 9.17667 40.0423 8.908C40.0423 8.58733 40.155 8.31867 40.3803 8.102C40.6056 7.88533 40.883 7.777 41.2123 7.777C41.4896 7.777 41.7193 7.868 41.9013 8.05C42.0833 8.22333 42.1743 8.44433 42.1743 8.713C42.1743 9.03367 42.066 9.30233 41.8493 9.519C41.6326 9.727 41.364 9.831 41.0433 9.831ZM43.2793 14.225L43.8253 14.836C42.9846 16.0493 41.9966 16.656 40.8613 16.656C40.2373 16.656 39.7996 16.474 39.5483 16.11C39.297 15.7373 39.232 15.161 39.3533 14.381L39.9383 10.754L41.6933 10.585L41.1213 14.147C41.052 14.589 41.0563 14.9053 41.1343 15.096C41.2123 15.278 41.3856 15.369 41.6543 15.369C42.2956 15.3603 42.8373 14.979 43.2793 14.225ZM54.9381 14.225L55.4711 14.836C54.6564 16.0493 53.7247 16.656 52.6761 16.656C52.1561 16.656 51.7791 16.5043 51.5451 16.201C51.3197 15.889 51.2547 15.4383 51.3501 14.849L51.6881 12.834C51.7834 12.21 51.6014 11.898 51.1421 11.898C50.7694 11.898 50.2841 12.1147 49.6861 12.548L49.0621 16.5H47.3331L47.9181 12.834C48.0221 12.21 47.8444 11.898 47.3851 11.898C47.0037 11.898 46.5097 12.119 45.9031 12.561L45.2791 16.5H43.5501L44.4601 10.754L46.2151 10.585L46.0721 11.443C46.9214 10.871 47.6667 10.585 48.3081 10.585C49.0881 10.585 49.5517 10.9057 49.6991 11.547C50.6091 10.9057 51.4021 10.585 52.0781 10.585C52.6154 10.585 53.0054 10.7497 53.2481 11.079C53.4994 11.3997 53.5774 11.8547 53.4821 12.444L53.1441 14.485C53.0487 15.0743 53.1701 15.369 53.5081 15.369C53.7421 15.369 53.9891 15.265 54.2491 15.057C54.5091 14.849 54.7387 14.5717 54.9381 14.225ZM59.5619 14.225L60.0949 14.836C59.2716 16.0493 58.2792 16.656 57.1179 16.656C56.4679 16.656 56.0129 16.474 55.7529 16.11C55.4929 15.7373 55.4236 15.161 55.5449 14.381L56.6499 7.4L58.4049 7.244L57.3129 14.147C57.2436 14.5803 57.2522 14.8923 57.3389 15.083C57.4342 15.2737 57.6249 15.369 57.9109 15.369C58.2316 15.3603 58.5349 15.2563 58.8209 15.057C59.1156 14.849 59.3626 14.5717 59.5619 14.225ZM67.5655 14.225L68.1115 14.836C67.5222 15.772 66.7985 16.3007 65.9405 16.422C65.4465 16.5 64.9265 16.435 64.3805 16.227C63.8692 16.513 63.2885 16.656 62.6385 16.656C61.8412 16.656 61.2345 16.4523 60.8185 16.045C60.4025 15.629 60.1945 15.0223 60.1945 14.225C60.2119 13.1677 60.5412 12.301 61.1825 11.625C61.8325 10.9403 62.6732 10.598 63.7045 10.598C64.5019 10.598 65.1085 10.806 65.5245 11.222C65.9492 11.638 66.1615 12.2403 66.1615 13.029C66.1615 13.991 65.8929 14.7883 65.3555 15.421C65.5549 15.499 65.7629 15.525 65.9795 15.499C66.5515 15.4123 67.0802 14.9877 67.5655 14.225ZM62.7945 15.343C63.2539 15.3517 63.6395 15.1393 63.9515 14.706C64.2635 14.264 64.4195 13.7137 64.4195 13.055C64.4195 12.301 64.1335 11.924 63.5615 11.924C63.0935 11.924 62.7079 12.145 62.4045 12.587C62.1099 13.029 61.9582 13.575 61.9495 14.225C61.9409 14.9703 62.2225 15.343 62.7945 15.343ZM71.1195 16.656C70.1402 16.656 69.4035 16.422 68.9095 15.954C68.4242 15.4773 68.1902 14.7883 68.2075 13.887C68.2248 12.9077 68.5325 12.1147 69.1305 11.508C69.7285 10.8927 70.4998 10.585 71.4445 10.585C72.2678 10.585 72.8398 10.819 73.1605 11.287C73.4898 11.755 73.4942 12.3573 73.1735 13.094L71.8215 12.782C71.9342 12.5133 71.9428 12.2967 71.8475 12.132C71.7522 11.9587 71.5745 11.872 71.3145 11.872C70.9245 11.872 70.5995 12.0583 70.3395 12.431C70.0795 12.795 69.9495 13.2543 69.9495 13.809C69.9495 14.9183 70.5085 15.473 71.6265 15.473C72.7618 15.473 73.6112 15.057 74.1745 14.225L74.7075 14.836C73.8842 16.0493 72.6882 16.656 71.1195 16.656ZM81.4939 14.225L82.0399 14.836C81.2166 16.0493 80.3152 16.656 79.3359 16.656C78.7726 16.656 78.3046 16.4263 77.9319 15.967C77.5679 15.5077 77.3166 14.8707 77.1779 14.056C77.0566 14.0993 76.8442 14.1513 76.5409 14.212L76.1899 16.5H74.4479L75.9039 7.4L77.6589 7.244L76.7619 12.873C77.2039 12.717 77.6199 12.4527 78.0099 12.08C78.3999 11.6987 78.7206 11.2567 78.9719 10.754H80.7659C80.2199 11.9153 79.5092 12.7863 78.6339 13.367C78.8592 14.719 79.2969 15.395 79.9469 15.395C80.4929 15.395 81.0086 15.005 81.4939 14.225Z" fill="white"/>
</svg>
