<svg width="302" height="26" viewBox="0 0 302 26" fill="none" xmlns="http://www.w3.org/2000/svg">
<path d="M0 7C0 3.68629 2.68629 1 6 1H296C299.314 1 302 3.68629 302 7V24H0V7Z" fill="#0F0F0F"/>
<path d="M30.559 16.5L31.924 7.79H37.579L37.345 9.311H33.419L33.107 11.378H36.812L36.578 12.821H32.873L32.548 14.979H36.565L36.331 16.5H30.559ZM41.7059 16.656C40.1892 16.656 39.1146 16.1143 38.4819 15.031L39.7039 14.004C40.2152 14.7493 40.8999 15.1263 41.7579 15.135C42.2259 15.135 42.6029 15.0397 42.8889 14.849C43.1836 14.6583 43.3309 14.4027 43.3309 14.082C43.3309 13.8913 43.2442 13.7093 43.0709 13.536C42.8976 13.3627 42.6939 13.2197 42.4599 13.107C42.2259 12.9857 41.8966 12.8297 41.4719 12.639C41.4372 12.6217 41.4069 12.6087 41.3809 12.6C41.3636 12.5913 41.3419 12.5827 41.3159 12.574C40.6312 12.2707 40.1329 11.9197 39.8209 11.521C39.5089 11.1137 39.3616 10.624 39.3789 10.052C39.3962 9.30667 39.6692 8.71733 40.1979 8.284C40.7266 7.85067 41.4459 7.634 42.3559 7.634C43.7252 7.634 44.6829 8.115 45.2289 9.077L43.9809 9.987C43.6082 9.43233 43.0752 9.155 42.3819 9.155C41.5672 9.155 41.1512 9.44533 41.1339 10.026C41.1339 10.3467 41.2812 10.6197 41.5759 10.845C41.8792 11.0617 42.3819 11.326 43.0839 11.638C44.4532 12.2187 45.1249 13.055 45.0989 14.147C45.0816 14.9097 44.7652 15.5207 44.1499 15.98C43.5346 16.4307 42.7199 16.656 41.7059 16.656ZM51.0663 7.79C52.1756 7.79 52.973 7.998 53.4583 8.414C53.9436 8.83 54.1863 9.43667 54.1863 10.234C54.1863 11.3087 53.8136 12.1623 53.0683 12.795C52.3316 13.4277 51.3436 13.744 50.1043 13.744H48.9213L48.4923 16.5H46.7633L48.1283 7.79H51.0663ZM50.1563 12.301C50.8583 12.301 51.4086 12.1407 51.8073 11.82C52.2146 11.4993 52.4183 11.0443 52.4183 10.455C52.4183 10.0303 52.2883 9.727 52.0283 9.545C51.777 9.363 51.3436 9.272 50.7283 9.272H49.6233L49.1553 12.301H50.1563Z" fill="white"/>
</svg>
