<svg width="302" height="26" viewBox="0 0 302 26" fill="none" xmlns="http://www.w3.org/2000/svg">
<path d="M0 7C0 3.68629 2.68629 1 6 1H296C299.314 1 302 3.68629 302 7V24H0V7Z" fill="#0F0F0F"/>
<path d="M32.587 14.94H36.578L36.344 16.5H30.559L31.924 7.79L33.718 7.634L32.587 14.94ZM39.7514 9.831C39.4654 9.831 39.2271 9.74433 39.0364 9.571C38.8458 9.39767 38.7504 9.17667 38.7504 8.908C38.7504 8.58733 38.8631 8.31867 39.0884 8.102C39.3138 7.88533 39.5911 7.777 39.9204 7.777C40.1978 7.777 40.4274 7.868 40.6094 8.05C40.7914 8.22333 40.8824 8.44433 40.8824 8.713C40.8824 9.03367 40.7741 9.30233 40.5574 9.519C40.3408 9.727 40.0721 9.831 39.7514 9.831ZM41.9874 14.225L42.5334 14.836C41.6928 16.0493 40.7048 16.656 39.5694 16.656C38.9454 16.656 38.5078 16.474 38.2564 16.11C38.0051 15.7373 37.9401 15.161 38.0614 14.381L38.6464 10.754L40.4014 10.585L39.8294 14.147C39.7601 14.589 39.7644 14.9053 39.8424 15.096C39.9204 15.278 40.0938 15.369 40.3624 15.369C41.0038 15.3603 41.5454 14.979 41.9874 14.225ZM45.1962 16.656C44.6069 16.656 44.0955 16.5563 43.6622 16.357L43.8832 15.148C44.2905 15.3473 44.6675 15.447 45.0142 15.447C45.3695 15.447 45.6469 15.3647 45.8462 15.2C46.0455 15.0353 46.1452 14.8057 46.1452 14.511C46.1452 14.2943 46.0802 14.069 45.9502 13.835C45.8202 13.601 45.6729 13.393 45.5082 13.211C45.3522 13.029 45.1962 12.7907 45.0402 12.496C44.8842 12.2013 44.7889 11.8937 44.7542 11.573H44.7282C44.5895 11.8503 44.3729 12.379 44.0782 13.159C43.7835 13.939 43.5235 14.498 43.2982 14.836L42.7522 14.225C42.9082 13.9737 43.1509 13.4147 43.4802 12.548C43.8182 11.6727 44.1562 11.0183 44.4942 10.585L46.2622 10.403C46.2362 10.793 46.2752 11.1483 46.3792 11.469C46.4832 11.7897 46.6175 12.0627 46.7822 12.288C46.9555 12.5047 47.1289 12.717 47.3022 12.925C47.4755 13.133 47.6229 13.3713 47.7442 13.64C47.8655 13.9 47.9262 14.1817 47.9262 14.485C47.9262 14.875 47.8482 15.213 47.6922 15.499C48.4982 15.447 49.1525 15.0223 49.6552 14.225L50.1882 14.836C49.7375 15.486 49.2305 15.9323 48.6672 16.175C48.1125 16.4177 47.4149 16.5043 46.5742 16.435C46.1842 16.5823 45.7249 16.656 45.1962 16.656ZM54.4167 14.225L54.9497 14.836C54.1351 16.0493 53.1384 16.656 51.9597 16.656C51.3271 16.656 50.8764 16.474 50.6077 16.11C50.3477 15.746 50.2784 15.1697 50.3997 14.381L50.8027 11.833H49.9967L50.1657 10.754H50.9847L51.2967 8.791L53.0387 8.635L52.7007 10.754H53.9227L53.7537 11.833H52.5317L52.1677 14.16C52.1071 14.602 52.1201 14.914 52.2067 15.096C52.3021 15.278 52.4884 15.369 52.7657 15.369C53.4157 15.3517 53.9661 14.9703 54.4167 14.225ZM57.1554 16.656C56.514 16.656 56.02 16.461 55.6734 16.071C55.3354 15.6723 55.1664 15.096 55.1664 14.342C55.1664 13.224 55.4827 12.3183 56.1154 11.625C56.748 10.9317 57.5887 10.585 58.6374 10.585C58.9927 10.585 59.4174 10.6413 59.9114 10.754L61.5754 10.585L60.9514 14.446C60.8994 14.7753 60.8994 15.0137 60.9514 15.161C61.0034 15.2997 61.1204 15.369 61.3024 15.369C61.5364 15.369 61.7877 15.265 62.0564 15.057C62.3337 14.8403 62.5677 14.563 62.7584 14.225L63.2914 14.836C62.4767 16.0493 61.5494 16.656 60.5094 16.656C59.8074 16.656 59.3957 16.344 59.2744 15.72C58.6417 16.344 57.9354 16.656 57.1554 16.656ZM57.7794 15.369C58.256 15.369 58.7284 15.122 59.1964 14.628L59.6124 12.002C59.3784 11.9587 59.114 11.937 58.8194 11.937C58.2214 11.937 57.7534 12.145 57.4154 12.561C57.086 12.9683 56.9214 13.5317 56.9214 14.251C56.9214 14.9963 57.2074 15.369 57.7794 15.369ZM74.5638 14.225L75.1098 14.836C74.7198 15.4253 74.2821 15.876 73.7968 16.188C73.3115 16.5 72.8175 16.656 72.3148 16.656C71.6041 16.656 71.1925 16.344 71.0798 15.72C70.4558 16.344 69.7495 16.656 68.9608 16.656C67.6348 16.656 66.9718 15.8847 66.9718 14.342C66.9718 13.224 67.2838 12.3183 67.9078 11.625C68.5405 10.9317 69.3811 10.585 70.4298 10.585C70.7765 10.585 71.1751 10.6327 71.6258 10.728L72.1588 7.4L73.9138 7.244L72.7568 14.446C72.7048 14.7753 72.7048 15.0137 72.7568 15.161C72.8088 15.2997 72.9258 15.369 73.1078 15.369C73.3418 15.369 73.5931 15.265 73.8618 15.057C74.1391 14.8403 74.3731 14.563 74.5638 14.225ZM70.9888 14.654L71.4308 11.95C71.1101 11.9067 70.8501 11.885 70.6508 11.885C70.0441 11.885 69.5718 12.1017 69.2338 12.535C68.8958 12.9597 68.7268 13.536 68.7268 14.264C68.7268 14.654 68.7918 14.94 68.9218 15.122C69.0605 15.304 69.2771 15.395 69.5718 15.395C70.0485 15.395 70.5208 15.148 70.9888 14.654ZM81.2979 14.225L81.8439 14.836C81.0119 16.0493 79.8159 16.656 78.2559 16.656C77.3112 16.656 76.5832 16.422 76.0719 15.954C75.5692 15.486 75.3179 14.823 75.3179 13.965C75.3179 12.977 75.6169 12.1667 76.2149 11.534C76.8129 10.9013 77.5799 10.585 78.5159 10.585C79.1659 10.585 79.6816 10.741 80.0629 11.053C80.4529 11.3563 80.6436 11.768 80.6349 12.288C80.6262 12.9467 80.3229 13.4797 79.7249 13.887C79.1269 14.2857 78.3252 14.4937 77.3199 14.511C77.4152 14.8057 77.5929 15.0397 77.8529 15.213C78.1129 15.3863 78.4292 15.473 78.8019 15.473C79.9199 15.473 80.7519 15.057 81.2979 14.225ZM78.4379 11.859C78.0566 11.859 77.7402 12.0237 77.4889 12.353C77.2462 12.6737 77.1076 13.0983 77.0729 13.627C77.6969 13.627 78.1909 13.523 78.5549 13.315C78.9276 13.107 79.1182 12.8253 79.1269 12.47C79.1356 12.2707 79.0749 12.119 78.9449 12.015C78.8236 11.911 78.6546 11.859 78.4379 11.859ZM91.0877 16.5L90.8537 14.459H88.0457L86.9927 16.5H85.0687L89.6447 7.79L91.5817 7.621L92.9857 16.5H91.0877ZM88.7087 13.12H90.7237L90.4897 11.378L90.3597 9.805H90.3337L89.5927 11.43L88.7087 13.12ZM106.049 14.225L106.582 14.836C105.768 16.0493 104.836 16.656 103.787 16.656C103.267 16.656 102.89 16.5043 102.656 16.201C102.431 15.889 102.366 15.4383 102.461 14.849L102.799 12.834C102.895 12.21 102.713 11.898 102.253 11.898C101.881 11.898 101.395 12.1147 100.797 12.548L100.173 16.5H98.4444L99.0294 12.834C99.1334 12.21 98.9557 11.898 98.4964 11.898C98.1151 11.898 97.6211 12.119 97.0144 12.561L96.3904 16.5H94.6614L95.5714 10.754L97.3264 10.585L97.1834 11.443C98.0327 10.871 98.7781 10.585 99.4194 10.585C100.199 10.585 100.663 10.9057 100.81 11.547C101.72 10.9057 102.513 10.585 103.189 10.585C103.727 10.585 104.117 10.7497 104.359 11.079C104.611 11.3997 104.689 11.8547 104.593 12.444L104.255 14.485C104.16 15.0743 104.281 15.369 104.619 15.369C104.853 15.369 105.1 15.265 105.36 15.057C105.62 14.849 105.85 14.5717 106.049 14.225ZM108.476 9.831C108.19 9.831 107.952 9.74433 107.761 9.571C107.571 9.39767 107.475 9.17667 107.475 8.908C107.475 8.58733 107.588 8.31867 107.813 8.102C108.039 7.88533 108.316 7.777 108.645 7.777C108.923 7.777 109.152 7.868 109.334 8.05C109.516 8.22333 109.607 8.44433 109.607 8.713C109.607 9.03367 109.499 9.30233 109.282 9.519C109.066 9.727 108.797 9.831 108.476 9.831ZM110.712 14.225L111.258 14.836C110.418 16.0493 109.43 16.656 108.294 16.656C107.67 16.656 107.233 16.474 106.981 16.11C106.73 15.7373 106.665 15.161 106.786 14.381L107.371 10.754L109.126 10.585L108.554 14.147C108.485 14.589 108.489 14.9053 108.567 15.096C108.645 15.278 108.819 15.369 109.087 15.369C109.729 15.3603 110.27 14.979 110.712 14.225ZM113.518 19.217C112.721 19.217 112.071 19.1 111.568 18.866L111.763 17.579C112.292 17.8477 112.864 17.9777 113.479 17.969C113.947 17.9603 114.315 17.839 114.584 17.605C114.853 17.3797 115.043 17.0113 115.156 16.5C115.199 16.37 115.243 16.188 115.286 15.954C114.766 16.422 114.164 16.656 113.479 16.656C112.144 16.656 111.477 15.8847 111.477 14.342C111.477 13.2153 111.789 12.3097 112.413 11.625C113.046 10.9317 113.891 10.585 114.948 10.585C115.295 10.585 115.719 10.6413 116.222 10.754L117.886 10.585L117.028 15.876C117.886 15.5553 118.553 15.005 119.03 14.225L119.563 14.836C119.216 15.356 118.831 15.785 118.406 16.123C117.981 16.4523 117.444 16.7297 116.794 16.955C116.291 18.463 115.199 19.217 113.518 19.217ZM114.077 15.408C114.562 15.408 115.039 15.1307 115.507 14.576L115.936 11.95C115.615 11.9067 115.351 11.885 115.143 11.885C114.545 11.885 114.077 12.1017 113.739 12.535C113.401 12.9597 113.232 13.536 113.232 14.264C113.232 14.6627 113.297 14.953 113.427 15.135C113.566 15.317 113.782 15.408 114.077 15.408ZM127.169 14.225L127.715 14.836C127.126 15.772 126.402 16.3007 125.544 16.422C125.05 16.5 124.53 16.435 123.984 16.227C123.473 16.513 122.892 16.656 122.242 16.656C121.445 16.656 120.838 16.4523 120.422 16.045C120.006 15.629 119.798 15.0223 119.798 14.225C119.815 13.1677 120.145 12.301 120.786 11.625C121.436 10.9403 122.277 10.598 123.308 10.598C124.105 10.598 124.712 10.806 125.128 11.222C125.553 11.638 125.765 12.2403 125.765 13.029C125.765 13.991 125.496 14.7883 124.959 15.421C125.158 15.499 125.366 15.525 125.583 15.499C126.155 15.4123 126.684 14.9877 127.169 14.225ZM122.398 15.343C122.857 15.3517 123.243 15.1393 123.555 14.706C123.867 14.264 124.023 13.7137 124.023 13.055C124.023 12.301 123.737 11.924 123.165 11.924C122.697 11.924 122.311 12.145 122.008 12.587C121.713 13.029 121.562 13.575 121.553 14.225C121.544 14.9703 121.826 15.343 122.398 15.343ZM130.398 16.656C129.809 16.656 129.297 16.5563 128.864 16.357L129.085 15.148C129.492 15.3473 129.869 15.447 130.216 15.447C130.571 15.447 130.849 15.3647 131.048 15.2C131.247 15.0353 131.347 14.8057 131.347 14.511C131.347 14.2943 131.282 14.069 131.152 13.835C131.022 13.601 130.875 13.393 130.71 13.211C130.554 13.029 130.398 12.7907 130.242 12.496C130.086 12.2013 129.991 11.8937 129.956 11.573H129.93C129.791 11.8503 129.575 12.379 129.28 13.159C128.985 13.939 128.725 14.498 128.5 14.836L127.954 14.225C128.11 13.9737 128.353 13.4147 128.682 12.548C129.02 11.6727 129.358 11.0183 129.696 10.585L131.464 10.403C131.438 10.793 131.477 11.1483 131.581 11.469C131.685 11.7897 131.819 12.0627 131.984 12.288C132.157 12.5047 132.331 12.717 132.504 12.925C132.677 13.133 132.825 13.3713 132.946 13.64C133.067 13.9 133.128 14.1817 133.128 14.485C133.128 14.875 133.05 15.213 132.894 15.499C133.7 15.447 134.354 15.0223 134.857 14.225L135.39 14.836C134.939 15.486 134.432 15.9323 133.869 16.175C133.314 16.4177 132.617 16.5043 131.776 16.435C131.386 16.5823 130.927 16.656 130.398 16.656Z" fill="white"/>
</svg>
