<svg width="620" height="25" viewBox="0 0 620 25" fill="none" xmlns="http://www.w3.org/2000/svg">
<path d="M0 6C0 2.68629 2.68629 0 6 0H607.902C611.215 0 613.902 2.68629 613.902 6V23H0V6Z" fill="#0F0F0F"/>
<path d="M256.606 14.44H260.597L260.363 16H254.578L255.943 7.29L257.737 7.134L256.606 14.44ZM269.275 13.725L269.821 14.336C269.231 15.272 268.508 15.8007 267.65 15.922C267.156 16 266.636 15.935 266.09 15.727C265.578 16.013 264.998 16.156 264.348 16.156C263.55 16.156 262.944 15.9523 262.528 15.545C262.112 15.129 261.904 14.5223 261.904 13.725C261.921 12.6677 262.25 11.801 262.892 11.125C263.542 10.4403 264.382 10.098 265.414 10.098C266.211 10.098 266.818 10.306 267.234 10.722C267.658 11.138 267.871 11.7403 267.871 12.529C267.871 13.491 267.602 14.2883 267.065 14.921C267.264 14.999 267.472 15.025 267.689 14.999C268.261 14.9123 268.789 14.4877 269.275 13.725ZM264.504 14.843C264.963 14.8517 265.349 14.6393 265.661 14.206C265.973 13.764 266.129 13.2137 266.129 12.555C266.129 11.801 265.843 11.424 265.271 11.424C264.803 11.424 264.417 11.645 264.114 12.087C263.819 12.529 263.667 13.075 263.659 13.725C263.65 14.4703 263.932 14.843 264.504 14.843ZM272.959 16.156C271.979 16.156 271.243 15.922 270.749 15.454C270.263 14.9773 270.029 14.2883 270.047 13.387C270.064 12.4077 270.372 11.6147 270.97 11.008C271.568 10.3927 272.339 10.085 273.284 10.085C274.107 10.085 274.679 10.319 275 10.787C275.329 11.255 275.333 11.8573 275.013 12.594L273.661 12.282C273.773 12.0133 273.782 11.7967 273.687 11.632C273.591 11.4587 273.414 11.372 273.154 11.372C272.764 11.372 272.439 11.5583 272.179 11.931C271.919 12.295 271.789 12.7543 271.789 13.309C271.789 14.4183 272.348 14.973 273.466 14.973C274.601 14.973 275.45 14.557 276.014 13.725L276.547 14.336C275.723 15.5493 274.527 16.156 272.959 16.156ZM278.757 16.156C278.116 16.156 277.622 15.961 277.275 15.571C276.937 15.1723 276.768 14.596 276.768 13.842C276.768 12.724 277.084 11.8183 277.717 11.125C278.35 10.4317 279.19 10.085 280.239 10.085C280.594 10.085 281.019 10.1413 281.513 10.254L283.177 10.085L282.553 13.946C282.501 14.2753 282.501 14.5137 282.553 14.661C282.605 14.7997 282.722 14.869 282.904 14.869C283.138 14.869 283.389 14.765 283.658 14.557C283.935 14.3403 284.169 14.063 284.36 13.725L284.893 14.336C284.078 15.5493 283.151 16.156 282.111 16.156C281.409 16.156 280.997 15.844 280.876 15.22C280.243 15.844 279.537 16.156 278.757 16.156ZM279.381 14.869C279.858 14.869 280.33 14.622 280.798 14.128L281.214 11.502C280.98 11.4587 280.716 11.437 280.421 11.437C279.823 11.437 279.355 11.645 279.017 12.061C278.688 12.4683 278.523 13.0317 278.523 13.751C278.523 14.4963 278.809 14.869 279.381 14.869ZM286.791 9.331C286.505 9.331 286.267 9.24433 286.076 9.071C285.886 8.89767 285.79 8.67667 285.79 8.408C285.79 8.08733 285.903 7.81867 286.128 7.602C286.354 7.38533 286.631 7.277 286.96 7.277C287.238 7.277 287.467 7.368 287.649 7.55C287.831 7.72333 287.922 7.94433 287.922 8.213C287.922 8.53367 287.814 8.80233 287.597 9.019C287.381 9.227 287.112 9.331 286.791 9.331ZM289.027 13.725L289.573 14.336C288.733 15.5493 287.745 16.156 286.609 16.156C285.985 16.156 285.548 15.974 285.296 15.61C285.045 15.2373 284.98 14.661 285.101 13.881L285.686 10.254L287.441 10.085L286.869 13.647C286.8 14.089 286.804 14.4053 286.882 14.596C286.96 14.778 287.134 14.869 287.402 14.869C288.044 14.8603 288.585 14.479 289.027 13.725ZM292.236 16.156C291.647 16.156 291.135 16.0563 290.702 15.857L290.923 14.648C291.33 14.8473 291.707 14.947 292.054 14.947C292.409 14.947 292.687 14.8647 292.886 14.7C293.085 14.5353 293.185 14.3057 293.185 14.011C293.185 13.7943 293.12 13.569 292.99 13.335C292.86 13.101 292.713 12.893 292.548 12.711C292.392 12.529 292.236 12.2907 292.08 11.996C291.924 11.7013 291.829 11.3937 291.794 11.073H291.768C291.629 11.3503 291.413 11.879 291.118 12.659C290.823 13.439 290.563 13.998 290.338 14.336L289.792 13.725C289.948 13.4737 290.191 12.9147 290.52 12.048C290.858 11.1727 291.196 10.5183 291.534 10.085L293.302 9.903C293.276 10.293 293.315 10.6483 293.419 10.969C293.523 11.2897 293.657 11.5627 293.822 11.788C293.995 12.0047 294.169 12.217 294.342 12.425C294.515 12.633 294.663 12.8713 294.784 13.14C294.905 13.4 294.966 13.6817 294.966 13.985C294.966 14.375 294.888 14.713 294.732 14.999C295.538 14.947 296.192 14.5223 296.695 13.725L297.228 14.336C296.777 14.986 296.27 15.4323 295.707 15.675C295.152 15.9177 294.455 16.0043 293.614 15.935C293.224 16.0823 292.765 16.156 292.236 16.156ZM308.504 13.725L309.05 14.336C308.66 14.9253 308.222 15.376 307.737 15.688C307.251 16 306.757 16.156 306.255 16.156C305.544 16.156 305.132 15.844 305.02 15.22C304.396 15.844 303.689 16.156 302.901 16.156C301.575 16.156 300.912 15.3847 300.912 13.842C300.912 12.724 301.224 11.8183 301.848 11.125C302.48 10.4317 303.321 10.085 304.37 10.085C304.716 10.085 305.115 10.1327 305.566 10.228L306.099 6.9L307.854 6.744L306.697 13.946C306.645 14.2753 306.645 14.5137 306.697 14.661C306.749 14.7997 306.866 14.869 307.048 14.869C307.282 14.869 307.533 14.765 307.802 14.557C308.079 14.3403 308.313 14.063 308.504 13.725ZM304.929 14.154L305.371 11.45C305.05 11.4067 304.79 11.385 304.591 11.385C303.984 11.385 303.512 11.6017 303.174 12.035C302.836 12.4597 302.667 13.036 302.667 13.764C302.667 14.154 302.732 14.44 302.862 14.622C303 14.804 303.217 14.895 303.512 14.895C303.988 14.895 304.461 14.648 304.929 14.154ZM315.238 13.725L315.784 14.336C314.952 15.5493 313.756 16.156 312.196 16.156C311.251 16.156 310.523 15.922 310.012 15.454C309.509 14.986 309.258 14.323 309.258 13.465C309.258 12.477 309.557 11.6667 310.155 11.034C310.753 10.4013 311.52 10.085 312.456 10.085C313.106 10.085 313.621 10.241 314.003 10.553C314.393 10.8563 314.583 11.268 314.575 11.788C314.566 12.4467 314.263 12.9797 313.665 13.387C313.067 13.7857 312.265 13.9937 311.26 14.011C311.355 14.3057 311.533 14.5397 311.793 14.713C312.053 14.8863 312.369 14.973 312.742 14.973C313.86 14.973 314.692 14.557 315.238 13.725ZM312.378 11.359C311.996 11.359 311.68 11.5237 311.429 11.853C311.186 12.1737 311.047 12.5983 311.013 13.127C311.637 13.127 312.131 13.023 312.495 12.815C312.867 12.607 313.058 12.3253 313.067 11.97C313.075 11.7707 313.015 11.619 312.885 11.515C312.763 11.411 312.594 11.359 312.378 11.359ZM321.661 16L322.779 8.863H320.309L320.556 7.29H327.264L327.017 8.863H324.547L323.455 16H321.661ZM332.761 13.725L333.307 14.336C332.475 15.5493 331.279 16.156 329.719 16.156C328.775 16.156 328.047 15.922 327.535 15.454C327.033 14.986 326.781 14.323 326.781 13.465C326.781 12.477 327.08 11.6667 327.678 11.034C328.276 10.4013 329.043 10.085 329.979 10.085C330.629 10.085 331.145 10.241 331.526 10.553C331.916 10.8563 332.107 11.268 332.098 11.788C332.09 12.4467 331.786 12.9797 331.188 13.387C330.59 13.7857 329.789 13.9937 328.783 14.011C328.879 14.3057 329.056 14.5397 329.316 14.713C329.576 14.8863 329.893 14.973 330.265 14.973C331.383 14.973 332.215 14.557 332.761 13.725ZM329.901 11.359C329.52 11.359 329.204 11.5237 328.952 11.853C328.71 12.1737 328.571 12.5983 328.536 13.127C329.16 13.127 329.654 13.023 330.018 12.815C330.391 12.607 330.582 12.3253 330.59 11.97C330.599 11.7707 330.538 11.619 330.408 11.515C330.287 11.411 330.118 11.359 329.901 11.359ZM337.532 13.725L338.065 14.336C337.242 15.5493 336.25 16.156 335.088 16.156C334.438 16.156 333.983 15.974 333.723 15.61C333.463 15.2373 333.394 14.661 333.515 13.881L334.62 6.9L336.375 6.744L335.283 13.647C335.214 14.0803 335.223 14.3923 335.309 14.583C335.405 14.7737 335.595 14.869 335.881 14.869C336.202 14.8603 336.505 14.7563 336.791 14.557C337.086 14.349 337.333 14.0717 337.532 13.725ZM344.262 13.725L344.808 14.336C343.976 15.5493 342.78 16.156 341.22 16.156C340.275 16.156 339.547 15.922 339.036 15.454C338.533 14.986 338.282 14.323 338.282 13.465C338.282 12.477 338.581 11.6667 339.179 11.034C339.777 10.4013 340.544 10.085 341.48 10.085C342.13 10.085 342.646 10.241 343.027 10.553C343.417 10.8563 343.608 11.268 343.599 11.788C343.59 12.4467 343.287 12.9797 342.689 13.387C342.091 13.7857 341.289 13.9937 340.284 14.011C340.379 14.3057 340.557 14.5397 340.817 14.713C341.077 14.8863 341.393 14.973 341.766 14.973C342.884 14.973 343.716 14.557 344.262 13.725ZM341.402 11.359C341.021 11.359 340.704 11.5237 340.453 11.853C340.21 12.1737 340.072 12.5983 340.037 13.127C340.661 13.127 341.155 13.023 341.519 12.815C341.892 12.607 342.082 12.3253 342.091 11.97C342.1 11.7707 342.039 11.619 341.909 11.515C341.788 11.411 341.619 11.359 341.402 11.359ZM344.288 18.561L345.601 10.254L347.356 10.085L347.213 11.034C347.967 10.4013 348.695 10.085 349.397 10.085C350.012 10.085 350.458 10.2973 350.736 10.722C351.013 11.1467 351.113 11.7663 351.035 12.581C350.939 13.5343 350.662 14.323 350.203 14.947C350.428 15.0337 350.675 15.0553 350.944 15.012C351.559 14.9253 352.092 14.4963 352.543 13.725L353.076 14.336C352.356 15.428 351.481 15.9697 350.45 15.961C350.042 15.961 349.661 15.883 349.306 15.727C348.838 16.013 348.266 16.156 347.59 16.156C347.234 16.156 346.844 16.1127 346.42 16.026L346.017 18.561H344.288ZM347.512 14.856C348.006 14.8473 348.404 14.674 348.708 14.336C349.011 13.998 349.197 13.4953 349.267 12.828C349.319 12.3427 349.288 11.9873 349.176 11.762C349.063 11.528 348.851 11.411 348.539 11.411C348.14 11.411 347.637 11.6623 347.031 12.165L346.628 14.726C346.94 14.8127 347.234 14.856 347.512 14.856ZM360.683 13.725L361.229 14.336C360.64 15.272 359.916 15.8007 359.058 15.922C358.564 16 358.044 15.935 357.498 15.727C356.987 16.013 356.406 16.156 355.756 16.156C354.959 16.156 354.352 15.9523 353.936 15.545C353.52 15.129 353.312 14.5223 353.312 13.725C353.329 12.6677 353.659 11.801 354.3 11.125C354.95 10.4403 355.791 10.098 356.822 10.098C357.619 10.098 358.226 10.306 358.642 10.722C359.067 11.138 359.279 11.7403 359.279 12.529C359.279 13.491 359.01 14.2883 358.473 14.921C358.672 14.999 358.88 15.025 359.097 14.999C359.669 14.9123 360.198 14.4877 360.683 13.725ZM355.912 14.843C356.371 14.8517 356.757 14.6393 357.069 14.206C357.381 13.764 357.537 13.2137 357.537 12.555C357.537 11.801 357.251 11.424 356.679 11.424C356.211 11.424 355.825 11.645 355.522 12.087C355.227 12.529 355.076 13.075 355.067 13.725C355.058 14.4703 355.34 14.843 355.912 14.843ZM367.656 13.725L368.202 14.336C367.404 15.5493 366.364 16.156 365.082 16.156C364.44 16.156 363.946 16 363.6 15.688C363.253 15.376 363.08 14.9253 363.08 14.336C363.08 13.452 363.448 12.451 364.185 11.333C363.751 11.3243 363.257 11.2377 362.703 11.073C362.798 12.295 362.568 13.3827 362.014 14.336L361.468 13.725C361.962 12.8237 362.096 11.84 361.871 10.774C361.853 10.7653 361.784 10.7393 361.663 10.696C361.55 10.644 361.472 10.6007 361.429 10.566L361.637 9.305C362.642 9.903 364.133 10.2193 366.109 10.254L365.797 11.489C365.138 12.3903 364.809 13.2137 364.809 13.959C364.809 14.5657 365.121 14.869 365.745 14.869C366.117 14.869 366.477 14.7693 366.824 14.57C367.179 14.362 367.456 14.0803 367.656 13.725ZM372.421 13.725L372.954 14.336C372.14 15.5493 371.143 16.156 369.964 16.156C369.332 16.156 368.881 15.974 368.612 15.61C368.352 15.246 368.283 14.6697 368.404 13.881L368.807 11.333H368.001L368.17 10.254H368.989L369.301 8.291L371.043 8.135L370.705 10.254H371.927L371.758 11.333H370.536L370.172 13.66C370.112 14.102 370.125 14.414 370.211 14.596C370.307 14.778 370.493 14.869 370.77 14.869C371.42 14.8517 371.971 14.4703 372.421 13.725Z" fill="white"/>
</svg>
