<svg width="302" height="26" viewBox="0 0 302 26" fill="none" xmlns="http://www.w3.org/2000/svg">
<path d="M0 7C0 3.68629 2.68629 1 6 1H296C299.314 1 302 3.68629 302 7V24H0V7Z" fill="#0F0F0F"/>
<path d="M32.587 14.94H36.578L36.344 16.5H30.559L31.924 7.79L33.718 7.634L32.587 14.94ZM39.8814 9.831C39.5954 9.831 39.3571 9.74433 39.1664 9.571C38.9758 9.39767 38.8804 9.17667 38.8804 8.908C38.8804 8.58733 38.9931 8.31867 39.2184 8.102C39.4438 7.88533 39.7211 7.777 40.0504 7.777C40.3278 7.777 40.5574 7.868 40.7394 8.05C40.9214 8.22333 41.0124 8.44433 41.0124 8.713C41.0124 9.03367 40.9041 9.30233 40.6874 9.519C40.4708 9.727 40.2021 9.831 39.8814 9.831ZM42.1174 14.225L42.6634 14.836C41.8228 16.0493 40.8348 16.656 39.6994 16.656C39.0754 16.656 38.6378 16.474 38.3864 16.11C38.1351 15.7373 38.0701 15.161 38.1914 14.381L38.7764 10.754L40.5314 10.585L39.9594 14.147C39.8901 14.589 39.8944 14.9053 39.9724 15.096C40.0504 15.278 40.2238 15.369 40.4924 15.369C41.1338 15.3603 41.6754 14.979 42.1174 14.225ZM45.4562 16.656C44.8669 16.656 44.3555 16.5563 43.9222 16.357L44.1432 15.148C44.5505 15.3473 44.9275 15.447 45.2742 15.447C45.6295 15.447 45.9069 15.3647 46.1062 15.2C46.3055 15.0353 46.4052 14.8057 46.4052 14.511C46.4052 14.2943 46.3402 14.069 46.2102 13.835C46.0802 13.601 45.9329 13.393 45.7682 13.211C45.6122 13.029 45.4562 12.7907 45.3002 12.496C45.1442 12.2013 45.0489 11.8937 45.0142 11.573H44.9882C44.8495 11.8503 44.6329 12.379 44.3382 13.159C44.0435 13.939 43.7835 14.498 43.5582 14.836L43.0122 14.225C43.1682 13.9737 43.4109 13.4147 43.7402 12.548C44.0782 11.6727 44.4162 11.0183 44.7542 10.585L46.5222 10.403C46.4962 10.793 46.5352 11.1483 46.6392 11.469C46.7432 11.7897 46.8775 12.0627 47.0422 12.288C47.2155 12.5047 47.3889 12.717 47.5622 12.925C47.7355 13.133 47.8829 13.3713 48.0042 13.64C48.1255 13.9 48.1862 14.1817 48.1862 14.485C48.1862 14.875 48.1082 15.213 47.9522 15.499C48.7582 15.447 49.4125 15.0223 49.9152 14.225L50.4482 14.836C49.9975 15.486 49.4905 15.9323 48.9272 16.175C48.3725 16.4177 47.6749 16.5043 46.8342 16.435C46.4442 16.5823 45.9849 16.656 45.4562 16.656ZM54.8067 14.225L55.3397 14.836C54.5251 16.0493 53.5284 16.656 52.3497 16.656C51.7171 16.656 51.2664 16.474 50.9977 16.11C50.7377 15.746 50.6684 15.1697 50.7897 14.381L51.1927 11.833H50.3867L50.5557 10.754H51.3747L51.6867 8.791L53.4287 8.635L53.0907 10.754H54.3127L54.1437 11.833H52.9217L52.5577 14.16C52.4971 14.602 52.5101 14.914 52.5967 15.096C52.6921 15.278 52.8784 15.369 53.1557 15.369C53.8057 15.3517 54.3561 14.9703 54.8067 14.225ZM57.6754 16.656C57.034 16.656 56.54 16.461 56.1934 16.071C55.8554 15.6723 55.6864 15.096 55.6864 14.342C55.6864 13.224 56.0027 12.3183 56.6354 11.625C57.268 10.9317 58.1087 10.585 59.1574 10.585C59.5127 10.585 59.9374 10.6413 60.4314 10.754L62.0954 10.585L61.4714 14.446C61.4194 14.7753 61.4194 15.0137 61.4714 15.161C61.5234 15.2997 61.6404 15.369 61.8224 15.369C62.0564 15.369 62.3077 15.265 62.5764 15.057C62.8537 14.8403 63.0877 14.563 63.2784 14.225L63.8114 14.836C62.9967 16.0493 62.0694 16.656 61.0294 16.656C60.3274 16.656 59.9157 16.344 59.7944 15.72C59.1617 16.344 58.4554 16.656 57.6754 16.656ZM58.2994 15.369C58.776 15.369 59.2484 15.122 59.7164 14.628L60.1324 12.002C59.8984 11.9587 59.634 11.937 59.3394 11.937C58.7414 11.937 58.2734 12.145 57.9354 12.561C57.606 12.9683 57.4414 13.5317 57.4414 14.251C57.4414 14.9963 57.7274 15.369 58.2994 15.369ZM75.3438 14.225L75.8898 14.836C75.4998 15.4253 75.0621 15.876 74.5768 16.188C74.0915 16.5 73.5975 16.656 73.0948 16.656C72.3841 16.656 71.9725 16.344 71.8598 15.72C71.2358 16.344 70.5295 16.656 69.7408 16.656C68.4148 16.656 67.7518 15.8847 67.7518 14.342C67.7518 13.224 68.0638 12.3183 68.6878 11.625C69.3205 10.9317 70.1611 10.585 71.2098 10.585C71.5565 10.585 71.9551 10.6327 72.4058 10.728L72.9388 7.4L74.6938 7.244L73.5368 14.446C73.4848 14.7753 73.4848 15.0137 73.5368 15.161C73.5888 15.2997 73.7058 15.369 73.8878 15.369C74.1218 15.369 74.3731 15.265 74.6418 15.057C74.9191 14.8403 75.1531 14.563 75.3438 14.225ZM71.7688 14.654L72.2108 11.95C71.8901 11.9067 71.6301 11.885 71.4308 11.885C70.8241 11.885 70.3518 12.1017 70.0138 12.535C69.6758 12.9597 69.5068 13.536 69.5068 14.264C69.5068 14.654 69.5718 14.94 69.7018 15.122C69.8405 15.304 70.0571 15.395 70.3518 15.395C70.8285 15.395 71.3008 15.148 71.7688 14.654ZM82.2079 14.225L82.7539 14.836C81.9219 16.0493 80.7259 16.656 79.1659 16.656C78.2212 16.656 77.4932 16.422 76.9819 15.954C76.4792 15.486 76.2279 14.823 76.2279 13.965C76.2279 12.977 76.5269 12.1667 77.1249 11.534C77.7229 10.9013 78.4899 10.585 79.4259 10.585C80.0759 10.585 80.5916 10.741 80.9729 11.053C81.3629 11.3563 81.5536 11.768 81.5449 12.288C81.5362 12.9467 81.2329 13.4797 80.6349 13.887C80.0369 14.2857 79.2352 14.4937 78.2299 14.511C78.3252 14.8057 78.5029 15.0397 78.7629 15.213C79.0229 15.3863 79.3392 15.473 79.7119 15.473C80.8299 15.473 81.6619 15.057 82.2079 14.225ZM79.3479 11.859C78.9666 11.859 78.6502 12.0237 78.3989 12.353C78.1562 12.6737 78.0176 13.0983 77.9829 13.627C78.6069 13.627 79.1009 13.523 79.4649 13.315C79.8376 13.107 80.0282 12.8253 80.0369 12.47C80.0456 12.2707 79.9849 12.119 79.8549 12.015C79.7336 11.911 79.5646 11.859 79.3479 11.859ZM91.3477 7.634L90.4377 13.484C90.2557 14.6453 89.8787 15.4773 89.3067 15.98C88.7347 16.4827 87.8854 16.708 86.7587 16.656L86.6547 14.953C87.2267 14.953 87.6817 14.823 88.0197 14.563C88.3664 14.2943 88.5874 13.848 88.6827 13.224L89.5537 7.79L91.3477 7.634ZM99.837 14.225L100.383 14.836C99.7937 15.772 99.07 16.3007 98.212 16.422C97.718 16.5 97.198 16.435 96.652 16.227C96.1407 16.513 95.56 16.656 94.91 16.656C94.1127 16.656 93.506 16.4523 93.09 16.045C92.674 15.629 92.466 15.0223 92.466 14.225C92.4833 13.1677 92.8127 12.301 93.454 11.625C94.104 10.9403 94.9447 10.598 95.976 10.598C96.7733 10.598 97.38 10.806 97.796 11.222C98.2207 11.638 98.433 12.2403 98.433 13.029C98.433 13.991 98.1643 14.7883 97.627 15.421C97.8263 15.499 98.0343 15.525 98.251 15.499C98.823 15.4123 99.3517 14.9877 99.837 14.225ZM95.066 15.343C95.5253 15.3517 95.911 15.1393 96.223 14.706C96.535 14.264 96.691 13.7137 96.691 13.055C96.691 12.301 96.405 11.924 95.833 11.924C95.365 11.924 94.9793 12.145 94.676 12.587C94.3813 13.029 94.2297 13.575 94.221 14.225C94.2123 14.9703 94.494 15.343 95.066 15.343ZM102.793 19.217C101.996 19.217 101.346 19.1 100.843 18.866L101.038 17.579C101.567 17.8477 102.139 17.9777 102.754 17.969C103.222 17.9603 103.59 17.839 103.859 17.605C104.128 17.3797 104.318 17.0113 104.431 16.5C104.474 16.37 104.518 16.188 104.561 15.954C104.041 16.422 103.439 16.656 102.754 16.656C101.419 16.656 100.752 15.8847 100.752 14.342C100.752 13.2153 101.064 12.3097 101.688 11.625C102.321 10.9317 103.166 10.585 104.223 10.585C104.57 10.585 104.994 10.6413 105.497 10.754L107.161 10.585L106.303 15.876C107.161 15.5553 107.828 15.005 108.305 14.225L108.838 14.836C108.491 15.356 108.106 15.785 107.681 16.123C107.256 16.4523 106.719 16.7297 106.069 16.955C105.566 18.463 104.474 19.217 102.793 19.217ZM103.352 15.408C103.837 15.408 104.314 15.1307 104.782 14.576L105.211 11.95C104.89 11.9067 104.626 11.885 104.418 11.885C103.82 11.885 103.352 12.1017 103.014 12.535C102.676 12.9597 102.507 13.536 102.507 14.264C102.507 14.6627 102.572 14.953 102.702 15.135C102.841 15.317 103.057 15.408 103.352 15.408ZM111.179 16.656C110.538 16.656 110.044 16.461 109.697 16.071C109.359 15.6723 109.19 15.096 109.19 14.342C109.19 13.224 109.506 12.3183 110.139 11.625C110.772 10.9317 111.612 10.585 112.661 10.585C113.016 10.585 113.441 10.6413 113.935 10.754L115.599 10.585L114.975 14.446C114.923 14.7753 114.923 15.0137 114.975 15.161C115.027 15.2997 115.144 15.369 115.326 15.369C115.56 15.369 115.811 15.265 116.08 15.057C116.357 14.8403 116.591 14.563 116.782 14.225L117.315 14.836C116.5 16.0493 115.573 16.656 114.533 16.656C113.831 16.656 113.419 16.344 113.298 15.72C112.665 16.344 111.959 16.656 111.179 16.656ZM111.803 15.369C112.28 15.369 112.752 15.122 113.22 14.628L113.636 12.002C113.402 11.9587 113.138 11.937 112.843 11.937C112.245 11.937 111.777 12.145 111.439 12.561C111.11 12.9683 110.945 13.5317 110.945 14.251C110.945 14.9963 111.231 15.369 111.803 15.369ZM125.271 14.225L125.817 14.836C125.427 15.4253 124.99 15.876 124.504 16.188C124.019 16.5 123.525 16.656 123.022 16.656C122.312 16.656 121.9 16.344 121.787 15.72C121.163 16.344 120.457 16.656 119.668 16.656C118.342 16.656 117.679 15.8847 117.679 14.342C117.679 13.224 117.991 12.3183 118.615 11.625C119.248 10.9317 120.089 10.585 121.137 10.585C121.484 10.585 121.883 10.6327 122.333 10.728L122.866 7.4L124.621 7.244L123.464 14.446C123.412 14.7753 123.412 15.0137 123.464 15.161C123.516 15.2997 123.633 15.369 123.815 15.369C124.049 15.369 124.301 15.265 124.569 15.057C124.847 14.8403 125.081 14.563 125.271 14.225ZM121.696 14.654L122.138 11.95C121.818 11.9067 121.558 11.885 121.358 11.885C120.752 11.885 120.279 12.1017 119.941 12.535C119.603 12.9597 119.434 13.536 119.434 14.264C119.434 14.654 119.499 14.94 119.629 15.122C119.768 15.304 119.985 15.395 120.279 15.395C120.756 15.395 121.228 15.148 121.696 14.654ZM133.54 14.225L134.086 14.836C133.496 15.772 132.773 16.3007 131.915 16.422C131.421 16.5 130.901 16.435 130.355 16.227C129.843 16.513 129.263 16.656 128.613 16.656C127.815 16.656 127.209 16.4523 126.793 16.045C126.377 15.629 126.169 15.0223 126.169 14.225C126.186 13.1677 126.515 12.301 127.157 11.625C127.807 10.9403 128.647 10.598 129.679 10.598C130.476 10.598 131.083 10.806 131.499 11.222C131.923 11.638 132.136 12.2403 132.136 13.029C132.136 13.991 131.867 14.7883 131.33 15.421C131.529 15.499 131.737 15.525 131.954 15.499C132.526 15.4123 133.054 14.9877 133.54 14.225ZM128.769 15.343C129.228 15.3517 129.614 15.1393 129.926 14.706C130.238 14.264 130.394 13.7137 130.394 13.055C130.394 12.301 130.108 11.924 129.536 11.924C129.068 11.924 128.682 12.145 128.379 12.587C128.084 13.029 127.932 13.575 127.924 14.225C127.915 14.9703 128.197 15.343 128.769 15.343ZM140.642 14.225L141.188 14.836C140.391 16.0493 139.351 16.656 138.068 16.656C137.427 16.656 136.933 16.5 136.586 16.188C136.24 15.876 136.066 15.4253 136.066 14.836C136.066 13.952 136.435 12.951 137.171 11.833C136.738 11.8243 136.244 11.7377 135.689 11.573C135.785 12.795 135.555 13.8827 135 14.836L134.454 14.225C134.948 13.3237 135.083 12.34 134.857 11.274C134.84 11.2653 134.771 11.2393 134.649 11.196C134.537 11.144 134.459 11.1007 134.415 11.066L134.623 9.805C135.629 10.403 137.119 10.7193 139.095 10.754L138.783 11.989C138.125 12.8903 137.795 13.7137 137.795 14.459C137.795 15.0657 138.107 15.369 138.731 15.369C139.104 15.369 139.464 15.2693 139.81 15.07C140.166 14.862 140.443 14.5803 140.642 14.225ZM144.459 16.656C143.523 16.656 142.799 16.422 142.288 15.954C141.785 15.486 141.534 14.823 141.534 13.965C141.534 12.977 141.833 12.1667 142.431 11.534C143.029 10.9013 143.796 10.585 144.732 10.585C145.382 10.585 145.898 10.741 146.279 11.053C146.669 11.3563 146.86 11.768 146.851 12.288C146.842 12.9467 146.539 13.4797 145.941 13.887C145.343 14.2857 144.541 14.4937 143.536 14.511C143.614 14.8317 143.787 15.0743 144.056 15.239C144.333 15.395 144.658 15.473 145.031 15.473C145.534 15.4643 145.963 15.343 146.318 15.109C146.682 14.875 147.024 14.5153 147.345 14.03C147.51 13.7787 147.778 13.237 148.151 12.405C148.524 11.5643 148.857 10.9577 149.152 10.585L150.92 10.403C150.894 10.793 150.933 11.1483 151.037 11.469C151.141 11.781 151.275 12.0497 151.44 12.275C151.613 12.4917 151.787 12.704 151.96 12.912C152.133 13.1113 152.281 13.3453 152.402 13.614C152.523 13.8827 152.584 14.173 152.584 14.485C152.584 14.875 152.506 15.213 152.35 15.499C153.156 15.447 153.81 15.0223 154.313 14.225L154.846 14.836C154.395 15.486 153.888 15.9323 153.325 16.175C152.77 16.4177 152.073 16.5043 151.232 16.435C150.842 16.5823 150.383 16.656 149.854 16.656C149.291 16.656 148.758 16.5433 148.255 16.318L148.476 15.122C148.927 15.3387 149.325 15.447 149.672 15.447C150.027 15.447 150.305 15.3647 150.504 15.2C150.703 15.0267 150.803 14.7883 150.803 14.485C150.803 14.2597 150.734 14.0343 150.595 13.809C150.465 13.575 150.318 13.3713 150.153 13.198C149.997 13.016 149.837 12.7777 149.672 12.483C149.516 12.1797 149.421 11.8633 149.386 11.534C149.204 11.8373 148.953 12.3573 148.632 13.094C148.32 13.822 148.069 14.3377 147.878 14.641C147.055 15.9843 145.915 16.656 144.459 16.656ZM143.289 13.627C143.913 13.627 144.407 13.523 144.771 13.315C145.144 13.107 145.334 12.8253 145.343 12.47C145.352 12.2707 145.291 12.119 145.161 12.015C145.04 11.911 144.875 11.859 144.667 11.859C144.286 11.859 143.969 12.0237 143.718 12.353C143.475 12.6737 143.332 13.0983 143.289 13.627Z" fill="white"/>
</svg>
