<svg width="302" height="26" viewBox="0 0 302 26" fill="none" xmlns="http://www.w3.org/2000/svg">
<path d="M0 7C0 3.68629 2.68629 1 6 1H296C299.314 1 302 3.68629 302 7V24H0V7Z" fill="#0F0F0F"/>
<path d="M32.587 14.94H36.578L36.344 16.5H30.559L31.924 7.79L33.718 7.634L32.587 14.94ZM39.7514 9.831C39.4654 9.831 39.2271 9.74433 39.0364 9.571C38.8458 9.39767 38.7504 9.17667 38.7504 8.908C38.7504 8.58733 38.8631 8.31867 39.0884 8.102C39.3138 7.88533 39.5911 7.777 39.9204 7.777C40.1978 7.777 40.4274 7.868 40.6094 8.05C40.7914 8.22333 40.8824 8.44433 40.8824 8.713C40.8824 9.03367 40.7741 9.30233 40.5574 9.519C40.3408 9.727 40.0721 9.831 39.7514 9.831ZM41.9874 14.225L42.5334 14.836C41.6928 16.0493 40.7048 16.656 39.5694 16.656C38.9454 16.656 38.5078 16.474 38.2564 16.11C38.0051 15.7373 37.9401 15.161 38.0614 14.381L38.6464 10.754L40.4014 10.585L39.8294 14.147C39.7601 14.589 39.7644 14.9053 39.8424 15.096C39.9204 15.278 40.0938 15.369 40.3624 15.369C41.0038 15.3603 41.5454 14.979 41.9874 14.225ZM45.1962 16.656C44.6069 16.656 44.0955 16.5563 43.6622 16.357L43.8832 15.148C44.2905 15.3473 44.6675 15.447 45.0142 15.447C45.3695 15.447 45.6469 15.3647 45.8462 15.2C46.0455 15.0353 46.1452 14.8057 46.1452 14.511C46.1452 14.2943 46.0802 14.069 45.9502 13.835C45.8202 13.601 45.6729 13.393 45.5082 13.211C45.3522 13.029 45.1962 12.7907 45.0402 12.496C44.8842 12.2013 44.7889 11.8937 44.7542 11.573H44.7282C44.5895 11.8503 44.3729 12.379 44.0782 13.159C43.7835 13.939 43.5235 14.498 43.2982 14.836L42.7522 14.225C42.9082 13.9737 43.1509 13.4147 43.4802 12.548C43.8182 11.6727 44.1562 11.0183 44.4942 10.585L46.2622 10.403C46.2362 10.793 46.2752 11.1483 46.3792 11.469C46.4832 11.7897 46.6175 12.0627 46.7822 12.288C46.9555 12.5047 47.1289 12.717 47.3022 12.925C47.4755 13.133 47.6229 13.3713 47.7442 13.64C47.8655 13.9 47.9262 14.1817 47.9262 14.485C47.9262 14.875 47.8482 15.213 47.6922 15.499C48.4982 15.447 49.1525 15.0223 49.6552 14.225L50.1882 14.836C49.7375 15.486 49.2305 15.9323 48.6672 16.175C48.1125 16.4177 47.4149 16.5043 46.5742 16.435C46.1842 16.5823 45.7249 16.656 45.1962 16.656ZM54.4167 14.225L54.9497 14.836C54.1351 16.0493 53.1384 16.656 51.9597 16.656C51.3271 16.656 50.8764 16.474 50.6077 16.11C50.3477 15.746 50.2784 15.1697 50.3997 14.381L50.8027 11.833H49.9967L50.1657 10.754H50.9847L51.2967 8.791L53.0387 8.635L52.7007 10.754H53.9227L53.7537 11.833H52.5317L52.1677 14.16C52.1071 14.602 52.1201 14.914 52.2067 15.096C52.3021 15.278 52.4884 15.369 52.7657 15.369C53.4157 15.3517 53.9661 14.9703 54.4167 14.225ZM57.1554 16.656C56.514 16.656 56.02 16.461 55.6734 16.071C55.3354 15.6723 55.1664 15.096 55.1664 14.342C55.1664 13.224 55.4827 12.3183 56.1154 11.625C56.748 10.9317 57.5887 10.585 58.6374 10.585C58.9927 10.585 59.4174 10.6413 59.9114 10.754L61.5754 10.585L60.9514 14.446C60.8994 14.7753 60.8994 15.0137 60.9514 15.161C61.0034 15.2997 61.1204 15.369 61.3024 15.369C61.5364 15.369 61.7877 15.265 62.0564 15.057C62.3337 14.8403 62.5677 14.563 62.7584 14.225L63.2914 14.836C62.4767 16.0493 61.5494 16.656 60.5094 16.656C59.8074 16.656 59.3957 16.344 59.2744 15.72C58.6417 16.344 57.9354 16.656 57.1554 16.656ZM57.7794 15.369C58.256 15.369 58.7284 15.122 59.1964 14.628L59.6124 12.002C59.3784 11.9587 59.114 11.937 58.8194 11.937C58.2214 11.937 57.7534 12.145 57.4154 12.561C57.086 12.9683 56.9214 13.5317 56.9214 14.251C56.9214 14.9963 57.2074 15.369 57.7794 15.369ZM74.5638 14.225L75.1098 14.836C74.7198 15.4253 74.2821 15.876 73.7968 16.188C73.3115 16.5 72.8175 16.656 72.3148 16.656C71.6041 16.656 71.1925 16.344 71.0798 15.72C70.4558 16.344 69.7495 16.656 68.9608 16.656C67.6348 16.656 66.9718 15.8847 66.9718 14.342C66.9718 13.224 67.2838 12.3183 67.9078 11.625C68.5405 10.9317 69.3811 10.585 70.4298 10.585C70.7765 10.585 71.1751 10.6327 71.6258 10.728L72.1588 7.4L73.9138 7.244L72.7568 14.446C72.7048 14.7753 72.7048 15.0137 72.7568 15.161C72.8088 15.2997 72.9258 15.369 73.1078 15.369C73.3418 15.369 73.5931 15.265 73.8618 15.057C74.1391 14.8403 74.3731 14.563 74.5638 14.225ZM70.9888 14.654L71.4308 11.95C71.1101 11.9067 70.8501 11.885 70.6508 11.885C70.0441 11.885 69.5718 12.1017 69.2338 12.535C68.8958 12.9597 68.7268 13.536 68.7268 14.264C68.7268 14.654 68.7918 14.94 68.9218 15.122C69.0605 15.304 69.2771 15.395 69.5718 15.395C70.0485 15.395 70.5208 15.148 70.9888 14.654ZM81.2979 14.225L81.8439 14.836C81.0119 16.0493 79.8159 16.656 78.2559 16.656C77.3112 16.656 76.5832 16.422 76.0719 15.954C75.5692 15.486 75.3179 14.823 75.3179 13.965C75.3179 12.977 75.6169 12.1667 76.2149 11.534C76.8129 10.9013 77.5799 10.585 78.5159 10.585C79.1659 10.585 79.6816 10.741 80.0629 11.053C80.4529 11.3563 80.6436 11.768 80.6349 12.288C80.6262 12.9467 80.3229 13.4797 79.7249 13.887C79.1269 14.2857 78.3252 14.4937 77.3199 14.511C77.4152 14.8057 77.5929 15.0397 77.8529 15.213C78.1129 15.3863 78.4292 15.473 78.8019 15.473C79.9199 15.473 80.7519 15.057 81.2979 14.225ZM78.4379 11.859C78.0566 11.859 77.7402 12.0237 77.4889 12.353C77.2462 12.6737 77.1076 13.0983 77.0729 13.627C77.6969 13.627 78.1909 13.523 78.5549 13.315C78.9276 13.107 79.1182 12.8253 79.1269 12.47C79.1356 12.2707 79.0749 12.119 78.9449 12.015C78.8236 11.911 78.6546 11.859 78.4379 11.859ZM88.0717 16.5L86.4467 7.79H88.2277L89.1637 13.133L89.3457 14.485H89.3847L89.9437 13.159L92.5567 7.79L94.5327 7.634L90.0867 16.5H88.0717ZM99.9895 14.225L100.535 14.836C99.7035 16.0493 98.5075 16.656 96.9475 16.656C96.0028 16.656 95.2748 16.422 94.7635 15.954C94.2608 15.486 94.0095 14.823 94.0095 13.965C94.0095 12.977 94.3085 12.1667 94.9065 11.534C95.5045 10.9013 96.2715 10.585 97.2075 10.585C97.8575 10.585 98.3731 10.741 98.7545 11.053C99.1445 11.3563 99.3351 11.768 99.3265 12.288C99.3178 12.9467 99.0145 13.4797 98.4165 13.887C97.8185 14.2857 97.0168 14.4937 96.0115 14.511C96.1068 14.8057 96.2845 15.0397 96.5445 15.213C96.8045 15.3863 97.1208 15.473 97.4935 15.473C98.6115 15.473 99.4435 15.057 99.9895 14.225ZM97.1295 11.859C96.7481 11.859 96.4318 12.0237 96.1805 12.353C95.9378 12.6737 95.7991 13.0983 95.7645 13.627C96.3885 13.627 96.8825 13.523 97.2465 13.315C97.6191 13.107 97.8098 12.8253 97.8185 12.47C97.8271 12.2707 97.7665 12.119 97.6365 12.015C97.5151 11.911 97.3461 11.859 97.1295 11.859ZM101.276 9.714L102.615 7.673H104.24L102.563 9.714H101.276ZM104.669 14.225L105.215 14.836C104.375 16.0493 103.387 16.656 102.251 16.656C101.627 16.656 101.19 16.474 100.938 16.11C100.687 15.7373 100.622 15.161 100.743 14.381L101.328 10.754L103.083 10.585L102.511 14.147C102.442 14.589 102.446 14.9053 102.524 15.096C102.602 15.278 102.776 15.369 103.044 15.369C103.686 15.3603 104.227 14.979 104.669 14.225ZM108.333 16.656C107.354 16.656 106.617 16.422 106.123 15.954C105.638 15.4773 105.404 14.7883 105.421 13.887C105.438 12.9077 105.746 12.1147 106.344 11.508C106.942 10.8927 107.713 10.585 108.658 10.585C109.481 10.585 110.053 10.819 110.374 11.287C110.703 11.755 110.708 12.3573 110.387 13.094L109.035 12.782C109.148 12.5133 109.156 12.2967 109.061 12.132C108.966 11.9587 108.788 11.872 108.528 11.872C108.138 11.872 107.813 12.0583 107.553 12.431C107.293 12.795 107.163 13.2543 107.163 13.809C107.163 14.9183 107.722 15.473 108.84 15.473C109.975 15.473 110.825 15.057 111.388 14.225L111.921 14.836C111.098 16.0493 109.902 16.656 108.333 16.656ZM119.604 14.225L120.15 14.836C119.31 16.0493 118.374 16.656 117.342 16.656C116.684 16.656 116.294 16.3397 116.172 15.707C115.401 16.3397 114.595 16.656 113.754 16.656C112.437 16.656 111.891 15.9453 112.116 14.524L112.727 10.754L114.469 10.585L113.871 14.407C113.811 14.7363 113.832 14.9747 113.936 15.122C114.049 15.2693 114.244 15.343 114.521 15.343C114.981 15.343 115.488 15.1133 116.042 14.654L116.666 10.754L118.421 10.585L117.797 14.576C117.702 15.1047 117.823 15.369 118.161 15.369C118.404 15.369 118.655 15.2607 118.915 15.044C119.184 14.8273 119.414 14.5543 119.604 14.225ZM124.379 14.225L124.912 14.836C124.088 16.0493 123.096 16.656 121.935 16.656C121.285 16.656 120.83 16.474 120.57 16.11C120.31 15.7373 120.24 15.161 120.362 14.381L121.467 7.4L123.222 7.244L122.13 14.147C122.06 14.5803 122.069 14.8923 122.156 15.083C122.251 15.2737 122.442 15.369 122.728 15.369C123.048 15.3603 123.352 15.2563 123.638 15.057C123.932 14.849 124.179 14.5717 124.379 14.225ZM132.512 14.225L133.058 14.836C132.469 15.772 131.745 16.3007 130.887 16.422C130.393 16.5 129.873 16.435 129.327 16.227C128.816 16.513 128.235 16.656 127.585 16.656C126.788 16.656 126.181 16.4523 125.765 16.045C125.349 15.629 125.141 15.0223 125.141 14.225C125.159 13.1677 125.488 12.301 126.129 11.625C126.779 10.9403 127.62 10.598 128.651 10.598C129.449 10.598 130.055 10.806 130.471 11.222C130.896 11.638 131.108 12.2403 131.108 13.029C131.108 13.991 130.84 14.7883 130.302 15.421C130.502 15.499 130.71 15.525 130.926 15.499C131.498 15.4123 132.027 14.9877 132.512 14.225ZM127.741 15.343C128.201 15.3517 128.586 15.1393 128.898 14.706C129.21 14.264 129.366 13.7137 129.366 13.055C129.366 12.301 129.08 11.924 128.508 11.924C128.04 11.924 127.655 12.145 127.351 12.587C127.057 13.029 126.905 13.575 126.896 14.225C126.888 14.9703 127.169 15.343 127.741 15.343ZM135.741 16.656C135.152 16.656 134.641 16.5563 134.207 16.357L134.428 15.148C134.836 15.3473 135.213 15.447 135.559 15.447C135.915 15.447 136.192 15.3647 136.391 15.2C136.591 15.0353 136.69 14.8057 136.69 14.511C136.69 14.2943 136.625 14.069 136.495 13.835C136.365 13.601 136.218 13.393 136.053 13.211C135.897 13.029 135.741 12.7907 135.585 12.496C135.429 12.2013 135.334 11.8937 135.299 11.573H135.273C135.135 11.8503 134.918 12.379 134.623 13.159C134.329 13.939 134.069 14.498 133.843 14.836L133.297 14.225C133.453 13.9737 133.696 13.4147 134.025 12.548C134.363 11.6727 134.701 11.0183 135.039 10.585L136.807 10.403C136.781 10.793 136.82 11.1483 136.924 11.469C137.028 11.7897 137.163 12.0627 137.327 12.288C137.501 12.5047 137.674 12.717 137.847 12.925C138.021 13.133 138.168 13.3713 138.289 13.64C138.411 13.9 138.471 14.1817 138.471 14.485C138.471 14.875 138.393 15.213 138.237 15.499C139.043 15.447 139.698 15.0223 140.2 14.225L140.733 14.836C140.283 15.486 139.776 15.9323 139.212 16.175C138.658 16.4177 137.96 16.5043 137.119 16.435C136.729 16.5823 136.27 16.656 135.741 16.656Z" fill="white"/>
</svg>
