<svg width="620" height="25" viewBox="0 0 620 25" fill="none" xmlns="http://www.w3.org/2000/svg">
<path d="M0 6C0 2.68629 2.68629 0 6 0H607.902C611.215 0 613.902 2.68629 613.902 6V23H0V6Z" fill="#0F0F0F"/>
<path d="M255.146 16L253.521 7.29H255.302L256.238 12.633L256.42 13.985H256.459L257.018 12.659L259.631 7.29L261.607 7.134L257.161 16H255.146ZM267.064 13.725L267.61 14.336C266.778 15.5493 265.582 16.156 264.022 16.156C263.077 16.156 262.349 15.922 261.838 15.454C261.335 14.986 261.084 14.323 261.084 13.465C261.084 12.477 261.383 11.6667 261.981 11.034C262.579 10.4013 263.346 10.085 264.282 10.085C264.932 10.085 265.447 10.241 265.829 10.553C266.219 10.8563 266.409 11.268 266.401 11.788C266.392 12.4467 266.089 12.9797 265.491 13.387C264.893 13.7857 264.091 13.9937 263.086 14.011C263.181 14.3057 263.359 14.5397 263.619 14.713C263.879 14.8863 264.195 14.973 264.568 14.973C265.686 14.973 266.518 14.557 267.064 13.725ZM264.204 11.359C263.822 11.359 263.506 11.5237 263.255 11.853C263.012 12.1737 262.873 12.5983 262.839 13.127C263.463 13.127 263.957 13.023 264.321 12.815C264.693 12.607 264.884 12.3253 264.893 11.97C264.901 11.7707 264.841 11.619 264.711 11.515C264.589 11.411 264.42 11.359 264.204 11.359ZM268.35 9.214L269.689 7.173H271.314L269.637 9.214H268.35ZM271.743 13.725L272.289 14.336C271.449 15.5493 270.461 16.156 269.325 16.156C268.701 16.156 268.264 15.974 268.012 15.61C267.761 15.2373 267.696 14.661 267.817 13.881L268.402 10.254L270.157 10.085L269.585 13.647C269.516 14.089 269.52 14.4053 269.598 14.596C269.676 14.778 269.85 14.869 270.118 14.869C270.76 14.8603 271.301 14.479 271.743 13.725ZM275.407 16.156C274.428 16.156 273.691 15.922 273.197 15.454C272.712 14.9773 272.478 14.2883 272.495 13.387C272.513 12.4077 272.82 11.6147 273.418 11.008C274.016 10.3927 274.788 10.085 275.732 10.085C276.556 10.085 277.128 10.319 277.448 10.787C277.778 11.255 277.782 11.8573 277.461 12.594L276.109 12.282C276.222 12.0133 276.231 11.7967 276.135 11.632C276.04 11.4587 275.862 11.372 275.602 11.372C275.212 11.372 274.887 11.5583 274.627 11.931C274.367 12.295 274.237 12.7543 274.237 13.309C274.237 14.4183 274.796 14.973 275.914 14.973C277.05 14.973 277.899 14.557 278.462 13.725L278.995 14.336C278.172 15.5493 276.976 16.156 275.407 16.156ZM286.679 13.725L287.225 14.336C286.384 15.5493 285.448 16.156 284.417 16.156C283.758 16.156 283.368 15.8397 283.247 15.207C282.475 15.8397 281.669 16.156 280.829 16.156C279.511 16.156 278.965 15.4453 279.191 14.024L279.802 10.254L281.544 10.085L280.946 13.907C280.885 14.2363 280.907 14.4747 281.011 14.622C281.123 14.7693 281.318 14.843 281.596 14.843C282.055 14.843 282.562 14.6133 283.117 14.154L283.741 10.254L285.496 10.085L284.872 14.076C284.776 14.6047 284.898 14.869 285.236 14.869C285.478 14.869 285.73 14.7607 285.99 14.544C286.258 14.3273 286.488 14.0543 286.679 13.725ZM291.453 13.725L291.986 14.336C291.162 15.5493 290.17 16.156 289.009 16.156C288.359 16.156 287.904 15.974 287.644 15.61C287.384 15.2373 287.314 14.661 287.436 13.881L288.541 6.9L290.296 6.744L289.204 13.647C289.134 14.0803 289.143 14.3923 289.23 14.583C289.325 14.7737 289.516 14.869 289.802 14.869C290.122 14.8603 290.426 14.7563 290.712 14.557C291.006 14.349 291.253 14.0717 291.453 13.725ZM299.586 13.725L300.132 14.336C299.543 15.272 298.819 15.8007 297.961 15.922C297.467 16 296.947 15.935 296.401 15.727C295.89 16.013 295.309 16.156 294.659 16.156C293.862 16.156 293.255 15.9523 292.839 15.545C292.423 15.129 292.215 14.5223 292.215 13.725C292.233 12.6677 292.562 11.801 293.203 11.125C293.853 10.4403 294.694 10.098 295.725 10.098C296.523 10.098 297.129 10.306 297.545 10.722C297.97 11.138 298.182 11.7403 298.182 12.529C298.182 13.491 297.914 14.2883 297.376 14.921C297.576 14.999 297.784 15.025 298 14.999C298.572 14.9123 299.101 14.4877 299.586 13.725ZM294.815 14.843C295.275 14.8517 295.66 14.6393 295.972 14.206C296.284 13.764 296.44 13.2137 296.44 12.555C296.44 11.801 296.154 11.424 295.582 11.424C295.114 11.424 294.729 11.645 294.425 12.087C294.131 12.529 293.979 13.075 293.97 13.725C293.962 14.4703 294.243 14.843 294.815 14.843ZM302.815 16.156C302.226 16.156 301.715 16.0563 301.281 15.857L301.502 14.648C301.91 14.8473 302.287 14.947 302.633 14.947C302.989 14.947 303.266 14.8647 303.465 14.7C303.665 14.5353 303.764 14.3057 303.764 14.011C303.764 13.7943 303.699 13.569 303.569 13.335C303.439 13.101 303.292 12.893 303.127 12.711C302.971 12.529 302.815 12.2907 302.659 11.996C302.503 11.7013 302.408 11.3937 302.373 11.073H302.347C302.209 11.3503 301.992 11.879 301.697 12.659C301.403 13.439 301.143 13.998 300.917 14.336L300.371 13.725C300.527 13.4737 300.77 12.9147 301.099 12.048C301.437 11.1727 301.775 10.5183 302.113 10.085L303.881 9.903C303.855 10.293 303.894 10.6483 303.998 10.969C304.102 11.2897 304.237 11.5627 304.401 11.788C304.575 12.0047 304.748 12.217 304.921 12.425C305.095 12.633 305.242 12.8713 305.363 13.14C305.485 13.4 305.545 13.6817 305.545 13.985C305.545 14.375 305.467 14.713 305.311 14.999C306.117 14.947 306.772 14.5223 307.274 13.725L307.807 14.336C307.357 14.986 306.85 15.4323 306.286 15.675C305.732 15.9177 305.034 16.0043 304.193 15.935C303.803 16.0823 303.344 16.156 302.815 16.156ZM316.028 7.29C317.137 7.29 317.935 7.498 318.42 7.914C318.905 8.33 319.148 8.93667 319.148 9.734C319.148 10.8087 318.775 11.6623 318.03 12.295C317.293 12.9277 316.305 13.244 315.066 13.244H313.883L313.454 16H311.725L313.09 7.29H316.028ZM315.118 11.801C315.82 11.801 316.37 11.6407 316.769 11.32C317.176 10.9993 317.38 10.5443 317.38 9.955C317.38 9.53033 317.25 9.227 316.99 9.045C316.739 8.863 316.305 8.772 315.69 8.772H314.585L314.117 11.801H315.118ZM319.85 10.826L320.136 9.474C321.029 9.97667 322.342 10.2367 324.075 10.254L323.763 11.489C322.914 12.4163 322.489 13.2353 322.489 13.946C322.489 14.5613 322.801 14.869 323.425 14.869C323.815 14.869 324.183 14.765 324.53 14.557C324.877 14.349 325.15 14.0717 325.349 13.725L325.895 14.336C325.089 15.5493 324.049 16.156 322.775 16.156C322.125 16.156 321.627 16 321.28 15.688C320.942 15.3673 320.773 14.9123 320.773 14.323C320.773 13.465 321.224 12.4943 322.125 11.411C321.206 11.3677 320.448 11.1727 319.85 10.826ZM328.63 9.214L329.969 7.173H331.594L329.917 9.214H328.63ZM333.505 13.725L334.051 14.336C333.462 15.272 332.738 15.8007 331.88 15.922C331.386 16 330.866 15.935 330.32 15.727C329.809 16.013 329.228 16.156 328.578 16.156C327.781 16.156 327.174 15.9523 326.758 15.545C326.342 15.129 326.134 14.5223 326.134 13.725C326.152 12.6677 326.481 11.801 327.122 11.125C327.772 10.4403 328.613 10.098 329.644 10.098C330.442 10.098 331.048 10.306 331.464 10.722C331.889 11.138 332.101 11.7403 332.101 12.529C332.101 13.491 331.833 14.2883 331.295 14.921C331.495 14.999 331.703 15.025 331.919 14.999C332.491 14.9123 333.02 14.4877 333.505 13.725ZM328.734 14.843C329.194 14.8517 329.579 14.6393 329.891 14.206C330.203 13.764 330.359 13.2137 330.359 12.555C330.359 11.801 330.073 11.424 329.501 11.424C329.033 11.424 328.648 11.645 328.344 12.087C328.05 12.529 327.898 13.075 327.889 13.725C327.881 14.4703 328.162 14.843 328.734 14.843ZM341.869 13.725L342.415 14.336C341.601 15.5493 340.695 16.156 339.698 16.156C339.083 16.156 338.632 15.883 338.346 15.337L337.826 14.349L336.591 16H334.784L337.033 13.01L336.526 11.983C336.31 11.5323 336.188 11.2507 336.162 11.138H336.136C336.058 11.346 335.937 11.6883 335.772 12.165C335.616 12.6417 335.465 13.0577 335.317 13.413C335.17 13.7683 335.01 14.076 334.836 14.336L334.29 13.725C334.49 13.3957 334.728 12.8237 335.005 12.009C335.291 11.1857 335.517 10.6007 335.681 10.254L337.306 10.085L338.06 11.723L339.178 10.202H340.972L338.853 12.997L339.516 14.297C339.724 14.6783 340.002 14.869 340.348 14.869C340.626 14.8603 340.899 14.752 341.167 14.544C341.445 14.336 341.679 14.063 341.869 13.725ZM344.313 9.331C344.027 9.331 343.789 9.24433 343.598 9.071C343.408 8.89767 343.312 8.67667 343.312 8.408C343.312 8.08733 343.425 7.81867 343.65 7.602C343.876 7.38533 344.153 7.277 344.482 7.277C344.76 7.277 344.989 7.368 345.171 7.55C345.353 7.72333 345.444 7.94433 345.444 8.213C345.444 8.53367 345.336 8.80233 345.119 9.019C344.903 9.227 344.634 9.331 344.313 9.331ZM346.549 13.725L347.095 14.336C346.255 15.5493 345.267 16.156 344.131 16.156C343.507 16.156 343.07 15.974 342.818 15.61C342.567 15.2373 342.502 14.661 342.623 13.881L343.208 10.254L344.963 10.085L344.391 13.647C344.322 14.089 344.326 14.4053 344.404 14.596C344.482 14.778 344.656 14.869 344.924 14.869C345.566 14.8603 346.107 14.479 346.549 13.725ZM358.338 13.725L358.871 14.336C358.056 15.5493 357.125 16.156 356.076 16.156C355.556 16.156 355.179 16.0043 354.945 15.701C354.72 15.389 354.655 14.9383 354.75 14.349L355.088 12.334C355.183 11.71 355.001 11.398 354.542 11.398C354.169 11.398 353.684 11.6147 353.086 12.048L352.462 16H350.733L351.318 12.334C351.422 11.71 351.244 11.398 350.785 11.398C350.404 11.398 349.91 11.619 349.303 12.061L348.679 16H346.95L347.86 10.254L349.615 10.085L349.472 10.943C350.321 10.371 351.067 10.085 351.708 10.085C352.488 10.085 352.952 10.4057 353.099 11.047C354.009 10.4057 354.802 10.085 355.478 10.085C356.015 10.085 356.405 10.2497 356.648 10.579C356.899 10.8997 356.977 11.3547 356.882 11.944L356.544 13.985C356.449 14.5743 356.57 14.869 356.908 14.869C357.142 14.869 357.389 14.765 357.649 14.557C357.909 14.349 358.139 14.0717 358.338 13.725ZM366.472 13.725L367.018 14.336C366.429 15.272 365.705 15.8007 364.847 15.922C364.353 16 363.833 15.935 363.287 15.727C362.776 16.013 362.195 16.156 361.545 16.156C360.748 16.156 360.141 15.9523 359.725 15.545C359.309 15.129 359.101 14.5223 359.101 13.725C359.118 12.6677 359.448 11.801 360.089 11.125C360.739 10.4403 361.58 10.098 362.611 10.098C363.408 10.098 364.015 10.306 364.431 10.722C364.856 11.138 365.068 11.7403 365.068 12.529C365.068 13.491 364.799 14.2883 364.262 14.921C364.461 14.999 364.669 15.025 364.886 14.999C365.458 14.9123 365.987 14.4877 366.472 13.725ZM361.701 14.843C362.16 14.8517 362.546 14.6393 362.858 14.206C363.17 13.764 363.326 13.2137 363.326 12.555C363.326 11.801 363.04 11.424 362.468 11.424C362 11.424 361.614 11.645 361.311 12.087C361.016 12.529 360.865 13.075 360.856 13.725C360.847 14.4703 361.129 14.843 361.701 14.843ZM369.701 16.156C369.112 16.156 368.6 16.0563 368.167 15.857L368.388 14.648C368.795 14.8473 369.172 14.947 369.519 14.947C369.874 14.947 370.152 14.8647 370.351 14.7C370.55 14.5353 370.65 14.3057 370.65 14.011C370.65 13.7943 370.585 13.569 370.455 13.335C370.325 13.101 370.178 12.893 370.013 12.711C369.857 12.529 369.701 12.2907 369.545 11.996C369.389 11.7013 369.294 11.3937 369.259 11.073H369.233C369.094 11.3503 368.878 11.879 368.583 12.659C368.288 13.439 368.028 13.998 367.803 14.336L367.257 13.725C367.413 13.4737 367.656 12.9147 367.985 12.048C368.323 11.1727 368.661 10.5183 368.999 10.085L370.767 9.903C370.741 10.293 370.78 10.6483 370.884 10.969C370.988 11.2897 371.122 11.5627 371.287 11.788C371.46 12.0047 371.634 12.217 371.807 12.425C371.98 12.633 372.128 12.8713 372.249 13.14C372.37 13.4 372.431 13.6817 372.431 13.985C372.431 14.375 372.353 14.713 372.197 14.999C373.003 14.947 373.657 14.5223 374.16 13.725L374.693 14.336C374.242 14.986 373.735 15.4323 373.172 15.675C372.617 15.9177 371.92 16.0043 371.079 15.935C370.689 16.0823 370.23 16.156 369.701 16.156Z" fill="white"/>
</svg>
