<svg width="302" height="26" viewBox="0 0 302 26" fill="none" xmlns="http://www.w3.org/2000/svg">
<path d="M0 7C0 3.68629 2.68629 1 6 1H296C299.314 1 302 3.68629 302 7V24H0V7Z" fill="#0F0F0F"/>
<path d="M38.801 7.803L40.53 7.634L40.01 16.5H38.216L38.489 12.379L38.658 10.806H38.619L37.891 12.106L36.253 14.771L34.81 14.94L33.861 12.275L33.406 10.819H33.367L33.094 12.574L32.301 16.5H30.52L32.314 7.79L33.952 7.634L35.187 11.261L35.681 12.847H35.72L36.604 11.313L38.801 7.803ZM49.6467 14.225L50.1927 14.836C49.352 16.0493 48.416 16.656 47.3847 16.656C46.726 16.656 46.336 16.3397 46.2147 15.707C45.4433 16.3397 44.6373 16.656 43.7967 16.656C42.4793 16.656 41.9333 15.9453 42.1587 14.524L42.7697 10.754L44.5117 10.585L43.9137 14.407C43.853 14.7363 43.8747 14.9747 43.9787 15.122C44.0913 15.2693 44.2863 15.343 44.5637 15.343C45.023 15.343 45.53 15.1133 46.0847 14.654L46.7087 10.754L48.4637 10.585L47.8397 14.576C47.7443 15.1047 47.8657 15.369 48.2037 15.369C48.4463 15.369 48.6977 15.2607 48.9577 15.044C49.2263 14.8273 49.456 14.5543 49.6467 14.225ZM57.7748 14.225L58.3208 14.836C57.4975 16.0493 56.5658 16.656 55.5258 16.656C55.0058 16.656 54.6288 16.5043 54.3948 16.201C54.1695 15.889 54.1045 15.4383 54.1998 14.849L54.5248 12.834C54.6288 12.21 54.4338 11.898 53.9398 11.898C53.4805 11.898 52.9258 12.1493 52.2758 12.652L51.6648 16.5H49.9358L50.8458 10.754L52.6008 10.585L52.4448 11.534C53.3548 10.9013 54.1651 10.585 54.8758 10.585C55.4391 10.585 55.8421 10.7453 56.0848 11.066C56.3361 11.3867 56.4141 11.846 56.3188 12.444L55.9808 14.485C55.8855 15.0743 56.0111 15.369 56.3578 15.369C56.5831 15.369 56.8258 15.265 57.0858 15.057C57.3545 14.849 57.5841 14.5717 57.7748 14.225ZM66.0193 14.225L66.5653 14.836C66.1753 15.4253 65.7377 15.876 65.2523 16.188C64.767 16.5 64.273 16.656 63.7703 16.656C63.0597 16.656 62.648 16.344 62.5353 15.72C61.9113 16.344 61.205 16.656 60.4163 16.656C59.0903 16.656 58.4273 15.8847 58.4273 14.342C58.4273 13.224 58.7393 12.3183 59.3633 11.625C59.996 10.9317 60.8367 10.585 61.8853 10.585C62.232 10.585 62.6307 10.6327 63.0813 10.728L63.6143 7.4L65.3693 7.244L64.2123 14.446C64.1603 14.7753 64.1603 15.0137 64.2123 15.161C64.2643 15.2997 64.3813 15.369 64.5633 15.369C64.7973 15.369 65.0487 15.265 65.3173 15.057C65.5947 14.8403 65.8287 14.563 66.0193 14.225ZM62.4443 14.654L62.8863 11.95C62.5657 11.9067 62.3057 11.885 62.1063 11.885C61.4997 11.885 61.0273 12.1017 60.6893 12.535C60.3513 12.9597 60.1823 13.536 60.1823 14.264C60.1823 14.654 60.2473 14.94 60.3773 15.122C60.516 15.304 60.7327 15.395 61.0273 15.395C61.504 15.395 61.9763 15.148 62.4443 14.654ZM74.0274 14.225L74.5734 14.836C73.9841 15.772 73.2604 16.3007 72.4024 16.422C71.9084 16.5 71.3884 16.435 70.8424 16.227C70.3311 16.513 69.7504 16.656 69.1004 16.656C68.3031 16.656 67.6964 16.4523 67.2804 16.045C66.8644 15.629 66.6564 15.0223 66.6564 14.225C66.6738 13.1677 67.0031 12.301 67.6444 11.625C68.2944 10.9403 69.1351 10.598 70.1664 10.598C70.9638 10.598 71.5704 10.806 71.9864 11.222C72.4111 11.638 72.6234 12.2403 72.6234 13.029C72.6234 13.991 72.3548 14.7883 71.8174 15.421C72.0168 15.499 72.2248 15.525 72.4414 15.499C73.0134 15.4123 73.5421 14.9877 74.0274 14.225ZM69.2564 15.343C69.7158 15.3517 70.1014 15.1393 70.4134 14.706C70.7254 14.264 70.8814 13.7137 70.8814 13.055C70.8814 12.301 70.5954 11.924 70.0234 11.924C69.5554 11.924 69.1698 12.145 68.8664 12.587C68.5718 13.029 68.4201 13.575 68.4114 14.225C68.4028 14.9703 68.6844 15.343 69.2564 15.343Z" fill="white"/>
</svg>
