<svg width="302" height="26" viewBox="0 0 302 26" fill="none" xmlns="http://www.w3.org/2000/svg">
<path d="M0 7C0 3.68629 2.68629 1 6 1H296C299.314 1 302 3.68629 302 7V24H0V7Z" fill="#0F0F0F"/>
<path d="M33.965 16.656C32.8903 16.656 32.0713 16.3397 31.508 15.707C30.9533 15.0743 30.676 14.1643 30.676 12.977C30.676 11.443 31.105 10.169 31.963 9.155C32.8297 8.141 33.9303 7.634 35.265 7.634C36.3397 7.634 37.1587 7.95467 37.722 8.596C38.2853 9.22867 38.567 10.1343 38.567 11.313C38.567 12.8383 38.1337 14.1123 37.267 15.135C36.4003 16.149 35.2997 16.656 33.965 16.656ZM34.069 15.122C34.8403 15.122 35.4817 14.758 35.993 14.03C36.513 13.302 36.773 12.392 36.773 11.3C36.773 9.87867 36.2357 9.168 35.161 9.168C34.3897 9.168 33.7483 9.532 33.237 10.26C32.7257 10.988 32.47 11.898 32.47 12.99C32.47 14.4113 33.003 15.122 34.069 15.122ZM47.5392 14.225L48.0852 14.836C47.2446 16.0493 46.3086 16.656 45.2772 16.656C44.6186 16.656 44.2286 16.3397 44.1072 15.707C43.3359 16.3397 42.5299 16.656 41.6892 16.656C40.3719 16.656 39.8259 15.9453 40.0512 14.524L40.6622 10.754L42.4042 10.585L41.8062 14.407C41.7456 14.7363 41.7672 14.9747 41.8712 15.122C41.9839 15.2693 42.1789 15.343 42.4562 15.343C42.9156 15.343 43.4226 15.1133 43.9772 14.654L44.6012 10.754L46.3562 10.585L45.7322 14.576C45.6369 15.1047 45.7582 15.369 46.0962 15.369C46.3389 15.369 46.5902 15.2607 46.8502 15.044C47.1189 14.8273 47.3486 14.5543 47.5392 14.225ZM49.7394 16.656C48.4567 16.656 47.9324 15.8977 48.1664 14.381L48.5694 11.833H47.7634L47.9324 10.754H48.7514L49.0634 8.791L50.8054 8.635L50.4804 10.754H51.6894L51.5204 11.833H50.3114L49.9474 14.16C49.878 14.602 49.891 14.914 49.9864 15.096C50.0904 15.278 50.281 15.369 50.5584 15.369C51.2604 15.3603 51.8194 15.0093 52.2354 14.316C52.478 13.9 52.6384 13.419 52.7164 12.873C52.803 12.3183 52.7944 11.781 52.6904 11.261C52.465 11.1483 52.3394 11.0833 52.3134 11.066L52.5214 9.805C53.5267 10.403 55.0174 10.7193 56.9934 10.754L56.6814 11.989C56.0227 12.8903 55.6934 13.7137 55.6934 14.459C55.6934 15.0657 55.9924 15.369 56.5904 15.369C56.9804 15.369 57.353 15.2693 57.7084 15.07C58.0637 14.862 58.341 14.5803 58.5404 14.225L59.0864 14.836C58.289 16.0493 57.2577 16.656 55.9924 16.656C55.3597 16.656 54.8614 16.5 54.4974 16.188C54.142 15.8673 53.9644 15.4167 53.9644 14.836C53.9644 13.9607 54.3414 12.9553 55.0954 11.82C54.558 11.8027 54.025 11.7117 53.4964 11.547C53.6177 12.8123 53.4054 13.9217 52.8594 14.875C52.5214 15.4383 52.0837 15.876 51.5464 16.188C51.0177 16.5 50.4154 16.656 49.7394 16.656ZM66.5601 14.225L67.1061 14.836C66.5167 15.772 65.7931 16.3007 64.9351 16.422C64.4411 16.5 63.9211 16.435 63.3751 16.227C62.8637 16.513 62.2831 16.656 61.6331 16.656C60.8357 16.656 60.2291 16.4523 59.8131 16.045C59.3971 15.629 59.1891 15.0223 59.1891 14.225C59.2064 13.1677 59.5357 12.301 60.1771 11.625C60.8271 10.9403 61.6677 10.598 62.6991 10.598C63.4964 10.598 64.1031 10.806 64.5191 11.222C64.9437 11.638 65.1561 12.2403 65.1561 13.029C65.1561 13.991 64.8874 14.7883 64.3501 15.421C64.5494 15.499 64.7574 15.525 64.9741 15.499C65.5461 15.4123 66.0747 14.9877 66.5601 14.225ZM61.7891 15.343C62.2484 15.3517 62.6341 15.1393 62.9461 14.706C63.2581 14.264 63.4141 13.7137 63.4141 13.055C63.4141 12.301 63.1281 11.924 62.5561 11.924C62.0881 11.924 61.7024 12.145 61.3991 12.587C61.1044 13.029 60.9527 13.575 60.9441 14.225C60.9354 14.9703 61.2171 15.343 61.7891 15.343ZM69.659 16.656C69.0697 16.656 68.5584 16.5563 68.125 16.357L68.346 15.148C68.7534 15.3473 69.1304 15.447 69.477 15.447C69.8324 15.447 70.1097 15.3647 70.309 15.2C70.5084 15.0353 70.608 14.8057 70.608 14.511C70.608 14.2943 70.543 14.069 70.413 13.835C70.283 13.601 70.1357 13.393 69.971 13.211C69.815 13.029 69.659 12.7907 69.503 12.496C69.347 12.2013 69.2517 11.8937 69.217 11.573H69.191C69.0524 11.8503 68.8357 12.379 68.541 13.159C68.2464 13.939 67.9864 14.498 67.761 14.836L67.215 14.225C67.371 13.9737 67.6137 13.4147 67.943 12.548C68.281 11.6727 68.619 11.0183 68.957 10.585L70.725 10.403C70.699 10.793 70.738 11.1483 70.842 11.469C70.946 11.7897 71.0804 12.0627 71.245 12.288C71.4184 12.5047 71.5917 12.717 71.765 12.925C71.9384 13.133 72.0857 13.3713 72.207 13.64C72.3284 13.9 72.389 14.1817 72.389 14.485C72.389 14.875 72.311 15.213 72.155 15.499C72.961 15.447 73.6154 15.0223 74.118 14.225L74.651 14.836C74.2004 15.486 73.6934 15.9323 73.13 16.175C72.5754 16.4177 71.8777 16.5043 71.037 16.435C70.647 16.5823 70.1877 16.656 69.659 16.656Z" fill="white"/>
</svg>
