<svg width="302" height="26" viewBox="0 0 302 26" fill="none" xmlns="http://www.w3.org/2000/svg">
<path d="M0 7C0 3.68629 2.68629 1 6 1H296C299.314 1 302 3.68629 302 7V24H0V7Z" fill="#0F0F0F"/>
<path d="M34.862 7.79C35.9713 7.79 36.7687 7.998 37.254 8.414C37.7393 8.83 37.982 9.43667 37.982 10.234C37.982 11.3087 37.6093 12.1623 36.864 12.795C36.1273 13.4277 35.1393 13.744 33.9 13.744H32.717L32.288 16.5H30.559L31.924 7.79H34.862ZM33.952 12.301C34.654 12.301 35.2043 12.1407 35.603 11.82C36.0103 11.4993 36.214 11.0443 36.214 10.455C36.214 10.0303 36.084 9.727 35.824 9.545C35.5727 9.363 35.1393 9.272 34.524 9.272H33.419L32.951 12.301H33.952ZM38.684 11.326L38.97 9.974C39.8627 10.4767 41.1757 10.7367 42.909 10.754L42.597 11.989C41.7477 12.9163 41.323 13.7353 41.323 14.446C41.323 15.0613 41.635 15.369 42.259 15.369C42.649 15.369 43.0173 15.265 43.364 15.057C43.7107 14.849 43.9837 14.5717 44.183 14.225L44.729 14.836C43.923 16.0493 42.883 16.656 41.609 16.656C40.959 16.656 40.4607 16.5 40.114 16.188C39.776 15.8673 39.607 15.4123 39.607 14.823C39.607 13.965 40.0577 12.9943 40.959 11.911C40.0403 11.8677 39.282 11.6727 38.684 11.326ZM46.5023 9.831C46.2163 9.831 45.9779 9.74433 45.7873 9.571C45.5966 9.39767 45.5013 9.17667 45.5013 8.908C45.5013 8.58733 45.6139 8.31867 45.8393 8.102C46.0646 7.88533 46.3419 7.777 46.6713 7.777C46.9486 7.777 47.1783 7.868 47.3603 8.05C47.5423 8.22333 47.6333 8.44433 47.6333 8.713C47.6333 9.03367 47.5249 9.30233 47.3083 9.519C47.0916 9.727 46.8229 9.831 46.5023 9.831ZM48.7383 14.225L49.2843 14.836C48.4436 16.0493 47.4556 16.656 46.3203 16.656C45.6963 16.656 45.2586 16.474 45.0073 16.11C44.7559 15.7373 44.6909 15.161 44.8123 14.381L45.3973 10.754L47.1523 10.585L46.5803 14.147C46.5109 14.589 46.5153 14.9053 46.5933 15.096C46.6713 15.278 46.8446 15.369 47.1133 15.369C47.7546 15.3603 48.2963 14.979 48.7383 14.225ZM56.848 14.225L57.394 14.836C56.5707 16.0493 55.639 16.656 54.599 16.656C54.079 16.656 53.702 16.5043 53.468 16.201C53.2427 15.889 53.1777 15.4383 53.273 14.849L53.598 12.834C53.702 12.21 53.507 11.898 53.013 11.898C52.5537 11.898 51.999 12.1493 51.349 12.652L50.738 16.5H49.009L49.919 10.754L51.674 10.585L51.518 11.534C52.428 10.9013 53.2384 10.585 53.949 10.585C54.5124 10.585 54.9154 10.7453 55.158 11.066C55.4094 11.3867 55.4874 11.846 55.392 12.444L55.054 14.485C54.9587 15.0743 55.0844 15.369 55.431 15.369C55.6564 15.369 55.899 15.265 56.159 15.057C56.4277 14.849 56.6574 14.5717 56.848 14.225ZM60.3996 16.656C59.4203 16.656 58.6836 16.422 58.1896 15.954C57.7043 15.4773 57.4703 14.7883 57.4876 13.887C57.5049 12.9077 57.8126 12.1147 58.4106 11.508C59.0086 10.8927 59.7799 10.585 60.7246 10.585C61.5479 10.585 62.1199 10.819 62.4406 11.287C62.7699 11.755 62.7743 12.3573 62.4536 13.094L61.1016 12.782C61.2143 12.5133 61.2229 12.2967 61.1276 12.132C61.0323 11.9587 60.8546 11.872 60.5946 11.872C60.2046 11.872 59.8796 12.0583 59.6196 12.431C59.3596 12.795 59.2296 13.2543 59.2296 13.809C59.2296 14.9183 59.7886 15.473 60.9066 15.473C62.0419 15.473 62.8913 15.057 63.4546 14.225L63.9876 14.836C63.1643 16.0493 61.9683 16.656 60.3996 16.656ZM65.756 9.831C65.47 9.831 65.2317 9.74433 65.041 9.571C64.8503 9.39767 64.755 9.17667 64.755 8.908C64.755 8.58733 64.8677 8.31867 65.093 8.102C65.3183 7.88533 65.5957 7.777 65.925 7.777C66.2023 7.777 66.432 7.868 66.614 8.05C66.796 8.22333 66.887 8.44433 66.887 8.713C66.887 9.03367 66.7787 9.30233 66.562 9.519C66.3453 9.727 66.0767 9.831 65.756 9.831ZM67.992 14.225L68.538 14.836C67.6973 16.0493 66.7093 16.656 65.574 16.656C64.95 16.656 64.5123 16.474 64.261 16.11C64.0097 15.7373 63.9447 15.161 64.066 14.381L64.651 10.754L66.406 10.585L65.834 14.147C65.7647 14.589 65.769 14.9053 65.847 15.096C65.925 15.278 66.0983 15.369 66.367 15.369C67.0083 15.3603 67.55 14.979 67.992 14.225ZM67.8728 19.061L69.1858 10.754L70.9408 10.585L70.7978 11.534C71.5518 10.9013 72.2798 10.585 72.9818 10.585C73.5971 10.585 74.0434 10.7973 74.3208 11.222C74.5981 11.6467 74.6978 12.2663 74.6198 13.081C74.5244 14.0343 74.2471 14.823 73.7878 15.447C74.0131 15.5337 74.2601 15.5553 74.5288 15.512C75.1441 15.4253 75.6771 14.9963 76.1278 14.225L76.6608 14.836C75.9414 15.928 75.0661 16.4697 74.0348 16.461C73.6274 16.461 73.2461 16.383 72.8908 16.227C72.4228 16.513 71.8508 16.656 71.1748 16.656C70.8194 16.656 70.4294 16.6127 70.0048 16.526L69.6018 19.061H67.8728ZM71.0968 15.356C71.5908 15.3473 71.9894 15.174 72.2928 14.836C72.5961 14.498 72.7824 13.9953 72.8518 13.328C72.9038 12.8427 72.8734 12.4873 72.7608 12.262C72.6481 12.028 72.4358 11.911 72.1238 11.911C71.7251 11.911 71.2224 12.1623 70.6158 12.665L70.2128 15.226C70.5248 15.3127 70.8194 15.356 71.0968 15.356ZM78.743 16.656C78.1017 16.656 77.6077 16.461 77.261 16.071C76.923 15.6723 76.754 15.096 76.754 14.342C76.754 13.224 77.0703 12.3183 77.703 11.625C78.3357 10.9317 79.1763 10.585 80.225 10.585C80.5803 10.585 81.005 10.6413 81.499 10.754L83.163 10.585L82.539 14.446C82.487 14.7753 82.487 15.0137 82.539 15.161C82.591 15.2997 82.708 15.369 82.89 15.369C83.124 15.369 83.3753 15.265 83.644 15.057C83.9213 14.8403 84.1553 14.563 84.346 14.225L84.879 14.836C84.0643 16.0493 83.137 16.656 82.097 16.656C81.395 16.656 80.9833 16.344 80.862 15.72C80.2293 16.344 79.523 16.656 78.743 16.656ZM79.367 15.369C79.8437 15.369 80.316 15.122 80.784 14.628L81.2 12.002C80.966 11.9587 80.7017 11.937 80.407 11.937C79.809 11.937 79.341 12.145 79.003 12.561C78.6737 12.9683 78.509 13.5317 78.509 14.251C78.509 14.9963 78.795 15.369 79.367 15.369ZM88.9744 14.225L89.5074 14.836C88.6841 16.0493 87.6917 16.656 86.5304 16.656C85.8804 16.656 85.4254 16.474 85.1654 16.11C84.9054 15.7373 84.8361 15.161 84.9574 14.381L86.0624 7.4L87.8174 7.244L86.7254 14.147C86.6561 14.5803 86.6647 14.8923 86.7514 15.083C86.8467 15.2737 87.0374 15.369 87.3234 15.369C87.6441 15.3603 87.9474 15.2563 88.2334 15.057C88.5281 14.849 88.7751 14.5717 88.9744 14.225Z" fill="white"/>
</svg>
