<svg width="302" height="26" viewBox="0 0 302 26" fill="none" xmlns="http://www.w3.org/2000/svg">
<path d="M0 7C0 3.68629 2.68629 1 6 1H296C299.314 1 302 3.68629 302 7V24H0V7Z" fill="#0F0F0F"/>
<path d="M33.718 16.656C32.2013 16.656 31.1267 16.1143 30.494 15.031L31.716 14.004C32.2273 14.7493 32.912 15.1263 33.77 15.135C34.238 15.135 34.615 15.0397 34.901 14.849C35.1957 14.6583 35.343 14.4027 35.343 14.082C35.343 13.8913 35.2563 13.7093 35.083 13.536C34.9097 13.3627 34.706 13.2197 34.472 13.107C34.238 12.9857 33.9087 12.8297 33.484 12.639C33.4493 12.6217 33.419 12.6087 33.393 12.6C33.3757 12.5913 33.354 12.5827 33.328 12.574C32.6433 12.2707 32.145 11.9197 31.833 11.521C31.521 11.1137 31.3737 10.624 31.391 10.052C31.4083 9.30667 31.6813 8.71733 32.21 8.284C32.7387 7.85067 33.458 7.634 34.368 7.634C35.7373 7.634 36.695 8.115 37.241 9.077L35.993 9.987C35.6203 9.43233 35.0873 9.155 34.394 9.155C33.5793 9.155 33.1633 9.44533 33.146 10.026C33.146 10.3467 33.2933 10.6197 33.588 10.845C33.8913 11.0617 34.394 11.326 35.096 11.638C36.4653 12.2187 37.137 13.055 37.111 14.147C37.0937 14.9097 36.7773 15.5207 36.162 15.98C35.5467 16.4307 34.732 16.656 33.718 16.656ZM44.5719 14.225L45.1179 14.836C44.2859 16.0493 43.0899 16.656 41.5299 16.656C40.5852 16.656 39.8572 16.422 39.3459 15.954C38.8432 15.486 38.5919 14.823 38.5919 13.965C38.5919 12.977 38.8909 12.1667 39.4889 11.534C40.0869 10.9013 40.8539 10.585 41.7899 10.585C42.4399 10.585 42.9555 10.741 43.3369 11.053C43.7269 11.3563 43.9175 11.768 43.9089 12.288C43.9002 12.9467 43.5969 13.4797 42.9989 13.887C42.4009 14.2857 41.5992 14.4937 40.5939 14.511C40.6892 14.8057 40.8669 15.0397 41.1269 15.213C41.3869 15.3863 41.7032 15.473 42.0759 15.473C43.1939 15.473 44.0259 15.057 44.5719 14.225ZM41.7119 11.859C41.3305 11.859 41.0142 12.0237 40.7629 12.353C40.5202 12.6737 40.3815 13.0983 40.3469 13.627C40.9709 13.627 41.4649 13.523 41.8289 13.315C42.2015 13.107 42.3922 12.8253 42.4009 12.47C42.4095 12.2707 42.3489 12.119 42.2189 12.015C42.0975 11.911 41.9285 11.859 41.7119 11.859ZM48.1207 16.656C47.1413 16.656 46.4047 16.422 45.9107 15.954C45.4253 15.4773 45.1913 14.7883 45.2087 13.887C45.226 12.9077 45.5337 12.1147 46.1317 11.508C46.7297 10.8927 47.501 10.585 48.4457 10.585C49.269 10.585 49.841 10.819 50.1617 11.287C50.491 11.755 50.4953 12.3573 50.1747 13.094L48.8227 12.782C48.9353 12.5133 48.944 12.2967 48.8487 12.132C48.7533 11.9587 48.5757 11.872 48.3157 11.872C47.9257 11.872 47.6007 12.0583 47.3407 12.431C47.0807 12.795 46.9507 13.2543 46.9507 13.809C46.9507 14.9183 47.5097 15.473 48.6277 15.473C49.763 15.473 50.6123 15.057 51.1757 14.225L51.7087 14.836C50.8853 16.0493 49.6893 16.656 48.1207 16.656ZM59.2621 14.225L59.8081 14.836C58.9674 16.0493 58.0314 16.656 57.0001 16.656C56.3414 16.656 55.9514 16.3397 55.8301 15.707C55.0588 16.3397 54.2528 16.656 53.4121 16.656C52.0948 16.656 51.5488 15.9453 51.7741 14.524L52.3851 10.754L54.1271 10.585L53.5291 14.407C53.4684 14.7363 53.4901 14.9747 53.5941 15.122C53.7068 15.2693 53.9018 15.343 54.1791 15.343C54.6384 15.343 55.1454 15.1133 55.7001 14.654L56.3241 10.754L58.0791 10.585L57.4551 14.576C57.3598 15.1047 57.4811 15.369 57.8191 15.369C58.0618 15.369 58.3131 15.2607 58.5731 15.044C58.8418 14.8273 59.0714 14.5543 59.2621 14.225ZM67.3902 14.225L67.9362 14.836C67.1129 16.0493 66.1812 16.656 65.1412 16.656C64.6212 16.656 64.2442 16.5043 64.0102 16.201C63.7849 15.889 63.7199 15.4383 63.8152 14.849L64.1402 12.834C64.2442 12.21 64.0492 11.898 63.5552 11.898C63.0959 11.898 62.5412 12.1493 61.8912 12.652L61.2802 16.5H59.5512L60.4612 10.754L62.2162 10.585L62.0602 11.534C62.9702 10.9013 63.7806 10.585 64.4912 10.585C65.0546 10.585 65.4576 10.7453 65.7002 11.066C65.9516 11.3867 66.0296 11.846 65.9342 12.444L65.5962 14.485C65.5009 15.0743 65.6266 15.369 65.9732 15.369C66.1986 15.369 66.4412 15.265 66.7012 15.057C66.9699 14.849 67.1996 14.5717 67.3902 14.225ZM75.6348 14.225L76.1808 14.836C75.7908 15.4253 75.3531 15.876 74.8678 16.188C74.3824 16.5 73.8884 16.656 73.3858 16.656C72.6751 16.656 72.2634 16.344 72.1508 15.72C71.5268 16.344 70.8204 16.656 70.0318 16.656C68.7058 16.656 68.0428 15.8847 68.0428 14.342C68.0428 13.224 68.3548 12.3183 68.9788 11.625C69.6114 10.9317 70.4521 10.585 71.5008 10.585C71.8474 10.585 72.2461 10.6327 72.6968 10.728L73.2298 7.4L74.9848 7.244L73.8278 14.446C73.7758 14.7753 73.7758 15.0137 73.8278 15.161C73.8798 15.2997 73.9968 15.369 74.1788 15.369C74.4128 15.369 74.6641 15.265 74.9328 15.057C75.2101 14.8403 75.4441 14.563 75.6348 14.225ZM72.0598 14.654L72.5018 11.95C72.1811 11.9067 71.9211 11.885 71.7218 11.885C71.1151 11.885 70.6428 12.1017 70.3048 12.535C69.9668 12.9597 69.7978 13.536 69.7978 14.264C69.7978 14.654 69.8628 14.94 69.9928 15.122C70.1314 15.304 70.3481 15.395 70.6428 15.395C71.1194 15.395 71.5918 15.148 72.0598 14.654ZM79.1839 9.714L80.5229 7.673H82.1479L80.4709 9.714H79.1839ZM78.2479 16.656C77.6065 16.656 77.1125 16.461 76.7659 16.071C76.4279 15.6723 76.2589 15.096 76.2589 14.342C76.2589 13.224 76.5752 12.3183 77.2079 11.625C77.8405 10.9317 78.6812 10.585 79.7299 10.585C80.0852 10.585 80.5099 10.6413 81.0039 10.754L82.6679 10.585L82.0439 14.446C81.9919 14.7753 81.9919 15.0137 82.0439 15.161C82.0959 15.2997 82.2129 15.369 82.3949 15.369C82.6289 15.369 82.8802 15.265 83.1489 15.057C83.4262 14.8403 83.6602 14.563 83.8509 14.225L84.3839 14.836C83.5692 16.0493 82.6419 16.656 81.6019 16.656C80.8999 16.656 80.4882 16.344 80.3669 15.72C79.7342 16.344 79.0279 16.656 78.2479 16.656ZM78.8719 15.369C79.3485 15.369 79.8209 15.122 80.2889 14.628L80.7049 12.002C80.4709 11.9587 80.2065 11.937 79.9119 11.937C79.3139 11.937 78.8459 12.145 78.5079 12.561C78.1785 12.9683 78.0139 13.5317 78.0139 14.251C78.0139 14.9963 78.2999 15.369 78.8719 15.369ZM90.6763 14.225L91.2223 14.836C90.4249 16.0493 89.3849 16.656 88.1023 16.656C87.4609 16.656 86.9669 16.5 86.6203 16.188C86.2736 15.876 86.1003 15.4253 86.1003 14.836C86.1003 13.952 86.4686 12.951 87.2053 11.833C86.7719 11.8243 86.2779 11.7377 85.7233 11.573C85.8186 12.795 85.5889 13.8827 85.0343 14.836L84.4883 14.225C84.9823 13.3237 85.1166 12.34 84.8913 11.274C84.8739 11.2653 84.8046 11.2393 84.6833 11.196C84.5706 11.144 84.4926 11.1007 84.4493 11.066L84.6573 9.805C85.6626 10.403 87.1533 10.7193 89.1293 10.754L88.8173 11.989C88.1586 12.8903 87.8293 13.7137 87.8293 14.459C87.8293 15.0657 88.1413 15.369 88.7653 15.369C89.1379 15.369 89.4976 15.2693 89.8443 15.07C90.1996 14.862 90.4769 14.5803 90.6763 14.225ZM92.9849 9.831C92.6989 9.831 92.4606 9.74433 92.2699 9.571C92.0792 9.39767 91.9839 9.17667 91.9839 8.908C91.9839 8.58733 92.0966 8.31867 92.3219 8.102C92.5472 7.88533 92.8246 7.777 93.1539 7.777C93.4312 7.777 93.6609 7.868 93.8429 8.05C94.0249 8.22333 94.1159 8.44433 94.1159 8.713C94.1159 9.03367 94.0076 9.30233 93.7909 9.519C93.5742 9.727 93.3056 9.831 92.9849 9.831ZM95.2209 14.225L95.7669 14.836C94.9262 16.0493 93.9382 16.656 92.8029 16.656C92.1789 16.656 91.7412 16.474 91.4899 16.11C91.2386 15.7373 91.1736 15.161 91.2949 14.381L91.8799 10.754L93.6349 10.585L93.0629 14.147C92.9936 14.589 92.9979 14.9053 93.0759 15.096C93.1539 15.278 93.3272 15.369 93.5959 15.369C94.2372 15.3603 94.7789 14.979 95.2209 14.225ZM103.227 14.225L103.773 14.836C103.183 15.772 102.46 16.3007 101.602 16.422C101.108 16.5 100.588 16.435 100.042 16.227C99.5303 16.513 98.9497 16.656 98.2997 16.656C97.5023 16.656 96.8957 16.4523 96.4797 16.045C96.0637 15.629 95.8557 15.0223 95.8557 14.225C95.873 13.1677 96.2023 12.301 96.8437 11.625C97.4937 10.9403 98.3343 10.598 99.3657 10.598C100.163 10.598 100.77 10.806 101.186 11.222C101.61 11.638 101.823 12.2403 101.823 13.029C101.823 13.991 101.554 14.7883 101.017 15.421C101.216 15.499 101.424 15.525 101.641 15.499C102.213 15.4123 102.741 14.9877 103.227 14.225ZM98.4557 15.343C98.915 15.3517 99.3007 15.1393 99.6127 14.706C99.9247 14.264 100.081 13.7137 100.081 13.055C100.081 12.301 99.7947 11.924 99.2227 11.924C98.7547 11.924 98.369 12.145 98.0657 12.587C97.771 13.029 97.6193 13.575 97.6107 14.225C97.602 14.9703 97.8837 15.343 98.4557 15.343Z" fill="white"/>
</svg>
