<svg width="302" height="26" viewBox="0 0 302 26" fill="none" xmlns="http://www.w3.org/2000/svg">
<path d="M0 7.01019C0 3.69648 2.68629 1.01019 6 1.01019H296C299.314 1.01019 302 3.69648 302 7.01019V24.0102H0V7.01019Z" fill="#0F0F0F"/>
<path d="M33.861 16.6522C32.286 16.6522 31.17 16.0897 30.513 14.9647L31.782 13.8982C32.313 14.6722 33.024 15.0637 33.915 15.0727C34.401 15.0727 34.7925 14.9737 35.0895 14.7757C35.3955 14.5777 35.5485 14.3122 35.5485 13.9792C35.5485 13.7812 35.4585 13.5922 35.2785 13.4122C35.0985 13.2322 34.887 13.0837 34.644 12.9667C34.401 12.8407 34.059 12.6787 33.618 12.4807C33.582 12.4627 33.5505 12.4492 33.5235 12.4402C33.5055 12.4312 33.483 12.4222 33.456 12.4132C32.745 12.0982 32.2275 11.7337 31.9035 11.3197C31.5795 10.8967 31.4265 10.3882 31.4445 9.79419C31.4625 9.02019 31.746 8.40819 32.295 7.95819C32.844 7.50819 33.591 7.28319 34.536 7.28319C35.958 7.28319 36.9525 7.78269 37.5195 8.78169L36.2235 9.72669C35.8365 9.15069 35.283 8.86269 34.563 8.86269C33.717 8.86269 33.285 9.16419 33.267 9.76719C33.267 10.1002 33.42 10.3837 33.726 10.6177C34.041 10.8427 34.563 11.1172 35.292 11.4412C36.714 12.0442 37.4115 12.9127 37.3845 14.0467C37.3665 14.8387 37.038 15.4732 36.399 15.9502C35.76 16.4182 34.914 16.6522 33.861 16.6522ZM40.8484 9.56469C40.5514 9.56469 40.3039 9.47469 40.1059 9.29469C39.9079 9.11469 39.8089 8.88519 39.8089 8.60619C39.8089 8.27319 39.9259 7.99419 40.1599 7.76919C40.3939 7.54419 40.6819 7.43169 41.0239 7.43169C41.3119 7.43169 41.5504 7.52619 41.7394 7.71519C41.9284 7.89519 42.0229 8.12469 42.0229 8.40369C42.0229 8.73669 41.9104 9.01569 41.6854 9.24069C41.4604 9.45669 41.1814 9.56469 40.8484 9.56469ZM43.1704 14.1277L43.7374 14.7622C42.8644 16.0222 41.8384 16.6522 40.6594 16.6522C40.0114 16.6522 39.5569 16.4632 39.2959 16.0852C39.0349 15.6982 38.9674 15.0997 39.0934 14.2897L39.7009 10.5232L41.5234 10.3477L40.9294 14.0467C40.8574 14.5057 40.8619 14.8342 40.9429 15.0322C41.0239 15.2212 41.2039 15.3157 41.4829 15.3157C42.1489 15.3067 42.7114 14.9107 43.1704 14.1277ZM47.9741 14.1277L48.5276 14.7622C47.6726 16.0222 46.6421 16.6522 45.4361 16.6522C44.7611 16.6522 44.2886 16.4632 44.0186 16.0852C43.7486 15.6982 43.6766 15.0997 43.8026 14.2897L44.9501 7.04019L46.7726 6.87819L45.6386 14.0467C45.5666 14.4967 45.5756 14.8207 45.6656 15.0187C45.7646 15.2167 45.9626 15.3157 46.2596 15.3157C46.5926 15.3067 46.9076 15.1987 47.2046 14.9917C47.5106 14.7757 47.7671 14.4877 47.9741 14.1277ZM54.8276 14.1277L55.3946 14.7622C54.5306 16.0222 53.2886 16.6522 51.6686 16.6522C50.6876 16.6522 49.9316 16.4092 49.4006 15.9232C48.8786 15.4372 48.6176 14.7487 48.6176 13.8577C48.6176 12.8317 48.9281 11.9902 49.5491 11.3332C50.1701 10.6762 50.9666 10.3477 51.9386 10.3477C52.6136 10.3477 53.1491 10.5097 53.5451 10.8337C53.9501 11.1487 54.1481 11.5762 54.1391 12.1162C54.1301 12.8002 53.8151 13.3537 53.1941 13.7767C52.5731 14.1907 51.7406 14.4067 50.6966 14.4247C50.7956 14.7307 50.9801 14.9737 51.2501 15.1537C51.5201 15.3337 51.8486 15.4237 52.2356 15.4237C53.3966 15.4237 54.2606 14.9917 54.8276 14.1277ZM51.8576 11.6707C51.4616 11.6707 51.1331 11.8417 50.8721 12.1837C50.6201 12.5167 50.4761 12.9577 50.4401 13.5067C51.0881 13.5067 51.6011 13.3987 51.9791 13.1827C52.3661 12.9667 52.5641 12.6742 52.5731 12.3052C52.5821 12.0982 52.5191 11.9407 52.3841 11.8327C52.2581 11.7247 52.0826 11.6707 51.8576 11.6707ZM63.2648 14.1277L63.8318 14.7622C62.9768 16.0222 62.0093 16.6522 60.9293 16.6522C60.3893 16.6522 59.9978 16.4947 59.7548 16.1797C59.5208 15.8557 59.4533 15.3877 59.5523 14.7757L59.8898 12.6832C59.9978 12.0352 59.7953 11.7112 59.2823 11.7112C58.8053 11.7112 58.2293 11.9722 57.5543 12.4942L56.9198 16.4902H55.1243L56.0693 10.5232L57.8918 10.3477L57.7298 11.3332C58.6748 10.6762 59.5163 10.3477 60.2543 10.3477C60.8393 10.3477 61.2578 10.5142 61.5098 10.8472C61.7708 11.1802 61.8518 11.6572 61.7528 12.2782L61.4018 14.3977C61.3028 15.0097 61.4333 15.3157 61.7933 15.3157C62.0273 15.3157 62.2793 15.2077 62.5493 14.9917C62.8283 14.7757 63.0668 14.4877 63.2648 14.1277ZM68.087 14.1277L68.6405 14.7622C67.7945 16.0222 66.7595 16.6522 65.5355 16.6522C64.8785 16.6522 64.4105 16.4632 64.1315 16.0852C63.8615 15.7072 63.7895 15.1087 63.9155 14.2897L64.334 11.6437H63.497L63.6725 10.5232H64.523L64.847 8.48469L66.656 8.32269L66.305 10.5232H67.574L67.3985 11.6437H66.1295L65.7515 14.0602C65.6885 14.5192 65.702 14.8432 65.792 15.0322C65.891 15.2212 66.0845 15.3157 66.3725 15.3157C67.0475 15.2977 67.619 14.9017 68.087 14.1277ZM77.9655 16.4902L77.7225 14.3707H74.8065L73.713 16.4902H71.715L76.467 7.44519L78.4785 7.26969L79.9365 16.4902H77.9655ZM75.495 12.9802H77.5875L77.3445 11.1712L77.2095 9.53769H77.1825L76.413 11.2252L75.495 12.9802ZM83.318 9.56469C83.021 9.56469 82.7735 9.47469 82.5755 9.29469C82.3775 9.11469 82.2785 8.88519 82.2785 8.60619C82.2785 8.27319 82.3955 7.99419 82.6295 7.76919C82.8635 7.54419 83.1515 7.43169 83.4935 7.43169C83.7815 7.43169 84.02 7.52619 84.209 7.71519C84.398 7.89519 84.4925 8.12469 84.4925 8.40369C84.4925 8.73669 84.38 9.01569 84.155 9.24069C83.93 9.45669 83.651 9.56469 83.318 9.56469ZM85.64 14.1277L86.207 14.7622C85.334 16.0222 84.308 16.6522 83.129 16.6522C82.481 16.6522 82.0265 16.4632 81.7655 16.0852C81.5045 15.6982 81.437 15.0997 81.563 14.2897L82.1705 10.5232L83.993 10.3477L83.399 14.0467C83.327 14.5057 83.3315 14.8342 83.4125 15.0322C83.4935 15.2212 83.6735 15.3157 83.9525 15.3157C84.6185 15.3067 85.181 14.9107 85.64 14.1277ZM97.7472 14.1277L98.3007 14.7622C97.4547 16.0222 96.4872 16.6522 95.3982 16.6522C94.8582 16.6522 94.4667 16.4947 94.2237 16.1797C93.9897 15.8557 93.9222 15.3877 94.0212 14.7757L94.3722 12.6832C94.4712 12.0352 94.2822 11.7112 93.8052 11.7112C93.4182 11.7112 92.9142 11.9362 92.2932 12.3862L91.6452 16.4902H89.8497L90.4572 12.6832C90.5652 12.0352 90.3807 11.7112 89.9037 11.7112C89.5077 11.7112 88.9947 11.9407 88.3647 12.3997L87.7167 16.4902H85.9212L86.8662 10.5232L88.6887 10.3477L88.5402 11.2387C89.4222 10.6447 90.1962 10.3477 90.8622 10.3477C91.6722 10.3477 92.1537 10.6807 92.3067 11.3467C93.2517 10.6807 94.0752 10.3477 94.7772 10.3477C95.3352 10.3477 95.7402 10.5187 95.9922 10.8607C96.2532 11.1937 96.3342 11.6662 96.2352 12.2782L95.8842 14.3977C95.7852 15.0097 95.9112 15.3157 96.2622 15.3157C96.5052 15.3157 96.7617 15.2077 97.0317 14.9917C97.3017 14.7757 97.5402 14.4877 97.7472 14.1277Z" fill="white"/>
</svg>
