<svg width="865" height="672" viewBox="0 0 865 672" fill="none" xmlns="http://www.w3.org/2000/svg">
<rect width="865" height="672" rx="11" fill="#0C0C0B" fill-opacity="0.99"/>
<rect width="213" height="672" fill="#10100F"/>
<path d="M14.182 465.122C13.594 465.122 13.126 464.942 12.778 464.582C12.43 464.222 12.256 463.754 12.256 463.178C12.256 462.59 12.424 462.122 12.76 461.774C13.108 461.414 13.564 461.234 14.128 461.234C14.728 461.234 15.202 461.414 15.55 461.774C15.898 462.122 16.072 462.59 16.072 463.178C16.072 463.754 15.904 464.222 15.568 464.582C15.232 464.942 14.77 465.122 14.182 465.122ZM28.2292 465.59L30.3352 458.408C30.3592 458.348 30.3892 458.3 30.4252 458.264C30.4612 458.216 30.5152 458.192 30.5872 458.192H31.5952C31.9432 458.192 32.2312 458.294 32.4592 458.498C32.6992 458.702 32.8252 458.978 32.8372 459.326L33.3052 468.002C33.3052 468.134 33.2632 468.2 33.1792 468.2H31.7572C31.6372 468.2 31.5772 468.134 31.5772 468.002L31.1992 460.982L29.0932 468.002C29.0692 468.134 28.9912 468.2 28.8592 468.2H27.5272C27.4432 468.2 27.3652 468.134 27.2932 468.002L25.2772 461.036L24.8992 468.002C24.8992 468.134 24.8452 468.2 24.7372 468.2H23.3332C23.2252 468.2 23.1712 468.134 23.1712 468.002L23.7112 458.408C23.7112 458.264 23.7712 458.192 23.8912 458.192H24.9172C25.3012 458.192 25.6072 458.252 25.8352 458.372C26.0632 458.492 26.2252 458.726 26.3212 459.074L28.2292 465.59ZM36.2868 465.428C36.3468 465.908 36.5568 466.274 36.9168 466.526C37.2768 466.778 37.7328 466.904 38.2848 466.904C38.7408 466.904 39.1188 466.856 39.4188 466.76C39.7188 466.664 40.0188 466.532 40.3188 466.364C40.4268 466.292 40.5228 466.256 40.6068 466.256C40.7388 466.256 40.8048 466.34 40.8048 466.508C40.8048 466.76 40.7088 467.03 40.5168 467.318C40.3368 467.606 40.0488 467.858 39.6528 468.074C39.2568 468.278 38.7288 468.38 38.0688 468.38C37.4208 468.38 36.8268 468.248 36.2868 467.984C35.7588 467.708 35.3388 467.306 35.0268 466.778C34.7148 466.238 34.5588 465.578 34.5588 464.798C34.5588 464.114 34.6908 463.508 34.9548 462.98C35.2308 462.452 35.6148 462.038 36.1068 461.738C36.6108 461.438 37.1988 461.288 37.8708 461.288C38.5908 461.288 39.1728 461.438 39.6168 461.738C40.0728 462.026 40.4028 462.404 40.6068 462.872C40.8228 463.34 40.9308 463.838 40.9308 464.366C40.9308 464.546 40.9248 464.708 40.9128 464.852C40.9128 464.984 40.9068 465.098 40.8948 465.194C40.8828 465.35 40.7808 465.428 40.5888 465.428H36.2868ZM36.2868 464.186H39.2028C39.2268 463.982 39.2028 463.772 39.1308 463.556C39.0708 463.328 38.9388 463.136 38.7348 462.98C38.5308 462.824 38.2428 462.746 37.8708 462.746C37.4148 462.746 37.0488 462.878 36.7728 463.142C36.5088 463.394 36.3468 463.742 36.2868 464.186ZM43.9363 462.314C44.1643 462.002 44.4523 461.756 44.8003 461.576C45.1603 461.396 45.5503 461.306 45.9703 461.306C46.8223 461.306 47.4883 461.558 47.9683 462.062C48.4603 462.566 48.7063 463.316 48.7063 464.312V468.002C48.7063 468.134 48.6403 468.2 48.5083 468.2H47.1763C47.0443 468.2 46.9783 468.134 46.9783 468.002V464.528C46.9783 463.94 46.8403 463.52 46.5643 463.268C46.2883 463.016 45.9403 462.89 45.5203 462.89C45.1003 462.89 44.7523 463.022 44.4763 463.286C44.2003 463.538 44.0623 463.964 44.0623 464.564V468.002C44.0623 468.134 43.9903 468.2 43.8463 468.2H42.5323C42.4003 468.2 42.3343 468.134 42.3343 468.002V461.648C42.3343 461.504 42.4003 461.432 42.5323 461.432H42.6223C42.9703 461.432 43.2583 461.51 43.4863 461.666C43.7143 461.81 43.8643 462.026 43.9363 462.314ZM53.4459 468.38C52.3539 468.38 51.5619 468.062 51.0699 467.426C50.5779 466.79 50.3319 465.956 50.3319 464.924V461.648C50.3319 461.504 50.3919 461.432 50.5119 461.432H50.6019C51.0699 461.432 51.4299 461.552 51.6819 461.792C51.9339 462.032 52.0599 462.422 52.0599 462.962V465.14C52.0599 465.716 52.1919 466.136 52.4559 466.4C52.7199 466.664 53.0499 466.796 53.4459 466.796C53.8539 466.796 54.1959 466.676 54.4719 466.436C54.7479 466.184 54.8859 465.758 54.8859 465.158V461.648C54.8859 461.504 54.9519 461.432 55.0839 461.432H55.1739C55.6419 461.432 55.9959 461.552 56.2359 461.792C56.4879 462.032 56.6139 462.422 56.6139 462.962V465.032C56.6139 466.052 56.3619 466.868 55.8579 467.48C55.3539 468.08 54.5499 468.38 53.4459 468.38Z" fill="#4F4F4F"/>
<path d="M14.182 362.122C13.594 362.122 13.126 361.942 12.778 361.582C12.43 361.222 12.256 360.754 12.256 360.178C12.256 359.59 12.424 359.122 12.76 358.774C13.108 358.414 13.564 358.234 14.128 358.234C14.728 358.234 15.202 358.414 15.55 358.774C15.898 359.122 16.072 359.59 16.072 360.178C16.072 360.754 15.904 361.222 15.568 361.582C15.232 361.942 14.77 362.122 14.182 362.122ZM27.9232 365.38C26.4352 365.38 25.2832 364.918 24.4672 363.994C23.6512 363.058 23.2432 361.798 23.2432 360.214C23.2432 359.158 23.4292 358.24 23.8012 357.46C24.1732 356.68 24.7072 356.08 25.4032 355.66C26.1112 355.228 26.9512 355.012 27.9232 355.012C28.9072 355.012 29.7412 355.228 30.4252 355.66C31.1212 356.08 31.6552 356.68 32.0272 357.46C32.3992 358.24 32.5852 359.158 32.5852 360.214C32.5852 361.798 32.1772 363.058 31.3612 363.994C30.5572 364.918 29.4112 365.38 27.9232 365.38ZM27.9232 363.706C28.4392 363.706 28.9132 363.604 29.3452 363.4C29.7772 363.184 30.1252 362.824 30.3892 362.32C30.6532 361.804 30.7852 361.102 30.7852 360.214C30.7852 359.326 30.6532 358.624 30.3892 358.108C30.1252 357.592 29.7712 357.226 29.3272 357.01C28.8952 356.794 28.4272 356.686 27.9232 356.686C27.4072 356.686 26.9272 356.794 26.4832 357.01C26.0512 357.226 25.7032 357.592 25.4392 358.108C25.1752 358.624 25.0432 359.326 25.0432 360.214C25.0432 361.102 25.1752 361.804 25.4392 362.32C25.7032 362.824 26.0512 363.184 26.4832 363.4C26.9272 363.604 27.4072 363.706 27.9232 363.706ZM37.274 365.38C36.182 365.38 35.39 365.062 34.898 364.426C34.406 363.79 34.16 362.956 34.16 361.924V358.648C34.16 358.504 34.22 358.432 34.34 358.432H34.43C34.898 358.432 35.258 358.552 35.51 358.792C35.762 359.032 35.888 359.422 35.888 359.962V362.14C35.888 362.716 36.02 363.136 36.284 363.4C36.548 363.664 36.878 363.796 37.274 363.796C37.682 363.796 38.024 363.676 38.3 363.436C38.576 363.184 38.714 362.758 38.714 362.158V358.648C38.714 358.504 38.78 358.432 38.912 358.432H39.002C39.47 358.432 39.824 358.552 40.064 358.792C40.316 359.032 40.442 359.422 40.442 359.962V362.032C40.442 363.052 40.19 363.868 39.686 364.48C39.182 365.08 38.378 365.38 37.274 365.38ZM42.9153 359.998H41.7273C41.5953 359.998 41.5293 359.926 41.5293 359.782V358.648C41.5293 358.504 41.5953 358.432 41.7273 358.432H42.9153V356.254C42.9153 356.122 42.9753 356.056 43.0953 356.056H43.1853C43.6533 356.056 44.0073 356.176 44.2473 356.416C44.4993 356.656 44.6253 357.04 44.6253 357.568V358.432H46.0833C46.1913 358.432 46.2453 358.504 46.2453 358.648V359.782C46.2453 359.926 46.1913 359.998 46.0833 359.998H44.6253V365.002C44.6253 365.134 44.5653 365.2 44.4453 365.2H43.0953C42.9753 365.2 42.9153 365.134 42.9153 365.002V359.998ZM49.1051 359.422C49.3091 359.038 49.5551 358.78 49.8431 358.648C50.1311 358.504 50.5211 358.432 51.0131 358.432H51.2111C51.3311 358.432 51.3911 358.504 51.3911 358.648V359.872C51.3911 360.016 51.3311 360.088 51.2111 360.088H50.7431C50.0831 360.088 49.6511 360.256 49.4471 360.592C49.2551 360.916 49.1591 361.396 49.1591 362.032V365.002C49.1591 365.134 49.0991 365.2 48.9791 365.2H47.6291C47.5211 365.2 47.4671 365.134 47.4671 365.002V358.648C47.4671 358.504 47.5211 358.432 47.6291 358.432H47.7191C48.4991 358.432 48.9611 358.762 49.1051 359.422ZM55.7516 365.38C54.6956 365.38 53.8496 365.056 53.2136 364.408C52.5896 363.76 52.2776 362.896 52.2776 361.816C52.2776 360.748 52.5896 359.896 53.2136 359.26C53.8376 358.612 54.6776 358.288 55.7336 358.288C56.7896 358.288 57.6296 358.612 58.2536 359.26C58.8776 359.896 59.1896 360.748 59.1896 361.816C59.1896 362.884 58.8836 363.748 58.2716 364.408C57.6596 365.056 56.8196 365.38 55.7516 365.38ZM55.7336 363.742C56.1896 363.742 56.5856 363.598 56.9216 363.31C57.2576 363.01 57.4256 362.524 57.4256 361.852C57.4256 361.18 57.2576 360.688 56.9216 360.376C56.5856 360.064 56.1896 359.908 55.7336 359.908C55.2656 359.908 54.8636 360.064 54.5276 360.376C54.2036 360.676 54.0416 361.162 54.0416 361.834C54.0416 362.506 54.2036 362.992 54.5276 363.292C54.8636 363.592 55.2656 363.742 55.7336 363.742ZM60.4184 363.238C60.6944 363.466 60.9824 363.646 61.2824 363.778C61.5944 363.91 61.9664 363.976 62.3984 363.976C63.1304 363.976 63.4964 363.742 63.4964 363.274C63.4964 363.07 63.3824 362.908 63.1544 362.788C62.9384 362.668 62.6684 362.554 62.3444 362.446C62.0324 362.338 61.7144 362.206 61.3904 362.05C61.0664 361.894 60.7904 361.69 60.5624 361.438C60.3464 361.174 60.2384 360.82 60.2384 360.376C60.2384 359.884 60.3584 359.488 60.5984 359.188C60.8504 358.876 61.1744 358.648 61.5704 358.504C61.9784 358.36 62.4104 358.288 62.8664 358.288C63.4304 358.288 63.8984 358.378 64.2704 358.558C64.5824 358.69 64.7864 358.852 64.8824 359.044C64.9784 359.224 64.9784 359.482 64.8824 359.818L64.8284 360.016C64.7924 360.112 64.7444 360.16 64.6844 360.16C64.6484 360.16 64.6184 360.154 64.5944 360.142C64.5704 360.118 64.5344 360.1 64.4864 360.088C63.9224 359.812 63.3704 359.674 62.8304 359.674C62.5904 359.674 62.3864 359.722 62.2184 359.818C62.0504 359.914 61.9664 360.064 61.9664 360.268C61.9664 360.472 62.0744 360.64 62.2904 360.772C62.5184 360.892 62.7884 361.006 63.1004 361.114C63.4244 361.222 63.7484 361.354 64.0724 361.51C64.3964 361.666 64.6664 361.87 64.8824 362.122C65.1104 362.374 65.2244 362.71 65.2244 363.13C65.2244 363.802 64.9844 364.348 64.5044 364.768C64.0244 365.176 63.3884 365.38 62.5964 365.38C62.0924 365.38 61.6484 365.296 61.2644 365.128C60.8924 364.948 60.5984 364.714 60.3824 364.426C60.1664 364.138 60.0584 363.838 60.0584 363.526C60.0584 363.286 60.1304 363.166 60.2744 363.166C60.3224 363.166 60.3704 363.19 60.4184 363.238Z" fill="#4F4F4F"/>
<path d="M14.182 224.122C13.594 224.122 13.126 223.942 12.778 223.582C12.43 223.222 12.256 222.754 12.256 222.178C12.256 221.59 12.424 221.122 12.76 220.774C13.108 220.414 13.564 220.234 14.128 220.234C14.728 220.234 15.202 220.414 15.55 220.774C15.898 221.122 16.072 221.59 16.072 222.178C16.072 222.754 15.904 223.222 15.568 223.582C15.232 223.942 14.77 224.122 14.182 224.122ZM27.9232 227.38C26.4352 227.38 25.2832 226.918 24.4672 225.994C23.6512 225.058 23.2432 223.798 23.2432 222.214C23.2432 221.158 23.4292 220.24 23.8012 219.46C24.1732 218.68 24.7072 218.08 25.4032 217.66C26.1112 217.228 26.9512 217.012 27.9232 217.012C28.9072 217.012 29.7412 217.228 30.4252 217.66C31.1212 218.08 31.6552 218.68 32.0272 219.46C32.3992 220.24 32.5852 221.158 32.5852 222.214C32.5852 223.798 32.1772 225.058 31.3612 225.994C30.5572 226.918 29.4112 227.38 27.9232 227.38ZM27.9232 225.706C28.4392 225.706 28.9132 225.604 29.3452 225.4C29.7772 225.184 30.1252 224.824 30.3892 224.32C30.6532 223.804 30.7852 223.102 30.7852 222.214C30.7852 221.326 30.6532 220.624 30.3892 220.108C30.1252 219.592 29.7712 219.226 29.3272 219.01C28.8952 218.794 28.4272 218.686 27.9232 218.686C27.4072 218.686 26.9272 218.794 26.4832 219.01C26.0512 219.226 25.7032 219.592 25.4392 220.108C25.1752 220.624 25.0432 221.326 25.0432 222.214C25.0432 223.102 25.1752 223.804 25.4392 224.32C25.7032 224.824 26.0512 225.184 26.4832 225.4C26.9272 225.604 27.4072 225.706 27.9232 225.706ZM35.8328 221.314C36.0608 221.002 36.3488 220.756 36.6968 220.576C37.0568 220.396 37.4468 220.306 37.8668 220.306C38.7188 220.306 39.3848 220.558 39.8648 221.062C40.3568 221.566 40.6028 222.316 40.6028 223.312V227.002C40.6028 227.134 40.5368 227.2 40.4048 227.2H39.0728C38.9408 227.2 38.8748 227.134 38.8748 227.002V223.528C38.8748 222.94 38.7368 222.52 38.4608 222.268C38.1848 222.016 37.8368 221.89 37.4168 221.89C36.9968 221.89 36.6488 222.022 36.3728 222.286C36.0968 222.538 35.9588 222.964 35.9588 223.564V227.002C35.9588 227.134 35.8868 227.2 35.7428 227.2H34.4288C34.2968 227.2 34.2308 227.134 34.2308 227.002V220.648C34.2308 220.504 34.2968 220.432 34.4288 220.432H34.5188C34.8668 220.432 35.1548 220.51 35.3828 220.666C35.6108 220.81 35.7608 221.026 35.8328 221.314ZM45.4504 225.472C45.4744 225.46 45.4984 225.442 45.5224 225.418C45.5584 225.394 45.5944 225.382 45.6304 225.382C45.7024 225.382 45.7504 225.412 45.7744 225.472C45.8104 225.52 45.8284 225.574 45.8284 225.634C45.8284 225.874 45.7744 226.132 45.6664 226.408C45.5584 226.672 45.3784 226.894 45.1264 227.074C44.8744 227.254 44.5264 227.344 44.0824 227.344C43.5184 227.344 43.0684 227.158 42.7324 226.786C42.4084 226.414 42.2464 225.838 42.2464 225.058V217.408C42.2464 217.264 42.3064 217.192 42.4264 217.192H42.5164C42.9844 217.192 43.3444 217.312 43.5964 217.552C43.8484 217.78 43.9744 218.164 43.9744 218.704V224.896C43.9744 225.52 44.1964 225.832 44.6404 225.832C44.8204 225.832 44.9704 225.802 45.0904 225.742C45.2104 225.682 45.3304 225.592 45.4504 225.472ZM46.4793 218.668C46.4793 218.38 46.5693 218.146 46.7493 217.966C46.9413 217.774 47.1753 217.678 47.4513 217.678C47.7273 217.678 47.9553 217.774 48.1353 217.966C48.3273 218.146 48.4233 218.38 48.4233 218.668C48.4233 218.944 48.3273 219.178 48.1353 219.37C47.9553 219.562 47.7273 219.658 47.4513 219.658C47.1753 219.658 46.9413 219.562 46.7493 219.37C46.5693 219.178 46.4793 218.944 46.4793 218.668ZM46.7853 227.2C46.6653 227.2 46.6053 227.134 46.6053 227.002V220.648C46.6053 220.504 46.6653 220.432 46.7853 220.432H46.8753C47.3313 220.432 47.6853 220.552 47.9373 220.792C48.1893 221.032 48.3153 221.422 48.3153 221.962V227.002C48.3153 227.134 48.2493 227.2 48.1173 227.2H46.7853ZM51.6355 221.314C51.8635 221.002 52.1515 220.756 52.4995 220.576C52.8595 220.396 53.2495 220.306 53.6695 220.306C54.5215 220.306 55.1875 220.558 55.6675 221.062C56.1595 221.566 56.4055 222.316 56.4055 223.312V227.002C56.4055 227.134 56.3395 227.2 56.2075 227.2H54.8755C54.7435 227.2 54.6775 227.134 54.6775 227.002V223.528C54.6775 222.94 54.5395 222.52 54.2635 222.268C53.9875 222.016 53.6395 221.89 53.2195 221.89C52.7995 221.89 52.4515 222.022 52.1755 222.286C51.8995 222.538 51.7615 222.964 51.7615 223.564V227.002C51.7615 227.134 51.6895 227.2 51.5455 227.2H50.2315C50.0995 227.2 50.0335 227.134 50.0335 227.002V220.648C50.0335 220.504 50.0995 220.432 50.2315 220.432H50.3215C50.6695 220.432 50.9575 220.51 51.1855 220.666C51.4135 220.81 51.5635 221.026 51.6355 221.314ZM59.5251 224.428C59.5851 224.908 59.7951 225.274 60.1551 225.526C60.5151 225.778 60.9711 225.904 61.5231 225.904C61.9791 225.904 62.3571 225.856 62.6571 225.76C62.9571 225.664 63.2571 225.532 63.5571 225.364C63.6651 225.292 63.7611 225.256 63.8451 225.256C63.9771 225.256 64.0431 225.34 64.0431 225.508C64.0431 225.76 63.9471 226.03 63.7551 226.318C63.5751 226.606 63.2871 226.858 62.8911 227.074C62.4951 227.278 61.9671 227.38 61.3071 227.38C60.6591 227.38 60.0651 227.248 59.5251 226.984C58.9971 226.708 58.5771 226.306 58.2651 225.778C57.9531 225.238 57.7971 224.578 57.7971 223.798C57.7971 223.114 57.9291 222.508 58.1931 221.98C58.4691 221.452 58.8531 221.038 59.3451 220.738C59.8491 220.438 60.4371 220.288 61.1091 220.288C61.8291 220.288 62.4111 220.438 62.8551 220.738C63.3111 221.026 63.6411 221.404 63.8451 221.872C64.0611 222.34 64.1691 222.838 64.1691 223.366C64.1691 223.546 64.1631 223.708 64.1511 223.852C64.1511 223.984 64.1451 224.098 64.1331 224.194C64.1211 224.35 64.0191 224.428 63.8271 224.428H59.5251ZM59.5251 223.186H62.4411C62.4651 222.982 62.4411 222.772 62.3691 222.556C62.3091 222.328 62.1771 222.136 61.9731 221.98C61.7691 221.824 61.4811 221.746 61.1091 221.746C60.6531 221.746 60.2871 221.878 60.0111 222.142C59.7471 222.394 59.5851 222.742 59.5251 223.186Z" fill="#4F4F4F"/>
<path d="M14.182 89.122C13.594 89.122 13.126 88.942 12.778 88.582C12.43 88.222 12.256 87.754 12.256 87.178C12.256 86.59 12.424 86.122 12.76 85.774C13.108 85.414 13.564 85.234 14.128 85.234C14.728 85.234 15.202 85.414 15.55 85.774C15.898 86.122 16.072 86.59 16.072 87.178C16.072 87.754 15.904 88.222 15.568 88.582C15.232 88.942 14.77 89.122 14.182 89.122ZM30.1012 90.094V88.33H28.7152C28.0192 88.33 27.6712 87.994 27.6712 87.322V86.998C27.6712 86.818 27.7492 86.728 27.9052 86.728H31.5592C31.6912 86.728 31.7572 86.806 31.7572 86.962V90.49C31.7572 90.658 31.7332 90.796 31.6852 90.904C31.6372 91 31.5412 91.108 31.3972 91.228C30.8932 91.624 30.3772 91.918 29.8492 92.11C29.3212 92.29 28.7272 92.38 28.0672 92.38C27.1792 92.38 26.3692 92.2 25.6372 91.84C24.9052 91.48 24.3232 90.916 23.8912 90.148C23.4592 89.38 23.2432 88.39 23.2432 87.178C23.2432 86.11 23.4412 85.192 23.8372 84.424C24.2332 83.644 24.7972 83.05 25.5292 82.642C26.2732 82.222 27.1492 82.012 28.1572 82.012C28.6612 82.012 29.1052 82.054 29.4892 82.138C29.8852 82.21 30.2512 82.312 30.5872 82.444C30.9472 82.576 31.1812 82.744 31.2892 82.948C31.3972 83.152 31.4032 83.422 31.3072 83.758L31.2172 84.172C31.1812 84.328 31.1152 84.406 31.0192 84.406C30.9832 84.406 30.9412 84.394 30.8932 84.37C30.8452 84.334 30.7912 84.31 30.7312 84.298C29.9872 83.89 29.1712 83.686 28.2832 83.686C27.2992 83.686 26.5192 83.974 25.9432 84.55C25.3792 85.114 25.0972 86.02 25.0972 87.268C25.0972 88.36 25.3552 89.212 25.8712 89.824C26.3872 90.424 27.1132 90.724 28.0492 90.724C28.4332 90.724 28.7872 90.676 29.1112 90.58C29.4352 90.484 29.7652 90.322 30.1012 90.094ZM34.863 89.428C34.923 89.908 35.133 90.274 35.493 90.526C35.853 90.778 36.309 90.904 36.861 90.904C37.317 90.904 37.695 90.856 37.995 90.76C38.295 90.664 38.595 90.532 38.895 90.364C39.003 90.292 39.099 90.256 39.183 90.256C39.315 90.256 39.381 90.34 39.381 90.508C39.381 90.76 39.285 91.03 39.093 91.318C38.913 91.606 38.625 91.858 38.229 92.074C37.833 92.278 37.305 92.38 36.645 92.38C35.997 92.38 35.403 92.248 34.863 91.984C34.335 91.708 33.915 91.306 33.603 90.778C33.291 90.238 33.135 89.578 33.135 88.798C33.135 88.114 33.267 87.508 33.531 86.98C33.807 86.452 34.191 86.038 34.683 85.738C35.187 85.438 35.775 85.288 36.447 85.288C37.167 85.288 37.749 85.438 38.193 85.738C38.649 86.026 38.979 86.404 39.183 86.872C39.399 87.34 39.507 87.838 39.507 88.366C39.507 88.546 39.501 88.708 39.489 88.852C39.489 88.984 39.483 89.098 39.471 89.194C39.459 89.35 39.357 89.428 39.165 89.428H34.863ZM34.863 88.186H37.779C37.803 87.982 37.779 87.772 37.707 87.556C37.647 87.328 37.515 87.136 37.311 86.98C37.107 86.824 36.819 86.746 36.447 86.746C35.991 86.746 35.625 86.878 35.349 87.142C35.085 87.394 34.923 87.742 34.863 88.186ZM42.5485 86.422C42.7525 86.038 42.9985 85.78 43.2865 85.648C43.5745 85.504 43.9645 85.432 44.4565 85.432H44.6545C44.7745 85.432 44.8345 85.504 44.8345 85.648V86.872C44.8345 87.016 44.7745 87.088 44.6545 87.088H44.1865C43.5265 87.088 43.0945 87.256 42.8905 87.592C42.6985 87.916 42.6025 88.396 42.6025 89.032V92.002C42.6025 92.134 42.5425 92.2 42.4225 92.2H41.0725C40.9645 92.2 40.9105 92.134 40.9105 92.002V85.648C40.9105 85.504 40.9645 85.432 41.0725 85.432H41.1625C41.9425 85.432 42.4045 85.762 42.5485 86.422ZM50.923 91.354C50.683 91.678 50.377 91.93 50.005 92.11C49.633 92.278 49.237 92.362 48.817 92.362C48.145 92.362 47.575 92.2 47.107 91.876C46.651 91.552 46.303 91.12 46.063 90.58C45.835 90.04 45.721 89.446 45.721 88.798C45.721 88.126 45.847 87.526 46.099 86.998C46.351 86.458 46.711 86.032 47.179 85.72C47.659 85.408 48.217 85.252 48.853 85.252C49.381 85.252 49.825 85.348 50.185 85.54C50.557 85.732 50.851 85.96 51.067 86.224C51.163 85.948 51.319 85.75 51.535 85.63C51.763 85.498 52.033 85.432 52.345 85.432H52.435C52.567 85.432 52.633 85.504 52.633 85.648V92.002C52.633 92.134 52.567 92.2 52.435 92.2H51.103C50.983 92.2 50.923 92.134 50.923 92.002V91.354ZM49.195 90.742C49.423 90.742 49.669 90.694 49.933 90.598C50.209 90.49 50.443 90.298 50.635 90.022C50.827 89.746 50.923 89.338 50.923 88.798C50.923 88.258 50.827 87.856 50.635 87.592C50.443 87.316 50.215 87.136 49.951 87.052C49.687 86.956 49.441 86.908 49.213 86.908C48.973 86.908 48.715 86.962 48.439 87.07C48.175 87.178 47.947 87.37 47.755 87.646C47.575 87.922 47.485 88.306 47.485 88.798C47.485 89.314 47.581 89.716 47.773 90.004C47.977 90.28 48.211 90.472 48.475 90.58C48.739 90.688 48.979 90.742 49.195 90.742ZM57.509 90.472C57.533 90.46 57.557 90.442 57.581 90.418C57.617 90.394 57.653 90.382 57.689 90.382C57.761 90.382 57.809 90.412 57.833 90.472C57.869 90.52 57.887 90.574 57.887 90.634C57.887 90.874 57.833 91.132 57.725 91.408C57.617 91.672 57.437 91.894 57.185 92.074C56.933 92.254 56.585 92.344 56.141 92.344C55.577 92.344 55.127 92.158 54.791 91.786C54.467 91.414 54.305 90.838 54.305 90.058V82.408C54.305 82.264 54.365 82.192 54.485 82.192H54.575C55.043 82.192 55.403 82.312 55.655 82.552C55.907 82.78 56.033 83.164 56.033 83.704V89.896C56.033 90.52 56.255 90.832 56.699 90.832C56.879 90.832 57.029 90.802 57.149 90.742C57.269 90.682 57.389 90.592 57.509 90.472Z" fill="#4F4F4F"/>
<rect width="1" height="672" transform="translate(213)" fill="#1B1B1A"/>
</svg>
