<svg width="820" height="650" viewBox="0 0 820 650" fill="none" xmlns="http://www.w3.org/2000/svg">
<path d="M0.975037 12C0.975037 5.37257 6.34762 0 12.975 0H808C814.627 0 820 5.37258 820 12V638C820 644.627 814.627 650 808 650H12.975C6.34759 650 0.975037 644.627 0.975037 638V12Z" fill="#0C0C0B" fill-opacity="0.99"/>
<path d="M0 12C0 5.37257 5.37258 0 12 0H200V650H12C5.37258 650 0 644.627 0 638V12Z" fill="#10100F"/>
<rect width="0.97503" height="650" transform="translate(199.881)" fill="#1B1B1A"/>
<path d="M14.182 475.122C13.594 475.122 13.126 474.942 12.778 474.582C12.43 474.222 12.256 473.754 12.256 473.178C12.256 472.59 12.424 472.122 12.76 471.774C13.108 471.414 13.564 471.234 14.128 471.234C14.728 471.234 15.202 471.414 15.55 471.774C15.898 472.122 16.072 472.59 16.072 473.178C16.072 473.754 15.904 474.222 15.568 474.582C15.232 474.942 14.77 475.122 14.182 475.122ZM28.2292 475.59L30.3352 468.408C30.3592 468.348 30.3892 468.3 30.4252 468.264C30.4612 468.216 30.5152 468.192 30.5872 468.192H31.5952C31.9432 468.192 32.2312 468.294 32.4592 468.498C32.6992 468.702 32.8252 468.978 32.8372 469.326L33.3052 478.002C33.3052 478.134 33.2632 478.2 33.1792 478.2H31.7572C31.6372 478.2 31.5772 478.134 31.5772 478.002L31.1992 470.982L29.0932 478.002C29.0692 478.134 28.9912 478.2 28.8592 478.2H27.5272C27.4432 478.2 27.3652 478.134 27.2932 478.002L25.2772 471.036L24.8992 478.002C24.8992 478.134 24.8452 478.2 24.7372 478.2H23.3332C23.2252 478.2 23.1712 478.134 23.1712 478.002L23.7112 468.408C23.7112 468.264 23.7712 468.192 23.8912 468.192H24.9172C25.3012 468.192 25.6072 468.252 25.8352 468.372C26.0632 468.492 26.2252 468.726 26.3212 469.074L28.2292 475.59ZM36.2868 475.428C36.3468 475.908 36.5568 476.274 36.9168 476.526C37.2768 476.778 37.7328 476.904 38.2848 476.904C38.7408 476.904 39.1188 476.856 39.4188 476.76C39.7188 476.664 40.0188 476.532 40.3188 476.364C40.4268 476.292 40.5228 476.256 40.6068 476.256C40.7388 476.256 40.8048 476.34 40.8048 476.508C40.8048 476.76 40.7088 477.03 40.5168 477.318C40.3368 477.606 40.0488 477.858 39.6528 478.074C39.2568 478.278 38.7288 478.38 38.0688 478.38C37.4208 478.38 36.8268 478.248 36.2868 477.984C35.7588 477.708 35.3388 477.306 35.0268 476.778C34.7148 476.238 34.5588 475.578 34.5588 474.798C34.5588 474.114 34.6908 473.508 34.9548 472.98C35.2308 472.452 35.6148 472.038 36.1068 471.738C36.6108 471.438 37.1988 471.288 37.8708 471.288C38.5908 471.288 39.1728 471.438 39.6168 471.738C40.0728 472.026 40.4028 472.404 40.6068 472.872C40.8228 473.34 40.9308 473.838 40.9308 474.366C40.9308 474.546 40.9248 474.708 40.9128 474.852C40.9128 474.984 40.9068 475.098 40.8948 475.194C40.8828 475.35 40.7808 475.428 40.5888 475.428H36.2868ZM36.2868 474.186H39.2028C39.2268 473.982 39.2028 473.772 39.1308 473.556C39.0708 473.328 38.9388 473.136 38.7348 472.98C38.5308 472.824 38.2428 472.746 37.8708 472.746C37.4148 472.746 37.0488 472.878 36.7728 473.142C36.5088 473.394 36.3468 473.742 36.2868 474.186ZM43.9363 472.314C44.1643 472.002 44.4523 471.756 44.8003 471.576C45.1603 471.396 45.5503 471.306 45.9703 471.306C46.8223 471.306 47.4883 471.558 47.9683 472.062C48.4603 472.566 48.7063 473.316 48.7063 474.312V478.002C48.7063 478.134 48.6403 478.2 48.5083 478.2H47.1763C47.0443 478.2 46.9783 478.134 46.9783 478.002V474.528C46.9783 473.94 46.8403 473.52 46.5643 473.268C46.2883 473.016 45.9403 472.89 45.5203 472.89C45.1003 472.89 44.7523 473.022 44.4763 473.286C44.2003 473.538 44.0623 473.964 44.0623 474.564V478.002C44.0623 478.134 43.9903 478.2 43.8463 478.2H42.5323C42.4003 478.2 42.3343 478.134 42.3343 478.002V471.648C42.3343 471.504 42.4003 471.432 42.5323 471.432H42.6223C42.9703 471.432 43.2583 471.51 43.4863 471.666C43.7143 471.81 43.8643 472.026 43.9363 472.314ZM53.4459 478.38C52.3539 478.38 51.5619 478.062 51.0699 477.426C50.5779 476.79 50.3319 475.956 50.3319 474.924V471.648C50.3319 471.504 50.3919 471.432 50.5119 471.432H50.6019C51.0699 471.432 51.4299 471.552 51.6819 471.792C51.9339 472.032 52.0599 472.422 52.0599 472.962V475.14C52.0599 475.716 52.1919 476.136 52.4559 476.4C52.7199 476.664 53.0499 476.796 53.4459 476.796C53.8539 476.796 54.1959 476.676 54.4719 476.436C54.7479 476.184 54.8859 475.758 54.8859 475.158V471.648C54.8859 471.504 54.9519 471.432 55.0839 471.432H55.1739C55.6419 471.432 55.9959 471.552 56.2359 471.792C56.4879 472.032 56.6139 472.422 56.6139 472.962V475.032C56.6139 476.052 56.3619 476.868 55.8579 477.48C55.3539 478.08 54.5499 478.38 53.4459 478.38Z" fill="#4F4F4F"/>
<path d="M14.182 372.122C13.594 372.122 13.126 371.942 12.778 371.582C12.43 371.222 12.256 370.754 12.256 370.178C12.256 369.59 12.424 369.122 12.76 368.774C13.108 368.414 13.564 368.234 14.128 368.234C14.728 368.234 15.202 368.414 15.55 368.774C15.898 369.122 16.072 369.59 16.072 370.178C16.072 370.754 15.904 371.222 15.568 371.582C15.232 371.942 14.77 372.122 14.182 372.122ZM27.9232 375.38C26.4352 375.38 25.2832 374.918 24.4672 373.994C23.6512 373.058 23.2432 371.798 23.2432 370.214C23.2432 369.158 23.4292 368.24 23.8012 367.46C24.1732 366.68 24.7072 366.08 25.4032 365.66C26.1112 365.228 26.9512 365.012 27.9232 365.012C28.9072 365.012 29.7412 365.228 30.4252 365.66C31.1212 366.08 31.6552 366.68 32.0272 367.46C32.3992 368.24 32.5852 369.158 32.5852 370.214C32.5852 371.798 32.1772 373.058 31.3612 373.994C30.5572 374.918 29.4112 375.38 27.9232 375.38ZM27.9232 373.706C28.4392 373.706 28.9132 373.604 29.3452 373.4C29.7772 373.184 30.1252 372.824 30.3892 372.32C30.6532 371.804 30.7852 371.102 30.7852 370.214C30.7852 369.326 30.6532 368.624 30.3892 368.108C30.1252 367.592 29.7712 367.226 29.3272 367.01C28.8952 366.794 28.4272 366.686 27.9232 366.686C27.4072 366.686 26.9272 366.794 26.4832 367.01C26.0512 367.226 25.7032 367.592 25.4392 368.108C25.1752 368.624 25.0432 369.326 25.0432 370.214C25.0432 371.102 25.1752 371.804 25.4392 372.32C25.7032 372.824 26.0512 373.184 26.4832 373.4C26.9272 373.604 27.4072 373.706 27.9232 373.706ZM37.274 375.38C36.182 375.38 35.39 375.062 34.898 374.426C34.406 373.79 34.16 372.956 34.16 371.924V368.648C34.16 368.504 34.22 368.432 34.34 368.432H34.43C34.898 368.432 35.258 368.552 35.51 368.792C35.762 369.032 35.888 369.422 35.888 369.962V372.14C35.888 372.716 36.02 373.136 36.284 373.4C36.548 373.664 36.878 373.796 37.274 373.796C37.682 373.796 38.024 373.676 38.3 373.436C38.576 373.184 38.714 372.758 38.714 372.158V368.648C38.714 368.504 38.78 368.432 38.912 368.432H39.002C39.47 368.432 39.824 368.552 40.064 368.792C40.316 369.032 40.442 369.422 40.442 369.962V372.032C40.442 373.052 40.19 373.868 39.686 374.48C39.182 375.08 38.378 375.38 37.274 375.38ZM42.9153 369.998H41.7273C41.5953 369.998 41.5293 369.926 41.5293 369.782V368.648C41.5293 368.504 41.5953 368.432 41.7273 368.432H42.9153V366.254C42.9153 366.122 42.9753 366.056 43.0953 366.056H43.1853C43.6533 366.056 44.0073 366.176 44.2473 366.416C44.4993 366.656 44.6253 367.04 44.6253 367.568V368.432H46.0833C46.1913 368.432 46.2453 368.504 46.2453 368.648V369.782C46.2453 369.926 46.1913 369.998 46.0833 369.998H44.6253V375.002C44.6253 375.134 44.5653 375.2 44.4453 375.2H43.0953C42.9753 375.2 42.9153 375.134 42.9153 375.002V369.998ZM49.1051 369.422C49.3091 369.038 49.5551 368.78 49.8431 368.648C50.1311 368.504 50.5211 368.432 51.0131 368.432H51.2111C51.3311 368.432 51.3911 368.504 51.3911 368.648V369.872C51.3911 370.016 51.3311 370.088 51.2111 370.088H50.7431C50.0831 370.088 49.6511 370.256 49.4471 370.592C49.2551 370.916 49.1591 371.396 49.1591 372.032V375.002C49.1591 375.134 49.0991 375.2 48.9791 375.2H47.6291C47.5211 375.2 47.4671 375.134 47.4671 375.002V368.648C47.4671 368.504 47.5211 368.432 47.6291 368.432H47.7191C48.4991 368.432 48.9611 368.762 49.1051 369.422ZM55.7516 375.38C54.6956 375.38 53.8496 375.056 53.2136 374.408C52.5896 373.76 52.2776 372.896 52.2776 371.816C52.2776 370.748 52.5896 369.896 53.2136 369.26C53.8376 368.612 54.6776 368.288 55.7336 368.288C56.7896 368.288 57.6296 368.612 58.2536 369.26C58.8776 369.896 59.1896 370.748 59.1896 371.816C59.1896 372.884 58.8836 373.748 58.2716 374.408C57.6596 375.056 56.8196 375.38 55.7516 375.38ZM55.7336 373.742C56.1896 373.742 56.5856 373.598 56.9216 373.31C57.2576 373.01 57.4256 372.524 57.4256 371.852C57.4256 371.18 57.2576 370.688 56.9216 370.376C56.5856 370.064 56.1896 369.908 55.7336 369.908C55.2656 369.908 54.8636 370.064 54.5276 370.376C54.2036 370.676 54.0416 371.162 54.0416 371.834C54.0416 372.506 54.2036 372.992 54.5276 373.292C54.8636 373.592 55.2656 373.742 55.7336 373.742ZM60.4184 373.238C60.6944 373.466 60.9824 373.646 61.2824 373.778C61.5944 373.91 61.9664 373.976 62.3984 373.976C63.1304 373.976 63.4964 373.742 63.4964 373.274C63.4964 373.07 63.3824 372.908 63.1544 372.788C62.9384 372.668 62.6684 372.554 62.3444 372.446C62.0324 372.338 61.7144 372.206 61.3904 372.05C61.0664 371.894 60.7904 371.69 60.5624 371.438C60.3464 371.174 60.2384 370.82 60.2384 370.376C60.2384 369.884 60.3584 369.488 60.5984 369.188C60.8504 368.876 61.1744 368.648 61.5704 368.504C61.9784 368.36 62.4104 368.288 62.8664 368.288C63.4304 368.288 63.8984 368.378 64.2704 368.558C64.5824 368.69 64.7864 368.852 64.8824 369.044C64.9784 369.224 64.9784 369.482 64.8824 369.818L64.8284 370.016C64.7924 370.112 64.7444 370.16 64.6844 370.16C64.6484 370.16 64.6184 370.154 64.5944 370.142C64.5704 370.118 64.5344 370.1 64.4864 370.088C63.9224 369.812 63.3704 369.674 62.8304 369.674C62.5904 369.674 62.3864 369.722 62.2184 369.818C62.0504 369.914 61.9664 370.064 61.9664 370.268C61.9664 370.472 62.0744 370.64 62.2904 370.772C62.5184 370.892 62.7884 371.006 63.1004 371.114C63.4244 371.222 63.7484 371.354 64.0724 371.51C64.3964 371.666 64.6664 371.87 64.8824 372.122C65.1104 372.374 65.2244 372.71 65.2244 373.13C65.2244 373.802 64.9844 374.348 64.5044 374.768C64.0244 375.176 63.3884 375.38 62.5964 375.38C62.0924 375.38 61.6484 375.296 61.2644 375.128C60.8924 374.948 60.5984 374.714 60.3824 374.426C60.1664 374.138 60.0584 373.838 60.0584 373.526C60.0584 373.286 60.1304 373.166 60.2744 373.166C60.3224 373.166 60.3704 373.19 60.4184 373.238Z" fill="#4F4F4F"/>
<path d="M14.182 234.122C13.594 234.122 13.126 233.942 12.778 233.582C12.43 233.222 12.256 232.754 12.256 232.178C12.256 231.59 12.424 231.122 12.76 230.774C13.108 230.414 13.564 230.234 14.128 230.234C14.728 230.234 15.202 230.414 15.55 230.774C15.898 231.122 16.072 231.59 16.072 232.178C16.072 232.754 15.904 233.222 15.568 233.582C15.232 233.942 14.77 234.122 14.182 234.122ZM27.9232 237.38C26.4352 237.38 25.2832 236.918 24.4672 235.994C23.6512 235.058 23.2432 233.798 23.2432 232.214C23.2432 231.158 23.4292 230.24 23.8012 229.46C24.1732 228.68 24.7072 228.08 25.4032 227.66C26.1112 227.228 26.9512 227.012 27.9232 227.012C28.9072 227.012 29.7412 227.228 30.4252 227.66C31.1212 228.08 31.6552 228.68 32.0272 229.46C32.3992 230.24 32.5852 231.158 32.5852 232.214C32.5852 233.798 32.1772 235.058 31.3612 235.994C30.5572 236.918 29.4112 237.38 27.9232 237.38ZM27.9232 235.706C28.4392 235.706 28.9132 235.604 29.3452 235.4C29.7772 235.184 30.1252 234.824 30.3892 234.32C30.6532 233.804 30.7852 233.102 30.7852 232.214C30.7852 231.326 30.6532 230.624 30.3892 230.108C30.1252 229.592 29.7712 229.226 29.3272 229.01C28.8952 228.794 28.4272 228.686 27.9232 228.686C27.4072 228.686 26.9272 228.794 26.4832 229.01C26.0512 229.226 25.7032 229.592 25.4392 230.108C25.1752 230.624 25.0432 231.326 25.0432 232.214C25.0432 233.102 25.1752 233.804 25.4392 234.32C25.7032 234.824 26.0512 235.184 26.4832 235.4C26.9272 235.604 27.4072 235.706 27.9232 235.706ZM35.8328 231.314C36.0608 231.002 36.3488 230.756 36.6968 230.576C37.0568 230.396 37.4468 230.306 37.8668 230.306C38.7188 230.306 39.3848 230.558 39.8648 231.062C40.3568 231.566 40.6028 232.316 40.6028 233.312V237.002C40.6028 237.134 40.5368 237.2 40.4048 237.2H39.0728C38.9408 237.2 38.8748 237.134 38.8748 237.002V233.528C38.8748 232.94 38.7368 232.52 38.4608 232.268C38.1848 232.016 37.8368 231.89 37.4168 231.89C36.9968 231.89 36.6488 232.022 36.3728 232.286C36.0968 232.538 35.9588 232.964 35.9588 233.564V237.002C35.9588 237.134 35.8868 237.2 35.7428 237.2H34.4288C34.2968 237.2 34.2308 237.134 34.2308 237.002V230.648C34.2308 230.504 34.2968 230.432 34.4288 230.432H34.5188C34.8668 230.432 35.1548 230.51 35.3828 230.666C35.6108 230.81 35.7608 231.026 35.8328 231.314ZM45.4504 235.472C45.4744 235.46 45.4984 235.442 45.5224 235.418C45.5584 235.394 45.5944 235.382 45.6304 235.382C45.7024 235.382 45.7504 235.412 45.7744 235.472C45.8104 235.52 45.8284 235.574 45.8284 235.634C45.8284 235.874 45.7744 236.132 45.6664 236.408C45.5584 236.672 45.3784 236.894 45.1264 237.074C44.8744 237.254 44.5264 237.344 44.0824 237.344C43.5184 237.344 43.0684 237.158 42.7324 236.786C42.4084 236.414 42.2464 235.838 42.2464 235.058V227.408C42.2464 227.264 42.3064 227.192 42.4264 227.192H42.5164C42.9844 227.192 43.3444 227.312 43.5964 227.552C43.8484 227.78 43.9744 228.164 43.9744 228.704V234.896C43.9744 235.52 44.1964 235.832 44.6404 235.832C44.8204 235.832 44.9704 235.802 45.0904 235.742C45.2104 235.682 45.3304 235.592 45.4504 235.472ZM46.4793 228.668C46.4793 228.38 46.5693 228.146 46.7493 227.966C46.9413 227.774 47.1753 227.678 47.4513 227.678C47.7273 227.678 47.9553 227.774 48.1353 227.966C48.3273 228.146 48.4233 228.38 48.4233 228.668C48.4233 228.944 48.3273 229.178 48.1353 229.37C47.9553 229.562 47.7273 229.658 47.4513 229.658C47.1753 229.658 46.9413 229.562 46.7493 229.37C46.5693 229.178 46.4793 228.944 46.4793 228.668ZM46.7853 237.2C46.6653 237.2 46.6053 237.134 46.6053 237.002V230.648C46.6053 230.504 46.6653 230.432 46.7853 230.432H46.8753C47.3313 230.432 47.6853 230.552 47.9373 230.792C48.1893 231.032 48.3153 231.422 48.3153 231.962V237.002C48.3153 237.134 48.2493 237.2 48.1173 237.2H46.7853ZM51.6355 231.314C51.8635 231.002 52.1515 230.756 52.4995 230.576C52.8595 230.396 53.2495 230.306 53.6695 230.306C54.5215 230.306 55.1875 230.558 55.6675 231.062C56.1595 231.566 56.4055 232.316 56.4055 233.312V237.002C56.4055 237.134 56.3395 237.2 56.2075 237.2H54.8755C54.7435 237.2 54.6775 237.134 54.6775 237.002V233.528C54.6775 232.94 54.5395 232.52 54.2635 232.268C53.9875 232.016 53.6395 231.89 53.2195 231.89C52.7995 231.89 52.4515 232.022 52.1755 232.286C51.8995 232.538 51.7615 232.964 51.7615 233.564V237.002C51.7615 237.134 51.6895 237.2 51.5455 237.2H50.2315C50.0995 237.2 50.0335 237.134 50.0335 237.002V230.648C50.0335 230.504 50.0995 230.432 50.2315 230.432H50.3215C50.6695 230.432 50.9575 230.51 51.1855 230.666C51.4135 230.81 51.5635 231.026 51.6355 231.314ZM59.5251 234.428C59.5851 234.908 59.7951 235.274 60.1551 235.526C60.5151 235.778 60.9711 235.904 61.5231 235.904C61.9791 235.904 62.3571 235.856 62.6571 235.76C62.9571 235.664 63.2571 235.532 63.5571 235.364C63.6651 235.292 63.7611 235.256 63.8451 235.256C63.9771 235.256 64.0431 235.34 64.0431 235.508C64.0431 235.76 63.9471 236.03 63.7551 236.318C63.5751 236.606 63.2871 236.858 62.8911 237.074C62.4951 237.278 61.9671 237.38 61.3071 237.38C60.6591 237.38 60.0651 237.248 59.5251 236.984C58.9971 236.708 58.5771 236.306 58.2651 235.778C57.9531 235.238 57.7971 234.578 57.7971 233.798C57.7971 233.114 57.9291 232.508 58.1931 231.98C58.4691 231.452 58.8531 231.038 59.3451 230.738C59.8491 230.438 60.4371 230.288 61.1091 230.288C61.8291 230.288 62.4111 230.438 62.8551 230.738C63.3111 231.026 63.6411 231.404 63.8451 231.872C64.0611 232.34 64.1691 232.838 64.1691 233.366C64.1691 233.546 64.1631 233.708 64.1511 233.852C64.1511 233.984 64.1451 234.098 64.1331 234.194C64.1211 234.35 64.0191 234.428 63.8271 234.428H59.5251ZM59.5251 233.186H62.4411C62.4651 232.982 62.4411 232.772 62.3691 232.556C62.3091 232.328 62.1771 232.136 61.9731 231.98C61.7691 231.824 61.4811 231.746 61.1091 231.746C60.6531 231.746 60.2871 231.878 60.0111 232.142C59.7471 232.394 59.5851 232.742 59.5251 233.186Z" fill="#4F4F4F"/>
<path d="M14.182 99.122C13.594 99.122 13.126 98.942 12.778 98.582C12.43 98.222 12.256 97.754 12.256 97.178C12.256 96.59 12.424 96.122 12.76 95.774C13.108 95.414 13.564 95.234 14.128 95.234C14.728 95.234 15.202 95.414 15.55 95.774C15.898 96.122 16.072 96.59 16.072 97.178C16.072 97.754 15.904 98.222 15.568 98.582C15.232 98.942 14.77 99.122 14.182 99.122ZM30.1012 100.094V98.33H28.7152C28.0192 98.33 27.6712 97.994 27.6712 97.322V96.998C27.6712 96.818 27.7492 96.728 27.9052 96.728H31.5592C31.6912 96.728 31.7572 96.806 31.7572 96.962V100.49C31.7572 100.658 31.7332 100.796 31.6852 100.904C31.6372 101 31.5412 101.108 31.3972 101.228C30.8932 101.624 30.3772 101.918 29.8492 102.11C29.3212 102.29 28.7272 102.38 28.0672 102.38C27.1792 102.38 26.3692 102.2 25.6372 101.84C24.9052 101.48 24.3232 100.916 23.8912 100.148C23.4592 99.38 23.2432 98.39 23.2432 97.178C23.2432 96.11 23.4412 95.192 23.8372 94.424C24.2332 93.644 24.7972 93.05 25.5292 92.642C26.2732 92.222 27.1492 92.012 28.1572 92.012C28.6612 92.012 29.1052 92.054 29.4892 92.138C29.8852 92.21 30.2512 92.312 30.5872 92.444C30.9472 92.576 31.1812 92.744 31.2892 92.948C31.3972 93.152 31.4032 93.422 31.3072 93.758L31.2172 94.172C31.1812 94.328 31.1152 94.406 31.0192 94.406C30.9832 94.406 30.9412 94.394 30.8932 94.37C30.8452 94.334 30.7912 94.31 30.7312 94.298C29.9872 93.89 29.1712 93.686 28.2832 93.686C27.2992 93.686 26.5192 93.974 25.9432 94.55C25.3792 95.114 25.0972 96.02 25.0972 97.268C25.0972 98.36 25.3552 99.212 25.8712 99.824C26.3872 100.424 27.1132 100.724 28.0492 100.724C28.4332 100.724 28.7872 100.676 29.1112 100.58C29.4352 100.484 29.7652 100.322 30.1012 100.094ZM34.863 99.428C34.923 99.908 35.133 100.274 35.493 100.526C35.853 100.778 36.309 100.904 36.861 100.904C37.317 100.904 37.695 100.856 37.995 100.76C38.295 100.664 38.595 100.532 38.895 100.364C39.003 100.292 39.099 100.256 39.183 100.256C39.315 100.256 39.381 100.34 39.381 100.508C39.381 100.76 39.285 101.03 39.093 101.318C38.913 101.606 38.625 101.858 38.229 102.074C37.833 102.278 37.305 102.38 36.645 102.38C35.997 102.38 35.403 102.248 34.863 101.984C34.335 101.708 33.915 101.306 33.603 100.778C33.291 100.238 33.135 99.578 33.135 98.798C33.135 98.114 33.267 97.508 33.531 96.98C33.807 96.452 34.191 96.038 34.683 95.738C35.187 95.438 35.775 95.288 36.447 95.288C37.167 95.288 37.749 95.438 38.193 95.738C38.649 96.026 38.979 96.404 39.183 96.872C39.399 97.34 39.507 97.838 39.507 98.366C39.507 98.546 39.501 98.708 39.489 98.852C39.489 98.984 39.483 99.098 39.471 99.194C39.459 99.35 39.357 99.428 39.165 99.428H34.863ZM34.863 98.186H37.779C37.803 97.982 37.779 97.772 37.707 97.556C37.647 97.328 37.515 97.136 37.311 96.98C37.107 96.824 36.819 96.746 36.447 96.746C35.991 96.746 35.625 96.878 35.349 97.142C35.085 97.394 34.923 97.742 34.863 98.186ZM42.5485 96.422C42.7525 96.038 42.9985 95.78 43.2865 95.648C43.5745 95.504 43.9645 95.432 44.4565 95.432H44.6545C44.7745 95.432 44.8345 95.504 44.8345 95.648V96.872C44.8345 97.016 44.7745 97.088 44.6545 97.088H44.1865C43.5265 97.088 43.0945 97.256 42.8905 97.592C42.6985 97.916 42.6025 98.396 42.6025 99.032V102.002C42.6025 102.134 42.5425 102.2 42.4225 102.2H41.0725C40.9645 102.2 40.9105 102.134 40.9105 102.002V95.648C40.9105 95.504 40.9645 95.432 41.0725 95.432H41.1625C41.9425 95.432 42.4045 95.762 42.5485 96.422ZM50.923 101.354C50.683 101.678 50.377 101.93 50.005 102.11C49.633 102.278 49.237 102.362 48.817 102.362C48.145 102.362 47.575 102.2 47.107 101.876C46.651 101.552 46.303 101.12 46.063 100.58C45.835 100.04 45.721 99.446 45.721 98.798C45.721 98.126 45.847 97.526 46.099 96.998C46.351 96.458 46.711 96.032 47.179 95.72C47.659 95.408 48.217 95.252 48.853 95.252C49.381 95.252 49.825 95.348 50.185 95.54C50.557 95.732 50.851 95.96 51.067 96.224C51.163 95.948 51.319 95.75 51.535 95.63C51.763 95.498 52.033 95.432 52.345 95.432H52.435C52.567 95.432 52.633 95.504 52.633 95.648V102.002C52.633 102.134 52.567 102.2 52.435 102.2H51.103C50.983 102.2 50.923 102.134 50.923 102.002V101.354ZM49.195 100.742C49.423 100.742 49.669 100.694 49.933 100.598C50.209 100.49 50.443 100.298 50.635 100.022C50.827 99.746 50.923 99.338 50.923 98.798C50.923 98.258 50.827 97.856 50.635 97.592C50.443 97.316 50.215 97.136 49.951 97.052C49.687 96.956 49.441 96.908 49.213 96.908C48.973 96.908 48.715 96.962 48.439 97.07C48.175 97.178 47.947 97.37 47.755 97.646C47.575 97.922 47.485 98.306 47.485 98.798C47.485 99.314 47.581 99.716 47.773 100.004C47.977 100.28 48.211 100.472 48.475 100.58C48.739 100.688 48.979 100.742 49.195 100.742ZM57.509 100.472C57.533 100.46 57.557 100.442 57.581 100.418C57.617 100.394 57.653 100.382 57.689 100.382C57.761 100.382 57.809 100.412 57.833 100.472C57.869 100.52 57.887 100.574 57.887 100.634C57.887 100.874 57.833 101.132 57.725 101.408C57.617 101.672 57.437 101.894 57.185 102.074C56.933 102.254 56.585 102.344 56.141 102.344C55.577 102.344 55.127 102.158 54.791 101.786C54.467 101.414 54.305 100.838 54.305 100.058V92.408C54.305 92.264 54.365 92.192 54.485 92.192H54.575C55.043 92.192 55.403 92.312 55.655 92.552C55.907 92.78 56.033 93.164 56.033 93.704V99.896C56.033 100.52 56.255 100.832 56.699 100.832C56.879 100.832 57.029 100.802 57.149 100.742C57.269 100.682 57.389 100.592 57.509 100.472Z" fill="#4F4F4F"/>
</svg>
