<svg width="932" height="710" viewBox="0 0 932 710" fill="none" xmlns="http://www.w3.org/2000/svg">
<path d="M1 12C1 5.3726 6.37258 0 13 0H920C926.627 0 932 5.37258 932 12V698C932 704.627 926.627 710 920 710H13C6.3726 710 1 704.627 1 698V12Z" fill="#0C0C0B" fill-opacity="0.99"/>
<path d="M0 12C0 5.3726 5.37258 0 12 0H199.551V710H12C5.37259 710 0 704.627 0 698V12Z" fill="#0E0E0D"/>
<rect width="0.972842" height="710" transform="translate(199.433)" fill="#1B1B1A"/>
<path d="M14.1562 518.787C13.5682 518.787 13.1002 518.607 12.7522 518.247C12.4042 517.887 12.2302 517.419 12.2302 516.843C12.2302 516.255 12.3982 515.787 12.7342 515.439C13.0822 515.079 13.5382 514.899 14.1022 514.899C14.7022 514.899 15.1762 515.079 15.5242 515.439C15.8722 515.787 16.0462 516.255 16.0462 516.843C16.0462 517.419 15.8782 517.887 15.5422 518.247C15.2062 518.607 14.7442 518.787 14.1562 518.787ZM28.2034 519.255L30.3094 512.073C30.3334 512.013 30.3634 511.965 30.3994 511.929C30.4354 511.881 30.4894 511.857 30.5614 511.857H31.5694C31.9174 511.857 32.2054 511.959 32.4334 512.163C32.6734 512.367 32.7994 512.643 32.8114 512.991L33.2794 521.667C33.2794 521.799 33.2374 521.865 33.1534 521.865H31.7314C31.6114 521.865 31.5514 521.799 31.5514 521.667L31.1734 514.647L29.0674 521.667C29.0434 521.799 28.9654 521.865 28.8334 521.865H27.5014C27.4174 521.865 27.3394 521.799 27.2674 521.667L25.2514 514.701L24.8734 521.667C24.8734 521.799 24.8194 521.865 24.7114 521.865H23.3074C23.1994 521.865 23.1454 521.799 23.1454 521.667L23.6854 512.073C23.6854 511.929 23.7454 511.857 23.8654 511.857H24.8914C25.2754 511.857 25.5814 511.917 25.8094 512.037C26.0374 512.157 26.1994 512.391 26.2954 512.739L28.2034 519.255ZM36.261 519.093C36.321 519.573 36.531 519.939 36.891 520.191C37.251 520.443 37.707 520.569 38.259 520.569C38.715 520.569 39.093 520.521 39.393 520.425C39.693 520.329 39.993 520.197 40.293 520.029C40.401 519.957 40.497 519.921 40.581 519.921C40.713 519.921 40.779 520.005 40.779 520.173C40.779 520.425 40.683 520.695 40.491 520.983C40.311 521.271 40.023 521.523 39.627 521.739C39.231 521.943 38.703 522.045 38.043 522.045C37.395 522.045 36.801 521.913 36.261 521.649C35.733 521.373 35.313 520.971 35.001 520.443C34.689 519.903 34.533 519.243 34.533 518.463C34.533 517.779 34.665 517.173 34.929 516.645C35.205 516.117 35.589 515.703 36.081 515.403C36.585 515.103 37.173 514.953 37.845 514.953C38.565 514.953 39.147 515.103 39.591 515.403C40.047 515.691 40.377 516.069 40.581 516.537C40.797 517.005 40.905 517.503 40.905 518.031C40.905 518.211 40.899 518.373 40.887 518.517C40.887 518.649 40.881 518.763 40.869 518.859C40.857 519.015 40.755 519.093 40.563 519.093H36.261ZM36.261 517.851H39.177C39.201 517.647 39.177 517.437 39.105 517.221C39.045 516.993 38.913 516.801 38.709 516.645C38.505 516.489 38.217 516.411 37.845 516.411C37.389 516.411 37.023 516.543 36.747 516.807C36.483 517.059 36.321 517.407 36.261 517.851ZM43.9105 515.979C44.1385 515.667 44.4265 515.421 44.7745 515.241C45.1345 515.061 45.5245 514.971 45.9445 514.971C46.7965 514.971 47.4625 515.223 47.9425 515.727C48.4345 516.231 48.6805 516.981 48.6805 517.977V521.667C48.6805 521.799 48.6145 521.865 48.4825 521.865H47.1505C47.0185 521.865 46.9525 521.799 46.9525 521.667V518.193C46.9525 517.605 46.8145 517.185 46.5385 516.933C46.2625 516.681 45.9145 516.555 45.4945 516.555C45.0745 516.555 44.7265 516.687 44.4505 516.951C44.1745 517.203 44.0365 517.629 44.0365 518.229V521.667C44.0365 521.799 43.9645 521.865 43.8205 521.865H42.5065C42.3745 521.865 42.3085 521.799 42.3085 521.667V515.313C42.3085 515.169 42.3745 515.097 42.5065 515.097H42.5965C42.9445 515.097 43.2325 515.175 43.4605 515.331C43.6885 515.475 43.8385 515.691 43.9105 515.979ZM53.4201 522.045C52.3281 522.045 51.5361 521.727 51.0441 521.091C50.5521 520.455 50.3061 519.621 50.3061 518.589V515.313C50.3061 515.169 50.3661 515.097 50.4861 515.097H50.5761C51.0441 515.097 51.4041 515.217 51.6561 515.457C51.9081 515.697 52.0341 516.087 52.0341 516.627V518.805C52.0341 519.381 52.1661 519.801 52.4301 520.065C52.6941 520.329 53.0241 520.461 53.4201 520.461C53.8281 520.461 54.1701 520.341 54.4461 520.101C54.7221 519.849 54.8601 519.423 54.8601 518.823V515.313C54.8601 515.169 54.9261 515.097 55.0581 515.097H55.1481C55.6161 515.097 55.9701 515.217 56.2101 515.457C56.4621 515.697 56.5881 516.087 56.5881 516.627V518.697C56.5881 519.717 56.3361 520.533 55.8321 521.145C55.3281 521.745 54.5241 522.045 53.4201 522.045Z" fill="#4F4F4F"/>
<path d="M14.1562 406.279C13.5682 406.279 13.1002 406.099 12.7522 405.739C12.4042 405.379 12.2302 404.911 12.2302 404.335C12.2302 403.747 12.3982 403.279 12.7342 402.931C13.0822 402.571 13.5382 402.391 14.1022 402.391C14.7022 402.391 15.1762 402.571 15.5242 402.931C15.8722 403.279 16.0462 403.747 16.0462 404.335C16.0462 404.911 15.8782 405.379 15.5422 405.739C15.2062 406.099 14.7442 406.279 14.1562 406.279ZM27.8974 409.537C26.4094 409.537 25.2574 409.075 24.4414 408.151C23.6254 407.215 23.2174 405.955 23.2174 404.371C23.2174 403.315 23.4034 402.397 23.7754 401.617C24.1474 400.837 24.6814 400.237 25.3774 399.817C26.0854 399.385 26.9254 399.169 27.8974 399.169C28.8814 399.169 29.7154 399.385 30.3994 399.817C31.0954 400.237 31.6294 400.837 32.0014 401.617C32.3734 402.397 32.5594 403.315 32.5594 404.371C32.5594 405.955 32.1514 407.215 31.3354 408.151C30.5314 409.075 29.3854 409.537 27.8974 409.537ZM27.8974 407.863C28.4134 407.863 28.8874 407.761 29.3194 407.557C29.7514 407.341 30.0994 406.981 30.3634 406.477C30.6274 405.961 30.7594 405.259 30.7594 404.371C30.7594 403.483 30.6274 402.781 30.3634 402.265C30.0994 401.749 29.7454 401.383 29.3014 401.167C28.8694 400.951 28.4014 400.843 27.8974 400.843C27.3814 400.843 26.9014 400.951 26.4574 401.167C26.0254 401.383 25.6774 401.749 25.4134 402.265C25.1494 402.781 25.0174 403.483 25.0174 404.371C25.0174 405.259 25.1494 405.961 25.4134 406.477C25.6774 406.981 26.0254 407.341 26.4574 407.557C26.9014 407.761 27.3814 407.863 27.8974 407.863ZM37.2482 409.537C36.1562 409.537 35.3642 409.219 34.8722 408.583C34.3802 407.947 34.1342 407.113 34.1342 406.081V402.805C34.1342 402.661 34.1942 402.589 34.3142 402.589H34.4042C34.8722 402.589 35.2322 402.709 35.4842 402.949C35.7362 403.189 35.8622 403.579 35.8622 404.119V406.297C35.8622 406.873 35.9942 407.293 36.2582 407.557C36.5222 407.821 36.8522 407.953 37.2482 407.953C37.6562 407.953 37.9982 407.833 38.2742 407.593C38.5502 407.341 38.6882 406.915 38.6882 406.315V402.805C38.6882 402.661 38.7542 402.589 38.8862 402.589H38.9762C39.4442 402.589 39.7982 402.709 40.0382 402.949C40.2902 403.189 40.4162 403.579 40.4162 404.119V406.189C40.4162 407.209 40.1642 408.025 39.6602 408.637C39.1562 409.237 38.3522 409.537 37.2482 409.537ZM42.8895 404.155H41.7015C41.5695 404.155 41.5035 404.083 41.5035 403.939V402.805C41.5035 402.661 41.5695 402.589 41.7015 402.589H42.8895V400.411C42.8895 400.279 42.9495 400.213 43.0695 400.213H43.1595C43.6275 400.213 43.9815 400.333 44.2215 400.573C44.4735 400.813 44.5995 401.197 44.5995 401.725V402.589H46.0575C46.1655 402.589 46.2195 402.661 46.2195 402.805V403.939C46.2195 404.083 46.1655 404.155 46.0575 404.155H44.5995V409.159C44.5995 409.291 44.5395 409.357 44.4195 409.357H43.0695C42.9495 409.357 42.8895 409.291 42.8895 409.159V404.155ZM49.0793 403.579C49.2833 403.195 49.5293 402.937 49.8173 402.805C50.1053 402.661 50.4953 402.589 50.9873 402.589H51.1853C51.3053 402.589 51.3653 402.661 51.3653 402.805V404.029C51.3653 404.173 51.3053 404.245 51.1853 404.245H50.7173C50.0573 404.245 49.6253 404.413 49.4213 404.749C49.2293 405.073 49.1333 405.553 49.1333 406.189V409.159C49.1333 409.291 49.0733 409.357 48.9533 409.357H47.6033C47.4953 409.357 47.4413 409.291 47.4413 409.159V402.805C47.4413 402.661 47.4953 402.589 47.6033 402.589H47.6933C48.4733 402.589 48.9353 402.919 49.0793 403.579ZM55.7258 409.537C54.6698 409.537 53.8238 409.213 53.1878 408.565C52.5638 407.917 52.2518 407.053 52.2518 405.973C52.2518 404.905 52.5638 404.053 53.1878 403.417C53.8118 402.769 54.6518 402.445 55.7078 402.445C56.7638 402.445 57.6038 402.769 58.2278 403.417C58.8518 404.053 59.1638 404.905 59.1638 405.973C59.1638 407.041 58.8578 407.905 58.2458 408.565C57.6338 409.213 56.7938 409.537 55.7258 409.537ZM55.7078 407.899C56.1638 407.899 56.5598 407.755 56.8958 407.467C57.2318 407.167 57.3998 406.681 57.3998 406.009C57.3998 405.337 57.2318 404.845 56.8958 404.533C56.5598 404.221 56.1638 404.065 55.7078 404.065C55.2398 404.065 54.8378 404.221 54.5018 404.533C54.1778 404.833 54.0158 405.319 54.0158 405.991C54.0158 406.663 54.1778 407.149 54.5018 407.449C54.8378 407.749 55.2398 407.899 55.7078 407.899ZM60.3926 407.395C60.6686 407.623 60.9566 407.803 61.2566 407.935C61.5686 408.067 61.9406 408.133 62.3726 408.133C63.1046 408.133 63.4706 407.899 63.4706 407.431C63.4706 407.227 63.3566 407.065 63.1286 406.945C62.9126 406.825 62.6426 406.711 62.3186 406.603C62.0066 406.495 61.6886 406.363 61.3646 406.207C61.0406 406.051 60.7646 405.847 60.5366 405.595C60.3206 405.331 60.2126 404.977 60.2126 404.533C60.2126 404.041 60.3326 403.645 60.5726 403.345C60.8246 403.033 61.1486 402.805 61.5446 402.661C61.9526 402.517 62.3846 402.445 62.8406 402.445C63.4046 402.445 63.8726 402.535 64.2446 402.715C64.5566 402.847 64.7606 403.009 64.8566 403.201C64.9526 403.381 64.9526 403.639 64.8566 403.975L64.8026 404.173C64.7666 404.269 64.7186 404.317 64.6586 404.317C64.6226 404.317 64.5926 404.311 64.5686 404.299C64.5446 404.275 64.5086 404.257 64.4606 404.245C63.8966 403.969 63.3446 403.831 62.8046 403.831C62.5646 403.831 62.3606 403.879 62.1926 403.975C62.0246 404.071 61.9406 404.221 61.9406 404.425C61.9406 404.629 62.0486 404.797 62.2646 404.929C62.4926 405.049 62.7626 405.163 63.0746 405.271C63.3986 405.379 63.7226 405.511 64.0466 405.667C64.3706 405.823 64.6406 406.027 64.8566 406.279C65.0846 406.531 65.1986 406.867 65.1986 407.287C65.1986 407.959 64.9586 408.505 64.4786 408.925C63.9986 409.333 63.3626 409.537 62.5706 409.537C62.0666 409.537 61.6226 409.453 61.2386 409.285C60.8666 409.105 60.5726 408.871 60.3566 408.583C60.1406 408.295 60.0326 407.995 60.0326 407.683C60.0326 407.443 60.1046 407.323 60.2486 407.323C60.2966 407.323 60.3446 407.347 60.3926 407.395Z" fill="#4F4F4F"/>
<path d="M14.1562 255.541C13.5682 255.541 13.1002 255.361 12.7522 255.001C12.4042 254.641 12.2302 254.173 12.2302 253.597C12.2302 253.009 12.3982 252.541 12.7342 252.193C13.0822 251.833 13.5382 251.653 14.1022 251.653C14.7022 251.653 15.1762 251.833 15.5242 252.193C15.8722 252.541 16.0462 253.009 16.0462 253.597C16.0462 254.173 15.8782 254.641 15.5422 255.001C15.2062 255.361 14.7442 255.541 14.1562 255.541ZM27.8974 258.799C26.4094 258.799 25.2574 258.337 24.4414 257.413C23.6254 256.477 23.2174 255.217 23.2174 253.633C23.2174 252.577 23.4034 251.659 23.7754 250.879C24.1474 250.099 24.6814 249.499 25.3774 249.079C26.0854 248.647 26.9254 248.431 27.8974 248.431C28.8814 248.431 29.7154 248.647 30.3994 249.079C31.0954 249.499 31.6294 250.099 32.0014 250.879C32.3734 251.659 32.5594 252.577 32.5594 253.633C32.5594 255.217 32.1514 256.477 31.3354 257.413C30.5314 258.337 29.3854 258.799 27.8974 258.799ZM27.8974 257.125C28.4134 257.125 28.8874 257.023 29.3194 256.819C29.7514 256.603 30.0994 256.243 30.3634 255.739C30.6274 255.223 30.7594 254.521 30.7594 253.633C30.7594 252.745 30.6274 252.043 30.3634 251.527C30.0994 251.011 29.7454 250.645 29.3014 250.429C28.8694 250.213 28.4014 250.105 27.8974 250.105C27.3814 250.105 26.9014 250.213 26.4574 250.429C26.0254 250.645 25.6774 251.011 25.4134 251.527C25.1494 252.043 25.0174 252.745 25.0174 253.633C25.0174 254.521 25.1494 255.223 25.4134 255.739C25.6774 256.243 26.0254 256.603 26.4574 256.819C26.9014 257.023 27.3814 257.125 27.8974 257.125ZM35.8069 252.733C36.0349 252.421 36.3229 252.175 36.6709 251.995C37.0309 251.815 37.4209 251.725 37.8409 251.725C38.6929 251.725 39.3589 251.977 39.8389 252.481C40.3309 252.985 40.5769 253.735 40.5769 254.731V258.421C40.5769 258.553 40.5109 258.619 40.3789 258.619H39.0469C38.9149 258.619 38.8489 258.553 38.8489 258.421V254.947C38.8489 254.359 38.7109 253.939 38.4349 253.687C38.1589 253.435 37.8109 253.309 37.3909 253.309C36.9709 253.309 36.6229 253.441 36.3469 253.705C36.0709 253.957 35.9329 254.383 35.9329 254.983V258.421C35.9329 258.553 35.8609 258.619 35.7169 258.619H34.4029C34.2709 258.619 34.2049 258.553 34.2049 258.421V252.067C34.2049 251.923 34.2709 251.851 34.4029 251.851H34.4929C34.8409 251.851 35.1289 251.929 35.3569 252.085C35.5849 252.229 35.7349 252.445 35.8069 252.733ZM45.4246 256.891C45.4486 256.879 45.4726 256.861 45.4966 256.837C45.5326 256.813 45.5686 256.801 45.6046 256.801C45.6766 256.801 45.7246 256.831 45.7486 256.891C45.7846 256.939 45.8026 256.993 45.8026 257.053C45.8026 257.293 45.7486 257.551 45.6406 257.827C45.5326 258.091 45.3526 258.313 45.1006 258.493C44.8486 258.673 44.5006 258.763 44.0566 258.763C43.4926 258.763 43.0426 258.577 42.7066 258.205C42.3826 257.833 42.2206 257.257 42.2206 256.477V248.827C42.2206 248.683 42.2806 248.611 42.4006 248.611H42.4906C42.9586 248.611 43.3186 248.731 43.5706 248.971C43.8226 249.199 43.9486 249.583 43.9486 250.123V256.315C43.9486 256.939 44.1706 257.251 44.6146 257.251C44.7946 257.251 44.9446 257.221 45.0646 257.161C45.1846 257.101 45.3046 257.011 45.4246 256.891ZM46.4535 250.087C46.4535 249.799 46.5435 249.565 46.7235 249.385C46.9155 249.193 47.1495 249.097 47.4255 249.097C47.7015 249.097 47.9295 249.193 48.1095 249.385C48.3015 249.565 48.3975 249.799 48.3975 250.087C48.3975 250.363 48.3015 250.597 48.1095 250.789C47.9295 250.981 47.7015 251.077 47.4255 251.077C47.1495 251.077 46.9155 250.981 46.7235 250.789C46.5435 250.597 46.4535 250.363 46.4535 250.087ZM46.7595 258.619C46.6395 258.619 46.5795 258.553 46.5795 258.421V252.067C46.5795 251.923 46.6395 251.851 46.7595 251.851H46.8495C47.3055 251.851 47.6595 251.971 47.9115 252.211C48.1635 252.451 48.2895 252.841 48.2895 253.381V258.421C48.2895 258.553 48.2235 258.619 48.0915 258.619H46.7595ZM51.6097 252.733C51.8377 252.421 52.1257 252.175 52.4737 251.995C52.8337 251.815 53.2237 251.725 53.6437 251.725C54.4957 251.725 55.1617 251.977 55.6417 252.481C56.1337 252.985 56.3797 253.735 56.3797 254.731V258.421C56.3797 258.553 56.3137 258.619 56.1817 258.619H54.8497C54.7177 258.619 54.6517 258.553 54.6517 258.421V254.947C54.6517 254.359 54.5137 253.939 54.2377 253.687C53.9617 253.435 53.6137 253.309 53.1937 253.309C52.7737 253.309 52.4257 253.441 52.1497 253.705C51.8737 253.957 51.7357 254.383 51.7357 254.983V258.421C51.7357 258.553 51.6637 258.619 51.5197 258.619H50.2057C50.0737 258.619 50.0077 258.553 50.0077 258.421V252.067C50.0077 251.923 50.0737 251.851 50.2057 251.851H50.2957C50.6437 251.851 50.9317 251.929 51.1597 252.085C51.3877 252.229 51.5377 252.445 51.6097 252.733ZM59.4993 255.847C59.5593 256.327 59.7693 256.693 60.1293 256.945C60.4893 257.197 60.9453 257.323 61.4973 257.323C61.9533 257.323 62.3313 257.275 62.6313 257.179C62.9313 257.083 63.2313 256.951 63.5313 256.783C63.6393 256.711 63.7353 256.675 63.8193 256.675C63.9513 256.675 64.0173 256.759 64.0173 256.927C64.0173 257.179 63.9213 257.449 63.7293 257.737C63.5493 258.025 63.2613 258.277 62.8653 258.493C62.4693 258.697 61.9413 258.799 61.2813 258.799C60.6333 258.799 60.0393 258.667 59.4993 258.403C58.9713 258.127 58.5513 257.725 58.2393 257.197C57.9273 256.657 57.7713 255.997 57.7713 255.217C57.7713 254.533 57.9033 253.927 58.1673 253.399C58.4433 252.871 58.8273 252.457 59.3193 252.157C59.8233 251.857 60.4113 251.707 61.0833 251.707C61.8033 251.707 62.3853 251.857 62.8293 252.157C63.2853 252.445 63.6153 252.823 63.8193 253.291C64.0353 253.759 64.1433 254.257 64.1433 254.785C64.1433 254.965 64.1373 255.127 64.1253 255.271C64.1253 255.403 64.1193 255.517 64.1073 255.613C64.0953 255.769 63.9933 255.847 63.8013 255.847H59.4993ZM59.4993 254.605H62.4153C62.4393 254.401 62.4153 254.191 62.3433 253.975C62.2833 253.747 62.1513 253.555 61.9473 253.399C61.7433 253.243 61.4553 253.165 61.0833 253.165C60.6273 253.165 60.2613 253.297 59.9853 253.561C59.7213 253.813 59.5593 254.161 59.4993 254.605Z" fill="#4F4F4F"/>
<path d="M14.1562 108.079C13.5682 108.079 13.1002 107.899 12.7522 107.539C12.4042 107.179 12.2302 106.711 12.2302 106.135C12.2302 105.547 12.3982 105.079 12.7342 104.731C13.0822 104.371 13.5382 104.191 14.1022 104.191C14.7022 104.191 15.1762 104.371 15.5242 104.731C15.8722 105.079 16.0462 105.547 16.0462 106.135C16.0462 106.711 15.8782 107.179 15.5422 107.539C15.2062 107.899 14.7442 108.079 14.1562 108.079ZM30.0754 109.051V107.287H28.6894C27.9934 107.287 27.6454 106.951 27.6454 106.279V105.955C27.6454 105.775 27.7234 105.685 27.8794 105.685H31.5334C31.6654 105.685 31.7314 105.763 31.7314 105.919V109.447C31.7314 109.615 31.7074 109.753 31.6594 109.861C31.6114 109.957 31.5154 110.065 31.3714 110.185C30.8674 110.581 30.3514 110.875 29.8234 111.067C29.2954 111.247 28.7014 111.337 28.0414 111.337C27.1534 111.337 26.3434 111.157 25.6114 110.797C24.8794 110.437 24.2974 109.873 23.8654 109.105C23.4334 108.337 23.2174 107.347 23.2174 106.135C23.2174 105.067 23.4154 104.149 23.8114 103.381C24.2074 102.601 24.7714 102.007 25.5034 101.599C26.2474 101.179 27.1234 100.969 28.1314 100.969C28.6354 100.969 29.0794 101.011 29.4634 101.095C29.8594 101.167 30.2254 101.269 30.5614 101.401C30.9214 101.533 31.1554 101.701 31.2634 101.905C31.3714 102.109 31.3774 102.379 31.2814 102.715L31.1914 103.129C31.1554 103.285 31.0894 103.363 30.9934 103.363C30.9574 103.363 30.9154 103.351 30.8674 103.327C30.8194 103.291 30.7654 103.267 30.7054 103.255C29.9614 102.847 29.1454 102.643 28.2574 102.643C27.2734 102.643 26.4934 102.931 25.9174 103.507C25.3534 104.071 25.0714 104.977 25.0714 106.225C25.0714 107.317 25.3294 108.169 25.8454 108.781C26.3614 109.381 27.0874 109.681 28.0234 109.681C28.4074 109.681 28.7614 109.633 29.0854 109.537C29.4094 109.441 29.7394 109.279 30.0754 109.051ZM34.8372 108.385C34.8972 108.865 35.1072 109.231 35.4672 109.483C35.8272 109.735 36.2832 109.861 36.8352 109.861C37.2912 109.861 37.6692 109.813 37.9692 109.717C38.2692 109.621 38.5692 109.489 38.8692 109.321C38.9772 109.249 39.0732 109.213 39.1572 109.213C39.2892 109.213 39.3552 109.297 39.3552 109.465C39.3552 109.717 39.2592 109.987 39.0672 110.275C38.8872 110.563 38.5992 110.815 38.2032 111.031C37.8072 111.235 37.2792 111.337 36.6192 111.337C35.9712 111.337 35.3772 111.205 34.8372 110.941C34.3092 110.665 33.8892 110.263 33.5772 109.735C33.2652 109.195 33.1092 108.535 33.1092 107.755C33.1092 107.071 33.2412 106.465 33.5052 105.937C33.7812 105.409 34.1652 104.995 34.6572 104.695C35.1612 104.395 35.7492 104.245 36.4212 104.245C37.1412 104.245 37.7232 104.395 38.1672 104.695C38.6232 104.983 38.9532 105.361 39.1572 105.829C39.3732 106.297 39.4812 106.795 39.4812 107.323C39.4812 107.503 39.4752 107.665 39.4632 107.809C39.4632 107.941 39.4572 108.055 39.4452 108.151C39.4332 108.307 39.3312 108.385 39.1392 108.385H34.8372ZM34.8372 107.143H37.7532C37.7772 106.939 37.7532 106.729 37.6812 106.513C37.6212 106.285 37.4892 106.093 37.2852 105.937C37.0812 105.781 36.7932 105.703 36.4212 105.703C35.9652 105.703 35.5992 105.835 35.3232 106.099C35.0592 106.351 34.8972 106.699 34.8372 107.143ZM42.5226 105.379C42.7266 104.995 42.9726 104.737 43.2606 104.605C43.5486 104.461 43.9386 104.389 44.4306 104.389H44.6286C44.7486 104.389 44.8086 104.461 44.8086 104.605V105.829C44.8086 105.973 44.7486 106.045 44.6286 106.045H44.1606C43.5006 106.045 43.0686 106.213 42.8646 106.549C42.6726 106.873 42.5766 107.353 42.5766 107.989V110.959C42.5766 111.091 42.5166 111.157 42.3966 111.157H41.0466C40.9386 111.157 40.8846 111.091 40.8846 110.959V104.605C40.8846 104.461 40.9386 104.389 41.0466 104.389H41.1366C41.9166 104.389 42.3786 104.719 42.5226 105.379ZM50.8971 110.311C50.6571 110.635 50.3511 110.887 49.9791 111.067C49.6071 111.235 49.2111 111.319 48.7911 111.319C48.1191 111.319 47.5491 111.157 47.0811 110.833C46.6251 110.509 46.2771 110.077 46.0371 109.537C45.8091 108.997 45.6951 108.403 45.6951 107.755C45.6951 107.083 45.8211 106.483 46.0731 105.955C46.3251 105.415 46.6851 104.989 47.1531 104.677C47.6331 104.365 48.1911 104.209 48.8271 104.209C49.3551 104.209 49.7991 104.305 50.1591 104.497C50.5311 104.689 50.8251 104.917 51.0411 105.181C51.1371 104.905 51.2931 104.707 51.5091 104.587C51.7371 104.455 52.0071 104.389 52.3191 104.389H52.4091C52.5411 104.389 52.6071 104.461 52.6071 104.605V110.959C52.6071 111.091 52.5411 111.157 52.4091 111.157H51.0771C50.9571 111.157 50.8971 111.091 50.8971 110.959V110.311ZM49.1691 109.699C49.3971 109.699 49.6431 109.651 49.9071 109.555C50.1831 109.447 50.4171 109.255 50.6091 108.979C50.8011 108.703 50.8971 108.295 50.8971 107.755C50.8971 107.215 50.8011 106.813 50.6091 106.549C50.4171 106.273 50.1891 106.093 49.9251 106.009C49.6611 105.913 49.4151 105.865 49.1871 105.865C48.9471 105.865 48.6891 105.919 48.4131 106.027C48.1491 106.135 47.9211 106.327 47.7291 106.603C47.5491 106.879 47.4591 107.263 47.4591 107.755C47.4591 108.271 47.5551 108.673 47.7471 108.961C47.9511 109.237 48.1851 109.429 48.4491 109.537C48.7131 109.645 48.9531 109.699 49.1691 109.699ZM57.4832 109.429C57.5072 109.417 57.5312 109.399 57.5552 109.375C57.5912 109.351 57.6272 109.339 57.6632 109.339C57.7352 109.339 57.7832 109.369 57.8072 109.429C57.8432 109.477 57.8612 109.531 57.8612 109.591C57.8612 109.831 57.8072 110.089 57.6992 110.365C57.5912 110.629 57.4112 110.851 57.1592 111.031C56.9072 111.211 56.5592 111.301 56.1152 111.301C55.5512 111.301 55.1012 111.115 54.7652 110.743C54.4412 110.371 54.2792 109.795 54.2792 109.015V101.365C54.2792 101.221 54.3392 101.149 54.4592 101.149H54.5492C55.0172 101.149 55.3772 101.269 55.6292 101.509C55.8812 101.737 56.0072 102.121 56.0072 102.661V108.853C56.0072 109.477 56.2292 109.789 56.6732 109.789C56.8532 109.789 57.0032 109.759 57.1232 109.699C57.2432 109.639 57.3632 109.549 57.4832 109.429Z" fill="#4F4F4F"/>
</svg>
