<svg width="16" height="14" viewBox="0 0 16 14" fill="none" xmlns="http://www.w3.org/2000/svg">
<path d="M4.70845 13.675C4.50844 13.8813 4.22975 14 3.93466 14C3.63957 14 3.36088 13.8813 3.16087 13.675L0.27556 10.675C-0.114613 10.2688 -0.0883826 9.63437 0.341135 9.2625C0.770653 8.89062 1.43296 8.91562 1.82314 9.325L2.88545 10.4281V1C2.88545 0.446875 3.35432 0 3.93466 0C4.515 0 4.98386 0.446875 4.98386 1V10.4281L6.04618 9.32187C6.43635 8.91562 7.10194 8.8875 7.52818 9.25937C7.95442 9.63125 7.98393 10.2656 7.59376 10.6719L4.70845 13.6719V13.675ZM9.18068 9C9.18068 8.44687 9.64954 8 10.2299 8H14.4267C14.8497 8 15.2333 8.24375 15.3972 8.61875C15.5612 8.99375 15.4693 9.42188 15.171 9.70938L12.7644 12H14.4267C15.007 12 15.4759 12.4469 15.4759 13C15.4759 13.5531 15.007 14 14.4267 14H10.2299C9.80692 14 9.42331 13.7563 9.25937 13.3813C9.09543 13.0063 9.18724 12.5781 9.4856 12.2906L11.8922 10H10.2299C9.64954 10 9.18068 9.55313 9.18068 9ZM12.3283 0C12.725 0 13.089 0.2125 13.266 0.553125L15.3644 4.55312L15.889 5.55312C16.148 6.04687 15.9382 6.64688 15.4202 6.89375C14.9021 7.14063 14.2726 6.94063 14.0136 6.44688L13.7775 6H10.8791L10.643 6.44688C10.384 6.94063 9.75446 7.14063 9.23642 6.89375C8.71837 6.64688 8.50853 6.04687 8.76755 5.55312L9.29216 4.55312L11.3906 0.553125C11.5676 0.2125 11.9316 0 12.3283 0ZM11.666 4.5H12.9906L12.3283 3.2375L11.666 4.5Z" fill="white"/>
</svg>
