<svg width="16" height="14" viewBox="0 0 16 14" fill="none" xmlns="http://www.w3.org/2000/svg">
<path d="M4.70845 0.324928C4.50844 0.118724 4.22975 0 3.93466 0C3.63957 0 3.36088 0.118724 3.16087 0.324928L0.27556 3.32426C-0.114613 3.73042 -0.0883826 4.36465 0.341135 4.73644C0.770653 5.10823 1.43296 5.08324 1.82314 4.67396L2.88545 3.57108V12.9971C2.88545 13.5501 3.35432 13.9969 3.93466 13.9969C4.515 13.9969 4.98386 13.5501 4.98386 12.9971V3.57108L6.04618 4.67708C6.43635 5.08324 7.10194 5.11136 7.52818 4.73957C7.95442 4.36777 7.98393 3.73354 7.59376 3.32738L4.70845 0.328052V0.324928ZM9.18068 8.99799C9.18068 9.55099 9.64954 9.99777 10.2299 9.99777H11.8922L9.4856 12.291C9.18396 12.5784 9.09543 13.0065 9.25937 13.3814C9.42331 13.7563 9.80364 14 10.2299 14H14.4267C15.007 14 15.4759 13.5532 15.4759 13.0002C15.4759 12.4472 15.007 12.0004 14.4267 12.0004H12.7644L15.171 9.70721C15.4726 9.41977 15.5612 8.99174 15.3972 8.61683C15.2333 8.24191 14.8529 7.99821 14.4267 7.99821H10.2299C9.64954 7.99821 9.18068 8.44499 9.18068 8.99799ZM12.3283 0C11.9316 0 11.5676 0.212453 11.3906 0.553002L9.29216 4.55211L8.76755 5.55189C8.50853 6.04553 8.71837 6.64539 9.23642 6.89221C9.75446 7.13903 10.384 6.93908 10.643 6.44544L10.8791 5.99866H13.7775L14.0136 6.44544C14.2726 6.93908 14.9021 7.13903 15.4202 6.89221C15.9382 6.64539 16.148 6.04553 15.889 5.55189L15.3644 4.55211L13.266 0.553002C13.089 0.212453 12.725 0 12.3283 0ZM11.666 4.499L12.3283 3.23678L12.9906 4.499H11.666Z" fill="white"/>
</svg>
