<svg width="16" height="15" viewBox="0 0 16 15" fill="none" xmlns="http://www.w3.org/2000/svg">
<path d="M4.225 2.85937L3.40937 5.35714H12.5906L11.775 2.85937C11.6344 2.4308 11.2563 2.14286 10.8313 2.14286H5.16875C4.74375 2.14286 4.36562 2.4308 4.225 2.85937ZM1.2375 5.51786L2.3375 2.1529C2.75938 0.863839 3.89375 0 5.16875 0H10.8313C12.1063 0 13.2406 0.863839 13.6625 2.1529L14.7625 5.51786C15.4875 5.83929 16 6.60603 16 7.5V12.3214V13.9286C16 14.5212 15.5531 15 15 15H14C13.4469 15 13 14.5212 13 13.9286V12.3214H3V13.9286C3 14.5212 2.55313 15 2 15H1C0.446875 15 0 14.5212 0 13.9286V12.3214V7.5C0 6.60603 0.5125 5.83929 1.2375 5.51786ZM4 8.57143C4 8.28727 3.89464 8.01475 3.70711 7.81381C3.51957 7.61288 3.26522 7.5 3 7.5C2.73478 7.5 2.48043 7.61288 2.29289 7.81381C2.10536 8.01475 2 8.28727 2 8.57143C2 8.85559 2.10536 9.12811 2.29289 9.32904C2.48043 9.52997 2.73478 9.64286 3 9.64286C3.26522 9.64286 3.51957 9.52997 3.70711 9.32904C3.89464 9.12811 4 8.85559 4 8.57143ZM13 9.64286C13.2652 9.64286 13.5196 9.52997 13.7071 9.32904C13.8946 9.12811 14 8.85559 14 8.57143C14 8.28727 13.8946 8.01475 13.7071 7.81381C13.5196 7.61288 13.2652 7.5 13 7.5C12.7348 7.5 12.4804 7.61288 12.2929 7.81381C12.1054 8.01475 12 8.28727 12 8.57143C12 8.85559 12.1054 9.12811 12.2929 9.32904C12.4804 9.52997 12.7348 9.64286 13 9.64286Z" fill="white"/>
</svg>
