<svg width="16" height="14" viewBox="0 0 16 14" fill="none" xmlns="http://www.w3.org/2000/svg">
<path d="M9.82014 0.0342853C9.39511 -0.0996708 8.95258 0.170975 8.83007 0.635721L5.62982 12.8831C5.50731 13.3479 5.75483 13.8318 6.17986 13.9657C6.60489 14.0997 7.04743 13.829 7.16994 13.3643L10.3702 1.11687C10.4927 0.652123 10.2452 0.168241 9.82014 0.0342853ZM11.8353 3.31758C11.5228 3.6593 11.5228 4.21426 11.8353 4.55599L14.068 7L11.8328 9.44402C11.5203 9.78574 11.5203 10.3407 11.8328 10.6824C12.1453 11.0242 12.6529 11.0242 12.9654 10.6824L15.7656 7.62057C16.0781 7.27885 16.0781 6.72389 15.7656 6.38216L12.9654 3.32031C12.6529 2.97858 12.1453 2.97858 11.8328 3.32031L11.8353 3.31758ZM4.1672 3.31758C3.85468 2.97585 3.34714 2.97585 3.03461 3.31758L0.234393 6.37943C-0.0781311 6.72115 -0.0781311 7.27611 0.234393 7.61784L3.03461 10.6797C3.34714 11.0214 3.85468 11.0214 4.1672 10.6797C4.47973 10.338 4.47973 9.78301 4.1672 9.44128L1.93203 7L4.1672 4.55599C4.47973 4.21426 4.47973 3.6593 4.1672 3.31758Z" fill="white"/>
</svg>
