<svg width="16" height="12" viewBox="0 0 16 12" fill="none" xmlns="http://www.w3.org/2000/svg">
<path d="M7.99861 0C5.75436 0 3.9573 0.985714 2.64908 2.15893C1.34919 3.32143 0.479819 4.71429 0.068744 5.67054C-0.0229147 5.88214 -0.0229147 6.11786 0.068744 6.32946C0.479819 7.28571 1.34919 8.67857 2.64908 9.84107C3.9573 11.0143 5.75436 12 7.99861 12C10.2429 12 12.0399 11.0143 13.3481 9.84107C14.648 8.67589 15.5174 7.28571 15.9313 6.32946C16.0229 6.11786 16.0229 5.88214 15.9313 5.67054C15.5174 4.71429 14.648 3.32143 13.3481 2.15893C12.0399 0.985714 10.2429 0 7.99861 0ZM3.99896 6C3.99896 4.97702 4.42035 3.99594 5.17043 3.27259C5.92051 2.54923 6.93784 2.14286 7.99861 2.14286C9.05939 2.14286 10.0767 2.54923 10.8268 3.27259C11.5769 3.99594 11.9983 4.97702 11.9983 6C11.9983 7.02298 11.5769 8.00406 10.8268 8.72741C10.0767 9.45077 9.05939 9.85714 7.99861 9.85714C6.93784 9.85714 5.92051 9.45077 5.17043 8.72741C4.42035 8.00406 3.99896 7.02298 3.99896 6ZM7.99861 4.28571C7.99861 5.23125 7.20146 6 6.22099 6C6.02378 6 5.83491 5.96786 5.65715 5.91161C5.50438 5.86339 5.32662 5.95446 5.33218 6.10982C5.34051 6.29464 5.36828 6.47946 5.42106 6.66429C5.80158 8.03571 7.26534 8.85 8.68744 8.48304C10.1095 8.11607 10.9539 6.70446 10.5734 5.33304C10.2651 4.22143 9.24573 3.47411 8.11249 3.42857C7.95139 3.42321 7.85696 3.59196 7.90695 3.74196C7.96528 3.91339 7.99861 4.09554 7.99861 4.28571Z" fill="white"/>
</svg>
