<svg width="16" height="14" viewBox="0 0 16 14" fill="none" xmlns="http://www.w3.org/2000/svg">
<path d="M14.6667 0.75C14.6667 0.334375 14.3694 0 14 0C13.6306 0 13.3333 0.334375 13.3333 0.75V1H0.888889C0.397222 1 0 1.44687 0 2V5.5C0 6.05313 0.397222 6.5 0.888889 6.5H1.16667C1.74444 6.5 2.16944 7.1125 2.02778 7.74375L0.916667 12.7563C0.85 13.0563 0.911111 13.3719 1.07778 13.6156C1.24444 13.8594 1.50278 14 1.77778 14H4.44444C4.85278 14 5.20833 13.6875 5.30556 13.2437L6.02778 10H8.93056C9.58889 10 10.175 9.53437 10.3944 8.8375L11.1361 6.5H12C12.2361 6.5 12.4611 6.39375 12.6278 6.20625L13.2583 5.5H15.1111C15.6028 5.5 16 5.05313 16 4.5V2C16 1.44687 15.6028 1 15.1111 1H14.6667V0.75ZM8.92778 8.5H6.36111L6.80556 6.5H9.72222L9.13889 8.33438C9.10833 8.43438 9.02222 8.5 8.93056 8.5H8.92778ZM2.22222 3H12.8889C13.1333 3 13.3333 3.225 13.3333 3.5C13.3333 3.775 13.1333 4 12.8889 4H2.22222C1.97778 4 1.77778 3.775 1.77778 3.5C1.77778 3.225 1.97778 3 2.22222 3Z" fill="white"/>
</svg>
