<svg width="16" height="12" viewBox="0 0 16 12" fill="none" xmlns="http://www.w3.org/2000/svg">
<path d="M1.77778 0C0.797222 0 0 0.896875 0 2V10C0 11.1031 0.797222 12 1.77778 12H14.2222C15.2028 12 16 11.1031 16 10V2C16 0.896875 15.2028 0 14.2222 0H1.77778ZM2.22222 2H3.11111C3.35556 2 3.55556 2.225 3.55556 2.5V3.5C3.55556 3.775 3.35556 4 3.11111 4H2.22222C1.97778 4 1.77778 3.775 1.77778 3.5V2.5C1.77778 2.225 1.97778 2 2.22222 2ZM1.77778 5.5C1.77778 5.225 1.97778 5 2.22222 5H3.11111C3.35556 5 3.55556 5.225 3.55556 5.5V6.5C3.55556 6.775 3.35556 7 3.11111 7H2.22222C1.97778 7 1.77778 6.775 1.77778 6.5V5.5ZM2.22222 8H3.11111C3.35556 8 3.55556 8.225 3.55556 8.5V9.5C3.55556 9.775 3.35556 10 3.11111 10H2.22222C1.97778 10 1.77778 9.775 1.77778 9.5V8.5C1.77778 8.225 1.97778 8 2.22222 8ZM4.44444 2.5C4.44444 2.225 4.64444 2 4.88889 2H5.77778C6.02222 2 6.22222 2.225 6.22222 2.5V3.5C6.22222 3.775 6.02222 4 5.77778 4H4.88889C4.64444 4 4.44444 3.775 4.44444 3.5V2.5ZM4.88889 5H5.77778C6.02222 5 6.22222 5.225 6.22222 5.5V6.5C6.22222 6.775 6.02222 7 5.77778 7H4.88889C4.64444 7 4.44444 6.775 4.44444 6.5V5.5C4.44444 5.225 4.64444 5 4.88889 5ZM4.44444 8.5C4.44444 8.225 4.64444 8 4.88889 8H11.1111C11.3556 8 11.5556 8.225 11.5556 8.5V9.5C11.5556 9.775 11.3556 10 11.1111 10H4.88889C4.64444 10 4.44444 9.775 4.44444 9.5V8.5ZM7.55556 2H8.44444C8.68889 2 8.88889 2.225 8.88889 2.5V3.5C8.88889 3.775 8.68889 4 8.44444 4H7.55556C7.31111 4 7.11111 3.775 7.11111 3.5V2.5C7.11111 2.225 7.31111 2 7.55556 2ZM7.11111 5.5C7.11111 5.225 7.31111 5 7.55556 5H8.44444C8.68889 5 8.88889 5.225 8.88889 5.5V6.5C8.88889 6.775 8.68889 7 8.44444 7H7.55556C7.31111 7 7.11111 6.775 7.11111 6.5V5.5ZM10.2222 2H11.1111C11.3556 2 11.5556 2.225 11.5556 2.5V3.5C11.5556 3.775 11.3556 4 11.1111 4H10.2222C9.97778 4 9.77778 3.775 9.77778 3.5V2.5C9.77778 2.225 9.97778 2 10.2222 2ZM9.77778 5.5C9.77778 5.225 9.97778 5 10.2222 5H11.1111C11.3556 5 11.5556 5.225 11.5556 5.5V6.5C11.5556 6.775 11.3556 7 11.1111 7H10.2222C9.97778 7 9.77778 6.775 9.77778 6.5V5.5ZM12.8889 2H13.7778C14.0222 2 14.2222 2.225 14.2222 2.5V3.5C14.2222 3.775 14.0222 4 13.7778 4H12.8889C12.6444 4 12.4444 3.775 12.4444 3.5V2.5C12.4444 2.225 12.6444 2 12.8889 2ZM12.4444 5.5C12.4444 5.225 12.6444 5 12.8889 5H13.7778C14.0222 5 14.2222 5.225 14.2222 5.5V6.5C14.2222 6.775 14.0222 7 13.7778 7H12.8889C12.6444 7 12.4444 6.775 12.4444 6.5V5.5ZM12.8889 8H13.7778C14.0222 8 14.2222 8.225 14.2222 8.5V9.5C14.2222 9.775 14.0222 10 13.7778 10H12.8889C12.6444 10 12.4444 9.775 12.4444 9.5V8.5C12.4444 8.225 12.6444 8 12.8889 8Z" fill="white"/>
</svg>
