<svg width="15" height="13" viewBox="0 0 15 13" fill="none" xmlns="http://www.w3.org/2000/svg">
<path d="M0 1.08333C0 0.484115 0.478795 0 1.07143 0H13.9286C14.5212 0 15 0.484115 15 1.08333C15 1.68255 14.5212 2.16667 13.9286 2.16667H1.07143C0.478795 2.16667 0 1.68255 0 1.08333ZM0 6.5C0 5.90078 0.478795 5.41667 1.07143 5.41667H13.9286C14.5212 5.41667 15 5.90078 15 6.5C15 7.09922 14.5212 7.58333 13.9286 7.58333H1.07143C0.478795 7.58333 0 7.09922 0 6.5ZM15 11.9167C15 12.5159 14.5212 13 13.9286 13H1.07143C0.478795 13 0 12.5159 0 11.9167C0 11.3174 0.478795 10.8333 1.07143 10.8333H13.9286C14.5212 10.8333 15 11.3174 15 11.9167Z" fill="white"/>
</svg>
