<svg width="16" height="13" viewBox="0 0 16 13" fill="none" xmlns="http://www.w3.org/2000/svg">
<path d="M3.6 0C4.13043 0 4.63914 0.214006 5.01421 0.594939C5.38929 0.975873 5.6 1.49253 5.6 2.03125C5.6 2.56997 5.38929 3.08663 5.01421 3.46756C4.63914 3.84849 4.13043 4.0625 3.6 4.0625C3.06957 4.0625 2.56086 3.84849 2.18579 3.46756C1.81071 3.08663 1.6 2.56997 1.6 2.03125C1.6 1.49253 1.81071 0.975873 2.18579 0.594939C2.56086 0.214006 3.06957 0 3.6 0ZM12.8 0C13.3304 0 13.8391 0.214006 14.2142 0.594939C14.5893 0.975873 14.8 1.49253 14.8 2.03125C14.8 2.56997 14.5893 3.08663 14.2142 3.46756C13.8391 3.84849 13.3304 4.0625 12.8 4.0625C12.2696 4.0625 11.7609 3.84849 11.3858 3.46756C11.0107 3.08663 10.8 2.56997 10.8 2.03125C10.8 1.49253 11.0107 0.975873 11.3858 0.594939C11.7609 0.214006 12.2696 0 12.8 0ZM0 7.58418C0 6.08867 1.195 4.875 2.6675 4.875H3.735C4.1325 4.875 4.51 4.96387 4.85 5.12129C4.8175 5.3041 4.8025 5.49453 4.8025 5.6875C4.8025 6.65742 5.2225 7.52832 5.885 8.125C5.88 8.125 5.875 8.125 5.8675 8.125H0.5325C0.24 8.125 0 7.88125 0 7.58418ZM10.1325 8.125C10.1275 8.125 10.1225 8.125 10.115 8.125C10.78 7.52832 11.1975 6.65742 11.1975 5.6875C11.1975 5.49453 11.18 5.30664 11.15 5.12129C11.49 4.96133 11.8675 4.875 12.265 4.875H13.3325C14.805 4.875 16 6.08867 16 7.58418C16 7.88379 15.76 8.125 15.4675 8.125H10.135H10.1325ZM5.6 5.6875C5.6 5.04103 5.85286 4.42105 6.30294 3.96393C6.75303 3.50681 7.36348 3.25 8 3.25C8.63652 3.25 9.24697 3.50681 9.69706 3.96393C10.1471 4.42105 10.4 5.04103 10.4 5.6875C10.4 6.33397 10.1471 6.95395 9.69706 7.41107C9.24697 7.86819 8.63652 8.125 8 8.125C7.36348 8.125 6.75303 7.86819 6.30294 7.41107C5.85286 6.95395 5.6 6.33397 5.6 5.6875ZM3.2 12.3221C3.2 10.4533 4.6925 8.9375 6.5325 8.9375H9.465C11.3075 8.9375 12.8 10.4533 12.8 12.3221C12.8 12.6953 12.5025 13 12.1325 13H3.865C3.4975 13 3.1975 12.6979 3.1975 12.3221H3.2Z" fill="white"/>
</svg>
